<svg width="795" height="589" viewBox="0 0 795 589" fill="none" xmlns="http://www.w3.org/2000/svg">
  <g opacity="0.3">
    <path d="M0 526.721L51.8673 558.467L59.0214 485.138L0 526.721Z" fill="#578FED" />
    <path d="M59.0214 485.138L51.8673 558.467L82.2721 576.353L59.0214 485.138Z" fill="#6B79F2" />
    <path d="M98.3684 429.693L69.752 463.675L147.553 469.935L98.3684 429.693Z" fill="#539FEC" />
    <path d="M69.752 463.675L59.0214 485.138L147.553 469.935L69.752 463.675Z" fill="#5BA0EC" />
    <path d="M82.2721 576.353L121.619 588.872L171.698 535.216L82.2721 576.353Z" fill="#5D73F0" fill-opacity="0.972549" />
    <path d="M147.553 469.935L82.2721 576.353L171.698 535.216L147.553 469.935Z" fill="#6E6BF4" />
    <path d="M59.0214 485.138L82.2721 576.353L147.553 469.935L59.0214 485.138Z" fill="#6792F1" />
    <path d="M98.3684 429.693L147.553 469.935L183.324 418.068L98.3684 429.693Z" fill="#73A9F0" />
    <path d="M160.968 363.518L98.3684 429.693L183.324 418.068L160.968 363.518Z" fill="#76B2F1" />
    <path d="M147.553 469.935L171.698 535.216L198.526 510.177L147.553 469.935Z" fill="#616CF0" />
    <path d="M183.324 418.068L147.553 469.935L219.988 474.407L183.324 418.068Z" fill="#8275F5" />
    <path d="M147.553 469.935L198.526 510.177L219.988 474.407L147.553 469.935Z" fill="#616DF0" />
    <path d="M183.324 418.068L219.988 474.407L252.182 440.425L183.324 418.068Z" fill="#6F61F3" />
    <path d="M246.817 261.572L214.623 300.92L251.288 287.506L246.817 261.572Z" fill="#6E9FF1" />
    <path d="M178.852 336.69L160.968 363.518L183.324 418.068L178.852 336.69Z" fill="#77B1F2" />
    <path d="M183.324 418.068L252.182 440.425L277.222 406.443L183.324 418.068Z" fill="#7460F4" />
    <path d="M178.854 336.69L183.324 418.068L277.222 406.443L178.854 336.69Z" fill="#7E9DF3" />
    <path d="M214.623 300.92L178.854 336.69L277.222 406.443L214.623 300.92Z" fill="#89B0F5" />
    <path d="M214.623 300.92L277.222 406.443L300.472 383.192L214.623 300.92Z" fill="#8177F6" />
    <path d="M246.817 261.572L251.288 287.506L284.376 243.687L246.817 261.572Z" fill="#739BF1" />
    <path d="M251.288 287.506L214.623 300.92L300.472 383.192L251.288 287.506Z" fill="#8AA9F5" />
    <path d="M284.376 243.687L251.288 287.506L352.339 280.352L284.376 243.687Z" fill="#8293F4" />
    <path d="M317.463 229.826L284.376 243.687L352.339 280.352L317.463 229.826Z" fill="#7881F3" />
    <path d="M251.288 287.506L300.472 383.192L352.339 280.352L251.288 287.506Z" fill="#7085F2" />
    <path d="M334.455 417.174L368.437 451.156L385.428 400.183L334.455 417.174Z" fill="#5556EF" />
    <path d="M300.472 383.192L334.455 417.174L385.428 400.183L300.472 383.192Z" fill="#5360EE" />
    <path d="M352.34 280.352L300.472 383.192L407.784 324.17L352.34 280.352Z" fill="#90A0F7" />
    <path d="M300.472 383.192L385.428 400.183L407.784 324.17L300.472 383.192Z" fill="#8896F5" />
    <path d="M407.784 324.17L385.428 400.183L441.766 347.421L407.784 324.17Z" fill="#A28DFA" />
    <path d="M385.427 400.183L368.436 451.156H450.708L385.427 400.183Z" fill="#7A6AF5" />
    <path d="M450.708 451.156H368.436L456.073 501.234L450.708 451.156Z" fill="#8D71F8" />
    <path d="M441.766 347.421L385.428 400.183L486.479 391.24L441.766 347.421Z" fill="#B699FB" />
    <path d="M385.428 400.183L450.709 451.156L486.479 391.24L385.428 400.183Z" fill="#AA8BFA" />
    <path d="M472.171 311.651L441.766 347.421L486.479 391.24L472.171 311.651Z" fill="#A189F9" />
    <path d="M486.479 391.24L450.709 451.156L551.761 446.684L486.479 391.24Z" fill="#965FFA" />
    <path d="M531.191 232.956L491.844 288.4L554.442 268.726L531.191 232.956Z" fill="#B291FB" />
    <path d="M450.709 451.156L456.075 501.235L479.325 536.558L551.761 446.684L450.709 451.156Z" fill="#925FFB" />
    <path d="M486.479 391.24L551.761 446.684L568.753 393.923L486.479 391.24Z" fill="#954DFC" />
    <path d="M543.713 217.753L531.193 232.956L554.444 268.726L543.713 217.753Z" fill="#B591FB" />
    <path d="M554.443 268.726L568.751 393.923L587.531 383.192L554.443 268.726Z" fill="#AB60FD" />
    <path d="M554.443 268.726L491.844 288.4L568.751 393.923L554.443 268.726Z" fill="#AA95FA" />
    <path d="M472.172 311.651L486.479 391.24L568.753 393.923L472.172 311.651Z" fill="#B6A0FA" />
    <path d="M491.846 288.4L472.172 311.651L568.753 393.923L491.846 288.4Z" fill="#9291F6" />
    <path d="M543.713 217.753L554.444 268.726L559.81 204.339L543.713 217.753Z" fill="#B591FB" />
    <path d="M485.139 131.01L577.695 175.723L583.955 81.8251L485.139 131.01Z" fill="#838DF5" />
    <path d="M577.694 175.723L559.809 204.339L644.764 208.81L577.694 175.723Z" fill="#9D85F9" />
    <path d="M559.81 204.339L554.443 268.726L644.764 208.81L559.81 204.339Z" fill="#968CF8" />
    <path d="M644.764 208.81L554.443 268.726L655.495 264.255L644.764 208.81Z" fill="#C590FE" />
    <path d="M554.443 268.726L587.531 383.192L655.495 264.255L554.443 268.726Z" fill="#B871FE" />
    <path d="M663.544 39.7947L633.139 57.68L685.006 78.248L663.544 39.7947Z" fill="#A879FB" />
    <path d="M577.694 175.723L644.764 208.81L685.006 78.248L577.694 175.723Z" fill="#8079F6" />
    <path d="M583.953 81.8251L577.694 175.723L685.006 78.248L583.953 81.8251Z" fill="#94A8F7" />
    <path d="M633.138 57.68L583.953 81.8251L685.005 78.248L633.138 57.68Z" fill="#A883FB" />
    <path d="M644.764 208.81L655.495 264.255L689.477 244.134L644.764 208.81Z" fill="#A94AFF" />
    <path d="M663.544 39.7947L685.006 78.248L736.873 16.5439L663.544 39.7947Z" fill="#967AF9" />
    <path d="M644.764 208.81L689.477 244.134L745.815 200.762L644.764 208.81Z" fill="#9068FA" />
    <path d="M689.477 244.134L714.516 255.312L745.815 200.762L689.477 244.134Z" fill="#AF57FF" />
    <path d="M714.516 255.312L752.522 292.424V249.052L714.516 255.312Z" fill="#AC53FF" />
    <path d="M745.815 200.762L714.516 255.312L752.969 249.052L745.815 200.762Z" fill="#AF5CFF" />
    <path d="M768.172 124.303L685.006 78.248L763.701 148.895L768.172 124.303Z" fill="#C381FF" />
    <path d="M685.006 78.248L644.764 208.81L763.701 148.895L685.006 78.248Z" fill="#C88BFF" />
    <path d="M644.764 208.81L745.815 200.762L763.701 148.895L644.764 208.81Z" fill="#C78FFE" />
    <path d="M736.873 16.5439L685.006 78.248L786.058 75.5653L736.873 16.5439Z" fill="#897BF6" />
    <path d="M795 0L736.873 16.5439L786.058 75.5653L795 0Z" fill="#9D5BFC" />
    <path d="M685.006 78.248L768.172 124.303L786.058 75.5653L685.006 78.248Z" fill="#C58AFF" />
  </g>
</svg>