<svg width="1608" height="800" viewBox="0 0 1608 800" fill="none" xmlns="http://www.w3.org/2000/svg">
  <g opacity="0.15">
    <path d="M499.461 585.648L481.739 603.158L537.733 658.484L623.065 574.171L605.343 556.661L537.733 623.464L499.461 585.648Z" stroke="url(#paint0_linear_487_853)" stroke-width="3" />
    <path d="M1088.62 585.648L1070.9 603.158L1126.89 658.484L1212.23 574.171L1194.5 556.661L1126.89 623.464L1088.62 585.648Z" stroke="url(#paint1_linear_487_853)" stroke-width="3" />
    <path d="M413.197 308.615L395.476 326.125L451.47 381.451L536.801 297.138L519.079 279.628L451.47 346.431L413.197 308.615Z" stroke="url(#paint2_linear_487_853)" stroke-width="3" />
    <path d="M1002.36 308.615L984.637 326.125L1040.63 381.451L1125.96 297.138L1108.24 279.628L1040.63 346.431L1002.36 308.615Z" stroke="url(#paint3_linear_487_853)" stroke-width="3" />
    <path d="M444.399 724.164L426.677 741.674L482.671 797L568.003 712.687L550.281 695.177L482.671 761.98L444.399 724.164Z" stroke="url(#paint4_linear_487_853)" stroke-width="3" />
    <path d="M1033.56 724.164L1015.84 741.674L1071.83 797L1157.16 712.687L1139.44 695.177L1071.83 761.98L1033.56 724.164Z" stroke="url(#paint5_linear_487_853)" stroke-width="3" />
    <path d="M358.135 447.131L340.414 464.642L396.408 519.967L481.739 435.654L464.018 418.144L396.408 484.947L358.135 447.131Z" stroke="url(#paint6_linear_487_853)" stroke-width="3" />
    <path d="M947.297 447.131L929.575 464.642L985.569 519.967L1070.9 435.654L1053.18 418.144L985.569 484.947L947.297 447.131Z" stroke="url(#paint7_linear_487_853)" stroke-width="3" />
    <path d="M106.686 585.648L88.9648 603.158L144.959 658.484L230.29 574.171L212.569 556.661L144.959 623.464L106.686 585.648Z" stroke="url(#paint8_linear_487_853)" stroke-width="3" />
    <path d="M695.848 585.648L678.126 603.158L734.12 658.484L819.452 574.171L801.73 556.661L734.12 623.464L695.848 585.648Z" stroke="url(#paint9_linear_487_853)" stroke-width="3" />
    <path d="M1285.01 585.648L1267.29 603.158L1323.28 658.484L1408.61 574.171L1390.89 556.661L1323.28 623.464L1285.01 585.648Z" stroke="url(#paint10_linear_487_853)" stroke-width="3" />
    <path d="M20.4227 308.615L2.70117 326.125L58.6953 381.451L144.027 297.138L126.305 279.628L58.6953 346.431L20.4227 308.615Z" stroke="url(#paint11_linear_487_853)" stroke-width="3" />
    <path d="M609.584 308.615L591.863 326.125L647.857 381.451L733.188 297.138L715.467 279.628L647.857 346.431L609.584 308.615Z" stroke="url(#paint12_linear_487_853)" stroke-width="3" />
    <path d="M1198.75 308.615L1181.02 326.125L1237.02 381.451L1322.35 297.138L1304.63 279.628L1237.02 346.431L1198.75 308.615Z" stroke="url(#paint13_linear_487_853)" stroke-width="3" />
    <path d="M51.6244 724.164L33.9029 741.674L89.8969 797L175.228 712.687L157.507 695.177L89.8969 761.98L51.6244 724.164Z" stroke="url(#paint14_linear_487_853)" stroke-width="3" />
    <path d="M640.786 724.164L623.065 741.674L679.059 797L764.39 712.687L746.668 695.177L679.059 761.98L640.786 724.164Z" stroke="url(#paint15_linear_487_853)" stroke-width="3" />
    <path d="M1229.95 724.164L1212.23 741.674L1268.22 797L1353.55 712.687L1335.83 695.177L1268.22 761.98L1229.95 724.164Z" stroke="url(#paint16_linear_487_853)" stroke-width="3" />
    <path d="M554.523 447.131L536.801 464.642L592.795 519.967L678.126 435.654L660.405 418.144L592.795 484.947L554.523 447.131Z" stroke="url(#paint17_linear_487_853)" stroke-width="3" />
    <path d="M1143.68 447.131L1125.96 464.642L1181.96 519.967L1267.29 435.654L1249.57 418.144L1181.96 484.947L1143.68 447.131Z" stroke="url(#paint18_linear_487_853)" stroke-width="3" />
    <path d="M303.073 585.648L285.352 603.158L341.346 658.484L426.677 574.171L408.956 556.661L341.346 623.464L303.073 585.648Z" stroke="url(#paint19_linear_487_853)" stroke-width="3" />
    <path d="M892.235 585.648L874.514 603.158L930.508 658.484L1015.84 574.171L998.117 556.661L930.508 623.464L892.235 585.648Z" stroke="url(#paint20_linear_487_853)" stroke-width="3" />
    <path d="M1481.4 585.648L1463.68 603.158L1519.67 658.484L1605 574.171L1587.28 556.661L1519.67 623.464L1481.4 585.648Z" stroke="url(#paint21_linear_487_853)" stroke-width="3" />
    <path d="M216.81 308.615L199.088 326.125L255.082 381.451L340.414 297.138L322.692 279.628L255.082 346.431L216.81 308.615Z" stroke="url(#paint22_linear_487_853)" stroke-width="3" />
    <path d="M805.972 308.615L788.25 326.125L844.244 381.451L929.575 297.138L911.854 279.628L844.244 346.431L805.972 308.615Z" stroke="url(#paint23_linear_487_853)" stroke-width="3" />
    <path d="M1395.13 308.615L1377.41 326.125L1433.41 381.451L1518.74 297.138L1501.02 279.628L1433.41 346.431L1395.13 308.615Z" stroke="url(#paint24_linear_487_853)" stroke-width="3" />
    <path d="M248.012 724.164L230.29 741.674L286.284 797L371.615 712.687L353.894 695.177L286.284 761.98L248.012 724.164Z" stroke="url(#paint25_linear_487_853)" stroke-width="3" />
    <path d="M837.173 724.164L819.452 741.674L875.446 797L960.777 712.687L943.056 695.177L875.446 761.98L837.173 724.164Z" stroke="url(#paint26_linear_487_853)" stroke-width="3" />
    <path d="M1426.34 724.164L1408.61 741.674L1464.61 797L1549.94 712.687L1532.22 695.177L1464.61 761.98L1426.34 724.164Z" stroke="url(#paint27_linear_487_853)" stroke-width="3" />
    <path d="M161.748 447.131L144.027 464.642L200.021 519.967L285.352 435.654L267.63 418.144L200.021 484.947L161.748 447.131Z" stroke="url(#paint28_linear_487_853)" stroke-width="3" />
    <path d="M750.91 447.131L733.188 464.642L789.182 519.967L874.514 435.654L856.792 418.144L789.182 484.947L750.91 447.131Z" stroke="url(#paint29_linear_487_853)" stroke-width="3" />
    <path d="M1340.07 447.131L1322.35 464.642L1378.34 519.967L1463.68 435.654L1445.95 418.144L1378.34 484.947L1340.07 447.131Z" stroke="url(#paint30_linear_487_853)" stroke-width="3" />
    <path d="M468.271 170.503L450.549 188.014L506.543 243.339L591.875 159.026L574.153 141.516L506.543 208.319L468.271 170.503Z" stroke="url(#paint31_linear_487_853)" stroke-width="3" />
    <path d="M1057.43 170.503L1039.71 188.014L1095.71 243.339L1181.04 159.026L1163.31 141.516L1095.71 208.319L1057.43 170.503Z" stroke="url(#paint32_linear_487_853)" stroke-width="3" />
    <path d="M326.946 31.9872L309.224 49.4973L365.218 104.823L450.549 20.5101L432.828 3L365.218 69.8031L326.946 31.9872Z" stroke="url(#paint33_linear_487_853)" stroke-width="3" />
    <path d="M916.107 31.9872L898.386 49.4973L954.38 104.823L1039.71 20.5101L1021.99 3L954.38 69.8031L916.107 31.9872Z" stroke="url(#paint34_linear_487_853)" stroke-width="3" />
    <path d="M75.4966 170.503L57.775 188.014L113.769 243.339L199.1 159.026L181.379 141.516L113.769 208.319L75.4966 170.503Z" stroke="url(#paint35_linear_487_853)" stroke-width="3" />
    <path d="M664.658 170.503L646.937 188.014L702.931 243.339L788.262 159.026L770.541 141.516L702.931 208.319L664.658 170.503Z" stroke="url(#paint36_linear_487_853)" stroke-width="3" />
    <path d="M1253.82 170.503L1236.1 188.014L1292.09 243.339L1377.42 159.026L1359.7 141.516L1292.09 208.319L1253.82 170.503Z" stroke="url(#paint37_linear_487_853)" stroke-width="3" />
    <path d="M523.333 31.9872L505.611 49.4973L561.605 104.823L646.937 20.5101L629.215 3L561.605 69.8031L523.333 31.9872Z" stroke="url(#paint38_linear_487_853)" stroke-width="3" />
    <path d="M1112.49 31.9872L1094.77 49.4973L1150.77 104.823L1236.1 20.5101L1218.38 3L1150.77 69.8031L1112.49 31.9872Z" stroke="url(#paint39_linear_487_853)" stroke-width="3" />
    <path d="M271.884 170.503L254.162 188.014L310.156 243.339L395.488 159.026L377.766 141.516L310.156 208.319L271.884 170.503Z" stroke="url(#paint40_linear_487_853)" stroke-width="3" />
    <path d="M861.045 170.503L843.324 188.014L899.318 243.339L984.649 159.026L966.928 141.516L899.318 208.319L861.045 170.503Z" stroke="url(#paint41_linear_487_853)" stroke-width="3" />
    <path d="M1450.21 170.503L1432.49 188.014L1488.48 243.339L1573.81 159.026L1556.09 141.516L1488.48 208.319L1450.21 170.503Z" stroke="url(#paint42_linear_487_853)" stroke-width="3" />
    <path d="M130.558 31.9872L112.837 49.4973L168.831 104.823L254.162 20.5101L236.441 3L168.831 69.8031L130.558 31.9872Z" stroke="url(#paint43_linear_487_853)" stroke-width="3" />
    <path d="M719.72 31.9872L701.999 49.4973L757.992 104.823L843.324 20.5101L825.602 3L757.992 69.8031L719.72 31.9872Z" stroke="url(#paint44_linear_487_853)" stroke-width="3" />
    <path d="M1308.88 31.9872L1291.16 49.4973L1347.15 104.823L1432.49 20.5101L1414.76 3L1347.15 69.8031L1308.88 31.9872Z" stroke="url(#paint45_linear_487_853)" stroke-width="3" />
  </g>
  <defs>
    <linearGradient id="paint0_linear_487_853" x1="52.3762" y1="340.092" x2="715.467" y2="-0.255514" gradientUnits="userSpaceOnUse">
      <stop stop-color="#2980BA" />
      <stop offset="1" stop-color="#2980BA" stop-opacity="0" />
    </linearGradient>
    <linearGradient id="paint1_linear_487_853" x1="52.3762" y1="340.092" x2="715.467" y2="-0.255514" gradientUnits="userSpaceOnUse">
      <stop stop-color="#2980BA" />
      <stop offset="1" stop-color="#2980BA" stop-opacity="0" />
    </linearGradient>
    <linearGradient id="paint2_linear_487_853" x1="52.3762" y1="340.092" x2="715.467" y2="-0.255514" gradientUnits="userSpaceOnUse">
      <stop stop-color="#2980BA" />
      <stop offset="1" stop-color="#2980BA" stop-opacity="0" />
    </linearGradient>
    <linearGradient id="paint3_linear_487_853" x1="52.3762" y1="340.092" x2="715.467" y2="-0.255514" gradientUnits="userSpaceOnUse">
      <stop stop-color="#2980BA" />
      <stop offset="1" stop-color="#2980BA" stop-opacity="0" />
    </linearGradient>
    <linearGradient id="paint4_linear_487_853" x1="52.3762" y1="340.092" x2="715.467" y2="-0.255514" gradientUnits="userSpaceOnUse">
      <stop stop-color="#2980BA" />
      <stop offset="1" stop-color="#2980BA" stop-opacity="0" />
    </linearGradient>
    <linearGradient id="paint5_linear_487_853" x1="52.3762" y1="340.092" x2="715.467" y2="-0.255514" gradientUnits="userSpaceOnUse">
      <stop stop-color="#2980BA" />
      <stop offset="1" stop-color="#2980BA" stop-opacity="0" />
    </linearGradient>
    <linearGradient id="paint6_linear_487_853" x1="52.3762" y1="340.092" x2="715.467" y2="-0.255514" gradientUnits="userSpaceOnUse">
      <stop stop-color="#2980BA" />
      <stop offset="1" stop-color="#2980BA" stop-opacity="0" />
    </linearGradient>
    <linearGradient id="paint7_linear_487_853" x1="52.3762" y1="340.092" x2="715.467" y2="-0.255514" gradientUnits="userSpaceOnUse">
      <stop stop-color="#2980BA" />
      <stop offset="1" stop-color="#2980BA" stop-opacity="0" />
    </linearGradient>
    <linearGradient id="paint8_linear_487_853" x1="52.3762" y1="340.092" x2="715.467" y2="-0.255514" gradientUnits="userSpaceOnUse">
      <stop stop-color="#2980BA" />
      <stop offset="1" stop-color="#2980BA" stop-opacity="0" />
    </linearGradient>
    <linearGradient id="paint9_linear_487_853" x1="52.3762" y1="340.092" x2="715.467" y2="-0.255514" gradientUnits="userSpaceOnUse">
      <stop stop-color="#2980BA" />
      <stop offset="1" stop-color="#2980BA" stop-opacity="0" />
    </linearGradient>
    <linearGradient id="paint10_linear_487_853" x1="52.3762" y1="340.092" x2="715.467" y2="-0.255514" gradientUnits="userSpaceOnUse">
      <stop stop-color="#2980BA" />
      <stop offset="1" stop-color="#2980BA" stop-opacity="0" />
    </linearGradient>
    <linearGradient id="paint11_linear_487_853" x1="52.3762" y1="340.092" x2="715.467" y2="-0.255514" gradientUnits="userSpaceOnUse">
      <stop stop-color="#2980BA" />
      <stop offset="1" stop-color="#2980BA" stop-opacity="0" />
    </linearGradient>
    <linearGradient id="paint12_linear_487_853" x1="52.3762" y1="340.092" x2="715.467" y2="-0.255514" gradientUnits="userSpaceOnUse">
      <stop stop-color="#2980BA" />
      <stop offset="1" stop-color="#2980BA" stop-opacity="0" />
    </linearGradient>
    <linearGradient id="paint13_linear_487_853" x1="52.3762" y1="340.092" x2="715.467" y2="-0.255514" gradientUnits="userSpaceOnUse">
      <stop stop-color="#2980BA" />
      <stop offset="1" stop-color="#2980BA" stop-opacity="0" />
    </linearGradient>
    <linearGradient id="paint14_linear_487_853" x1="52.3762" y1="340.092" x2="715.467" y2="-0.255514" gradientUnits="userSpaceOnUse">
      <stop stop-color="#2980BA" />
      <stop offset="1" stop-color="#2980BA" stop-opacity="0" />
    </linearGradient>
    <linearGradient id="paint15_linear_487_853" x1="52.3762" y1="340.092" x2="715.467" y2="-0.255514" gradientUnits="userSpaceOnUse">
      <stop stop-color="#2980BA" />
      <stop offset="1" stop-color="#2980BA" stop-opacity="0" />
    </linearGradient>
    <linearGradient id="paint16_linear_487_853" x1="52.3762" y1="340.092" x2="715.467" y2="-0.255514" gradientUnits="userSpaceOnUse">
      <stop stop-color="#2980BA" />
      <stop offset="1" stop-color="#2980BA" stop-opacity="0" />
    </linearGradient>
    <linearGradient id="paint17_linear_487_853" x1="52.3762" y1="340.092" x2="715.467" y2="-0.255514" gradientUnits="userSpaceOnUse">
      <stop stop-color="#2980BA" />
      <stop offset="1" stop-color="#2980BA" stop-opacity="0" />
    </linearGradient>
    <linearGradient id="paint18_linear_487_853" x1="52.3762" y1="340.092" x2="715.467" y2="-0.255514" gradientUnits="userSpaceOnUse">
      <stop stop-color="#2980BA" />
      <stop offset="1" stop-color="#2980BA" stop-opacity="0" />
    </linearGradient>
    <linearGradient id="paint19_linear_487_853" x1="52.3762" y1="340.092" x2="715.467" y2="-0.255514" gradientUnits="userSpaceOnUse">
      <stop stop-color="#2980BA" />
      <stop offset="1" stop-color="#2980BA" stop-opacity="0" />
    </linearGradient>
    <linearGradient id="paint20_linear_487_853" x1="52.3762" y1="340.092" x2="715.467" y2="-0.255514" gradientUnits="userSpaceOnUse">
      <stop stop-color="#2980BA" />
      <stop offset="1" stop-color="#2980BA" stop-opacity="0" />
    </linearGradient>
    <linearGradient id="paint21_linear_487_853" x1="52.3762" y1="340.092" x2="715.467" y2="-0.255514" gradientUnits="userSpaceOnUse">
      <stop stop-color="#2980BA" />
      <stop offset="1" stop-color="#2980BA" stop-opacity="0" />
    </linearGradient>
    <linearGradient id="paint22_linear_487_853" x1="52.3762" y1="340.092" x2="715.467" y2="-0.255514" gradientUnits="userSpaceOnUse">
      <stop stop-color="#2980BA" />
      <stop offset="1" stop-color="#2980BA" stop-opacity="0" />
    </linearGradient>
    <linearGradient id="paint23_linear_487_853" x1="52.3762" y1="340.092" x2="715.467" y2="-0.255514" gradientUnits="userSpaceOnUse">
      <stop stop-color="#2980BA" />
      <stop offset="1" stop-color="#2980BA" stop-opacity="0" />
    </linearGradient>
    <linearGradient id="paint24_linear_487_853" x1="52.3762" y1="340.092" x2="715.467" y2="-0.255514" gradientUnits="userSpaceOnUse">
      <stop stop-color="#2980BA" />
      <stop offset="1" stop-color="#2980BA" stop-opacity="0" />
    </linearGradient>
    <linearGradient id="paint25_linear_487_853" x1="52.3762" y1="340.092" x2="715.467" y2="-0.255514" gradientUnits="userSpaceOnUse">
      <stop stop-color="#2980BA" />
      <stop offset="1" stop-color="#2980BA" stop-opacity="0" />
    </linearGradient>
    <linearGradient id="paint26_linear_487_853" x1="52.3762" y1="340.092" x2="715.467" y2="-0.255514" gradientUnits="userSpaceOnUse">
      <stop stop-color="#2980BA" />
      <stop offset="1" stop-color="#2980BA" stop-opacity="0" />
    </linearGradient>
    <linearGradient id="paint27_linear_487_853" x1="52.3762" y1="340.092" x2="715.467" y2="-0.255514" gradientUnits="userSpaceOnUse">
      <stop stop-color="#2980BA" />
      <stop offset="1" stop-color="#2980BA" stop-opacity="0" />
    </linearGradient>
    <linearGradient id="paint28_linear_487_853" x1="52.3762" y1="340.092" x2="715.467" y2="-0.255514" gradientUnits="userSpaceOnUse">
      <stop stop-color="#2980BA" />
      <stop offset="1" stop-color="#2980BA" stop-opacity="0" />
    </linearGradient>
    <linearGradient id="paint29_linear_487_853" x1="52.3762" y1="340.092" x2="715.467" y2="-0.255514" gradientUnits="userSpaceOnUse">
      <stop stop-color="#2980BA" />
      <stop offset="1" stop-color="#2980BA" stop-opacity="0" />
    </linearGradient>
    <linearGradient id="paint30_linear_487_853" x1="52.3762" y1="340.092" x2="715.467" y2="-0.255514" gradientUnits="userSpaceOnUse">
      <stop stop-color="#2980BA" />
      <stop offset="1" stop-color="#2980BA" stop-opacity="0" />
    </linearGradient>
    <linearGradient id="paint31_linear_487_853" x1="52.3762" y1="340.092" x2="715.467" y2="-0.255514" gradientUnits="userSpaceOnUse">
      <stop stop-color="#2980BA" />
      <stop offset="1" stop-color="#2980BA" stop-opacity="0" />
    </linearGradient>
    <linearGradient id="paint32_linear_487_853" x1="52.3762" y1="340.092" x2="715.467" y2="-0.255514" gradientUnits="userSpaceOnUse">
      <stop stop-color="#2980BA" />
      <stop offset="1" stop-color="#2980BA" stop-opacity="0" />
    </linearGradient>
    <linearGradient id="paint33_linear_487_853" x1="52.3762" y1="340.092" x2="715.467" y2="-0.255514" gradientUnits="userSpaceOnUse">
      <stop stop-color="#2980BA" />
      <stop offset="1" stop-color="#2980BA" stop-opacity="0" />
    </linearGradient>
    <linearGradient id="paint34_linear_487_853" x1="52.3762" y1="340.092" x2="715.467" y2="-0.255514" gradientUnits="userSpaceOnUse">
      <stop stop-color="#2980BA" />
      <stop offset="1" stop-color="#2980BA" stop-opacity="0" />
    </linearGradient>
    <linearGradient id="paint35_linear_487_853" x1="52.3762" y1="340.092" x2="715.467" y2="-0.255514" gradientUnits="userSpaceOnUse">
      <stop stop-color="#2980BA" />
      <stop offset="1" stop-color="#2980BA" stop-opacity="0" />
    </linearGradient>
    <linearGradient id="paint36_linear_487_853" x1="52.3762" y1="340.092" x2="715.467" y2="-0.255514" gradientUnits="userSpaceOnUse">
      <stop stop-color="#2980BA" />
      <stop offset="1" stop-color="#2980BA" stop-opacity="0" />
    </linearGradient>
    <linearGradient id="paint37_linear_487_853" x1="52.3762" y1="340.092" x2="715.467" y2="-0.255514" gradientUnits="userSpaceOnUse">
      <stop stop-color="#2980BA" />
      <stop offset="1" stop-color="#2980BA" stop-opacity="0" />
    </linearGradient>
    <linearGradient id="paint38_linear_487_853" x1="52.3762" y1="340.092" x2="715.467" y2="-0.255514" gradientUnits="userSpaceOnUse">
      <stop stop-color="#2980BA" />
      <stop offset="1" stop-color="#2980BA" stop-opacity="0" />
    </linearGradient>
    <linearGradient id="paint39_linear_487_853" x1="52.3762" y1="340.092" x2="715.467" y2="-0.255514" gradientUnits="userSpaceOnUse">
      <stop stop-color="#2980BA" />
      <stop offset="1" stop-color="#2980BA" stop-opacity="0" />
    </linearGradient>
    <linearGradient id="paint40_linear_487_853" x1="52.3762" y1="340.092" x2="715.467" y2="-0.255514" gradientUnits="userSpaceOnUse">
      <stop stop-color="#2980BA" />
      <stop offset="1" stop-color="#2980BA" stop-opacity="0" />
    </linearGradient>
    <linearGradient id="paint41_linear_487_853" x1="52.3762" y1="340.092" x2="715.467" y2="-0.255514" gradientUnits="userSpaceOnUse">
      <stop stop-color="#2980BA" />
      <stop offset="1" stop-color="#2980BA" stop-opacity="0" />
    </linearGradient>
    <linearGradient id="paint42_linear_487_853" x1="52.3762" y1="340.092" x2="715.467" y2="-0.255514" gradientUnits="userSpaceOnUse">
      <stop stop-color="#2980BA" />
      <stop offset="1" stop-color="#2980BA" stop-opacity="0" />
    </linearGradient>
    <linearGradient id="paint43_linear_487_853" x1="52.3762" y1="340.092" x2="715.467" y2="-0.255514" gradientUnits="userSpaceOnUse">
      <stop stop-color="#2980BA" />
      <stop offset="1" stop-color="#2980BA" stop-opacity="0" />
    </linearGradient>
    <linearGradient id="paint44_linear_487_853" x1="52.3762" y1="340.092" x2="715.467" y2="-0.255514" gradientUnits="userSpaceOnUse">
      <stop stop-color="#2980BA" />
      <stop offset="1" stop-color="#2980BA" stop-opacity="0" />
    </linearGradient>
    <linearGradient id="paint45_linear_487_853" x1="52.3762" y1="340.092" x2="715.467" y2="-0.255514" gradientUnits="userSpaceOnUse">
      <stop stop-color="#2980BA" />
      <stop offset="1" stop-color="#2980BA" stop-opacity="0" />
    </linearGradient>
  </defs>
</svg>