<svg width="24" height="647" viewBox="0 0 24 647" fill="none" xmlns="http://www.w3.org/2000/svg">
  <path fill-rule="evenodd" clip-rule="evenodd" d="M23.547 1.00947e-06L14 20H10L0.452994 0L23.547 1.00947e-06ZM12 27.8125C13.1046 27.8125 14 28.7079 14 29.8125L14 49.6875C14 50.7921 13.1046 51.6875 12 51.6875C10.8954 51.6875 10 50.7921 10 49.6875L10 29.8125C10 28.7079 10.8954 27.8125 12 27.8125ZM12 67.5625C13.1046 67.5625 14 68.4579 14 69.5625L14 89.4375C14 90.5421 13.1046 91.4375 12 91.4375C10.8954 91.4375 10 90.5421 10 89.4375L10 69.5625C10 68.4579 10.8954 67.5625 12 67.5625ZM12 107.312C13.1046 107.312 14 108.208 14 109.312L14 129.188C14 130.292 13.1046 131.188 12 131.188C10.8954 131.188 9.99999 130.292 9.99999 129.188L10 109.312C10 108.208 10.8954 107.312 12 107.312ZM12 147.062C13.1046 147.062 14 147.958 14 149.062L14 168.938C14 170.042 13.1046 170.938 12 170.938C10.8954 170.938 9.99999 170.042 9.99999 168.938L9.99999 149.062C9.99999 147.958 10.8954 147.062 12 147.062ZM12 186.812C13.1046 186.812 14 187.708 14 188.812L14 208.688C14 209.792 13.1046 210.688 12 210.688C10.8954 210.688 9.99999 209.792 9.99999 208.688L9.99999 188.812C9.99999 187.708 10.8954 186.812 12 186.812ZM12 226.562C13.1046 226.562 14 227.458 14 228.562L14 248.438C14 249.542 13.1046 250.438 12 250.438C10.8954 250.438 9.99999 249.542 9.99999 248.438L9.99999 228.562C9.99999 227.458 10.8954 226.562 12 226.562ZM12 266.312C13.1046 266.312 14 267.208 14 268.312L14 288.188C14 289.292 13.1046 290.188 12 290.188C10.8954 290.188 9.99999 289.292 9.99999 288.188L9.99999 268.312C9.99999 267.208 10.8954 266.312 12 266.312ZM12 306.062C13.1046 306.062 14 306.958 14 308.062L14 327.938C14 329.042 13.1046 329.938 12 329.938C10.8954 329.938 9.99999 329.042 9.99999 327.938L9.99999 308.062C9.99999 306.958 10.8954 306.062 12 306.062ZM12 345.812C13.1046 345.812 14 346.708 14 347.812L14 367.688C14 368.792 13.1046 369.688 12 369.688C10.8954 369.688 9.99998 368.792 9.99998 367.688L9.99998 347.812C9.99998 346.708 10.8954 345.812 12 345.812ZM12 385.562C13.1046 385.562 14 386.458 14 387.562L14 407.438C14 408.542 13.1046 409.438 12 409.438C10.8954 409.438 9.99998 408.542 9.99998 407.438L9.99998 387.562C9.99998 386.458 10.8954 385.562 12 385.562ZM12 425.312C13.1046 425.312 14 426.208 14 427.312V447.188C14 448.292 13.1045 449.188 12 449.188C10.8954 449.188 9.99998 448.292 9.99998 447.188V427.312C9.99998 426.208 10.8954 425.312 12 425.312ZM12 465.062C13.1045 465.062 14 465.958 14 467.062L14 486.938C14 488.042 13.1045 488.938 12 488.938C10.8954 488.938 9.99998 488.042 9.99998 486.938L9.99998 467.062C9.99998 465.958 10.8954 465.062 12 465.062ZM12 504.812C13.1045 504.812 14 505.708 14 506.812L14 526.688C14 527.792 13.1045 528.688 12 528.688C10.8954 528.688 9.99998 527.792 9.99998 526.688L9.99998 506.812C9.99998 505.708 10.8954 504.812 12 504.812ZM12 544.562C13.1045 544.562 14 545.458 14 546.562L14 566.438C14 567.542 13.1045 568.438 12 568.438C10.8954 568.438 9.99998 567.542 9.99998 566.438L9.99998 546.562C9.99998 545.458 10.8954 544.562 12 544.562ZM12 584.312C13.1045 584.312 14 585.208 14 586.312L14 606.188C14 607.292 13.1045 608.188 12 608.188C10.8954 608.188 9.99997 607.292 9.99997 606.188L9.99997 586.312C9.99997 585.208 10.8954 584.312 12 584.312ZM10.0784 625.506C5.10452 626.411 1.33331 630.765 1.33331 636C1.33331 641.891 6.10893 646.667 12 646.667C17.891 646.667 22.6666 641.891 22.6666 636C22.6666 630.765 18.8954 626.411 13.9215 625.506C13.6804 624.672 12.9114 624.062 12 624.062C11.0885 624.062 10.3195 624.672 10.0784 625.506Z" fill="#7F4996" />
  <path d="M12 24L0 5.04736e-07L24 2.5367e-06L12 24Z" fill="#7F4996" />
  <path d="M12 224L0 200H24L12 224Z" fill="#7F4996" />
  <path d="M12 524L0 500H24L12 524Z" fill="#7F4996" />
  <path d="M12 124L0 100H24L12 124Z" fill="#7F4996" />
  <path d="M12 424L0 400H24L12 424Z" fill="#7F4996" />
  <path d="M12 324L0 300H24L12 324Z" fill="#7F4996" />
</svg>