<svg width="247" height="167" viewBox="0 0 247 167" fill="none" xmlns="http://www.w3.org/2000/svg">
  <path d="M175.263 9.61117C171.454 11.5202 166.314 13.6858 162.368 15.2468C161.132 15.7362 161.61 15.1666 160.751 15.4915C159.07 16.1285 157.618 16.9694 155.951 17.5775C155.396 17.7782 155.849 17.014 155.272 17.2351C152.115 18.4489 149.278 19.9081 146.138 21.2581C130.685 27.9086 115.71 34.9095 100.608 42.6549C95.6302 45.2072 89.4502 48.0808 84.551 51.1497C83.9783 51.5086 84.5485 51.6896 84.4557 51.7854C83.0002 53.2764 83.1316 52.1677 81.9422 52.7277C77.2159 54.9602 72.2552 57.9744 68.1751 60.8653C66.4421 62.0984 68.6982 61.6564 66.6557 62.4237C66.5147 62.478 66.698 61.7903 66.1898 62.0702C65.0113 62.7203 63.0147 64.1925 62.1436 64.761C61.2865 65.3151 60.8089 65.6346 60.3378 65.9609C59.8837 66.2762 59.4357 66.597 58.6999 67.1256C56.6256 68.6099 54.0155 70.2462 51.901 71.9847C51.445 72.3612 52.3572 72.2724 51.6598 72.9058C50.9679 73.5325 48.9799 75.017 48.2623 75.4382C47.5427 75.8582 47.5859 75.3438 47.4174 75.3658C45.9876 75.5537 44.4009 78.1289 44.13 78.3855C39.2086 82.9434 34.5171 86.2774 30.0107 90.6421C26.593 93.9586 23.2698 97.7725 20.4015 101.215C17.0016 105.306 14.1662 108.847 11.7501 113.355C11.5004 113.828 12.2955 113.542 11.9932 114.122C11.6055 114.872 11.2341 115.627 10.8849 116.376C8.38981 121.681 7.45565 127.378 8.80261 132.91C8.95744 133.543 8.23117 132.885 8.3648 133.535C8.90086 136.351 10.594 140.391 13.0055 142.454C13.9769 143.309 15.0254 143.834 15.9825 143.865C17.922 145.853 20.666 147.95 22.6513 149.647C23.9407 150.738 22.265 150.396 24.1788 151.215C24.6108 151.394 24.3093 150.689 24.939 150.984C27.5865 152.221 30.4648 153.643 33.2864 154.384C33.8585 154.533 33.8462 154.077 34.0278 154.059C34.8802 153.989 35.8267 154.473 36.6115 154.946C37.1972 155.311 37.7024 155.67 37.9028 155.757C41.4834 157.252 44.4068 157.466 48.0415 157.906C48.8921 158.004 47.9483 157.326 48.7694 157.398C52.9905 157.768 57.4149 158.058 61.6175 158.456C62.5518 158.545 61.674 159.002 62.1209 159.07C64.0948 159.357 64.5543 158.449 66.4513 158.688C66.8489 158.737 66.6162 159.148 66.6881 159.196C67.8201 159.936 68.8318 158.934 69.1264 158.916C72.8603 158.661 75.2278 159.733 78.8437 159.593C79.2766 159.575 78.3039 159.046 79.5171 159.027C82.0416 158.987 84.6136 158.969 87.2022 158.98C92.6859 158.994 98.3706 158.436 103.785 157.81C105.009 157.664 104.211 158.203 104.295 158.238C105.688 158.769 106.303 157.613 106.694 157.501C109.76 156.641 112.854 156.838 114.687 155.167C127.535 152.604 139.844 148.127 152.444 144.715C152.815 144.614 153.184 144.514 153.553 144.414C153.717 144.368 153.6 144.945 153.928 144.851C157.869 143.707 156.862 143.236 159.016 141.368C159.552 140.9 161.9 141.185 162.101 141.19C162.835 141.221 162.486 142.177 162.715 142.147C164.62 141.857 163.37 139.709 165.637 138.708C165.709 138.681 165.597 139.229 165.805 139.186C166.453 139.053 166.972 138.62 167.611 138.5C169.08 138.221 170.075 139.089 171.779 137.484C171.988 137.278 171.001 136.211 173.004 135.282C173.814 134.918 177.262 133.08 178.257 132.622C179.262 132.17 178.822 132.93 178.899 132.91C181.774 131.987 180.919 132.746 182.655 132.77C184.399 132.774 182.971 131.171 183.371 130.662C183.777 130.153 185.887 129.446 186.431 129.306C186.974 129.169 186.56 129.766 187.016 129.596C190.035 128.441 187.631 127.972 188.324 127.133C189.936 125.15 192.371 125.384 194.305 124.216C194.826 123.899 194.217 123.895 194.638 123.556C196.306 122.215 197.636 121.848 199.311 120.023C199.589 119.723 200.569 117.791 201.989 117.543C202.192 117.509 202.031 118.132 202.8 117.634C203.273 117.327 203.894 116.89 204.523 116.414C205.42 115.735 206.344 114.967 206.952 114.358C207.72 113.586 206.359 113.896 207.526 113.171C208.043 112.848 207.432 113.859 208.386 113.225C209.339 112.597 211.507 110.673 212.313 109.921C213.119 109.175 212.346 109.218 212.391 109.134C212.666 108.636 214.051 107.038 214.183 106.911C220.945 100.471 227.487 94.6634 232.626 87.1174C233.026 86.5233 232.331 86.614 232.388 86.5203C233.291 84.9632 233.53 85.8371 234.145 85.9387C234.362 85.9723 234.626 85.9061 234.973 85.602C233.969 85.2253 234.704 84.5045 235.515 82.9851C235.899 82.2552 235.319 82.4282 235.324 82.3423C235.43 80.9943 236.516 80.6597 236.766 80.5422C237.682 80.1192 237.465 79.0125 238.062 78.6984C238.659 78.3733 238.624 79.7921 239.342 78.2799C239.198 77.7065 237.81 78.3884 238.182 77.2067C239.165 74.2122 240.759 69.6447 241.007 65.6086C241.173 63.6994 241.13 61.9971 240.973 60.8248C240.414 57.2114 239.741 56.1855 238.854 54.2765C237.614 51.9924 237.13 52.0842 236.554 51.8343C236.263 51.7263 235.914 51.5539 235.31 51.1267C233.409 49.887 235.322 49.2389 235.305 48.7161C235.257 48.1941 234.707 48.2742 234.459 47.8496C234.205 47.4243 235.166 47.7567 234.319 47.0966C233.463 46.3879 230.55 45.7109 230.064 45.9686C229.029 46.4596 229.843 47.7071 227.509 46.4824C227.371 46.4128 227.999 46.1433 227.462 45.8998C223.16 43.9968 218.27 43.0007 213.625 41.921C212.983 41.773 213.646 41.3533 213.271 41.2613C213.147 41.2311 213.028 41.203 212.913 41.1768C209.455 40.4034 210.58 41.4361 208.368 42.0873C209.024 40.8719 207.924 39.9076 204.908 39.5646C203.089 39.364 203.352 39.9626 202.138 40.2432C201.762 40.3266 200.539 39.8252 200.273 40.0699C199.423 40.8717 200.562 41.9327 197.499 41.3037C197.366 41.2753 197.831 40.8331 197.367 40.7694C194.343 40.3649 193.922 41.2486 190.644 41.1954C188.074 41.1533 183.512 40.4662 180.577 40.3528C180.66 38.896 177.866 39.208 176.739 40.2171C174.837 40.1787 172.781 40.2579 170.926 40.155C170.296 40.12 170.701 39.6907 170.621 39.6467C169.386 38.9571 168.554 39.956 168.156 40.0049C163.713 40.4998 160.039 39.9248 155.824 40.8947C155.675 40.9298 155.487 41.9523 154.305 41.2864C154.227 41.2404 155.594 40.6934 153.605 40.7833C151.59 40.8739 147.798 40.604 145.043 41.3074C144.393 41.4744 142.748 42.4392 141.34 41.9248C141.152 41.8547 141.323 41.5478 141.047 41.4111C140.165 40.9826 139.796 42.0118 138.739 41.2984C138.726 41.2895 138.712 41.2802 138.699 41.2707C137.636 40.5016 135.472 40.0601 132.74 40.958C132.654 40.9849 132.066 41.8628 131.196 41.9466C129.796 42.0802 127.776 42.1428 126.315 42.3224C125.612 42.4091 126.122 42.8548 126.001 42.8785C121.324 43.7248 117.919 43.7118 112.85 44.2061C111.922 44.2954 109.363 45.3431 107.498 45.0624C105.439 44.759 107.126 42.0171 102.681 43.2604C100.896 43.7608 99.0547 47.2005 95.547 46.0964C89.2673 47.4669 83.293 47.5856 77.0447 49.2013C76.7641 49.2734 76.006 50.2852 75.3323 50.3854C74.3284 50.5331 73.7236 50.2201 73.0084 50.3126C70.0086 50.691 67.3449 51.498 64.4734 51.9353C63.3819 52.1026 63.6915 51.6207 62.3865 51.8214C61.0824 52.0227 60.3201 52.7189 58.5125 52.7602C57.1441 52.7901 55.6326 51.8994 53.842 52.0786C53.9665 53.1955 52.7557 53.3838 50.657 54.0543C50.2534 54.1837 50.7646 54.49 50.5772 54.5711C49.8162 54.9095 49.0204 54.7216 48.3063 55.0703C48.1321 55.1546 48.1901 55.5333 48.0515 55.6235C46.8763 56.4042 44.6136 55.9313 44.2303 55.8472C42.748 55.5324 42.1877 56.1384 41.0847 56.1075C39.9829 56.0765 41.5222 55.5166 40.2571 55.6044C37.6446 55.7853 34.3551 56.4391 31.7423 56.8924C30.7009 57.0754 31.5015 57.4506 31.3546 57.4884C29.2316 58.003 26.9524 57.8626 25.9453 59.0799C23.9865 56.7586 24.6919 59.5662 21.5261 59.6047C21.2765 59.6067 20.7464 58.4372 21.6428 58.0888C22.537 57.741 24.0209 57.8676 25.2588 57.3538C25.5526 57.2326 27.092 55.7683 27.3201 55.6552C29.0946 54.7731 29.6891 56.5569 29.8064 56.6395C31.1217 57.5228 33.0408 55.8996 33.5882 55.713C36.0897 54.8584 38.333 54.722 40.4352 54.0577C41.8154 53.6247 41.739 52.4002 42.8527 52.2396C46.5582 51.7055 48.135 53.1531 51.3541 51.0891C52.0448 50.6486 51.0685 49.4668 53.9228 50.03C54.1031 50.0654 56.2481 50.6632 57.2862 49.8674C57.4173 49.767 57.3462 49.3853 57.5308 49.3201C58.7688 48.8907 59.6697 49.0485 61.0256 48.664C62.3874 48.2786 64.0186 47.7742 65.6179 47.6347C66.5886 47.5487 67.9336 48.0539 68.4187 48.1513C69.7871 48.4366 71.0365 47.3778 71.937 47.853C72.8443 48.3304 71.4294 49.5237 73.6024 49.5663C73.5138 48.5584 73.5222 47.5072 73.4804 46.4857C78.1207 45.7462 82.7338 45.3217 87.379 44.5378C87.9561 44.4395 87.2799 43.9978 87.8962 43.8787C90.4874 43.3808 92.8328 43.4059 95.5223 42.8384C97.5984 42.3981 99.8276 41.4821 101.993 41.0171C103.514 41.9588 106.713 41.0983 109.098 40.8711C109.929 40.7914 109.919 41.1042 110.526 41.1212C112.811 41.1805 111.624 40.3154 112.214 40.0721C114.738 39.0371 115.282 41.2921 118.363 40.832C118.529 40.8076 120.375 39.33 120.639 39.2201C122.339 38.5024 120.984 39.608 122.099 39.5602C124.124 39.4761 125.564 39.597 127.868 38.9661C128.541 38.7801 130.122 37.8275 131.511 38.2724C131.694 38.3304 131.642 38.7453 131.787 38.7534C134.411 38.8682 134.311 37.5968 135.755 37.013C136.493 36.7139 137.474 36.7425 138.311 36.8717C139.117 36.9919 139.793 37.2013 140.028 37.3032C141.296 37.846 139.13 37.6693 139.067 37.7412C138.366 38.5801 140.022 38.2875 141.279 38.2391C141.566 39.4707 143.337 39.2383 142.596 38.1838C142.513 38.0685 141.531 38.2734 141.279 38.2391C142.28 36.9134 144.203 36.585 146.46 37.5579C147.512 38.0163 146.59 38.7119 149.637 38.2547C151.014 38.0516 150.408 37.2295 151.621 36.9098C154.384 36.1812 158.085 36.7738 160.961 36.5178C162.011 36.4244 160.965 35.9984 161.681 35.9188C163.57 35.7082 165.261 36.0004 167.185 35.762C167.358 35.7399 166.92 35.2578 167.515 35.2344C172.026 35.0523 175.991 35.3233 180.708 35.3801C182.997 35.4028 187.088 35.2321 189.461 35.3919C193.562 35.6455 198.578 36.7091 202.073 36.8726C204.378 36.9835 203.919 36.4462 204.941 36.2145C206.913 35.7615 210.134 37.3611 210.542 37.6069C210.555 37.6125 208.58 37.4666 209.595 37.8578C210.131 38.4633 210.515 37.6057 210.542 37.6069C210.71 37.6986 212.104 37.9606 213.381 38.1868C214.32 38.3514 215.18 38.4927 215.518 38.5103C215.948 38.5314 215.792 38.0293 216.014 38.0493C221.33 38.5773 226.746 39.5447 232.134 42.1346C232.226 42.1863 231.869 42.6002 232.084 42.7147C235.062 44.3543 237.374 45.0895 239.916 47.0176C240.287 47.3055 240.63 47.6026 240.945 47.9037C242.756 49.6356 243.7 51.6212 243.684 53.334C244.861 55.3576 245.318 58.6588 245.283 60.439C245.274 62.2219 246.26 62.3892 246.301 62.5508C246.531 63.7338 246.617 64.797 246.622 65.7903C246.616 68.9123 245.912 71.5238 244.707 75.1236C243.992 77.4141 242.173 81.6735 241.003 83.8379C240.103 85.5725 239.273 86.4289 238.423 87.9771C238.307 88.1858 238.818 88.2401 238.792 88.3102C238.701 88.5807 238.612 88.788 238.528 88.9436C238.018 89.8839 237.691 88.8662 237.353 89.0546C235.92 89.8352 235.108 90.3235 233.876 92.4836C233.6 92.9723 233.818 95.2764 233.225 96.1453C232.455 97.2667 232.336 96.5146 231.534 97.682C231.466 97.7801 231.748 97.9974 231.17 98.647C228.47 101.689 225.312 104.757 222.368 107.726C221.963 108.132 222.881 108.013 222.3 108.606C219.581 111.382 216.432 114.253 213.414 116.523C212.668 117.081 212.852 116.403 212.624 116.446C211.235 116.717 210.561 118.623 210.35 118.823C209.604 119.543 208.86 120.209 208.113 120.84C203.897 124.388 199.765 126.743 195.034 130.415C194.737 130.654 192.872 133.214 191.239 133.13C191.13 133.126 189.515 133.012 188.887 134.174C188.847 134.246 189.803 134.241 188.564 134.944C187.331 135.642 185.521 137.106 183.554 137.591C182.927 137.75 181.2 137.621 179.949 139.163C179.875 139.269 178.156 142.137 176.697 141.529C176.457 141.426 176.049 140.226 174.375 141.779C174.054 142.077 174.86 141.997 173.947 142.639C172.536 143.629 170.369 144.27 168.69 145.633C168.404 145.871 167.318 147.289 165.917 147.173C165.697 147.155 165.874 146.622 165.249 146.834C162.292 147.835 159.362 149.285 156.296 150.087C155.214 150.369 155.519 149.534 154.362 149.751C154.32 149.759 154.276 149.768 154.231 149.777C153.062 150.005 150.95 150.577 149.951 151.234C148.919 151.916 150.511 152.525 148.832 153.186C141.523 156.048 133.9 157.733 126.302 159.689C125.175 159.977 126.207 160.106 124.547 160.553C118.46 162.241 107.728 164.965 102.043 164.918C97.5244 164.903 103.006 163.609 99.6021 163.817C97.969 163.912 96.3364 165.362 95.929 165.442C92.6379 166.119 90.1033 165.915 87.2022 165.913C86.711 165.911 86.2103 165.921 85.6938 165.947C84.9962 165.983 85.681 166.496 85.0864 166.52C83.0496 166.609 80.9059 166.38 78.959 166.417C78.081 166.435 78.2414 166.827 77.4385 166.794C75.5048 166.72 73.8062 166.545 71.9198 166.16C71.749 166.125 72.9075 165.648 71.4829 165.616C69.169 165.565 66.2965 165.158 63.6094 165.458C62.813 165.548 62.7522 166.445 61.0609 165.768C60.7098 165.625 61.2001 164.572 59.1747 165.42C58.8325 165.564 55.3937 166.655 53.775 165.728C53.347 165.486 52.2951 164.53 51.3214 164.587C51.1882 164.598 51.6754 165.122 50.8681 165.101C48.0127 165.014 45.025 164.627 42.0357 164.28C41.2292 164.184 42.3369 164.88 41.1364 164.718C39.0144 164.425 36.5212 163.862 34.1636 163.078C32.9152 162.663 31.7166 162.212 30.6406 161.769C29.5222 161.303 30.4507 161.2 30.3822 161.128C29.3231 159.964 28.2029 160.569 27.7432 160.445C24.902 159.647 23.0727 158.253 20.6406 157.044C19.9673 156.703 20.2019 157.374 20.0502 157.336C18.4858 156.908 19.9165 156.762 19.1173 156.183C16.8786 154.541 14.3312 152.803 12.1125 150.965C11.3028 150.289 11.8422 151.487 11.11 150.859C9.84274 149.762 8.59933 148.541 7.4426 147.179C4.74788 144.02 2.55518 140.196 1.42491 136.158C1.13196 135.08 1.75125 135.621 1.77135 135.372C1.92322 133.706 0.60671 131.661 0.453624 131.11C-0.267013 128.717 0.0825086 127.703 0.0865197 125.553C0.135623 121.289 1.34025 116.769 3.25008 112.776C5.9365 107.095 9.57569 102.043 12.823 98.0757C19.9986 89.4458 26.463 83.9383 34.2263 77.0625C34.7174 76.634 33.8544 76.638 34.2751 76.2621C39.7802 71.3901 45.5899 67.1394 51.3655 62.6856C51.8407 62.321 50.8304 62.4068 51.5854 61.8061C52.7177 60.9039 54.0498 59.9367 55.3968 59.055C55.9153 58.716 56.4298 58.3959 56.9208 58.1086C57.7737 57.6095 56.9531 58.7393 57.8061 58.2303C59.7914 57.0495 61.8478 55.7032 63.7614 54.3435C64.5814 53.7607 63.0146 54.1413 64.1068 53.4181C71.4969 48.5281 78.957 44.0182 87.0433 40.3182C87.5974 40.0653 88.6099 40.76 89.629 39.9585C89.5669 39.6444 89.3893 39.3324 89.2694 39.0261C100.392 32.7166 111.84 27.3649 123.331 21.8499C123.815 21.6179 122.726 21.4984 123.662 21.0465C129.089 18.4264 134.303 15.7693 140.12 13.6798C140.697 13.4722 140.847 14.5328 142.41 13.6302C142.687 13.4692 145.082 12.2004 145.622 11.704C145.694 11.6334 145.044 11.4082 145.83 11.0274C150.397 8.82216 155.27 6.69628 159.988 4.85442C160.75 4.5576 160.172 5.38327 160.717 5.17595C164.575 3.70457 168.495 1.48882 172.267 0.276655C174.795 -0.53366 174.272 0.672695 175.905 0.880584C176.136 0.909723 177.629 0.250701 177.915 0.674612C178.638 1.73872 178.495 3.33001 179.35 4.42552C179.533 4.66205 181.391 3.47054 180.506 4.64726C180.443 4.7276 179.099 5.59703 178.843 5.976C178.664 6.2388 179.322 6.5025 178.906 6.92454C178.489 7.34639 177.757 7.20764 177.024 7.81455C176.293 8.42416 176.902 8.78754 175.263 9.61117ZM244.304 68.1547C243.637 69.6251 245.375 70.1352 245.164 68.3506C245.15 68.264 244.336 68.0774 244.304 68.1547ZM82.9219 46.6694C84.9278 47.1464 86.019 45.7935 84.6025 45.4017C83.1834 45.0115 82.3099 46.5257 82.9219 46.6694ZM63.6154 50.4841C65.9038 50.7248 65.8181 48.1578 63.5662 49.0657C63.4349 49.1177 63.4815 50.4703 63.6154 50.4841ZM170.101 3.79955C170.129 3.81273 171.205 3.3472 171.221 3.31405C171.552 2.5363 169.4 3.46791 170.101 3.79955ZM44.4994 54.4692C45.2424 54.6866 47.1356 53.9472 46.2139 53.676C45.4715 53.4578 43.5764 54.1984 44.4994 54.4692ZM194.859 124.897C194.824 124.889 194.12 125.352 194.221 125.466C194.545 125.835 195.431 125.045 194.859 124.897ZM11.8754 60.3859C16.7121 59.6037 20.0103 61.1412 14.719 61.8617C13.7603 61.9924 16.6485 60.8296 15.4043 60.8632C13.1257 60.9264 11.8975 62.4914 9.50907 62.2069C9.07687 62.1539 11.5992 60.4258 11.8835 60.3815C11.8808 60.383 11.8781 60.3844 11.8754 60.3859ZM242.062 68.7595C242.04 68.7873 241.84 69.93 241.852 69.9625C242.313 70.696 242.73 68.3416 242.062 68.7595ZM150.788 145.909C150.711 145.885 148.147 146.718 148.079 146.788C147.047 148.128 152.242 146.445 150.788 145.909ZM180.531 40.3135C179.262 40.8728 177.761 40.9354 176.745 40.2178C178.008 40.2539 179.27 40.265 180.531 40.3135Z" fill="#2980BA" />
</svg>