<svg width="1466" height="996" viewBox="0 0 1466 996" fill="none" xmlns="http://www.w3.org/2000/svg">
  <path opacity="0.2" d="M1456.17 731.425L1460.62 718.883L1340.91 679.062M1456.17 731.425L1340.91 679.062M1456.17 731.425L1453.94 737.696M1340.91 679.062L1453.94 737.696M1340.91 679.062L1451.72 743.968M1340.91 679.062L1449.49 750.239M1340.91 679.062L1438.92 780.026M1340.91 679.062L1436.69 786.298M1340.91 679.062L1408.31 866.254M1340.91 679.062L1168.22 878.419M1340.91 679.062L1068.53 654.193L1168.22 878.419M1453.94 737.696L1451.72 743.968M1451.72 743.968L1449.49 750.239M1449.49 750.239L1438.92 780.026M1438.92 780.026L1436.69 786.298M1436.69 786.298L1408.31 866.254M1408.31 866.254L1168.22 878.419M1156.72 606.398L1340.91 679.06M1156.72 606.398L1068.53 654.191M1156.72 606.398L977.374 623.867L877.411 400.424M1156.72 606.398L877.411 400.424M1340.91 679.06L1068.53 654.191M1340.91 679.06L877.411 400.424M1340.91 679.06L1460.62 718.882L1279.65 515.738L877.41 400.426L1340.91 679.06ZM1068.53 654.191L1168.22 878.418L969.429 812.292L1068.53 654.191ZM975.263 927.299L1168.21 878.42L969.426 812.295M975.263 927.299L969.426 812.295M975.263 927.299L714.369 918.518L969.426 812.295M969.426 812.295L1068.53 654.192M969.426 812.295L912.92 715.493M1068.53 654.192L912.92 715.493M1068.53 654.192L977.373 623.869M1068.53 654.192L1156.72 606.399L977.373 623.869M912.92 715.493L977.373 623.869M912.92 715.493L969.428 812.294M912.92 715.493L632.37 803.596M912.923 715.494L977.375 623.871L856.796 659.136M912.923 715.494L856.796 659.136M912.923 715.494L610.819 646.083M856.796 659.136L761.874 680.789L692.048 598.514L610.819 646.083M969.428 812.294L632.37 803.596M969.428 812.294L714.372 918.518L632.37 803.596M610.819 646.083L632.378 803.598L912.93 715.495L610.819 646.083ZM610.819 646.083L632.375 803.597L431.355 875.21M610.819 646.083L431.355 875.21M610.819 646.083L488.962 581.477M610.819 646.083L369.01 663.403M610.819 646.083L431.347 875.208M610.819 646.083L369.006 663.401M431.347 875.208L624.421 992.02L632.367 803.596L431.347 875.208ZM431.347 875.208L369.006 663.401M431.355 875.21L369.01 663.403M431.355 875.21L233.904 687.701M488.962 581.477L369.01 663.403M488.962 581.477L208.756 457.591L151.732 483.322M369.01 663.403L233.904 687.701M369.01 663.403L151.732 483.322M369.006 663.401L233.899 687.7M369.006 663.401L151.728 483.322M233.904 687.701L431.353 875.207L214.076 695.128L233.904 687.701ZM239.284 824.944L431.349 875.209L214.072 695.129M239.284 824.944L214.072 695.129M239.284 824.944L111.952 851.352L214.072 695.129M214.073 695.128L233.901 687.7L119.9 662.925M214.073 695.128L119.9 662.925M214.073 695.128L111.953 851.348L119.9 662.925M119.9 662.925L233.899 687.7M119.9 662.925L151.728 483.322M119.9 662.925L72.2274 492.81M119.9 662.925L111.954 851.35L3.0005 769.5L119.9 662.925ZM119.9 662.925L3.00048 678.5L3.00051 606.5M119.9 662.925L3.00051 606.5M233.899 687.7L151.728 483.322M151.728 483.322L72.2274 492.81M151.728 483.322L20.2135 438.698M151.728 483.322L68.0019 346.5M151.732 483.322L395.805 373.444M151.732 483.322L68.0019 346.5M72.2274 492.81L20.2135 438.698M72.2274 492.81L3.00049 457.591M20.2135 438.698L68.0019 346.5M20.2135 438.698L3.00049 457.591M286.502 210L395.805 373.444M286.502 210L68.0019 346.5M286.502 210L3.00052 40.0003M395.805 373.444L68.0019 346.5M68.0019 346.5L3.00052 40.0003M68.0019 346.5L90.002 2.99961L3.00052 40.0003M68.0019 346.5L3.00048 271M68.0019 346.5L3.00049 373.444M3.00049 457.591L20.2153 438.699M3.00049 457.591L3.00049 373.444M3.00049 457.591L72.228 492.812L3.00051 606.5M3.00049 457.591L3.00051 606.5M3.00052 40.0003L3.00048 271M3.00048 271L3.00049 373.444M3.00048 271L20.2153 438.699M3.00049 373.444L20.2153 438.699M3.00051 606.5L80.5 643.908L72.2317 492.81L3.00051 606.5ZM977.377 623.868L856.797 659.133L877.414 400.425L977.377 623.868ZM714.37 918.52L624.424 992.022L632.37 803.598L714.37 918.52Z" stroke="url(#paint0_linear_487_863)" stroke-width="3" />
  <defs>
    <linearGradient id="paint0_linear_487_863" x1="88.4995" y1="395" x2="1127.54" y2="575.902" gradientUnits="userSpaceOnUse">
      <stop stop-color="#2980BA" />
      <stop offset="1" stop-color="#2980BA" stop-opacity="0" />
    </linearGradient>
  </defs>
</svg>