<svg width="1014" height="695" viewBox="0 0 1014 695" fill="none" xmlns="http://www.w3.org/2000/svg">
  <path d="M78.5459 547.8L102.632 594.947L154.961 603.261L117.518 640.714L125.773 693L78.5459 669L31.3188 693L39.5742 640.714L2.13086 603.261L54.4601 594.947L78.5459 547.8Z" stroke="url(#paint0_linear_487_859)" stroke-opacity="0.15" stroke-width="3" stroke-linejoin="round" />
  <path d="M614.196 2L638.282 49.1476L690.611 57.4615L653.168 94.9143L661.423 147.2L614.196 123.2L566.969 147.2L575.224 94.9143L537.781 57.4615L590.11 49.1476L614.196 2Z" stroke="url(#paint1_linear_487_859)" stroke-opacity="0.15" stroke-width="3" stroke-linejoin="round" />
  <path d="M614.196 365.867L638.282 413.014L690.611 421.328L653.168 458.781L661.423 511.067L614.196 487.066L566.969 511.067L575.224 458.781L537.781 421.328L590.11 413.014L614.196 365.867Z" stroke="url(#paint2_linear_487_859)" stroke-opacity="0.15" stroke-width="3" stroke-linejoin="round" />
  <path d="M78.5459 183.933L102.632 231.081L154.961 239.395L117.518 276.848L125.773 329.133L78.5459 305.133L31.3188 329.133L39.5742 276.848L2.13086 239.395L54.4601 231.081L78.5459 183.933Z" stroke="url(#paint3_linear_487_859)" stroke-opacity="0.15" stroke-width="3" stroke-linejoin="round" />
  <path d="M292.806 547.8L316.892 594.947L369.221 603.261L331.778 640.714L340.033 693L292.806 669L245.579 693L253.834 640.714L216.391 603.261L268.72 594.947L292.806 547.8Z" stroke="url(#paint4_linear_487_859)" stroke-opacity="0.15" stroke-width="3" stroke-linejoin="round" />
  <path d="M828.456 2L852.542 49.1476L904.871 57.4615L867.428 94.9143L875.683 147.2L828.456 123.2L781.229 147.2L789.484 94.9143L752.041 57.4615L804.37 49.1476L828.456 2Z" stroke="url(#paint5_linear_487_859)" stroke-opacity="0.15" stroke-width="3" stroke-linejoin="round" />
  <path d="M828.456 365.867L852.542 413.014L904.871 421.328L867.428 458.781L875.683 511.067L828.456 487.066L781.229 511.067L789.484 458.781L752.041 421.328L804.37 413.014L828.456 365.867Z" stroke="url(#paint6_linear_487_859)" stroke-opacity="0.15" stroke-width="3" stroke-linejoin="round" />
  <path d="M292.806 183.933L316.892 231.081L369.221 239.395L331.778 276.848L340.033 329.133L292.806 305.133L245.579 329.133L253.834 276.848L216.391 239.395L268.72 231.081L292.806 183.933Z" stroke="url(#paint7_linear_487_859)" stroke-opacity="0.15" stroke-width="3" stroke-linejoin="round" />
  <path d="M185.676 365.867L209.762 413.014L262.091 421.328L224.648 458.781L232.903 511.067L185.676 487.066L138.449 511.067L146.704 458.781L109.261 421.328L161.59 413.014L185.676 365.867Z" stroke="url(#paint8_linear_487_859)" stroke-opacity="0.15" stroke-width="3" stroke-linejoin="round" />
  <path d="M721.326 183.933L745.412 231.081L797.741 239.395L760.298 276.848L768.553 329.133L721.326 305.133L674.099 329.133L682.354 276.848L644.911 239.395L697.24 231.081L721.326 183.933Z" stroke="url(#paint9_linear_487_859)" stroke-opacity="0.15" stroke-width="3" stroke-linejoin="round" />
  <path d="M185.676 2L209.762 49.1476L262.091 57.4615L224.648 94.9143L232.903 147.2L185.676 123.2L138.449 147.2L146.704 94.9143L109.261 57.4615L161.59 49.1476L185.676 2Z" stroke="url(#paint10_linear_487_859)" stroke-opacity="0.15" stroke-width="3" stroke-linejoin="round" />
  <path d="M721.326 547.8L745.412 594.947L797.741 603.261L760.298 640.714L768.553 693L721.326 669L674.099 693L682.354 640.714L644.911 603.261L697.24 594.947L721.326 547.8Z" stroke="url(#paint11_linear_487_859)" stroke-opacity="0.15" stroke-width="3" stroke-linejoin="round" />
  <path d="M399.936 365.867L424.022 413.014L476.351 421.328L438.908 458.781L447.163 511.067L399.936 487.066L352.709 511.067L360.964 458.781L323.521 421.328L375.85 413.014L399.936 365.867Z" stroke="url(#paint12_linear_487_859)" stroke-opacity="0.15" stroke-width="3" stroke-linejoin="round" />
  <path d="M935.586 183.933L959.672 231.081L1012 239.395L974.558 276.848L982.813 329.133L935.586 305.133L888.359 329.133L896.614 276.848L859.171 239.395L911.5 231.081L935.586 183.933Z" stroke="url(#paint13_linear_487_859)" stroke-opacity="0.15" stroke-width="3" stroke-linejoin="round" />
  <path d="M399.936 2L424.022 49.1476L476.351 57.4615L438.908 94.9143L447.163 147.2L399.936 123.2L352.709 147.2L360.964 94.9143L323.521 57.4615L375.85 49.1476L399.936 2Z" stroke="url(#paint14_linear_487_859)" stroke-opacity="0.15" stroke-width="3" stroke-linejoin="round" />
  <path d="M935.586 547.8L959.672 594.947L1012 603.261L974.558 640.714L982.813 693L935.586 669L888.359 693L896.614 640.714L859.171 603.261L911.5 594.947L935.586 547.8Z" stroke="url(#paint15_linear_487_859)" stroke-opacity="0.15" stroke-width="3" stroke-linejoin="round" />
  <path d="M507.066 183.933L531.152 231.081L583.481 239.395L546.038 276.848L554.293 329.133L507.066 305.133L459.839 329.133L468.094 276.848L430.651 239.395L482.98 231.081L507.066 183.933Z" stroke="url(#paint16_linear_487_859)" stroke-opacity="0.15" stroke-width="3" stroke-linejoin="round" />
  <path d="M507.066 547.8L531.152 594.947L583.481 603.261L546.038 640.714L554.293 693L507.066 669L459.839 693L468.094 640.714L430.651 603.261L482.98 594.947L507.066 547.8Z" stroke="url(#paint17_linear_487_859)" stroke-opacity="0.15" stroke-width="3" stroke-linejoin="round" />
  <defs>
    <linearGradient id="paint0_linear_487_859" x1="192.673" y1="560.712" x2="637.224" y2="186.024" gradientUnits="userSpaceOnUse">
      <stop stop-color="#2980BA" />
      <stop offset="1" stop-color="#2980BA" stop-opacity="0" />
    </linearGradient>
    <linearGradient id="paint1_linear_487_859" x1="192.673" y1="560.712" x2="637.224" y2="186.024" gradientUnits="userSpaceOnUse">
      <stop stop-color="#2980BA" />
      <stop offset="1" stop-color="#2980BA" stop-opacity="0" />
    </linearGradient>
    <linearGradient id="paint2_linear_487_859" x1="192.673" y1="560.712" x2="637.224" y2="186.024" gradientUnits="userSpaceOnUse">
      <stop stop-color="#2980BA" />
      <stop offset="1" stop-color="#2980BA" stop-opacity="0" />
    </linearGradient>
    <linearGradient id="paint3_linear_487_859" x1="192.673" y1="560.712" x2="637.224" y2="186.024" gradientUnits="userSpaceOnUse">
      <stop stop-color="#2980BA" />
      <stop offset="1" stop-color="#2980BA" stop-opacity="0" />
    </linearGradient>
    <linearGradient id="paint4_linear_487_859" x1="192.673" y1="560.712" x2="637.224" y2="186.024" gradientUnits="userSpaceOnUse">
      <stop stop-color="#2980BA" />
      <stop offset="1" stop-color="#2980BA" stop-opacity="0" />
    </linearGradient>
    <linearGradient id="paint5_linear_487_859" x1="192.673" y1="560.712" x2="637.224" y2="186.024" gradientUnits="userSpaceOnUse">
      <stop stop-color="#2980BA" />
      <stop offset="1" stop-color="#2980BA" stop-opacity="0" />
    </linearGradient>
    <linearGradient id="paint6_linear_487_859" x1="192.673" y1="560.712" x2="637.224" y2="186.024" gradientUnits="userSpaceOnUse">
      <stop stop-color="#2980BA" />
      <stop offset="1" stop-color="#2980BA" stop-opacity="0" />
    </linearGradient>
    <linearGradient id="paint7_linear_487_859" x1="192.673" y1="560.712" x2="637.224" y2="186.024" gradientUnits="userSpaceOnUse">
      <stop stop-color="#2980BA" />
      <stop offset="1" stop-color="#2980BA" stop-opacity="0" />
    </linearGradient>
    <linearGradient id="paint8_linear_487_859" x1="192.673" y1="560.712" x2="637.224" y2="186.024" gradientUnits="userSpaceOnUse">
      <stop stop-color="#2980BA" />
      <stop offset="1" stop-color="#2980BA" stop-opacity="0" />
    </linearGradient>
    <linearGradient id="paint9_linear_487_859" x1="192.673" y1="560.712" x2="637.224" y2="186.024" gradientUnits="userSpaceOnUse">
      <stop stop-color="#2980BA" />
      <stop offset="1" stop-color="#2980BA" stop-opacity="0" />
    </linearGradient>
    <linearGradient id="paint10_linear_487_859" x1="192.673" y1="560.712" x2="637.224" y2="186.024" gradientUnits="userSpaceOnUse">
      <stop stop-color="#2980BA" />
      <stop offset="1" stop-color="#2980BA" stop-opacity="0" />
    </linearGradient>
    <linearGradient id="paint11_linear_487_859" x1="192.673" y1="560.712" x2="637.224" y2="186.024" gradientUnits="userSpaceOnUse">
      <stop stop-color="#2980BA" />
      <stop offset="1" stop-color="#2980BA" stop-opacity="0" />
    </linearGradient>
    <linearGradient id="paint12_linear_487_859" x1="192.673" y1="560.712" x2="637.224" y2="186.024" gradientUnits="userSpaceOnUse">
      <stop stop-color="#2980BA" />
      <stop offset="1" stop-color="#2980BA" stop-opacity="0" />
    </linearGradient>
    <linearGradient id="paint13_linear_487_859" x1="192.673" y1="560.712" x2="637.224" y2="186.024" gradientUnits="userSpaceOnUse">
      <stop stop-color="#2980BA" />
      <stop offset="1" stop-color="#2980BA" stop-opacity="0" />
    </linearGradient>
    <linearGradient id="paint14_linear_487_859" x1="192.673" y1="560.712" x2="637.224" y2="186.024" gradientUnits="userSpaceOnUse">
      <stop stop-color="#2980BA" />
      <stop offset="1" stop-color="#2980BA" stop-opacity="0" />
    </linearGradient>
    <linearGradient id="paint15_linear_487_859" x1="192.673" y1="560.712" x2="637.224" y2="186.024" gradientUnits="userSpaceOnUse">
      <stop stop-color="#2980BA" />
      <stop offset="1" stop-color="#2980BA" stop-opacity="0" />
    </linearGradient>
    <linearGradient id="paint16_linear_487_859" x1="192.673" y1="560.712" x2="637.224" y2="186.024" gradientUnits="userSpaceOnUse">
      <stop stop-color="#2980BA" />
      <stop offset="1" stop-color="#2980BA" stop-opacity="0" />
    </linearGradient>
    <linearGradient id="paint17_linear_487_859" x1="192.673" y1="560.712" x2="637.224" y2="186.024" gradientUnits="userSpaceOnUse">
      <stop stop-color="#2980BA" />
      <stop offset="1" stop-color="#2980BA" stop-opacity="0" />
    </linearGradient>
  </defs>
</svg>