<svg width="78" height="78" viewBox="0 0 78 78" fill="none" xmlns="http://www.w3.org/2000/svg">
  <path d="M39.0009 23.8799L39.0009 45.4799M39.1854 58.8585H38.8125" stroke="#929FB0" stroke-width="3" stroke-linecap="round" stroke-linejoin="round" />
  <path d="M32.462 7.16554L4.0019 62.8933C3.34292 64.1255 2.99727 65.5241 3.00002 66.9472C3.00276 68.3703 3.3538 69.7674 4.01753 70.9966C4.68126 72.2258 5.63407 73.2436 6.77933 73.9466C7.92459 74.6496 9.22157 75.0129 10.5387 74.9997H67.4626C68.7795 75.0123 70.0762 74.6486 71.2211 73.9455C72.3661 73.2423 73.3186 72.2246 73.9822 70.9956C74.6459 69.7666 74.997 68.3698 75 66.947C75.003 65.5241 74.6578 64.1256 73.9994 62.8933L45.5357 7.16554C44.89 5.90355 43.9431 4.85154 42.7935 4.11897C41.6439 3.38639 40.3336 3 38.9989 3C37.6642 3 36.3539 3.38639 35.2043 4.11897C34.0547 4.85154 33.1078 5.90355 32.462 7.16554Z" stroke="url(#paint0_linear_448_5276)" stroke-width="6" stroke-linecap="round" stroke-linejoin="round" />
  <defs>
    <linearGradient id="paint0_linear_448_5276" x1="3" y1="39" x2="75.0716" y2="39.6158" gradientUnits="userSpaceOnUse">
      <stop stop-color="#2980BA" />
      <stop offset="1" stop-color="#7F4996" />
    </linearGradient>
  </defs>
</svg>