<svg width="17" height="31" viewBox="0 0 17 31" fill="none" xmlns="http://www.w3.org/2000/svg">
  <path d="M6.5 18.6H3.11292C1.7112 18.6 1.01034 18.6 0.71514 18.1405C0.419941 17.6811 0.71125 17.0436 1.29387 15.7687L4.68095 8.35699C6.17723 5.08276 6.92538 3.44565 7.71269 3.61702C8.5 3.78839 8.5 5.58836 8.5 9.18828V10.4C8.5 11.3428 8.5 11.8142 8.79289 12.1071C9.08579 12.4 9.55719 12.4 10.5 12.4H13.8871C15.2888 12.4 15.9897 12.4 16.2849 12.8595C16.5801 13.3189 16.2887 13.9564 15.7061 15.2313L15.7061 15.2313L12.3191 22.643C10.8228 25.9172 10.0746 27.5544 9.28731 27.383C8.5 27.2116 8.5 25.4116 8.5 21.8117V20.6C8.5 19.6572 8.5 19.1858 8.20711 18.8929C7.91421 18.6 7.44281 18.6 6.5 18.6Z" fill="url(#paint0_linear_2_1077)" />
  <defs>
    <linearGradient id="paint0_linear_2_1077" x1="-7.91624e-08" y1="15.5" x2="17.0178" y2="15.5797" gradientUnits="userSpaceOnUse">
      <stop stop-color="#2980BA" />
      <stop offset="1" stop-color="#7F4996" />
    </linearGradient>
  </defs>
</svg>