<svg width="959" height="876" viewBox="0 0 959 876" fill="none" xmlns="http://www.w3.org/2000/svg">
  <path d="M16.7504 21.4105L22.9258 0.126472L0.137844 3.87353L12.8034 22.0595L16.7504 21.4105ZM812.5 237.062L810.928 238.299L812.5 237.062ZM220.003 600.562L221.58 599.332L220.003 600.562ZM937.165 865.222C937.165 871.113 941.94 875.889 947.831 875.889C953.722 875.889 958.498 871.113 958.498 865.222C958.498 859.331 953.722 854.555 947.831 854.555C941.94 854.555 937.165 859.331 937.165 865.222ZM162.501 99.0613L162.848 97.0916L162.501 99.0613ZM760.501 752.16L760.739 750.175L760.501 752.16ZM11.1458 11.9066C11.442 12.9707 12.5447 13.5933 13.6088 13.2972C14.6729 13.0011 15.2955 11.8984 14.9994 10.8342L11.1458 11.9066ZM22.6236 27.6413C22.0355 26.7063 20.8008 26.4251 19.8658 27.0131C18.9308 27.6012 18.6496 28.8359 19.2376 29.7709L22.6236 27.6413ZM31.3486 45.0079C32.119 45.7994 33.3852 45.8166 34.1767 45.0462C34.9683 44.2758 34.9855 43.0096 34.2151 42.218L31.3486 45.0079ZM48.3734 54.5322C47.4875 53.8724 46.2345 54.0556 45.5747 54.9415C44.9149 55.8273 45.0981 57.0803 45.984 57.7401L48.3734 54.5322ZM62.1381 68.2571C63.0971 68.8052 64.3189 68.472 64.8669 67.513C65.415 66.554 65.0818 65.3323 64.1228 64.7842L62.1381 68.2571ZM80.9695 73.3415C79.963 72.8865 78.7783 73.3336 78.3232 74.3401C77.8682 75.3466 78.3153 76.5313 79.3218 76.9864L80.9695 73.3415ZM97.1339 84.2159C98.1717 84.5939 99.3195 84.0589 99.6975 83.021C100.075 81.9831 99.5405 80.8354 98.5026 80.4574L97.1339 84.2159ZM116.517 86.3777C115.458 86.0642 114.345 86.6686 114.031 87.7277C113.718 88.7868 114.322 89.8996 115.381 90.2132L116.517 86.3777ZM133.964 95.1871C135.037 95.4462 136.118 94.7857 136.377 93.712C136.636 92.6382 135.976 91.5577 134.902 91.2987L133.964 95.1871ZM153.413 95.3354C152.33 95.1226 151.278 95.8288 151.066 96.9127C150.853 97.9966 151.559 99.0477 152.643 99.2605L153.413 95.3354ZM171.837 102.64C172.929 102.811 173.952 102.066 174.123 100.974C174.294 99.8832 173.549 98.8598 172.457 98.6886L171.837 102.64ZM192.161 101.486C191.065 101.344 190.062 102.117 189.921 103.213C189.78 104.308 190.553 105.311 191.648 105.453L192.161 101.486ZM211.471 107.821C212.569 107.943 213.558 107.152 213.679 106.054C213.801 104.956 213.01 103.967 211.912 103.845L211.471 107.821ZM231.625 105.907C230.526 105.798 229.547 106.601 229.438 107.7C229.33 108.8 230.133 109.779 231.232 109.887L231.625 105.907ZM251.032 111.757C252.133 111.857 253.105 111.046 253.205 109.945C253.304 108.845 252.493 107.873 251.393 107.773L251.032 111.757ZM271.194 109.507C270.094 109.413 269.126 110.23 269.032 111.33C268.939 112.431 269.755 113.399 270.856 113.492L271.194 109.507ZM290.63 115.135C291.731 115.224 292.696 114.405 292.786 113.304C292.876 112.203 292.056 111.238 290.955 111.148L290.63 115.135ZM310.73 112.739C309.629 112.651 308.665 113.473 308.578 114.574C308.49 115.675 309.311 116.638 310.412 116.726L310.73 112.739ZM330.207 118.297C331.308 118.384 332.271 117.562 332.358 116.461C332.446 115.36 331.624 114.397 330.523 114.31L330.207 118.297ZM350.332 115.885C349.231 115.797 348.267 116.618 348.179 117.72C348.091 118.821 348.912 119.785 350.013 119.873L350.332 115.885ZM369.828 121.475C370.929 121.565 371.895 120.746 371.985 119.645C372.075 118.544 371.256 117.579 370.155 117.489L369.828 121.475ZM389.983 119.139C388.883 119.046 387.915 119.862 387.821 120.963C387.728 122.064 388.545 123.031 389.645 123.125L389.983 119.139ZM409.448 124.839C410.548 124.936 411.519 124.123 411.616 123.023C411.714 121.923 410.901 120.952 409.801 120.854L409.448 124.839ZM429.582 122.651C428.483 122.549 427.508 123.357 427.405 124.457C427.303 125.557 428.111 126.531 429.211 126.634L429.582 122.651ZM448.98 128.532C450.079 128.641 451.058 127.838 451.167 126.739C451.276 125.64 450.473 124.661 449.374 124.552L448.98 128.532ZM469.162 126.575C468.063 126.458 467.079 127.255 466.963 128.353C466.847 129.452 467.643 130.436 468.741 130.552L469.162 126.575ZM488.482 132.712C489.579 132.836 490.57 132.048 490.694 130.95C490.819 129.853 490.03 128.862 488.932 128.738L488.482 132.712ZM508.677 131.061C507.58 130.927 506.583 131.707 506.449 132.804C506.315 133.9 507.095 134.897 508.192 135.031L508.677 131.061ZM527.895 137.537C528.99 137.681 529.995 136.911 530.14 135.816C530.285 134.721 529.515 133.716 528.42 133.571L527.895 137.537ZM548.139 136.291C547.046 136.134 546.032 136.893 545.875 137.986C545.718 139.079 546.477 140.093 547.57 140.25L548.139 136.291ZM567.2 143.199C568.291 143.37 569.315 142.624 569.486 141.533C569.657 140.442 568.911 139.419 567.82 139.247L567.2 143.199ZM587.447 142.471C586.359 142.283 585.324 143.014 585.137 144.103C584.95 145.191 585.681 146.226 586.77 146.413L587.447 142.471ZM606.264 149.926C607.349 150.131 608.395 149.418 608.6 148.332C608.805 147.247 608.092 146.201 607.006 145.996L606.264 149.926ZM626.544 149.877C625.462 149.651 624.403 150.345 624.177 151.426C623.951 152.507 624.645 153.567 625.726 153.792L626.544 149.877ZM645.115 158.059C646.191 158.309 647.266 157.639 647.516 156.563C647.765 155.487 647.095 154.412 646.019 154.162L645.115 158.059ZM665.386 158.909C664.317 158.632 663.226 159.274 662.949 160.344C662.672 161.413 663.314 162.504 664.383 162.781L665.386 158.909ZM683.497 168.032C684.557 168.341 685.668 167.732 685.977 166.671C686.286 165.611 685.677 164.501 684.616 164.191L683.497 168.032ZM703.667 170.104C702.619 169.757 701.487 170.326 701.141 171.375C700.794 172.423 701.363 173.555 702.412 173.901L703.667 170.104ZM721.065 180.504C722.097 180.895 723.252 180.375 723.644 179.343C724.035 178.31 723.516 177.155 722.483 176.763L721.065 180.504ZM740.974 184.321C739.963 183.875 738.782 184.333 738.337 185.344C737.891 186.354 738.349 187.535 739.359 187.981L740.974 184.321ZM757.148 196.512C758.127 197.023 759.335 196.645 759.847 195.666C760.358 194.687 759.979 193.478 759 192.967L757.148 196.512ZM776.341 202.94C775.409 202.347 774.173 202.623 773.58 203.556C772.988 204.488 773.264 205.724 774.197 206.316L776.341 202.94ZM790.149 217.654C791.011 218.344 792.27 218.205 792.96 217.342C793.65 216.48 793.511 215.221 792.648 214.531L790.149 217.654ZM807.527 228.213C806.772 227.407 805.506 227.365 804.7 228.12C803.893 228.875 803.851 230.14 804.606 230.947L807.527 228.213ZM816.705 246.581C817.278 247.525 818.508 247.826 819.452 247.253C820.397 246.68 820.698 245.45 820.125 244.505L816.705 246.581ZM827.651 263.192C827.443 262.107 826.394 261.397 825.309 261.605C824.225 261.814 823.514 262.862 823.723 263.947L827.651 263.192ZM822.754 282.341C822.429 283.397 823.022 284.516 824.078 284.84C825.134 285.165 826.253 284.572 826.577 283.516L822.754 282.341ZM816.865 301.268C817.553 300.404 817.41 299.145 816.546 298.458C815.681 297.77 814.423 297.913 813.735 298.777L816.865 301.268ZM800.056 312.35C799.201 313.049 799.074 314.309 799.773 315.164C800.473 316.019 801.733 316.146 802.588 315.447L800.056 312.35ZM786.308 327.024C787.243 326.436 787.525 325.201 786.938 324.266C786.35 323.331 785.116 323.049 784.18 323.637L786.308 327.024ZM767.173 333.339C766.194 333.85 765.815 335.058 766.326 336.037C766.838 337.017 768.046 337.396 769.025 336.884L767.173 333.339ZM751.103 345.591C752.109 345.135 752.554 343.949 752.097 342.943C751.641 341.938 750.455 341.493 749.449 341.949L751.103 345.591ZM731.201 349.777C730.177 350.193 729.685 351.36 730.101 352.383C730.517 353.407 731.684 353.899 732.707 353.483L731.201 349.777ZM714.393 360.6C715.428 360.214 715.955 359.063 715.57 358.028C715.184 356.992 714.033 356.466 712.997 356.851L714.393 360.6ZM694.481 363.492C693.437 363.853 692.884 364.992 693.245 366.036C693.607 367.08 694.746 367.633 695.789 367.272L694.481 363.492ZM676.876 373.617C677.927 373.275 678.501 372.146 678.159 371.096C677.817 370.045 676.688 369.471 675.638 369.813L676.876 373.617ZM656.958 375.742C655.903 376.069 655.312 377.19 655.639 378.245C655.966 379.3 657.086 379.89 658.141 379.563L656.958 375.742ZM639.195 385.308C640.254 384.993 640.857 383.88 640.543 382.821C640.228 381.762 639.115 381.159 638.056 381.474L639.195 385.308ZM619.061 387.019C617.999 387.324 617.386 388.432 617.691 389.494C617.995 390.555 619.103 391.169 620.165 390.864L619.061 387.019ZM601.206 396.233C602.269 395.936 602.891 394.832 602.593 393.768C602.296 392.705 601.193 392.083 600.129 392.381L601.206 396.233ZM581.024 397.662C579.959 397.954 579.332 399.054 579.623 400.119C579.915 401.185 581.015 401.812 582.08 401.52L581.024 397.662ZM563.068 406.682C564.134 406.395 564.766 405.297 564.478 404.231C564.191 403.164 563.093 402.533 562.027 402.82L563.068 406.682ZM542.924 407.944C541.857 408.228 541.223 409.325 541.508 410.392C541.793 411.459 542.889 412.093 543.956 411.808L542.924 407.944ZM524.878 416.889C525.946 416.605 526.581 415.51 526.297 414.442C526.013 413.375 524.918 412.74 523.85 413.024L524.878 416.889ZM504.745 418.104C503.678 418.388 503.043 419.483 503.327 420.551C503.611 421.618 504.707 422.253 505.774 421.969L504.745 418.104ZM486.708 427.057C487.775 426.772 488.409 425.675 488.123 424.608C487.837 423.541 486.741 422.908 485.674 423.194L486.708 427.057ZM466.561 428.34C465.495 428.629 464.864 429.728 465.153 430.794C465.442 431.86 466.541 432.49 467.607 432.201L466.561 428.34ZM448.631 437.385C449.696 437.091 450.321 435.99 450.028 434.925C449.734 433.86 448.633 433.235 447.568 433.529L448.631 437.385ZM428.444 438.859C427.38 439.159 426.762 440.264 427.062 441.327C427.362 442.39 428.466 443.009 429.53 442.709L428.444 438.859ZM410.595 448.126C411.656 447.818 412.266 446.708 411.958 445.648C411.65 444.587 410.54 443.977 409.479 444.285L410.595 448.126ZM390.495 449.897C389.437 450.216 388.838 451.331 389.157 452.389C389.475 453.446 390.591 454.046 391.648 453.727L390.495 449.897ZM372.75 459.542C373.803 459.21 374.389 458.087 374.057 457.034C373.725 455.98 372.602 455.395 371.549 455.726L372.75 459.542ZM352.884 461.752C351.836 462.1 351.267 463.231 351.615 464.28C351.963 465.328 353.094 465.896 354.143 465.549L352.884 461.752ZM335.317 471.988C336.359 471.619 336.905 470.477 336.536 469.435C336.168 468.394 335.026 467.848 333.984 468.216L335.317 471.988ZM315.395 475.033C314.363 475.426 313.845 476.582 314.238 477.614C314.632 478.646 315.787 479.164 316.82 478.77L315.395 475.033ZM298.734 485.977C299.753 485.551 300.234 484.38 299.809 483.361C299.383 482.341 298.212 481.86 297.193 482.285L298.734 485.977ZM278.875 490.369C277.875 490.838 277.443 492.028 277.912 493.029C278.38 494.029 279.571 494.46 280.571 493.992L278.875 490.369ZM262.945 502.84C263.916 502.315 264.278 501.101 263.752 500.129C263.226 499.158 262.013 498.797 261.041 499.322L262.945 502.84ZM243.902 509.487C242.978 510.092 242.72 511.332 243.326 512.256C243.931 513.179 245.171 513.437 246.095 512.832L243.902 509.487ZM230.49 524.466C231.326 523.744 231.42 522.481 230.698 521.645C229.976 520.809 228.714 520.716 227.877 521.437L230.49 524.466ZM214.06 536.047C213.405 536.936 213.594 538.188 214.483 538.844C215.371 539.5 216.624 539.311 217.279 538.422L214.06 536.047ZM208.948 555.19C209.228 554.121 208.589 553.028 207.52 552.748C206.452 552.468 205.359 553.108 205.079 554.176L208.948 555.19ZM204.684 574.504C204.915 575.584 205.978 576.272 207.058 576.041C208.138 575.809 208.826 574.746 208.595 573.666L204.684 574.504ZM215.81 591.028C215.236 590.085 214.005 589.785 213.062 590.359C212.118 590.933 211.819 592.163 212.393 593.107L215.81 591.028ZM225.082 609.681C225.825 610.499 227.09 610.559 227.907 609.816C228.724 609.073 228.784 607.808 228.041 606.99L225.082 609.681ZM242.546 620.967C241.706 620.25 240.443 620.35 239.727 621.191C239.01 622.031 239.111 623.294 239.951 624.01L242.546 620.967ZM256.297 636.55C257.204 637.18 258.45 636.955 259.08 636.047C259.71 635.14 259.485 633.894 258.578 633.264L256.297 636.55ZM275.733 644.164C274.779 643.607 273.555 643.929 272.998 644.883C272.441 645.837 272.763 647.062 273.717 647.618L275.733 644.164ZM291.735 657.367C292.722 657.864 293.924 657.466 294.42 656.479C294.916 655.492 294.519 654.29 293.532 653.794L291.735 657.367ZM311.906 662.433C310.895 661.987 309.715 662.446 309.27 663.457C308.824 664.468 309.283 665.648 310.294 666.093L311.906 662.433ZM329.243 673.949C330.271 674.351 331.431 673.843 331.833 672.814C332.235 671.786 331.727 670.626 330.698 670.224L329.243 673.949ZM349.799 677.287C348.757 676.922 347.616 677.471 347.25 678.513C346.885 679.556 347.434 680.697 348.477 681.062L349.799 677.287ZM367.925 687.535C368.978 687.869 370.102 687.285 370.435 686.232C370.768 685.179 370.185 684.055 369.132 683.722L367.925 687.535ZM388.642 689.611C387.581 689.305 386.473 689.918 386.167 690.979C385.862 692.041 386.474 693.149 387.536 693.455L388.642 689.611ZM407.274 698.89C408.342 699.172 409.436 698.534 409.718 697.466C409.999 696.397 409.361 695.303 408.293 695.022L407.274 698.89ZM428.05 700.012C426.977 699.752 425.896 700.411 425.636 701.485C425.376 702.558 426.035 703.639 427.109 703.899L428.05 700.012ZM447.03 708.534C448.108 708.775 449.177 708.096 449.418 707.018C449.659 705.94 448.98 704.871 447.902 704.63L447.03 708.534ZM467.835 708.918C466.753 708.694 465.694 709.39 465.47 710.471C465.246 711.553 465.942 712.611 467.023 712.835L467.835 708.918ZM487.076 716.839C488.161 717.047 489.209 716.337 489.418 715.253C489.627 714.168 488.917 713.12 487.832 712.911L487.076 716.839ZM507.884 716.638C506.797 716.443 505.757 717.166 505.562 718.253C505.367 719.34 506.09 720.38 507.177 720.575L507.884 716.638ZM527.319 724.071C528.408 724.254 529.44 723.52 529.623 722.43C529.806 721.341 529.071 720.31 527.981 720.127L527.319 724.071ZM548.118 723.401C547.026 723.229 546.003 723.974 545.831 725.066C545.659 726.157 546.404 727.18 547.495 727.352L548.118 723.401ZM567.7 730.44C568.793 730.602 569.81 729.848 569.972 728.755C570.134 727.663 569.38 726.645 568.287 726.483L567.7 730.44ZM588.486 729.394C587.392 729.241 586.381 730.003 586.228 731.097C586.074 732.191 586.837 733.202 587.931 733.355L588.486 729.394ZM608.184 736.118C609.278 736.264 610.284 735.494 610.43 734.399C610.575 733.304 609.805 732.299 608.71 732.153L608.184 736.118ZM628.959 734.779C627.863 734.64 626.862 735.416 626.723 736.512C626.584 737.608 627.36 738.609 628.456 738.747L628.959 734.779ZM648.745 741.263C649.841 741.396 650.838 740.615 650.971 739.518C651.105 738.422 650.324 737.425 649.227 737.292L648.745 741.263ZM669.511 739.711C668.414 739.583 667.421 740.368 667.292 741.465C667.163 742.562 667.948 743.556 669.045 743.684L669.511 739.711ZM689.348 746.034C690.445 746.16 691.437 745.372 691.562 744.274C691.688 743.177 690.9 742.186 689.802 742.06L689.348 746.034ZM710.083 744.363C708.985 744.239 707.995 745.028 707.871 746.126C707.747 747.223 708.536 748.213 709.634 748.337L710.083 744.363ZM729.867 750.624C730.965 750.749 731.956 749.96 732.08 748.862C732.205 747.765 731.416 746.774 730.318 746.65L729.867 750.624ZM750.685 748.987C749.588 748.859 748.595 749.645 748.467 750.742C748.339 751.839 749.124 752.832 750.221 752.96L750.685 748.987ZM769.689 755.399C770.782 755.558 771.798 754.802 771.958 753.709C772.117 752.616 771.361 751.6 770.268 751.441L769.689 755.399ZM789.059 754.711C787.976 754.492 786.921 755.191 786.701 756.273C786.481 757.356 787.181 758.412 788.263 758.631L789.059 754.711ZM806.672 762.938C807.74 763.223 808.835 762.588 809.12 761.52C809.404 760.453 808.769 759.357 807.702 759.073L806.672 762.938ZM826.004 764.581C824.958 764.228 823.823 764.791 823.47 765.837C823.117 766.884 823.68 768.018 824.726 768.371L826.004 764.581ZM842.334 774.995C843.354 775.421 844.525 774.939 844.95 773.92C845.376 772.9 844.894 771.729 843.875 771.304L842.334 774.995ZM861.277 779.34C860.293 778.839 859.089 779.231 858.588 780.215C858.087 781.2 858.479 782.404 859.463 782.905L861.277 779.34ZM875.89 792.109C876.831 792.687 878.063 792.394 878.641 791.453C879.22 790.512 878.927 789.28 877.986 788.702L875.89 792.109ZM893.864 799.422C892.976 798.765 891.724 798.952 891.066 799.84C890.409 800.728 890.596 801.98 891.484 802.637L893.864 799.422ZM906.111 814.516C906.935 815.251 908.2 815.179 908.935 814.354C909.67 813.529 909.597 812.265 908.772 811.53L906.111 814.516ZM922.464 824.959C921.714 824.148 920.448 824.099 919.637 824.849C918.826 825.598 918.777 826.864 919.527 827.675L922.464 824.959ZM931.556 842.112C932.217 842.997 933.47 843.179 934.355 842.518C935.24 841.858 935.422 840.605 934.762 839.719L931.556 842.112ZM945.313 855.79C944.769 854.828 943.549 854.489 942.587 855.033C941.626 855.576 941.287 856.796 941.83 857.758L945.313 855.79ZM19.2376 29.7709C22.2504 34.5611 26.1926 39.7102 31.3486 45.0079L34.2151 42.218C29.2535 37.1201 25.4858 32.192 22.6236 27.6413L19.2376 29.7709ZM45.984 57.7401C50.7286 61.2741 56.0869 64.7991 62.1381 68.2571L64.1228 64.7842C58.2052 61.4025 52.9827 57.9654 48.3734 54.5322L45.984 57.7401ZM79.3218 76.9864C84.8167 79.4705 90.7428 81.8886 97.1339 84.2159L98.5026 80.4574C92.2015 78.1628 86.3687 75.7824 80.9695 73.3415L79.3218 76.9864ZM115.381 90.2132C121.245 91.9492 127.433 93.6115 133.964 95.1871L134.902 91.2987C128.435 89.7384 122.312 88.0936 116.517 86.3777L115.381 90.2132ZM152.643 99.2605C155.745 99.8694 158.915 100.46 162.153 101.031L162.848 97.0916C159.634 96.5251 156.49 95.9393 153.413 95.3354L152.643 99.2605ZM162.153 101.031C165.28 101.582 168.509 102.118 171.837 102.64L172.457 98.6886C169.152 98.1699 165.947 97.6381 162.848 97.0916L162.153 101.031ZM191.648 105.453C197.996 106.272 204.612 107.059 211.471 107.821L211.912 103.845C205.073 103.086 198.481 102.302 192.161 101.486L191.648 105.453ZM231.232 109.887C237.665 110.523 244.271 111.145 251.032 111.757L251.393 107.773C244.641 107.162 238.046 106.542 231.625 105.907L231.232 109.887ZM270.856 113.492C277.333 114.042 283.929 114.589 290.63 115.135L290.955 111.148C284.257 110.602 277.666 110.056 271.194 109.507L270.856 113.492ZM310.412 116.726C316.931 117.246 323.533 117.768 330.207 118.297L330.523 114.31C323.849 113.781 317.248 113.258 310.73 112.739L310.412 116.726ZM350.013 119.873C356.565 120.397 363.173 120.93 369.828 121.475L370.155 117.489C363.497 116.943 356.886 116.41 350.332 115.885L350.013 119.873ZM389.645 123.125C396.214 123.681 402.818 124.252 409.448 124.839L409.801 120.854C403.165 120.267 396.556 119.696 389.983 119.139L389.645 123.125ZM429.211 126.634C435.787 127.247 442.379 127.879 448.98 128.532L449.374 124.552C442.765 123.898 436.165 123.265 429.582 122.651L429.211 126.634ZM468.741 130.552C475.325 131.248 481.908 131.967 488.482 132.712L488.932 128.738C482.348 127.991 475.755 127.271 469.162 126.575L468.741 130.552ZM508.192 135.031C514.781 135.837 521.351 136.671 527.895 137.537L528.42 133.571C521.862 132.704 515.278 131.868 508.677 131.061L508.192 135.031ZM547.57 140.25C554.154 141.197 560.7 142.179 567.2 143.199L567.82 139.247C561.302 138.225 554.739 137.24 548.139 136.291L547.57 140.25ZM586.77 146.413C593.33 147.54 599.831 148.71 606.264 149.926L607.006 145.996C600.551 144.776 594.028 143.601 587.447 142.471L586.77 146.413ZM625.726 153.792C632.279 155.161 638.746 156.582 645.115 158.059L646.019 154.162C639.619 152.678 633.123 151.251 626.544 149.877L625.726 153.792ZM664.383 162.781C670.88 164.464 677.256 166.213 683.497 168.032L684.616 164.191C678.334 162.361 671.919 160.601 665.386 158.909L664.383 162.781ZM702.412 173.901C708.806 176.016 715.029 178.215 721.065 180.504L722.483 176.763C716.39 174.453 710.112 172.235 703.667 170.104L702.412 173.901ZM739.359 187.981C745.545 190.709 751.482 193.551 757.148 196.512L759 192.967C753.249 189.961 747.233 187.082 740.974 184.321L739.359 187.981ZM774.197 206.316C779.897 209.936 785.224 213.713 790.149 217.654L792.648 214.531C787.598 210.49 782.151 206.629 776.341 202.94L774.197 206.316ZM804.606 230.947C806.849 233.344 808.958 235.794 810.928 238.299L814.072 235.826C812.029 233.227 809.845 230.69 807.527 228.213L804.606 230.947ZM810.928 238.299C813.139 241.11 815.06 243.871 816.705 246.581L820.125 244.505C818.388 241.645 816.373 238.752 814.072 235.826L810.928 238.299ZM823.723 263.947C824.947 270.316 824.57 276.429 822.754 282.341L826.577 283.516C828.584 276.983 828.999 270.207 827.651 263.192L823.723 263.947ZM813.735 298.777C810.058 303.397 805.476 307.918 800.056 312.35L802.588 315.447C808.179 310.875 812.976 306.155 816.865 301.268L813.735 298.777ZM784.18 323.637C778.943 326.927 773.261 330.159 767.173 333.339L769.025 336.884C775.192 333.663 780.968 330.379 786.308 327.024L784.18 323.637ZM749.449 341.949C743.626 344.594 737.534 347.202 731.201 349.777L732.707 353.483C739.084 350.89 745.225 348.261 751.103 345.591L749.449 341.949ZM712.997 356.851C706.991 359.088 700.812 361.3 694.481 363.492L695.789 367.272C702.147 365.071 708.354 362.848 714.393 360.6L712.997 356.851ZM675.638 369.813C669.522 371.805 663.29 373.781 656.958 375.742L658.141 379.563C664.491 377.596 670.74 375.615 676.876 373.617L675.638 369.813ZM638.056 381.474C631.8 383.333 625.464 385.181 619.061 387.019L620.165 390.864C626.578 389.022 632.926 387.171 639.195 385.308L638.056 381.474ZM600.129 392.381C593.808 394.147 587.436 395.907 581.024 397.662L582.08 401.52C588.498 399.764 594.877 398.002 601.206 396.233L600.129 392.381ZM562.027 402.82C555.682 404.531 549.311 406.238 542.924 407.944L543.956 411.808C550.345 410.102 556.72 408.394 563.068 406.682L562.027 402.82ZM523.85 413.024C517.484 414.716 511.111 416.409 504.745 418.104L505.774 421.969C512.14 420.275 518.511 418.582 524.878 416.889L523.85 413.024ZM485.674 423.194C479.282 424.905 472.908 426.62 466.561 428.34L467.607 432.201C473.949 430.482 480.32 428.768 486.708 427.057L485.674 423.194ZM447.568 433.529C441.149 435.298 434.77 437.074 428.444 438.859L429.53 442.709C435.848 440.926 442.219 439.152 448.631 437.385L447.568 433.529ZM409.479 444.285C403.079 446.144 396.747 448.014 390.495 449.897L391.648 453.727C397.887 451.848 404.206 449.982 410.595 448.126L409.479 444.285ZM371.549 455.726C365.221 457.718 358.995 459.726 352.884 461.752L354.143 465.549C360.232 463.529 366.439 461.528 372.75 459.542L371.549 455.726ZM333.984 468.216C327.627 470.463 321.425 472.734 315.395 475.033L316.82 478.77C322.816 476.484 328.988 474.224 335.317 471.988L333.984 468.216ZM297.193 482.285C290.836 484.939 284.721 487.633 278.875 490.369L280.571 493.992C286.36 491.282 292.423 488.611 298.734 485.977L297.193 482.285ZM261.041 499.322C254.911 502.639 249.183 506.025 243.902 509.487L246.095 512.832C251.268 509.441 256.898 506.112 262.945 502.84L261.041 499.322ZM227.877 521.437C222.422 526.144 217.778 531.007 214.06 536.047L217.279 538.422C220.786 533.669 225.212 529.02 230.49 524.466L227.877 521.437ZM205.079 554.176C203.364 560.721 203.182 567.498 204.684 574.504L208.595 573.666C207.223 567.265 207.394 561.123 208.948 555.19L205.079 554.176ZM212.393 593.107C214.134 595.97 216.143 598.864 218.426 601.792L221.58 599.332C219.383 596.515 217.464 593.747 215.81 591.028L212.393 593.107ZM218.426 601.792C220.517 604.474 222.738 607.103 225.082 609.681L228.041 606.99C225.762 604.484 223.607 601.931 221.58 599.332L218.426 601.792ZM239.951 624.01C245.038 628.347 250.498 632.525 256.297 636.55L258.578 633.264C252.877 629.307 247.523 625.21 242.546 620.967L239.951 624.01ZM273.717 647.618C279.481 650.982 285.495 654.23 291.735 657.367L293.532 653.794C287.36 650.691 281.419 647.482 275.733 644.164L273.717 647.618ZM310.294 666.093C316.441 668.801 322.764 671.418 329.243 673.949L330.698 670.224C324.268 667.711 317.998 665.115 311.906 662.433L310.294 666.093ZM348.477 681.062C354.842 683.291 361.329 685.448 367.925 687.535L369.132 683.722C362.572 681.646 356.123 679.502 349.799 677.287L348.477 681.062ZM387.536 693.455C394.034 695.326 400.618 697.137 407.274 698.89L408.293 695.022C401.665 693.276 395.11 691.473 388.642 689.611L387.536 693.455ZM427.109 703.899C433.698 705.495 440.342 707.039 447.03 708.534L447.902 704.63C441.236 703.14 434.615 701.601 428.05 700.012L427.109 703.899ZM467.023 712.835C473.681 714.214 480.369 715.548 487.076 716.839L487.832 712.911C481.143 711.623 474.473 710.293 467.835 708.918L467.023 712.835ZM507.177 720.575C513.888 721.78 520.606 722.944 527.319 724.071L527.981 720.127C521.282 719.002 514.579 717.84 507.884 716.638L507.177 720.575ZM547.495 727.352C554.251 728.417 560.99 729.445 567.7 730.44L568.287 726.483C561.588 725.49 554.86 724.463 548.118 723.401L547.495 727.352ZM587.931 733.355C594.728 734.308 601.483 735.228 608.184 736.118L608.71 732.153C602.019 731.264 595.273 730.345 588.486 729.394L587.931 733.355ZM628.456 738.747C635.297 739.614 642.065 740.451 648.745 741.263L649.227 737.292C642.554 736.481 635.793 735.645 628.959 734.779L628.456 738.747ZM669.045 743.684C675.935 744.492 682.708 745.275 689.348 746.034L689.802 742.06C683.166 741.301 676.396 740.519 669.511 739.711L669.045 743.684ZM709.634 748.337C716.568 749.121 723.319 749.881 729.867 750.624L730.318 746.65C723.768 745.907 717.015 745.146 710.083 744.363L709.634 748.337ZM750.221 752.96C753.642 753.359 756.991 753.755 760.263 754.146L760.739 750.175C757.462 749.782 754.109 749.387 750.685 748.987L750.221 752.96ZM760.263 754.146C763.456 754.529 766.598 754.947 769.689 755.399L770.268 751.441C767.142 750.984 763.966 750.561 760.739 750.175L760.263 754.146ZM788.263 758.631C794.637 759.925 800.771 761.367 806.672 762.938L807.702 759.073C801.722 757.481 795.51 756.021 789.059 754.711L788.263 758.631ZM824.726 768.371C830.88 770.447 836.746 772.664 842.334 774.995L843.875 771.304C838.2 768.936 832.247 766.686 826.004 764.581L824.726 768.371ZM859.463 782.905C865.291 785.872 870.761 788.954 875.89 792.109L877.986 788.702C872.766 785.491 867.202 782.356 861.277 779.34L859.463 782.905ZM891.484 802.637C896.817 806.584 901.682 810.569 906.111 814.516L908.772 811.53C904.256 807.504 899.297 803.443 893.864 799.422L891.484 802.637ZM919.527 827.675C924.244 832.776 928.228 837.652 931.556 842.112L934.762 839.719C931.354 835.153 927.281 830.169 922.464 824.959L919.527 827.675ZM941.83 857.758C943.299 860.357 944.343 862.427 945.016 863.84C945.352 864.546 945.596 865.087 945.754 865.447C945.833 865.627 945.89 865.762 945.927 865.85C945.945 865.894 945.958 865.926 945.967 865.946C945.971 865.956 945.974 865.963 945.975 865.966C945.976 865.968 945.976 865.969 945.977 865.97C945.977 865.97 945.977 865.97 945.977 865.97C945.977 865.97 945.976 865.97 945.976 865.97C945.976 865.969 945.976 865.969 945.976 865.969C945.976 865.969 945.976 865.969 947.831 865.222C949.687 864.475 949.687 864.475 949.687 864.475C949.687 864.475 949.686 864.474 949.686 864.474C949.686 864.474 949.686 864.473 949.686 864.473C949.685 864.472 949.685 864.471 949.684 864.469C949.683 864.467 949.682 864.463 949.68 864.459C949.677 864.451 949.672 864.439 949.666 864.425C949.654 864.396 949.637 864.354 949.615 864.301C949.57 864.195 949.505 864.042 949.418 863.843C949.243 863.444 948.982 862.864 948.627 862.119C947.916 860.628 946.83 858.474 945.313 855.79L941.83 857.758Z" fill="url(#paint0_linear_721_6321)" />
  <defs>
    <linearGradient id="paint0_linear_721_6321" x1="11.5312" y1="433.611" x2="948.751" y2="442.296" gradientUnits="userSpaceOnUse">
      <stop stop-color="#2980BA" />
      <stop offset="1" stop-color="#7F4996" />
    </linearGradient>
  </defs>
</svg>