<svg width="164" height="194" viewBox="0 0 164 194" fill="none" xmlns="http://www.w3.org/2000/svg">
  <path d="M11 194L0.530703 173.415L23.5922 174.641L11 194ZM155.117 7.78246C154.116 8.24942 152.926 7.81648 152.459 6.81546C151.992 5.81445 152.425 4.62443 153.426 4.15747L155.117 7.78246ZM136.537 12.5973C137.512 12.0786 138.723 12.4486 139.242 13.4238C139.76 14.399 139.39 15.6101 138.415 16.1288L136.537 12.5973ZM122.139 25.3122C121.191 25.8791 119.963 25.5702 119.396 24.6222C118.829 23.6742 119.138 22.4462 120.086 21.8792L122.139 25.3122ZM104.154 31.9942C105.07 31.3765 106.313 31.6181 106.931 32.5338C107.548 33.4495 107.307 34.6926 106.391 35.3103L104.154 31.9942ZM91.2565 46.2065C90.3814 46.8805 89.1256 46.7174 88.4516 45.8422C87.7777 44.9671 87.9407 43.7113 88.8159 43.0374L91.2565 46.2065ZM74.2536 55.1208C75.0756 54.383 76.3401 54.4513 77.0779 55.2733C77.8157 56.0953 77.7474 57.3598 76.9254 58.0976L74.2536 55.1208ZM63.664 71.1159C62.9139 71.9268 61.6486 71.9761 60.8377 71.226C60.0268 70.476 59.9775 69.2106 60.7275 68.3998L63.664 71.1159ZM48.6341 83.0522C49.2838 82.1589 50.5347 81.9615 51.428 82.6112C52.3212 83.2609 52.5187 84.5118 51.8689 85.405L48.6341 83.0522ZM42.0592 100.783C41.5075 101.74 40.2846 102.069 39.3276 101.517C38.3707 100.966 38.0421 99.7428 38.5937 98.7858L42.0592 100.783ZM30.0538 114.925C30.5342 113.931 31.7299 113.514 32.7245 113.994C33.7192 114.474 34.1361 115.67 33.6558 116.665L30.0538 114.925ZM26.4662 133.119C26.0633 134.148 24.903 134.655 23.8745 134.252C22.846 133.849 22.3388 132.689 22.7417 131.661L26.4662 133.119ZM16.7644 148.932C17.0825 147.874 18.1979 147.275 19.2556 147.593C20.3134 147.911 20.913 149.026 20.5949 150.084L16.7644 148.932ZM16.1818 167.466C15.9587 168.548 14.9009 169.244 13.8191 169.021C12.7373 168.798 12.0411 167.74 12.2642 166.659L16.1818 167.466ZM9.48813 184.795C9.59239 183.695 10.5683 182.888 11.668 182.992C12.7676 183.097 13.5745 184.073 13.4703 185.172L9.48813 184.795ZM162.812 2.17091C163.568 4.02262 163.568 4.0226 163.568 4.02258C163.568 4.02258 163.568 4.02256 163.568 4.02256C163.568 4.02256 163.568 4.02257 163.568 4.02261C163.568 4.02268 163.567 4.02284 163.567 4.02307C163.566 4.02354 163.564 4.02432 163.561 4.02541C163.556 4.0276 163.547 4.03105 163.536 4.03576C163.513 4.04518 163.478 4.05962 163.431 4.07908C163.337 4.11799 163.196 4.17694 163.008 4.25575C162.634 4.41338 162.077 4.65045 161.352 4.96562C159.903 5.59596 157.783 6.53854 155.117 7.78246L153.426 4.15747C156.126 2.89765 158.278 1.9407 159.757 1.29745C160.496 0.97582 161.068 0.732584 161.456 0.569099C161.651 0.487356 161.799 0.425547 161.9 0.383843C161.95 0.36299 161.988 0.347162 162.015 0.336382C162.028 0.330993 162.038 0.326864 162.045 0.324C162.048 0.322568 162.051 0.321453 162.053 0.320653C162.054 0.320252 162.055 0.319931 162.055 0.319691C162.056 0.31957 162.056 0.319468 162.056 0.319387C162.056 0.319347 162.056 0.319301 162.056 0.31928C162.056 0.319239 162.056 0.319203 162.812 2.17091ZM138.415 16.1288C133.429 18.781 127.931 21.8487 122.139 25.3122L120.086 21.8792C125.942 18.3777 131.498 15.2773 136.537 12.5973L138.415 16.1288ZM106.391 35.3103C101.374 38.6945 96.2899 42.3302 91.2565 46.2065L88.8159 43.0374C93.9224 39.1047 99.0752 35.4202 104.154 31.9942L106.391 35.3103ZM76.9254 58.0976C72.3177 62.2332 67.8634 66.5758 63.664 71.1159L60.7275 68.3998C65.0203 63.7588 69.5644 59.3295 74.2536 55.1208L76.9254 58.0976ZM51.8689 85.405C50.0473 87.9095 48.3186 90.4614 46.696 93.0595L43.3033 90.9407C44.9786 88.2582 46.7603 85.6283 48.6341 83.0522L51.8689 85.405ZM46.696 93.0595C45.0736 95.6574 43.5292 98.2332 42.0592 100.783L38.5937 98.7858C40.0871 96.1951 41.6557 93.5788 43.3033 90.9407L46.696 93.0595ZM33.6558 116.665C30.911 122.348 28.5305 127.849 26.4662 133.119L22.7417 131.661C24.8422 126.298 27.2633 120.703 30.0538 114.925L33.6558 116.665ZM20.5949 150.084C18.6844 156.437 17.2534 162.27 16.1818 167.466L12.2642 166.659C13.3585 161.352 14.818 155.404 16.7644 148.932L20.5949 150.084Z" fill="url(#paint0_linear_2_1254)" />
  <defs>
    <linearGradient id="paint0_linear_2_1254" x1="166.549" y1="6.03651" x2="-1.24843" y2="181.191" gradientUnits="userSpaceOnUse">
      <stop stop-color="#2980BA" />
      <stop offset="1" stop-color="#7F4996" />
    </linearGradient>
  </defs>
</svg>