<svg width="375" height="102" viewBox="0 0 375 102" fill="none" xmlns="http://www.w3.org/2000/svg">
  <path d="M374.5 102.001L352.503 94.9657L369.594 79.4341L374.5 102.001ZM366.599 96.2796C365.83 95.4864 365.85 94.2203 366.643 93.4515C367.436 92.6827 368.702 92.7025 369.471 93.4956L366.599 96.2796ZM355.297 80.1103C356.129 80.8363 356.215 82.0997 355.489 82.9322C354.763 83.7646 353.5 83.8509 352.667 83.125L355.297 80.1103ZM337.766 71.0172C336.886 70.3498 336.714 69.0953 337.381 68.2151C338.049 67.335 339.303 67.1626 340.183 67.83L337.766 71.0172ZM324.323 56.5787C325.243 57.1894 325.494 58.4306 324.884 59.351C324.273 60.2714 323.032 60.5225 322.112 59.9118L324.323 56.5787ZM305.81 49.7939C304.854 49.2398 304.529 48.0161 305.083 47.0605C305.637 46.105 306.861 45.7795 307.816 46.3336L305.81 49.7939ZM290.701 37.0738C291.688 37.5707 292.085 38.7732 291.588 39.7597C291.091 40.7462 289.888 41.1431 288.902 40.6462L290.701 37.0738ZM271.506 32.5057C270.493 32.0664 270.027 30.8888 270.467 29.8753C270.906 28.8618 272.083 28.3963 273.097 28.8355L271.506 32.5057ZM255.061 21.62C256.097 22.0011 256.629 23.1505 256.248 24.1873C255.866 25.224 254.717 25.7554 253.68 25.3743L255.061 21.62ZM235.471 19.2507C234.415 18.9277 233.821 17.8097 234.143 16.7533C234.466 15.697 235.584 15.1025 236.641 15.4254L235.471 19.2507ZM217.901 10.2526C218.973 10.5175 219.628 11.6015 219.363 12.6739C219.098 13.7462 218.014 14.4008 216.942 14.1359L217.901 10.2526ZM197.302 9.88609C196.215 9.68591 195.497 8.64303 195.697 7.55675C195.898 6.47048 196.94 5.75215 198.027 5.95233L197.302 9.88609ZM177.051 2.78988C178.148 2.91922 178.932 3.91335 178.803 5.01032C178.673 6.10729 177.679 6.89171 176.582 6.76237L177.051 2.78988ZM155.694 4.96627C154.591 4.90605 153.745 3.96313 153.806 2.8602C153.866 1.75728 154.809 0.911997 155.912 0.972219L155.694 4.96627ZM134.702 0.461881C135.807 0.455183 136.708 1.34517 136.714 2.44972C136.721 3.55426 135.831 4.45511 134.726 4.46181L134.702 0.461881ZM113.77 5.20509C112.668 5.27628 111.716 4.44042 111.645 3.33815C111.574 2.23587 112.41 1.2846 113.512 1.2134L113.77 5.20509ZM92.4246 3.17769C93.5211 3.04437 94.518 3.82518 94.6513 4.92167C94.7846 6.01816 94.0038 7.01513 92.9074 7.14844L92.4246 3.17769ZM72.1469 10.2587C71.0594 10.4524 70.0209 9.72786 69.8271 8.64041C69.6334 7.55295 70.358 6.51437 71.4454 6.32067L72.1469 10.2587ZM50.6829 10.6103C51.758 10.357 52.8349 11.0234 53.0881 12.0985C53.3413 13.1737 52.6749 14.2505 51.5998 14.5037L50.6829 10.6103ZM31.3452 19.8802C30.2862 20.1943 29.1732 19.5904 28.8591 18.5314C28.5451 17.4724 29.1489 16.3594 30.2079 16.0453L31.3452 19.8802ZM10.0755 22.7206C11.1111 22.3364 12.2621 22.8645 12.6462 23.9001C13.0304 24.9357 12.5024 26.0866 11.4668 26.4708L10.0755 22.7206ZM352.667 83.125C348.384 79.3895 343.418 75.3033 337.766 71.0172L340.183 67.83C345.912 72.174 350.948 76.3181 355.297 80.1103L352.667 83.125ZM322.112 59.9118C317.058 56.5591 311.625 53.1659 305.81 49.7939L307.816 46.3336C313.703 49.7473 319.205 53.1831 324.323 56.5787L322.112 59.9118ZM288.902 40.6462C283.379 37.8644 277.581 35.1383 271.506 32.5057L273.097 28.8355C279.244 31.4995 285.112 34.2583 290.701 37.0738L288.902 40.6462ZM253.68 25.3743C247.829 23.2231 241.76 21.1732 235.471 19.2507L236.641 15.4254C243.002 17.37 249.141 19.4437 255.061 21.62L253.68 25.3743ZM216.942 14.1359C213.865 13.376 210.742 12.6481 207.573 11.9549L208.428 8.04727C211.632 8.74821 214.79 9.48418 217.901 10.2526L216.942 14.1359ZM207.573 11.9549C204.132 11.2023 200.708 10.5138 197.302 9.88609L198.027 5.95233C201.476 6.58789 204.943 7.28511 208.428 8.04727L207.573 11.9549ZM176.582 6.76237C169.508 5.92823 162.538 5.33995 155.694 4.96627L155.912 0.972219C162.836 1.3503 169.89 1.94558 177.051 2.78988L176.582 6.76237ZM134.726 4.46181C127.552 4.50532 120.557 4.76675 113.77 5.20509L113.512 1.2134C120.373 0.770273 127.446 0.505885 134.702 0.461881L134.726 4.46181ZM92.9074 7.14844C85.6564 8.03006 78.7215 9.08758 72.1469 10.2587L71.4454 6.32067C78.0887 5.13733 85.0966 4.06867 92.4246 3.17769L92.9074 7.14844ZM51.5998 14.5037C44.112 16.2671 37.3274 18.106 31.3452 19.8802L30.2079 16.0453C36.2579 14.251 43.1161 12.3922 50.6829 10.6103L51.5998 14.5037ZM11.4668 26.4708C8.3235 27.6369 5.90367 28.6043 4.27423 29.278C3.45951 29.6148 2.84248 29.8783 2.43146 30.0564C2.22595 30.1455 2.07197 30.2132 1.97051 30.2582C1.91981 30.2807 1.88224 30.2974 1.85791 30.3083C1.84577 30.3138 1.83695 30.3177 1.83144 30.3202C1.82869 30.3214 1.82678 30.3223 1.8257 30.3228C1.82514 30.323 1.82481 30.3232 1.82468 30.3232C1.82465 30.3233 1.82462 30.3233 1.82468 30.3233C1.82468 30.3232 1.82478 30.3232 1.82478 30.3232C1.82485 30.3232 1.82495 30.3231 1.00026 28.5011C0.175566 26.679 0.175666 26.679 0.175828 26.6789C0.175863 26.6789 0.176026 26.6788 0.176157 26.6788C0.176419 26.6786 0.176715 26.6785 0.177076 26.6783C0.177797 26.678 0.178716 26.6776 0.179833 26.6771C0.182128 26.6761 0.185214 26.6747 0.189181 26.6729C0.197055 26.6693 0.208305 26.6643 0.222864 26.6578C0.251985 26.6447 0.294409 26.6258 0.34999 26.6011C0.461212 26.5519 0.625118 26.4798 0.840708 26.3863C1.27189 26.1994 1.9097 25.9272 2.74586 25.5815C4.41808 24.8901 6.88366 23.9047 10.0755 22.7206L11.4668 26.4708Z" fill="url(#paint0_linear_2_1253)" />
  <defs>
    <linearGradient id="paint0_linear_2_1253" x1="379.196" y1="67.4274" x2="0.695481" y2="33.8336" gradientUnits="userSpaceOnUse">
      <stop stop-color="#2980BA" />
      <stop offset="1" stop-color="#7F4996" />
    </linearGradient>
  </defs>
</svg>