<svg width="429" height="1045" viewBox="0 0 429 1045" fill="none" xmlns="http://www.w3.org/2000/svg">
  <g opacity="0.3">
    <path d="M54.2964 926.506L182.237 954.44V970.5L54.2964 926.506Z" fill="#D3BDFB" />
    <path d="M54.2956 926.507L177.603 952.459L182.237 954.441L54.2956 926.507Z" fill="#D5BCFC" />
    <path d="M54.2964 926.506L172.97 950.475L177.604 952.458L54.2964 926.506Z" fill="#D5BCFC" />
    <path d="M54.2986 926.507L168.339 948.493L172.973 950.476L54.2986 926.507Z" fill="#D6BEFC" />
    <path d="M54.2972 926.506L146.33 939.076L168.338 948.492L54.2972 926.506Z" fill="#D7BCFC" />
    <path d="M54.2972 926.506L141.697 937.094L146.33 939.076L54.2972 926.506Z" fill="#D9BAFD" />
    <path d="M54.2972 926.506L77.9879 909.838L82.6213 911.82L54.2972 926.506Z" fill="#D194FB" />
    <path d="M54.2972 926.506L73.3533 907.855L77.9867 909.837L54.2972 926.506Z" fill="#D396FC" />
    <path d="M54.2969 926.508L68.7204 905.875L73.3537 907.858L54.2969 926.508Z" fill="#D098FB" />
    <path d="M54.2972 926.506L65.2459 904.385L68.7209 905.872L54.2972 926.506Z" fill="#D098FB" />
    <path d="M54.2964 926.506L62.9277 903.396L65.2443 904.387L54.2964 926.506Z" fill="#CF97FA" />
    <path d="M54.2964 926.506L60.611 902.405L62.9277 903.396L54.2964 926.506Z" fill="#CF97F9" />
    <path d="M54.2964 926.506L58.2943 901.414L60.611 902.405L54.2964 926.506Z" fill="#CF96F9" />
    <path d="M54.2964 926.506L55.9776 900.423L58.2943 901.414L54.2964 926.506Z" fill="#CF93FA" />
    <path d="M54.2964 926.506L53.6609 899.432L55.9776 900.423L54.2964 926.506Z" fill="#D091FA" />
    <path d="M54.2964 926.506L51.3442 898.44L53.6609 899.432L54.2964 926.506Z" fill="#CF8DFA" />
    <path d="M54.2964 926.506L49.0276 897.449L51.3442 898.44L54.2964 926.506Z" fill="#CC86F9" />
    <path d="M54.2964 926.506L46.7109 896.458L49.0276 897.449L54.2964 926.506Z" fill="#CC84F8" />
    <path d="M54.2964 926.506L44.3942 895.467L46.7109 896.458L54.2964 926.506Z" fill="#CB82F8" />
    <path d="M54.2964 926.506L42.0775 894.476L44.3942 895.467L54.2964 926.506Z" fill="#C97CF7" />
    <path d="M54.2964 926.506L39.7608 893.485L42.0775 894.476L54.2964 926.506Z" fill="#C97AF9" />
    <path d="M54.2964 926.506L37.4441 892.494L39.7608 893.485L54.2964 926.506Z" fill="#C872F8" />
    <path d="M54.2964 926.506L35.1275 891.502L37.4441 892.494L54.2964 926.506Z" fill="#C76CF7" />
    <path d="M54.2964 926.506L32.8108 890.511L35.1275 891.502L54.2964 926.506Z" fill="#C76AF8" />
    <path d="M54.2964 926.506L30.4941 889.52L32.8108 890.511L54.2964 926.506Z" fill="#C563F7" />
    <path d="M54.2964 926.506L28.1774 888.529L30.4941 889.52L54.2964 926.506Z" fill="#C45DF6" />
    <path d="M54.2964 926.506L25.8607 887.538L28.1774 888.529L54.2964 926.506Z" fill="#C258F6" />
    <path d="M54.2964 926.506L23.544 886.547L25.8607 887.538L54.2964 926.506Z" fill="#BF53F4" />
    <path d="M54.2964 926.506L21.2274 885.556L23.544 886.547L54.2964 926.506Z" fill="#BD4EF2" />
    <path d="M54.2964 926.506L18.9107 884.564L21.2274 885.556L54.2964 926.506Z" fill="#BC4CF0" />
    <path d="M54.2964 926.506L16.594 883.573L18.9107 884.564L54.2964 926.506Z" fill="#BD4EF2" />
    <path d="M54.2964 926.506L14.2773 882.582L16.594 883.573L54.2964 926.506Z" fill="#C156F4" />
    <path d="M54.2964 926.506L11.9606 881.591L14.2773 882.582L54.2964 926.506Z" fill="#C65DF5" />
    <path d="M54.2972 926.506L103.38 937.429L6.59486 1044.58L0.378906 876.635L11.9623 881.591L54.2972 926.506Z" fill="#B15CEF" />
    <path d="M54.2964 926.506L82.6201 911.821L141.696 937.095L54.2964 926.506Z" fill="#D8B2FB" />
    <path d="M18.9124 884.564L16.5957 883.572L40.2144 855.706L18.9124 884.564Z" fill="#D483FB" />
    <path d="M16.5957 883.572L14.279 882.581L40.2144 855.706L16.5957 883.572Z" fill="#D584FC" />
    <path d="M14.279 882.581L11.9623 881.591L40.2144 855.706L14.279 882.581Z" fill="#D485FB" />
    <path d="M11.9623 881.591L9.64567 880.599L40.2144 855.706L11.9623 881.591Z" fill="#D485FB" />
    <path d="M9.64567 880.599L7.32898 879.608L40.2144 855.706L9.64567 880.599Z" fill="#D383FC" />
    <path d="M7.32898 879.608L5.0123 878.617L40.2144 855.706L7.32898 879.608Z" fill="#D080FB" />
    <path d="M5.0123 878.617L0.378906 876.635L40.2144 855.706L5.0123 878.617Z" fill="#C773F7" />
    <path d="M51.3442 898.44L49.0276 897.449L40.2131 855.707L51.3442 898.44Z" fill="#C55FF7" />
    <path d="M49.0303 897.449L46.7136 896.458L40.2154 855.707L49.0303 897.449Z" fill="#C559F6" />
    <path d="M46.7118 896.458L44.3951 895.467L40.2144 855.706L46.7118 896.458Z" fill="#C354F6" />
    <path d="M44.3942 895.467L42.0775 894.476L40.212 855.706L44.3942 895.467Z" fill="#C14FF5" />
    <path d="M42.0791 894.475L39.7624 893.484L40.2144 855.706L42.0791 894.475Z" fill="#C04CF4" />
    <path d="M39.7605 893.484L37.4438 892.492L40.212 855.706L39.7605 893.484Z" fill="#C252F5" />
    <path d="M37.4441 892.494L35.1275 891.502L40.2131 855.707L37.4441 892.494Z" fill="#C65BF7" />
    <path d="M35.1275 891.502L32.8108 890.511L40.2131 855.707L35.1275 891.502Z" fill="#C964F7" />
    <path d="M32.8115 890.509L30.4948 889.518L40.2134 855.705L32.8115 890.509Z" fill="#CD6CFA" />
    <path d="M30.4951 889.52L28.1784 888.529L40.2131 855.707L30.4951 889.52Z" fill="#CF75FB" />
    <path d="M28.1784 888.529L25.862 887.538L40.214 855.707L28.1784 888.529Z" fill="#D17BF9" />
    <path d="M25.8607 887.538L23.544 886.547L40.2131 855.707L25.8607 887.538Z" fill="#D480FC" />
    <path d="M23.5458 886.546L21.2291 885.555L40.2144 855.706L23.5458 886.546Z" fill="#D481FD" />
    <path d="M21.2291 885.555L18.9124 884.564L40.2144 855.706L21.2291 885.555Z" fill="#D582FC" />
    <path d="M55.9776 900.423L53.6609 899.432L40.2131 855.707L55.9776 900.423Z" fill="#C66BF6" />
    <path d="M53.6611 899.434L51.3444 898.443L40.2129 855.709L53.6611 899.434Z" fill="#C667F7" />
    <path d="M182.237 970.5L182.237 954.441L224.652 891.434L182.237 970.5Z" fill="#A186F0" />
    <path d="M182.237 954.441L177.603 952.459L224.652 891.434L182.237 954.441Z" fill="#AE94F6" />
    <path d="M177.603 952.459L172.969 950.477L224.652 891.434L177.603 952.459Z" fill="#B39AF7" />
    <path d="M172.969 950.477L168.336 948.495L224.652 891.434L172.969 950.477Z" fill="#B9A1F7" />
    <path d="M168.336 948.495L146.328 939.079L224.652 891.434L168.336 948.495Z" fill="#C3ACFA" />
    <path d="M65.2451 904.387L62.9285 903.395L40.214 855.707L65.2451 904.387Z" fill="#CC7FF9" />
    <path d="M62.9285 903.395L60.6122 902.404L40.214 855.707L62.9285 903.395Z" fill="#CB7BF8" />
    <path d="M60.611 902.405L58.2943 901.414L40.212 855.707L60.611 902.405Z" fill="#CA76F7" />
    <path d="M58.294 901.416L55.9773 900.425L40.2129 855.709L58.294 901.416Z" fill="#C972F8" />
    <path d="M146.328 939.079L141.694 937.096L224.652 891.434L146.328 939.079Z" fill="#CBB6FA" />
    <path d="M73.3525 907.857L68.7192 905.874L40.212 855.707L73.3525 907.857Z" fill="#CD89F9" />
    <path d="M68.7209 905.872L65.2459 904.385L40.2151 855.705L68.7209 905.872Z" fill="#CB83FA" />
    <path d="M77.9879 909.838L73.354 907.856L40.214 855.707L77.9879 909.838Z" fill="#CF90FB" />
    <path d="M82.6201 911.82L77.9867 909.837L40.2134 855.705L82.6201 911.82Z" fill="#D098FA" />
    <path d="M82.6201 911.82L40.2134 855.705L80.1989 767.833L82.6201 911.82Z" fill="#C563F7" />
    <path d="M141.694 937.096L82.6188 911.822L224.652 891.434L141.694 937.096Z" fill="#D2BCFA" />
    <path d="M224.652 891.434L82.6188 911.822L80.1975 767.836L224.652 891.434Z" fill="#D6B5FC" />
    <path d="M224.653 891.434L80.1985 767.836L250.86 732.148L224.653 891.434Z" fill="#D5BFFA" />
    <path d="M284.188 789.587L224.653 891.433L250.86 732.146L284.188 789.587Z" fill="#EEE1FC" />
    <path d="M80.1989 767.833L48.9748 648.007L135.245 656.623L80.1989 767.833Z" fill="#CB77FB" />
    <path d="M250.86 732.146L80.1988 767.834L135.245 656.623L250.86 732.146Z" fill="#D3ABFC" />
    <path d="M250.86 732.146L135.245 656.623L209.297 633.209L250.86 732.146Z" fill="#E2C7FB" />
    <path d="M276.103 681.148L250.86 732.146L209.297 633.209L276.103 681.148Z" fill="#E2C8FD" />
    <path d="M284.188 789.587L250.861 732.145L276.103 681.148L284.188 789.587Z" fill="#EFE4FA" />
    <path d="M276.103 681.149L209.297 633.21L253.057 605.771L276.103 681.149Z" fill="#E5CCFB" />
    <path d="M284.19 789.586L276.105 681.147L428.999 648.002L284.19 789.586Z" fill="#F1E3FA" />
    <path d="M135.245 656.623L48.9748 648.007L62.8157 493.853L135.245 656.623Z" fill="#BB69F9" />
    <path d="M209.297 633.209L135.246 656.623L151.146 457.189L209.297 633.209Z" fill="#DAB2F9" />
    <path d="M135.245 656.625L62.8157 493.855L151.145 457.191L135.245 656.625Z" fill="#B672F9" />
    <path d="M209.294 633.213L151.143 457.194L177.583 449.148L209.294 633.213Z" fill="#D8BAFA" />
    <path d="M253.056 605.77L209.296 633.209L177.585 449.144L253.056 605.77Z" fill="#E2CAFA" />
    <path d="M276.103 681.149L253.057 605.771L428.999 648.002L276.103 681.149Z" fill="#D6ADFF" />
    <path d="M62.8145 493.853L10.2867 432.664L151.144 457.189L62.8145 493.853Z" fill="#9743EF" />
    <path d="M151.144 457.189L10.2867 432.664L103.124 330.176L151.144 457.189Z" fill="#7F28DF" />
    <path d="M177.584 449.147L151.143 457.193L103.124 330.18L177.584 449.147Z" fill="#B37EF4" />
    <path d="M224.655 891.433L284.19 789.588L429 648.001L224.655 891.433Z" fill="#F1E6FB" />
    <path d="M321.445 395.29L177.584 449.145L263.445 315.38L321.445 395.29Z" fill="#B676F2" />
    <path d="M177.585 449.144L103.125 330.177L263.446 315.379L177.585 449.144Z" fill="#8732E0" />
    <path d="M263.445 315.38L103.125 330.179L249.016 232.52L263.445 315.38Z" fill="#95BDF8" />
    <path d="M103.126 330.176L146.11 221.294L244.008 219.951L103.126 330.176Z" fill="#AE68F5" />
    <path d="M249.016 232.52L103.125 330.179L244.007 219.954L249.016 232.52Z" fill="#3A57DF" />
    <path d="M182.239 970.5L224.655 891.432L429 648L348.646 872.184L182.239 970.5Z" fill="#F1E1FD" />
    <path d="M249.019 232.518L244.01 219.951L270.743 167.359L249.019 232.518Z" fill="#7F96F4" />
    <path d="M244.007 219.951L146.11 221.294L129.884 142.834L244.007 219.951Z" fill="#B676F2" />
    <path d="M263.448 315.378L249.019 232.518L404.331 205.153L263.448 315.378Z" fill="#D8C9FB" />
    <path d="M321.447 395.289L263.447 315.38L404.329 205.154L429 242.581L321.447 395.289Z" fill="#959DF8" />
    <path d="M249.019 232.518L270.743 167.359L404.331 205.153L249.019 232.518Z" fill="#5A84F2" />
    <path d="M244.007 219.951L129.884 142.834L270.742 167.359L244.007 219.951Z" fill="#D8C9FB" />
    <path d="M404.329 205.154L270.743 167.36L399.44 156.901L404.329 205.154Z" fill="#95BDF8" />
    <path d="M404.328 205.153L399.438 156.9L429 132.497L404.328 205.153Z" fill="#4E1CCD" />
    <path d="M270.742 167.359L129.884 142.835L214.598 76.3666L270.742 167.359Z" fill="#5D65F9" />
    <path d="M429 242.581L404.329 205.154L429 132.5V242.581Z" fill="#8C56E8" />
    <path d="M404.331 205.153L429 132.497V132.5L404.331 205.153Z" fill="#7B59EB" />
    <path d="M429 132.497L399.439 156.899L429 110.496V132.497Z" fill="#6B43E1" />
    <path d="M399.438 156.903L270.741 167.362L323.967 0.276692L399.438 156.903Z" fill="#5577FF" />
    <path d="M429 110.498L399.44 156.901L323.969 0.274786L429 110.498Z" fill="#2030E8" />
    <path d="M270.742 167.359L214.239 76.8292L270.475 44.1084L323.967 0.274414L270.742 167.359Z" fill="#9F85FF" />
  </g>
</svg>