<svg width="225" height="870" viewBox="0 0 225 870" fill="none" xmlns="http://www.w3.org/2000/svg">
  <g opacity="0.3">
    <path d="M224.99 764.559L224.982 744.921L224.99 748.494V764.559Z" fill="#D098FB" />
    <path d="M224.999 764.559L221.997 744.92H224.99L224.999 764.559Z" fill="#D098FB" />
    <path d="M225.003 764.561L220.006 744.922H222.002L225.003 764.561Z" fill="#CF97FA" />
    <path d="M225.003 764.561L218.011 744.922H220.006L225.003 764.561Z" fill="#CF97F9" />
    <path d="M225.003 764.561L216.015 744.922H218.011L225.003 764.561Z" fill="#CF96F9" />
    <path d="M225.003 764.561L214.02 744.922H216.015L225.003 764.561Z" fill="#CF93FA" />
    <path d="M225.003 764.561L212.024 744.922H214.02L225.003 764.561Z" fill="#D091FA" />
    <path d="M225.003 764.561L210.029 744.922H212.024L225.003 764.561Z" fill="#CF8DFA" />
    <path d="M225.003 764.561L208.033 744.922H210.029L225.003 764.561Z" fill="#CC86F9" />
    <path d="M225.003 764.561L206.038 744.922H208.033L225.003 764.561Z" fill="#CC84F8" />
    <path d="M225.003 764.561L204.043 744.922H206.038L225.003 764.561Z" fill="#CB82F8" />
    <path d="M225.003 764.561L202.047 744.922H204.043L225.003 764.561Z" fill="#C97CF7" />
    <path d="M225.003 764.561L200.052 744.922H202.047L225.003 764.561Z" fill="#C97AF9" />
    <path d="M225.003 764.561L198.056 744.922H200.052L225.003 764.561Z" fill="#C872F8" />
    <path d="M225.003 764.561L196.061 744.922H198.056L225.003 764.561Z" fill="#C76CF7" />
    <path d="M225.003 764.561L194.065 744.922H196.061L225.003 764.561Z" fill="#C76AF8" />
    <path d="M225.003 764.561L192.07 744.922H194.065L225.003 764.561Z" fill="#C563F7" />
    <path d="M225.003 764.561L190.074 744.922H192.07L225.003 764.561Z" fill="#C45DF6" />
    <path d="M225.003 764.561L188.079 744.922H190.074L225.003 764.561Z" fill="#C258F6" />
    <path d="M225.003 764.561L186.083 744.922H188.079L225.003 764.561Z" fill="#BF53F4" />
    <path d="M225.003 764.561L184.088 744.922H186.083L225.003 764.561Z" fill="#BD4EF2" />
    <path d="M225.003 764.561L182.092 744.922H184.088L225.003 764.561Z" fill="#BC4CF0" />
    <path d="M225.003 764.561L180.097 744.922H182.092L225.003 764.561Z" fill="#BD4EF2" />
    <path d="M225.003 764.561L178.102 744.922H180.097L225.003 764.561Z" fill="#C156F4" />
    <path d="M225.003 764.561L176.106 744.922H178.102L225.003 764.561Z" fill="#C65DF5" />
    <path d="M224.999 764.559L224.99 768.153V869.714L166.124 744.921H176.101L224.999 764.559Z" fill="#B15CEF" />
    <path d="M182.085 744.92H180.09L187.074 717.072L182.085 744.92Z" fill="#D483FB" />
    <path d="M180.09 744.92H178.095L187.074 717.072L180.09 744.92Z" fill="#D584FC" />
    <path d="M178.095 744.92H176.099L187.074 717.072L178.095 744.92Z" fill="#D485FB" />
    <path d="M176.099 744.92H174.104L187.074 717.072L176.099 744.92Z" fill="#D485FB" />
    <path d="M174.104 744.92H172.108L187.074 717.072L174.104 744.92Z" fill="#D383FC" />
    <path d="M172.108 744.92H170.113L187.074 717.072L172.108 744.92Z" fill="#D080FB" />
    <path d="M170.113 744.92H166.122L187.074 717.072L170.113 744.92Z" fill="#C773F7" />
    <path d="M210.021 744.921H208.026L187.074 717.073L210.021 744.921Z" fill="#C55FF7" />
    <path d="M208.029 744.922H206.034L187.077 717.074L208.029 744.922Z" fill="#C559F6" />
    <path d="M206.031 744.92H204.036L187.074 717.072L206.031 744.92Z" fill="#C354F6" />
    <path d="M204.035 744.921H202.04L187.074 717.073L204.035 744.921Z" fill="#C14FF5" />
    <path d="M202.041 744.92H200.046L187.074 717.072L202.041 744.92Z" fill="#C04CF4" />
    <path d="M200.045 744.921H198.049L187.074 717.073L200.045 744.921Z" fill="#C252F5" />
    <path d="M198.051 744.92H196.055L187.076 717.072L198.051 744.92Z" fill="#C65BF7" />
    <path d="M196.055 744.921H194.059L187.075 717.073L196.055 744.921Z" fill="#C964F7" />
    <path d="M194.058 744.919H192.063L187.074 717.072L194.058 744.919Z" fill="#CD6CFA" />
    <path d="M192.064 744.921H190.069L187.076 717.072L192.064 744.921Z" fill="#CF75FB" />
    <path d="M190.068 744.92H188.073L187.076 717.072L190.068 744.92Z" fill="#D17BF9" />
    <path d="M188.072 744.921H186.077L187.075 717.073L188.072 744.921Z" fill="#D480FC" />
    <path d="M186.076 744.92H184.081L187.074 717.072L186.076 744.92Z" fill="#D481FD" />
    <path d="M184.081 744.92H182.085L187.074 717.072L184.081 744.92Z" fill="#D582FC" />
    <path d="M214.016 744.922H212.02L187.077 717.074L214.016 744.922Z" fill="#C66BF6" />
    <path d="M212.016 744.921H210.02L187.072 717.073L212.016 744.921Z" fill="#C667F7" />
    <path d="M222 744.921H220.004L187.079 717.073L222 744.921Z" fill="#CC7FF9" />
    <path d="M219.998 744.92H218.003L187.073 717.072L219.998 744.92Z" fill="#CB7BF8" />
    <path d="M218.004 744.92H216.008L187.074 717.072L218.004 744.92Z" fill="#CA76F7" />
    <path d="M216.008 744.923H214.012L187.074 717.075L216.008 744.923Z" fill="#C972F8" />
    <path d="M224.99 748.496L224.988 744.922L187.074 717.073L224.99 748.496Z" fill="#CD89F9" />
    <path d="M224.988 744.918H221.995L187.074 717.07L224.988 744.918Z" fill="#CB83FA" />
    <path d="M224.99 748.494L187.077 717.074L184.582 640.081L224.99 748.494Z" fill="#C563F7" />
    <path d="M224.99 688.977V748.496L184.578 640.082L224.99 688.977Z" fill="#D6B5FC" />
    <path d="M224.99 688.977L184.582 640.082L224.99 563.934V688.977Z" fill="#D5BFFA" />
    <path d="M184.582 640.082L120.228 561.998L184.582 541.248L184.582 640.082Z" fill="#CB77FB" />
    <path d="M224.99 563.932L184.577 640.08L184.577 541.247L224.99 563.932Z" fill="#D3ABFC" />
    <path d="M224.99 563.934L184.583 541.247L224.99 504.414V563.934Z" fill="#E2C7FB" />
    <path d="M184.577 541.247L120.224 561.996L75.8253 444.597L184.577 541.247Z" fill="#BB69F9" />
    <path d="M224.99 504.412L184.576 541.246L125.709 389.992L224.99 504.412Z" fill="#DAB2F9" />
    <path d="M184.584 541.248L75.8312 444.599L125.718 389.994L184.584 541.248Z" fill="#B672F9" />
    <path d="M224.99 504.417L125.713 389.997L141.677 375.8L224.99 504.417Z" fill="#D8BAFA" />
    <path d="M224.99 470.56V504.414L141.681 375.796L224.99 470.56Z" fill="#E2CAFA" />
    <path d="M75.8263 444.598L16.9601 416.204L125.713 389.994L75.8263 444.598Z" fill="#9743EF" />
    <path d="M125.717 389.994L16.964 416.204L46.896 311.91L125.717 389.994Z" fill="#7F28DF" />
    <path d="M141.68 375.8L125.716 389.997L46.8952 311.913L141.68 375.8Z" fill="#B37EF4" />
    <path d="M224.998 291.559L141.676 375.797L155.644 250.753L224.998 291.559Z" fill="#B676F2" />
    <path d="M141.68 375.797L46.896 311.91L155.648 250.754L141.68 375.797Z" fill="#8732E0" />
    <path d="M155.648 250.756L46.8952 311.913L116.238 194.514L155.648 250.756Z" fill="#95BDF8" />
    <path d="M46.8932 311.908L39.1384 218.567L108.254 186.865L46.8932 311.908Z" fill="#AE68F5" />
    <path d="M116.238 194.514L46.8952 311.913L108.256 186.869L116.238 194.514Z" fill="#3A57DF" />
    <path d="M116.236 194.51L108.254 186.866L108.753 139.906L116.236 194.51Z" fill="#7F96F4" />
    <path d="M108.252 186.865L39.137 218.567L-0.00195312 166.115L108.252 186.865Z" fill="#B676F2" />
    <path d="M155.647 250.751L116.237 194.509L224.998 126.106L155.647 250.751Z" fill="#D8C9FB" />
    <path d="M224.998 291.559L155.644 250.753L224.998 126.108V147.404V291.559Z" fill="#959DF8" />
    <path d="M116.235 194.508L108.752 139.904L224.998 126.106L116.235 194.508Z" fill="#5A84F2" />
    <path d="M108.257 186.866L0.00308557 166.117L108.756 139.907L108.257 186.866Z" fill="#D8C9FB" />
    <path d="M224.998 126.108L108.753 139.906L196.554 91.8541L224.998 126.108Z" fill="#95BDF8" />
    <path d="M224.998 126.108L196.555 91.8539L224.998 60.5822V126.108Z" fill="#4E1CCD" />
    <path d="M108.752 139.907L-0.000814515 166.117L36.8294 90.7891L108.752 139.907Z" fill="#5D65F9" />
    <path d="M224.998 60.5822L196.555 91.8539L224.998 41.4703V60.5822Z" fill="#6B43E1" />
    <path d="M196.549 91.8556L108.748 139.907L87.796 0.666565L196.549 91.8556Z" fill="#5577FF" />
    <path d="M224.998 41.4703L196.555 91.8539L87.8024 0.665039L224.998 41.4703Z" fill="#2030E8" />
    <path d="M108.756 139.907L36.7409 91.2403L65.2024 49.5977L87.8034 0.665588L108.756 139.907Z" fill="#9F85FF" />
  </g>
</svg>