<svg width="1512" height="725" viewBox="0 0 1512 725" fill="none" xmlns="http://www.w3.org/2000/svg">
  <g opacity="0.4">
    <path d="M1425.64 294.942V266.066L1347.17 261.941L1425.64 294.942Z" fill="#BD54F0" />
    <path d="M1425.64 371.255L1414.59 326.911L1335.01 335.161L1425.64 371.255Z" fill="#D86DF5" />
    <path d="M1414.59 326.911L1347.17 261.941L1335.01 335.161L1414.59 326.911Z" fill="#A73DED" />
    <path d="M1414.59 326.911L1425.64 294.942L1347.17 261.941L1414.59 326.911Z" fill="#9C37E9" />
    <path d="M1512 459.944L1425.64 371.255L1379.22 565.133L1512 459.944Z" fill="#F7C4FF" />
    <path d="M1347.17 261.941L1425.64 266.066L1299.65 162.94L1347.17 261.941Z" fill="#C958F4" />
    <path d="M1379.22 565.133L1425.64 371.255L1276.44 524.914L1379.22 565.133Z" fill="#F6D0FF" />
    <path d="M1425.64 371.255L1335.01 335.161L1276.44 524.914L1425.64 371.255Z" fill="#F2B8FE" />
    <path d="M1347.17 261.941L1299.65 162.94L1237.76 156.752L1347.17 261.941Z" fill="#FAE3FF" />
    <path d="M1173.66 179.44L1157.08 137.158L1142.71 171.19L1173.66 179.44Z" fill="white" fill-opacity="0.247059" />
    <path d="M1347.17 261.941L1237.76 156.752L1173.66 179.44L1347.17 261.941Z" fill="#9E2EEE" />
    <path d="M1276.44 524.914L1335.01 335.161L1160.39 491.913L1276.44 524.914Z" fill="#F4D3FF" />
    <path d="M1335.01 335.161L1347.17 261.941L1173.66 179.44L1335.01 335.161Z" fill="#BB47F3" />
    <path d="M1173.66 179.44L1142.71 171.19L1095.19 241.316L1173.66 179.44Z" fill="#7D0FE5" />
    <path d="M1335.01 335.161L1173.66 179.44L1086.35 293.91L1335.01 335.161Z" fill="#CB53F8" />
    <path d="M1173.66 179.44L1095.19 241.316L1086.35 293.91L1173.66 179.44Z" fill="#AE32F1" />
    <path d="M1160.39 491.913L1335.01 335.161L1086.35 293.91L1160.39 491.913Z" fill="#F4CAFF" />
    <path d="M1095.19 241.316L1142.71 171.19L1034.4 94.8764L1095.19 241.316Z" fill="#7F11E8" />
    <path d="M1109.56 486.757L1160.39 491.913L1086.35 293.91L1109.56 486.757Z" fill="#F6E3FE" />
    <path d="M1109.55 486.757L1086.35 293.91L966.985 439.319L1109.55 486.757Z" fill="#F5E9FE" fill-opacity="0.803922" />
    <path d="M966.985 439.319L1086.35 293.91L952.617 381.568L966.985 439.319Z" fill="#F7EDFB" fill-opacity="0.494118" />
    <path d="M1086.35 293.91L954.828 336.192L952.617 381.568L1086.35 293.91Z" fill="#EEE0FD" />
    <path d="M1086.35 293.91L1095.19 241.316L954.828 336.192L1086.35 293.91Z" fill="#C651FA" />
    <path d="M954.828 336.192L1095.19 241.316L896.253 292.879L954.828 336.192Z" fill="#B84DF9" />
    <path d="M1095.19 241.316L1034.4 94.8764L896.253 292.879L1095.19 241.316Z" fill="#A833F2" />
    <path d="M954.828 336.192L896.253 292.879L844.309 327.942L954.828 336.192Z" fill="#C274FC" />
    <path d="M896.253 292.879L1034.4 94.8764L776.892 138.189L896.253 292.879Z" fill="#9728EE" />
    <path d="M1034.4 94.8764L875.254 30.938L776.892 138.189L1034.4 94.8764Z" fill="#ECB6FD" />
    <path d="M776.894 138.189L875.256 30.9379L715.003 62.9071L776.894 138.189Z" fill="#E8BAFC" />
    <path d="M844.309 327.942L896.253 292.879L776.894 138.189L844.309 327.942Z" fill="#A34FF7" />
    <path d="M776.892 138.189L715.002 62.9072L659.742 129.939L776.892 138.189Z" fill="#CC6FF4" />
    <path d="M844.309 327.942L776.892 138.189L586.799 260.91L844.309 327.942Z" fill="#A067F8" />
    <path d="M776.892 138.189L659.742 129.939L586.799 260.91L776.892 138.189Z" fill="#8140EF" />
    <path d="M780.207 396.006L844.309 327.942L586.799 260.91L780.207 396.006Z" fill="#C9BFFC" />
    <path d="M736.001 410.443L780.209 396.006L586.8 260.91L736.001 410.443Z" fill="#D9E5FD" />
    <path d="M715.002 62.9072L674.11 8.25012L659.742 129.939L715.002 62.9072Z" fill="#D88BFA" />
    <path d="M674.109 426.944L736 410.443L586.799 260.91L674.109 426.944Z" fill="#D9E8FD" />
    <path d="M590.115 396.006L674.109 426.944L586.799 260.91L590.115 396.006Z" fill="#D0E4FD" />
    <path d="M659.742 129.939L674.11 8.25012L654.216 0L659.742 129.939Z" fill="#D173FB" fill-opacity="0.996078" />
    <path d="M586.8 260.91L659.742 129.939L524.909 190.784L586.8 260.91Z" fill="#7844F0" />
    <path d="M659.742 129.939L654.216 0L506.12 20.6253L659.742 129.939Z" fill="#CF72FA" />
    <path d="M586.8 260.91L524.91 190.784L516.068 198.003L586.8 260.91Z" fill="#91B6F5" />
    <path d="M586.8 260.91L516.068 198.003L464.124 228.941L586.8 260.91Z" fill="#97C4F8" />
    <path d="M524.909 190.784L659.742 129.939L506.12 20.6253L524.909 190.784Z" fill="#DBA7F5" />
    <path d="M521.593 466.132L590.115 396.006L396.706 388.787L521.593 466.132Z" fill="#B9E4FD" />
    <path d="M590.115 396.006L586.8 260.91L464.123 228.941L590.115 396.006Z" fill="#B5D8FC" />
    <path d="M590.115 396.006L464.123 228.941L396.706 388.787L590.115 396.006Z" fill="#A6D6FC" />
    <path d="M396.706 388.787L464.123 228.941L384.549 283.598L396.706 388.787Z" fill="#7CBFF8" />
    <path d="M516.066 198.003L524.909 190.784L371.286 47.4382L516.066 198.003Z" fill="#8261F8" />
    <path d="M524.909 190.784L506.12 20.6253L419.5 0.499986L371.286 47.4382L524.909 190.784Z" fill="#DA89FB" />
    <path d="M521.593 466.132L396.706 388.787L375.708 509.445L521.593 466.132Z" fill="white" fill-opacity="0.027451" />
    <path d="M375.708 509.445L396.706 388.787L325.974 426.944L375.708 509.445Z" fill="#A0D9FD" />
    <path d="M464.124 228.941L516.068 198.003L371.288 47.4381L464.124 228.941Z" fill="#8261F8" />
    <path d="M464.123 228.941L371.286 47.4382L318.237 68.0634L464.123 228.941Z" fill="#D795F8" />
    <path d="M274.03 234.097L318.237 68.0634L274.03 61.5L265.189 94.8764L274.03 234.097Z" fill="#D18DF9" />
    <path d="M384.549 283.598L464.123 228.941L274.03 234.097L384.549 283.598Z" fill="#6FB2F7" />
    <path d="M464.123 228.941L318.237 68.0634L274.03 234.097L464.123 228.941Z" fill="#727CF3" />
    <path d="M396.706 388.787L384.549 283.598L325.974 426.944L396.706 388.787Z" fill="#77C4FA" />
    <path d="M274.03 234.097L265.189 94.8764L219.502 94.8765L212.14 127.877L274.03 234.097Z" fill="#D793FA" />
    <path d="M325.973 426.944L384.549 283.598L274.029 234.097L325.973 426.944Z" fill="#5DADF6" />
    <path d="M375.708 509.445L325.974 426.944L178.984 481.601L375.708 509.445Z" fill="#96D5FC" />
    <path d="M194.457 583.696L375.708 509.445L178.984 481.601L194.457 583.696Z" fill="#B8E6FD" />
    <path d="M274.03 234.097L212.14 127.877L184.502 181L144.723 187.69L274.03 234.097Z" fill="#DD97FA" fill-opacity="0.960784" />
    <path d="M274.03 234.097L134.502 183.5L143.618 191.815L274.03 234.097Z" fill="#E39CF9" fill-opacity="0.94902" />
    <path d="M325.974 426.944L274.03 234.097L135.881 432.1L325.974 426.944Z" fill="#489EF4" />
    <path d="M178.984 481.601L325.974 426.944L135.881 432.1L178.984 481.601Z" fill="#4DACF7" />
    <path d="M274.03 234.097L143.618 191.815L135.881 432.1L274.03 234.097Z" fill="#4B7DEC" />
    <path d="M135.881 432.1L143.618 191.815L54.0025 251.5L112.503 332L37 353.5L135.881 432.1Z" fill="#356CE8" />
    <path d="M19.8373 394.974L135.881 432.1L37 353.5L19.8373 394.974Z" fill="#296EE9" />
    <path d="M19.8355 394.974L0 389L11.4998 404.5L19.8355 394.974Z" fill="#5C86EE" />
    <path d="M178.984 481.601L135.881 432.1L0 670.192L178.984 481.601Z" fill="#318EF3" />
    <path d="M194.457 583.696L178.984 481.601L0 670.192L194.457 583.696Z" fill="#56B4F9" />
    <path d="M135.881 432.1L19.8373 394.974L0.00113487 670.192L135.881 432.1Z" fill="#2270EB" />
    <path d="M103 676.5L194.457 583.696L0.00113487 670.192L103 676.5Z" fill="#8BD1FC" />
    <path d="M19.8355 394.974L11.4998 404.5L0 670.192L19.8355 394.974Z" fill="#2A72EA" />
    <path d="M1512 459.944L1425.64 319.692L1425.64 371.255L1512 459.944Z" fill="#E585FC" />
    <path d="M1512 459.944L1425.64 294.942L1425.64 319.692L1512 459.944Z" fill="#DE77F6" />
    <path d="M1512 459.944L1425.64 266.066V294.942L1512 459.944Z" fill="#A631EB" />
    <path d="M1512 459.944V162.52L1425.64 266.066L1512 459.944Z" fill="#D773F6" />
    <path d="M1425.64 371.255L1425.64 319.692L1414.59 326.911L1425.64 371.255Z" fill="#9833EA" />
    <path d="M1425.64 319.692L1425.64 294.942L1414.59 326.911L1425.64 319.692Z" fill="#7520E3" />
    <path d="M0 724.5L103 676.5L0 670.192V724.5Z" fill="#63B9FB" />
    <path d="M11.4998 404.5L0 389L0.00113487 670.192L11.4998 404.5Z" fill="#4097EE" />
  </g>
</svg>