<svg width="375" height="693" viewBox="0 0 375 693" fill="none" xmlns="http://www.w3.org/2000/svg">
  <g opacity="0.3">
    <path d="M230.229 649.988H244.402L246.426 616.425L230.229 649.988Z" fill="#BD54F0" />
    <path d="M192.771 649.988L214.537 645.26L210.488 611.225L192.771 649.988Z" fill="#D86DF5" />
    <path d="M214.54 645.26L246.429 616.424L210.49 611.224L214.54 645.26Z" fill="#A73DED" />
    <path d="M214.535 645.26L230.227 649.988L246.425 616.425L214.535 645.26Z" fill="#9C37E9" />
    <path d="M149.236 692.059L192.768 649.987L97.6055 630.133L149.236 692.059Z" fill="#F7C4FF" />
    <path d="M246.429 616.424L244.404 649.988L295.023 596.098L246.429 616.424Z" fill="#C958F4" />
    <path d="M97.6055 630.133L192.768 649.987L117.347 586.171L97.6055 630.133Z" fill="#F6D0FF" />
    <path d="M192.771 649.988L210.488 611.225L117.35 586.171L192.771 649.988Z" fill="#F2B8FE" />
    <path d="M246.426 616.425L295.019 596.098L298.057 569.625L246.426 616.425Z" fill="#FAE3FF" />
    <path d="M286.926 542.208L307.679 535.117L290.975 528.971L286.926 542.208Z" fill="white" fill-opacity="0.247059" />
    <path d="M246.426 616.425L298.057 569.625L286.921 542.208L246.426 616.425Z" fill="#9E2EEE" />
    <path d="M117.35 586.171L210.488 611.225L133.548 536.535L117.35 586.171Z" fill="#F4D3FF" />
    <path d="M210.49 611.224L246.429 616.424L286.924 542.208L210.49 611.224Z" fill="#BB47F3" />
    <path d="M286.924 542.208L290.973 528.971L256.553 508.645L286.924 542.208Z" fill="#7D0FE5" />
    <path d="M210.49 611.224L286.924 542.208L230.738 504.863L210.49 611.224Z" fill="#CB53F8" />
    <path d="M286.924 542.208L256.553 508.645L230.738 504.863L286.924 542.208Z" fill="#AE32F1" />
    <path d="M133.548 536.535L210.487 611.224L230.734 504.863L133.548 536.535Z" fill="#F4CAFF" />
    <path d="M256.553 508.645L290.973 528.971L328.431 482.645L256.553 508.645Z" fill="#7F11E8" />
    <path d="M136.078 514.79L133.548 536.535L230.734 504.863L136.078 514.79Z" fill="#F6E3FE" />
    <path d="M136.08 514.79L230.737 504.863L159.365 453.809L136.08 514.79Z" fill="#F5E9FE" fill-opacity="0.803922" />
    <path d="M159.367 453.809L230.739 504.863L187.713 447.664L159.367 453.809Z" fill="#F7EDFB" fill-opacity="0.494118" />
    <path d="M230.734 504.863L209.981 448.609L187.709 447.664L230.734 504.863Z" fill="#EEE0FD" />
    <path d="M230.734 504.863L256.549 508.645L209.981 448.609L230.734 504.863Z" fill="#C651FA" />
    <path d="M209.981 448.609L256.549 508.645L231.24 423.555L209.981 448.609Z" fill="#B84DF9" />
    <path d="M256.553 508.645L328.431 482.645L231.244 423.555L256.553 508.645Z" fill="#A833F2" />
    <path d="M209.981 448.609L231.24 423.555L214.03 401.337L209.981 448.609Z" fill="#C274FC" />
    <path d="M231.244 423.555L328.431 482.645L307.172 372.502L231.244 423.555Z" fill="#9728EE" />
    <path d="M328.431 482.645L359.815 414.574L307.172 372.502L328.431 482.645Z" fill="#ECB6FD" />
    <path d="M307.172 372.502L359.815 414.574L344.123 346.03L307.172 372.502Z" fill="#E8BAFC" />
    <path d="M214.03 401.337L231.24 423.555L307.167 372.502L214.03 401.337Z" fill="#A34FF7" />
    <path d="M307.172 372.502L344.123 346.03L311.221 322.394L307.172 372.502Z" fill="#CC6FF4" />
    <path d="M214.03 401.337L307.167 372.502L246.931 291.194L214.03 401.337Z" fill="#A067F8" />
    <path d="M307.172 372.502L311.221 322.394L246.936 291.194L307.172 372.502Z" fill="#8140EF" />
    <path d="M180.625 373.92L214.033 401.337L246.936 291.194L180.625 373.92Z" fill="#C9BFFC" />
    <path d="M173.535 355.012L180.622 373.92L246.931 291.194L173.535 355.012Z" fill="#D9E5FD" />
    <path d="M344.121 346.03L370.948 328.539L311.219 322.394L344.121 346.03Z" fill="#D88BFA" />
    <path d="M165.439 328.539L173.538 355.011L246.936 291.194L165.439 328.539Z" fill="#D9E8FD" />
    <path d="M180.625 292.612L165.439 328.539L246.936 291.194L180.625 292.612Z" fill="#D0E4FD" />
    <path d="M311.219 322.394L370.948 328.539L374.998 320.03L311.219 322.394Z" fill="#D173FB" fill-opacity="0.996078" />
    <path d="M246.936 291.194L311.221 322.394L281.356 264.722L246.936 291.194Z" fill="#7844F0" />
    <path d="M311.219 322.394L374.998 320.03L364.874 256.686L311.219 322.394Z" fill="#CF72FA" />
    <path d="M246.936 291.194L281.356 264.722L277.813 260.941L246.936 291.194Z" fill="#91B6F5" />
    <path d="M246.936 291.194L277.813 260.941L262.627 238.723L246.936 291.194Z" fill="#97C4F8" />
    <path d="M281.354 264.722L311.219 322.394L364.874 256.686L281.354 264.722Z" fill="#DBA7F5" />
    <path d="M146.205 263.304L180.625 292.612L184.169 209.887L146.205 263.304Z" fill="#B9E4FD" />
    <path d="M180.625 292.612L246.936 291.194L262.627 238.723L180.625 292.612Z" fill="#B5D8FC" />
    <path d="M180.625 292.612L262.627 238.723L184.169 209.887L180.625 292.612Z" fill="#A6D6FC" />
    <path d="M184.164 209.887L262.623 238.722L235.795 204.687L184.164 209.887Z" fill="#7CBFF8" />
    <path d="M277.813 260.941L281.356 264.722L351.715 199.014L277.813 260.941Z" fill="#8261F8" />
    <path d="M281.354 264.722L364.874 256.686L374.752 219.636L351.713 199.014L281.354 264.722Z" fill="#DA89FB" />
    <path d="M146.203 263.304L184.167 209.887L124.943 200.905L146.203 263.304Z" fill="white" fill-opacity="0.027451" />
    <path d="M124.943 200.905L184.167 209.887L165.438 179.633L124.943 200.905Z" fill="#A0D9FD" />
    <path d="M262.629 238.723L277.814 260.941L351.717 199.015L262.629 238.723Z" fill="#8261F8" />
    <path d="M262.629 238.723L351.717 199.015L341.594 176.324L262.629 238.723Z" fill="#D795F8" />
    <path d="M260.094 157.415L341.589 176.324L344.811 157.415L328.429 153.633L260.094 157.415Z" fill="#D18DF9" />
    <path d="M235.795 204.687L262.623 238.722L260.092 157.415L235.795 204.687Z" fill="#6FB2F7" />
    <path d="M262.625 238.722L341.589 176.324L260.094 157.415L262.625 238.722Z" fill="#727CF3" />
    <path d="M184.169 209.887L235.799 204.687L165.439 179.633L184.169 209.887Z" fill="#77C4FA" />
    <path d="M260.094 157.415L328.429 153.633L328.429 134.092L312.231 130.943L260.094 157.415Z" fill="#D793FA" />
    <path d="M165.439 179.633L235.799 204.687L260.096 157.415L165.439 179.633Z" fill="#5DADF6" />
    <path d="M124.943 200.905L165.438 179.633L138.61 116.762L124.943 200.905Z" fill="#96D5FC" />
    <path d="M88.4961 123.38L124.941 200.905L138.608 116.762L88.4961 123.38Z" fill="#B8E6FD" />
    <path d="M260.094 157.415L312.231 130.943L286.156 119.122L282.872 102.107L260.094 157.415Z" fill="#DD97FA" fill-opacity="0.960784" />
    <path d="M260.094 157.415L284.929 97.7353L280.847 101.635L260.094 157.415Z" fill="#E39CF9" fill-opacity="0.94902" />
    <path d="M165.435 179.633L260.092 157.415L162.904 98.3253L165.435 179.633Z" fill="#489EF4" />
    <path d="M138.611 116.761L165.439 179.633L162.908 98.3253L138.611 116.761Z" fill="#4DACF7" />
    <path d="M260.092 157.415L280.845 101.635L162.904 98.3253L260.092 157.415Z" fill="#4B7DEC" />
    <path d="M162.904 98.3253L280.845 101.635L251.55 63.3036L212.037 88.3256L185.683 47.2722L162.904 98.3253Z" fill="#356CE8" />
    <path d="M181.127 48.6903L162.904 98.3253L185.683 47.2722L181.127 48.6903Z" fill="#296EE9" />
    <path d="M181.125 48.6896L185.681 47.2714L197.829 10.8721L181.125 48.6896Z" fill="#5C86EE" />
    <path d="M138.61 116.762L162.907 98.3254L52.0527 0L138.61 116.762Z" fill="#318EF3" />
    <path d="M88.498 123.379L138.61 116.762L52.0527 0L88.498 123.379Z" fill="#56B4F9" />
    <path d="M162.907 98.3254L181.13 48.6902L52.0527 0L162.907 98.3254Z" fill="#2270EB" />
    <path d="M52.0527 107.307L88.498 123.379L52.0527 0V107.307Z" fill="#8BD1FC" />
    <path d="M181.13 48.6902L197.834 10.8721L52.0527 0L181.13 48.6902Z" fill="#2A72EA" />
    <path d="M149.242 692.059L218.083 649.987H192.774L149.242 692.059Z" fill="#E585FC" />
    <path d="M149.242 692.059L230.232 649.987H218.083L149.242 692.059Z" fill="#DE77F6" />
    <path d="M149.242 692.059L244.404 649.988L230.232 649.987L149.242 692.059Z" fill="#A631EB" />
    <path d="M149.242 692.059H295.229L244.404 649.988L149.242 692.059Z" fill="#D773F6" />
    <path d="M192.771 649.988H218.081L214.537 645.26L192.771 649.988Z" fill="#9833EA" />
    <path d="M218.078 649.988H230.227L214.535 645.26L218.078 649.988Z" fill="#7520E3" />
    <path d="M0 0.000137595L52.055 107.307L52.055 0.000138217L0 0.000137595Z" fill="#63B9FB" />
    <path d="M197.834 10.8721L206.761 0.000167747L52.0527 0L197.834 10.8721Z" fill="#4097EE" />
  </g>
</svg>