<svg width="1512" height="527" viewBox="0 0 1512 527" fill="none" xmlns="http://www.w3.org/2000/svg">
  <g opacity="0.3">
    <path d="M6.10465e-07 41.6102L0 123.473L1.77048 47.5347L6.10465e-07 41.6102Z" fill="#5589FA" />
    <path d="M1.49263e-06 179.087L1.04453e-06 239.176L27.5922 241.277L1.49263e-06 179.087Z" fill="#3350F1" />
    <path d="M1.77048 47.5347L0 123.473L43.8241 120.679L1.77048 47.5347Z" fill="#3E8FFA" />
    <path d="M38.818 23.7196L12.7159 42.2261L65.9259 49.8519L38.818 23.7196Z" fill="#5F7CFB" />
    <path d="M1.04453e-06 239.176L6.66083e-07 289.926L27.5922 241.277L1.04453e-06 239.176Z" fill="#3251EF" />
    <path d="M0 123.473L1.49263e-06 179.087L43.8241 120.679L0 123.473Z" fill="#3B93FA" />
    <path d="M12.7159 42.2261L1.77048 47.5347L43.8241 120.679L12.7159 42.2261Z" fill="#5C7CFC" />
    <path d="M43.8241 120.679L1.49263e-06 179.087L58.0274 180.475L43.8241 120.679Z" fill="#406CF4" />
    <path d="M1.49263e-06 179.087L27.5922 241.277L58.0274 180.475L1.49263e-06 179.087Z" fill="#3250EF" />
    <path d="M6.66083e-07 289.926L2.85216e-07 341L34.5886 301.28L6.66083e-07 289.926Z" fill="#5E67FA" />
    <path d="M27.5922 241.277L6.66083e-07 289.926L34.5886 301.28L27.5922 241.277Z" fill="#6269FC" />
    <path d="M12.7159 42.2261L43.8241 120.679L65.9259 49.8519L12.7159 42.2261Z" fill="#4A89FA" />
    <path d="M58.0274 180.475L27.5922 241.277L67.8121 240.953L58.0274 180.475Z" fill="#3251ED" />
    <path d="M67.8121 240.953L27.5922 241.277L78.4291 262.843L67.8121 240.953Z" fill="#5964F9" />
    <path d="M27.5938 241.277L34.5901 301.28L78.4301 262.843L27.5938 241.277Z" fill="#696CFD" />
    <path d="M65.9242 49.8519L43.8241 120.679L106.584 122.759L65.9242 49.8519Z" fill="#3B95FA" />
    <path d="M65.9259 49.8519L106.586 122.759L120.616 99.3286L65.9259 49.8519Z" fill="#3991F8" />
    <path d="M43.8241 120.679L58.0274 180.475L106.586 122.759L43.8241 120.679Z" fill="#405DF4" />
    <path d="M105.85 0.707032L65.9242 49.8519L116.527 5.39397L105.85 0.707032Z" fill="#4C87F9" />
    <path d="M58.0274 180.475L67.8121 240.953L105.748 228.765L58.0274 180.475Z" fill="#3251EF" />
    <path d="M67.8108 240.953L78.4279 262.843L105.748 228.765L67.8108 240.953Z" fill="#6D6FFE" />
    <path d="M116.527 5.39397L65.9242 49.8519L120.615 99.3285L116.527 5.39397Z" fill="#438DF8" />
    <path d="M58.0274 180.475L105.748 228.765L140.956 198.899L58.0274 180.475Z" fill="#3252ED" />
    <path d="M105.748 228.765L139.057 210.051L140.956 198.899L105.748 228.765Z" fill="#5C67F9" />
    <path d="M106.586 122.759L58.0286 180.475L140.957 198.899L106.586 122.759Z" fill="#324FF0" />
    <path d="M106.584 122.759L140.956 198.899L158.487 171.761L106.584 122.759Z" fill="#3252EE" />
    <path d="M116.527 5.39397L120.615 99.3285L142.569 4.09083L116.527 5.39397Z" fill="#6777FF" />
    <path d="M158.487 171.761L140.957 198.899L159.584 190.595L158.487 171.761Z" fill="#5C6BF7" />
    <path d="M120.616 99.3286L106.586 122.759L173.972 131.365L120.616 99.3286Z" fill="#3755F0" />
    <path d="M106.584 122.759L158.487 171.761L173.972 131.365L106.584 122.759Z" fill="#3251EF" />
    <path d="M142.57 4.09061L120.616 99.3286L191.862 68.4265L142.57 4.09061Z" fill="#3991F7" />
    <path d="M120.615 99.3285L173.972 131.365L185.866 120.48L120.615 99.3285Z" fill="#5964F9" />
    <path d="M140.957 198.899L139.057 210.051L159.584 190.595L140.957 198.899Z" fill="#6167FC" fill-opacity="0.309804" />
    <path d="M177.45 1.42333L142.57 4.09061L191.862 68.4265L177.45 1.42333Z" fill="#5C7BFD" />
    <path d="M158.487 171.761L159.584 190.595L182.898 171.614L158.487 171.761Z" fill="#3251EF" fill-opacity="0.678431" />
    <path d="M191.862 68.4265L120.616 99.3286L185.866 120.48L191.862 68.4265Z" fill="#6F6FFF" />
    <path d="M173.972 131.365L158.487 171.761L182.898 171.614L173.972 131.365Z" fill="#3453EF" />
    <path d="M203.018 2.90773L177.45 1.42333L191.862 68.4265L203.018 2.90773Z" fill="#4D85F8" />
    <path d="M203.018 2.90773L191.862 68.4265L232.737 13.7061L203.018 2.90773Z" fill="#5082FA" />
    <path d="M201.879 194.928L205.556 207.03L214.632 204.272L201.879 194.928Z" fill="#3251F0" fill-opacity="0.258824" />
    <path d="M201.879 194.928L214.632 204.272L219.557 192.201L201.879 194.928Z" fill="#556FF2" />
    <path d="M187.049 180.927L201.879 194.928L219.557 192.201L187.049 180.927Z" fill="#5972F2" />
    <path d="M185.868 120.48L173.972 131.365L182.898 171.614L185.868 120.48Z" fill="#3352EF" />
    <path d="M191.862 68.4265L185.868 120.48L240.415 78.1285L191.862 68.4265Z" fill="#5986FF" />
    <path d="M232.737 13.7061L191.862 68.4265L240.415 78.1285L232.737 13.7061Z" fill="#3A90F4" />
    <path d="M243.414 18.393L232.737 13.7061L240.415 78.1285L243.414 18.393Z" fill="#5681FB" />
    <path d="M182.898 171.614L187.05 180.927L219.557 192.201L182.898 171.614Z" fill="#677EF3" />
    <path d="M219.558 192.2L214.633 204.272L238.094 209.701L219.558 192.2Z" fill="#71B5FB" />
    <path d="M214.632 204.272L205.556 207.03L243.164 222.04L214.632 204.272Z" fill="#4E69F1" />
    <path d="M238.094 209.701L214.633 204.272L243.165 222.04L238.094 209.701Z" fill="#566FF2" />
    <path d="M243.414 18.393L240.415 78.1285L263.88 16.14L243.414 18.393Z" fill="#597EFD" />
    <path d="M185.868 120.48L182.898 171.614L219.558 192.2L185.868 120.48Z" fill="#516CF1" />
    <path d="M185.868 120.48L219.558 192.2L282.469 151.273L185.868 120.48Z" fill="#6DBFFC" />
    <path d="M240.415 78.1285L185.868 120.48L282.469 151.273L240.415 78.1285Z" fill="#6ABFFD" />
    <path d="M263.88 16.14L240.415 78.1285L309.792 49.7774L263.88 16.14Z" fill="#5680FA" />
    <path d="M219.557 192.201L238.093 209.701L282.469 151.273L219.557 192.201Z" fill="#6ABFFD" />
    <path d="M238.092 209.701L243.164 222.04L301.893 180.401L238.092 209.701Z" fill="#6BB4FD" />
    <path d="M282.469 151.273L238.093 209.701L301.893 180.401L282.469 151.273Z" fill="#6DBFFE" />
    <path d="M243.164 222.04L271.459 241.202L301.893 180.401L243.164 222.04Z" fill="#6F8EFF" />
    <path d="M271.459 241.202L291.924 238.949L301.893 180.401L271.459 241.202Z" fill="#6E93FD" />
    <path d="M240.415 78.1285L282.469 151.273L309.792 49.7774L240.415 78.1285Z" fill="#6E83FE" />
    <path d="M309.79 49.7774L346.51 53.1608L353.985 42.9581L309.79 49.7774Z" fill="#A1ADEB" />
    <path d="M353.986 42.9584L365.613 42.0693L372.138 37.4426L353.986 42.9584Z" fill="#2740BB" fill-opacity="0.92549" />
    <path d="M309.792 49.7774L282.469 151.273L350.451 122.685L309.792 49.7774Z" fill="#6F6EFE" />
    <path d="M353.986 42.9584L346.511 53.1606L368.341 59.7465L353.986 42.9584Z" fill="#324BCA" />
    <path d="M365.613 42.0693L353.986 42.9584L368.341 59.7465L365.613 42.0693Z" fill="#2944C6" />
    <path d="M282.469 151.273L301.895 180.401L357.124 142.468L282.469 151.273Z" fill="#769FF5" />
    <path d="M350.451 122.685L282.469 151.273L357.124 142.468L350.451 122.685Z" fill="#6F7AFF" />
    <path d="M346.51 53.1608L309.79 49.7774L350.451 122.685L346.51 53.1608Z" fill="#6F6FFF" />
    <path d="M357.123 142.468L301.893 180.401L354.927 172.217L357.123 142.468Z" fill="#6FBEFD" />
    <path d="M301.895 180.401L291.925 238.949L304.916 246.899L301.895 180.401Z" fill="#6E92FE" />
    <path d="M365.613 42.0693L368.341 59.7465L372.138 37.4426L365.613 42.0693Z" fill="#2943C5" />
    <path d="M346.51 53.1608L350.451 122.685L368.339 59.7468L346.51 53.1608Z" fill="#6FA6FA" />
    <path d="M372.138 37.4426L368.341 59.7465L392.958 66.8073L372.138 37.4426Z" fill="#2B45C8" />
    <path d="M384.766 148.609L357.123 142.468L384.231 168.6L384.766 148.609Z" fill="#344CC8" />
    <path d="M384.231 168.6L357.123 142.468L354.927 172.217L384.231 168.6Z" fill="#2B42C1" />
    <path d="M350.451 122.685L357.124 142.468L384.766 148.609L350.451 122.685Z" fill="#545AE3" />
    <path d="M368.339 59.7468L350.451 122.685L392.957 66.8073L368.339 59.7468Z" fill="#6FA9F9" />
    <path d="M301.895 180.401L320.694 255.323L354.927 172.217L301.895 180.401Z" fill="#6DBFFD" />
    <path d="M301.895 180.401L304.916 246.899L320.694 255.323L301.895 180.401Z" fill="#6E87FD" />
    <path d="M384.768 148.61L384.233 168.601L396.809 162.136L384.768 148.61Z" fill="#495DCC" />
    <path d="M354.927 172.217L320.694 255.323L394.995 214.901L354.927 172.217Z" fill="#7B8AF1" />
    <path d="M384.233 168.601L354.927 172.217L394.995 214.901L384.233 168.601Z" fill="#813CCF" />
    <path d="M320.694 255.323L335.998 266.536L394.995 214.901L320.694 255.323Z" fill="#6DAAFE" />
    <path d="M384.233 168.601L394.996 214.901L404.785 207.961L384.233 168.601Z" fill="#8341D0" />
    <path d="M335.998 266.536L342.256 271.905L400.304 225.846L335.998 266.536Z" fill="#6DBFFD" />
    <path d="M394.996 214.901L335.998 266.536L400.304 225.846L394.996 214.901Z" fill="#6FB3FA" />
    <path d="M384.766 148.609L396.807 162.136L422.672 145.023L384.766 148.609Z" fill="#6068F0" />
    <path d="M372.138 37.4426L392.958 66.8073L430.627 64.6146L372.138 37.4426Z" fill="#2C46C6" />
    <path d="M394.996 214.901L400.304 225.846L404.785 207.961L394.996 214.901Z" fill="#8436C9" />
    <path d="M392.957 66.8073L350.451 122.685L384.766 148.609L392.957 66.8073Z" fill="#6E6DFD" />
    <path d="M392.957 66.8073L384.766 148.609L422.672 145.023L392.957 66.8073Z" fill="#706FFC" />
    <path d="M396.809 162.136L384.233 168.601L404.785 207.961L396.809 162.136Z" fill="#7137DB" />
    <path d="M342.256 271.905L351.716 292.163L421.123 255.211L342.256 271.905Z" fill="#6DC0FD" />
    <path d="M400.304 225.846L342.256 271.905L421.123 255.211L400.304 225.846Z" fill="#6CBFFD" />
    <path d="M351.716 292.163L396.887 338.584L412.579 305.395L351.716 292.163Z" fill="#6EBEFC" />
    <path d="M351.716 292.163L412.579 305.395L421.123 255.211L351.716 292.163Z" fill="#6DBFFD" />
    <path d="M430.627 64.6146L392.958 66.8073L422.674 145.023L430.627 64.6146Z" fill="#8483FE" />
    <path d="M396.809 162.136L404.785 207.961L452.095 174.418L396.809 162.136Z" fill="#5F2DE9" />
    <path d="M422.672 145.023L396.807 162.136L452.093 174.418L422.672 145.023Z" fill="#354ECC" />
    <path d="M430.625 64.6147L422.672 145.023L456.607 80.5141L430.625 64.6147Z" fill="#7576FE" />
    <path d="M422.672 145.023L452.093 174.418L468.882 160.063L422.672 145.023Z" fill="#4054D5" />
    <path d="M456.607 80.5141L422.672 145.023L476.685 122.662L456.607 80.5141Z" fill="#6FA9FB" />
    <path d="M422.672 145.023L468.882 160.063L476.685 122.662L422.672 145.023Z" fill="#6F6FFE" />
    <path d="M433.933 314.769L439.747 314.324L445.443 280.868L433.933 314.769Z" fill="#7723C4" />
    <path d="M468.882 160.063L452.093 174.418L476.296 167.063L468.882 160.063Z" fill="#3448C5" />
    <path d="M404.785 207.961L400.305 225.846L421.125 255.21L404.785 207.961Z" fill="#7A28C5" />
    <path d="M421.123 255.211L445.443 280.868L474.364 254.235L421.123 255.211Z" fill="#823ECE" />
    <path d="M445.443 280.868L439.747 314.324L467.51 286.06L445.443 280.868Z" fill="#7724C4" />
    <path d="M467.509 286.06L439.747 314.324L474.449 295.848L467.509 286.06Z" fill="#7724C4" />
    <path d="M445.443 280.868L467.51 286.06L474.364 254.235L445.443 280.868Z" fill="#612CE6" />
    <path d="M404.783 207.961L421.123 255.211L474.364 254.235L404.783 207.961Z" fill="#823FCD" />
    <path d="M452.095 174.418L404.785 207.961L474.364 254.235L452.095 174.418Z" fill="#5E2EE8" />
    <path d="M476.685 122.662L476.296 167.063L517.823 125.364L476.685 122.662Z" fill="#6DB7FD" />
    <path d="M489.055 108.99L476.686 122.662L517.824 125.364L489.055 108.99Z" fill="#8A8AFE" />
    <path d="M476.686 122.662L468.882 160.063L476.296 167.063L476.686 122.662Z" fill="#6F71FE" />
    <path d="M476.296 167.063L474.364 254.235L518.739 195.807L476.296 167.063Z" fill="#8B80EF" />
    <path d="M476.296 167.063L452.093 174.418L474.364 254.235L476.296 167.063Z" fill="#A596F3" />
    <path d="M474.364 254.235L467.51 286.06L511.706 279.241L474.364 254.235Z" fill="#5D2DE9" />
    <path d="M467.51 286.06L474.451 295.848L511.706 279.241L467.51 286.06Z" fill="#5D2DE9" />
    <path d="M513.664 250.885L474.364 254.235L511.706 279.241L513.664 250.885Z" fill="#AF93FB" />
    <path d="M518.739 195.807L474.364 254.235L513.664 250.885L518.739 195.807Z" fill="#8D80F2" />
    <path d="M517.824 125.364L476.296 167.063L538.229 140.314L517.824 125.364Z" fill="#6EB6FB" />
    <path d="M474.451 295.848L509.626 342.002L517.101 331.799L474.451 295.848Z" fill="#5D2EE3" />
    <path d="M538.229 140.314L518.739 195.807L532.472 190.973L538.229 140.314Z" fill="#6F6FFF" />
    <path d="M476.297 167.063L518.739 195.807L538.229 140.314L476.297 167.063Z" fill="#6F6FFF" />
    <path d="M511.706 279.241L474.451 295.848L526.474 310.444L511.706 279.241Z" fill="#5B2BE3" />
    <path d="M474.451 295.848L517.101 331.799L526.474 310.444L474.451 295.848Z" fill="#5C2DE3" />
    <path d="M538.229 140.314L544.098 190.084L562.371 150.162L538.229 140.314Z" fill="#6EBAFC" />
    <path d="M538.229 140.314L532.472 190.973L544.098 190.084L538.229 140.314Z" fill="#6F6EFF" />
    <path d="M544.1 190.084L561.717 204.559L562.192 201.771L544.1 190.084Z" fill="#6F6FFF" />
    <path d="M544.1 190.084L532.472 190.973L561.717 204.559L544.1 190.084Z" fill="#6F6FFF" />
    <path d="M518.739 195.807L513.664 250.885L561.716 204.559L518.739 195.807Z" fill="#75AEF9" />
    <path d="M532.472 190.973L518.739 195.807L561.717 204.559L532.472 190.973Z" fill="#3C4FCE" />
    <path d="M561.717 204.559L513.664 250.885L568.121 234.338L561.717 204.559Z" fill="#8295F2" />
    <path d="M568.121 234.338L513.664 250.885L569.484 243.177L568.121 234.338Z" fill="#73AFF8" />
    <path d="M561.717 204.559L568.121 234.338L576.071 221.348L561.717 204.559Z" fill="#596DCC" />
    <path d="M526.474 310.444L557.111 324.268L559.454 318.929L526.474 310.444Z" fill="#A38EF6" fill-opacity="0.976471" />
    <path d="M557.111 324.268L558.98 321.717L559.454 318.929L557.111 324.268Z" fill="#BAA0FE" fill-opacity="0.984314" />
    <path d="M562.192 201.771L561.717 204.559L582.597 216.721L562.192 201.771Z" fill="#5963E6" />
    <path d="M561.717 204.559L576.071 221.348L582.597 216.721L561.717 204.559Z" fill="#3B4ECA" />
    <path d="M576.07 221.348L568.121 234.338L580.697 227.873L576.07 221.348Z" fill="#797BFA" />
    <path d="M513.664 250.885L511.704 279.241L569.484 243.177L513.664 250.885Z" fill="#8C83F0" />
    <path d="M562.373 150.162L544.1 190.084L562.192 201.771L562.373 150.162Z" fill="#6F70FF" />
    <path d="M562.371 150.162L562.19 201.771L596.242 170.274L562.371 150.162Z" fill="#6EB6F9" />
    <path d="M576.07 221.348L580.697 227.873L582.596 216.721L576.07 221.348Z" fill="#4355D0" />
    <path d="M526.474 310.444L559.456 318.929L581.375 299.71L526.474 310.444Z" fill="#8B7EEF" />
    <path d="M511.706 279.241L526.474 310.444L585.143 286.008L511.706 279.241Z" fill="#8B7EEF" />
    <path d="M526.474 310.444L581.375 299.71L585.143 286.008L526.474 310.444Z" fill="#71B2F9" />
    <path d="M569.485 243.177L511.706 279.241L585.143 286.008L569.485 243.177Z" fill="#71B4F9" />
    <path d="M582.596 216.721L580.697 227.873L585.798 231.611L582.596 216.721Z" fill="#6072CE" />
    <path d="M585.142 286.007L581.374 299.71L586.031 297.634L585.142 286.007Z" fill="#BD9EFE" fill-opacity="0.678431" />
    <path d="M586.031 297.634L581.375 299.71L586.386 329.252L586.031 297.634Z" fill="#897DEF" />
    <path d="M559.456 318.929L558.98 321.717L586.386 329.252L559.456 318.929Z" fill="#8C7FEF" />
    <path d="M581.374 299.71L559.454 318.929L586.386 329.252L581.374 299.71Z" fill="#828FF2" />
    <path d="M558.98 321.717L557.111 324.268L586.386 329.252L558.98 321.717Z" fill="#C2AAFD" fill-opacity="0.976471" />
    <path d="M582.596 216.721L585.798 231.611L590.9 235.348L582.596 216.721Z" fill="#6F80D2" />
    <path d="M562.19 201.771L582.596 216.721L596.242 170.274L562.19 201.771Z" fill="#6F6FFF" />
    <path d="M582.596 216.721L590.9 235.348L629.518 227.579L582.596 216.721Z" fill="#5760E5" />
    <path d="M629.518 227.579L590.9 235.348L634.114 242.706L629.518 227.579Z" fill="#797BFA" />
    <path d="M596.244 170.274L582.598 216.721L629.519 227.579L596.244 170.274Z" fill="#6F6FFF" />
    <path d="M606.505 160.546L596.242 170.274L655.145 211.861L606.505 160.546Z" fill="#74AEFC" />
    <path d="M596.242 170.274L629.518 227.579L655.145 211.861L596.242 170.274Z" fill="#7C75F0" />
    <path d="M629.519 227.579L634.114 242.706L655.146 211.861L629.519 227.579Z" fill="#6F6FFF" />
    <path d="M655.145 211.861L634.114 242.706L681.541 242.175L655.145 211.861Z" fill="#686AF8" />
    <path d="M655.146 211.861L681.542 242.175L691.451 200.829L655.146 211.861Z" fill="#7071FF" />
    <path d="M606.506 160.546L655.146 211.861L691.451 200.829L606.506 160.546Z" fill="#71ACFC" />
    <path d="M691.451 200.829L681.542 242.175L709.542 212.517L691.451 200.829Z" fill="#7777FF" />
    <path d="M709.542 212.517L681.542 242.175L714.109 236.245L709.542 212.517Z" fill="#7474FF" />
  </g>
  <g opacity="0.3">
    <path d="M798.243 261.455L796.137 265.4L800.051 276.108L798.243 261.455Z" fill="#653CEA" />
    <path d="M798.243 261.455L800.051 276.108L845.493 245.116L798.243 261.455Z" fill="#7048EA" />
    <path d="M845.492 245.115L801.177 286.34L845.725 311.139L845.492 245.115Z" fill="#6A3FEB" />
    <path d="M800.051 276.108L801.177 286.34L845.493 245.116L800.051 276.108Z" fill="#663EEC" />
    <path d="M845.493 245.116L845.727 311.139L860.616 307.937L845.493 245.116Z" fill="#6D3FED" />
    <path d="M845.493 245.116L860.616 307.937L869.455 306.573L845.493 245.116Z" fill="#683FEB" />
    <path d="M860.857 239.125L845.493 245.116L869.455 306.573L860.857 239.125Z" fill="#653DEB" />
    <path d="M860.857 239.125L869.454 306.573L889.445 307.108L860.857 239.125Z" fill="#653EEB" />
    <path d="M894.373 227.619L860.856 239.125L921.213 263.747L894.373 227.619Z" fill="#6D46EB" />
    <path d="M860.857 239.125L889.445 307.108L921.213 263.747L860.857 239.125Z" fill="#663BE9" />
    <path d="M925.517 230.053L894.374 227.619L921.215 263.747L925.517 230.053Z" fill="#6A42EA" />
    <path d="M889.445 307.108L898.283 305.744L921.213 263.747L889.445 307.108Z" fill="#9F3FF5" />
    <path d="M911.388 414.123L909.014 428.063L912.277 425.75L911.388 414.123Z" fill="#645985" fill-opacity="0.0901961" />
    <path d="M887.064 455.883L894.418 480.086L910.05 464.1L887.064 455.883Z" fill="#BC65F9" />
    <path d="M899.64 449.418L887.064 455.883L910.05 464.1L899.64 449.418Z" fill="#C573F8" />
    <path d="M921.215 263.747L898.284 305.744L935.836 270.539L921.215 263.747Z" fill="#6A3DEB" />
    <path d="M925.517 230.053L921.215 263.747L935.836 270.539L925.517 230.053Z" fill="#653DEB" />
    <path d="M935.836 270.539L898.284 305.744L952.206 309.188L935.836 270.539Z" fill="#9C42F5" />
    <path d="M925.517 230.053L935.836 270.539L956.66 232.487L925.517 230.053Z" fill="#663CEA" />
    <path d="M894.418 480.086L903.671 493.138L910.05 464.1L894.418 480.086Z" fill="#7855F8" />
    <path d="M909.014 428.063L899.641 449.418L910.051 464.101L909.014 428.063Z" fill="#B95DF7" />
    <path d="M910.05 464.1L903.671 493.138L936.713 484.419L910.05 464.1Z" fill="#8849EC" />
    <path d="M912.276 425.75L909.013 428.064L910.049 464.101L912.276 425.75Z" fill="#B85DFC" />
    <path d="M912.277 425.75L910.05 464.1L951.011 450.993L912.277 425.75Z" fill="#AE42F8" />
    <path d="M935.835 270.54L952.206 309.188L967.095 305.985L935.835 270.54Z" fill="#9440F3" />
    <path d="M955.703 372.898L911.388 414.123L958.607 406.385L955.703 372.898Z" fill="#B556F9" />
    <path d="M956.66 232.487L935.836 270.539L987.95 259.331L956.66 232.487Z" fill="#653AE9" />
    <path d="M965.498 231.123L956.66 232.487L987.95 259.331L965.498 231.123Z" fill="#6642EA" />
    <path d="M911.388 414.123L912.277 425.75L958.607 406.385L911.388 414.123Z" fill="#B455F8" />
    <path d="M910.05 464.1L936.713 484.419L951.011 450.993L910.05 464.1Z" fill="#AD41F7" />
    <path d="M972.025 226.496L965.498 231.123L987.95 259.331L972.025 226.496Z" fill="#6841EA" />
    <path d="M935.836 270.539L967.096 305.986L987.95 259.331L935.836 270.539Z" fill="#653DEA" />
    <path d="M912.277 425.75L951.011 450.993L958.607 406.385L912.277 425.75Z" fill="#AE42F6" />
    <path d="M951.011 450.993L962.815 465.913L963.29 463.125L951.011 450.993Z" fill="#963FF3" />
    <path d="M951.011 450.993L936.713 484.419L962.815 465.913L951.011 450.993Z" fill="#7C3BE7" />
    <path d="M972.025 226.496L987.95 259.331L1003.17 228.93L972.025 226.496Z" fill="#6A41EB" />
    <path d="M955.703 372.898L958.607 406.385L985.628 390.903L955.703 372.898Z" fill="#AC7FEE" />
    <path d="M987.95 259.331L967.096 305.986L993.138 304.682L987.95 259.331Z" fill="#653BEA" />
    <path d="M985.628 390.903L958.607 406.385L988.15 401.374L985.628 390.903Z" fill="#BB8BF3" />
    <path d="M958.607 406.385L951.011 450.993L986.604 444.144L958.607 406.385Z" fill="#AC40F6" />
    <path d="M951.011 450.993L986.129 446.932L986.604 444.144L951.011 450.993Z" fill="#A840F4" />
    <path d="M951.011 450.993L963.29 463.125L986.129 446.932L951.011 450.993Z" fill="#A641F6" />
    <path d="M988.15 401.374L958.607 406.385L990.462 404.637L988.15 401.374Z" fill="#A269F0" />
    <path d="M990.462 404.637L958.607 406.385L986.604 444.144L990.462 404.637Z" fill="#AC41F6" />
    <path d="M990.462 404.637L986.604 444.144L1000.13 432.103L990.462 404.637Z" fill="#AA40F6" />
    <path d="M1000.13 432.103L986.604 444.144L1001.97 438.154L1000.13 432.103Z" fill="#7B3BE7" fill-opacity="0.623529" />
    <path d="M990.462 404.637L1000.13 432.103L1010.39 422.375L990.462 404.637Z" fill="#A840F4" />
    <path d="M987.95 259.331L993.138 304.682L1009.39 310.318L987.95 259.331Z" fill="#6830DD" />
    <path d="M993.136 304.682L955.701 372.898L1009.39 310.318L993.136 304.682Z" fill="#AE45F7" />
    <path d="M1009.39 310.318L1030 332.476L1037.98 310.883L1009.39 310.318Z" fill="#AF47F8" />
    <path d="M955.703 372.898L985.628 390.903L1030 332.476L955.703 372.898Z" fill="#CA9BF6" />
    <path d="M1009.39 310.318L955.701 372.898L1030 332.476L1009.39 310.318Z" fill="#B464F1" />
    <path d="M1000.13 432.103L1001.97 438.154L1010.39 422.375L1000.13 432.103Z" fill="#803DE9" fill-opacity="0.494118" />
    <path d="M985.628 390.903L988.149 401.374L990.462 404.637L985.628 390.903Z" fill="#BC8BF2" />
    <path d="M985.628 390.903L990.462 404.637L1030.44 405.707L985.628 390.903Z" fill="#B586F0" />
    <path d="M990.462 404.637L1010.39 422.375L1030.44 405.707L990.462 404.637Z" fill="#9340EF" />
    <path d="M987.95 259.331L1009.39 310.318L1037.98 310.883L987.95 259.331Z" fill="#6B28D1" />
    <path d="M1070.62 220.333L1019.48 217.364L1068.42 250.082L1070.62 220.333Z" fill="#673CEA" />
    <path d="M1019.48 217.364L1003.17 228.93L1068.42 250.082L1019.48 217.364Z" fill="#7450EC" />
    <path d="M1037.98 310.883L1030 332.476L1058.63 324.44L1037.98 310.883Z" fill="#963CDF" />
    <path d="M1003.17 228.93L987.95 259.331L1068.42 250.082L1003.17 228.93Z" fill="#6637E4" />
    <path d="M987.95 259.331L1037.98 310.883L1068.42 250.082L987.95 259.331Z" fill="#653BEA" />
    <path d="M1030 332.476L985.627 390.904L1030.44 405.707L1030 332.476Z" fill="#C999F4" />
    <path d="M1006 481.873L1005.52 484.661L1051.5 501.095L1006 481.873Z" fill="#8F54F0" />
    <path d="M996.564 520.43L998.403 526.481L1051.5 501.095L996.564 520.43Z" fill="#8E55F2" />
    <path d="M1005.53 484.66L996.566 520.43L1051.5 501.095L1005.53 484.66Z" fill="#8E54F0" />
    <path d="M1030 332.476L1030.44 405.707L1081.43 384.265L1030 332.476Z" fill="#C894F5" />
    <path d="M1070.61 220.333L1068.42 250.082L1097.13 216.242L1070.61 220.333Z" fill="#6942EB" />
    <path d="M1058.63 324.44L1030 332.476L1081.43 384.265L1058.63 324.44Z" fill="#C999F4" />
    <path d="M1030.44 405.707L1010.39 422.375L1077.72 448.183L1030.44 405.707Z" fill="#8F54F1" />
    <path d="M1010.39 422.374L1001.97 438.154L1077.72 448.183L1010.39 422.374Z" fill="#8E54EF" />
    <path d="M1001.97 438.154L1006 481.873L1077.72 448.183L1001.97 438.154Z" fill="#9055EF" />
    <path d="M1081.43 384.265L1030.44 405.707L1082.59 385.896L1081.43 384.265Z" fill="#A675F0" />
    <path d="M1068.42 250.082L1037.98 310.883L1058.63 324.44L1068.42 250.082Z" fill="#692DD9" />
    <path d="M1081.43 384.265L1082.59 385.896L1087.93 388.24L1081.43 384.265Z" fill="#AD7DEE" />
    <path d="M1051.5 501.095L1063.6 497.418L1077.72 448.183L1051.5 501.095Z" fill="#814BF0" />
    <path d="M1006 481.873L1051.5 501.095L1077.72 448.183L1006 481.873Z" fill="#9251F2" />
    <path d="M1082.59 385.896L1030.44 405.707L1077.72 448.183L1082.59 385.896Z" fill="#8F57F0" />
    <path d="M1097.13 216.242L1068.42 250.082L1129.1 247.505L1097.13 216.242Z" fill="#653CEA" />
    <path d="M1081.43 384.265L1087.93 388.24L1106.32 381.331L1081.43 384.265Z" fill="#9658E1" />
    <path d="M1112.5 210.251L1097.13 216.242L1129.1 247.505L1112.5 210.251Z" fill="#673EEA" />
    <path d="M1082.59 385.897L1077.72 448.183L1087.93 388.24L1082.59 385.897Z" fill="#8C4FF0" />
    <path d="M1111.39 326.252L1081.43 384.265L1114.27 368.34L1111.39 326.252Z" fill="#C793F4" />
    <path d="M1081.43 384.265L1106.32 381.331L1114.27 368.34L1081.43 384.265Z" fill="#AA69E0" />
    <path d="M1112.5 210.251L1129.1 247.505L1135.27 211.261L1112.5 210.251Z" fill="#673EEA" />
    <path d="M1058.63 324.44L1081.43 384.266L1111.39 326.252L1058.63 324.44Z" fill="#CA99F5" />
    <path d="M1068.42 250.082L1058.63 324.44L1111.39 326.252L1068.42 250.082Z" fill="#A650EA" />
    <path d="M1135.27 211.261L1129.1 247.505L1149.63 228.049L1135.27 211.261Z" fill="#663DEA" />
    <path d="M1068.42 250.082L1111.39 326.252L1129.1 247.505L1068.42 250.082Z" fill="#653AE7" />
    <path d="M1135.27 211.261L1149.63 228.049L1163.63 213.22L1135.27 211.261Z" fill="#663EEA" />
    <path d="M1077.72 448.183L1091.12 470.547L1129.98 461.385L1077.72 448.183Z" fill="#BB57EA" />
    <path d="M1149.63 228.049L1129.1 247.505L1164.13 269.248L1149.63 228.049Z" fill="#C488F2" />
    <path d="M1129.1 247.505L1111.39 326.252L1164.13 269.248L1129.1 247.505Z" fill="#B27DF2" />
    <path d="M1182.26 204.916L1163.63 213.22L1184.57 208.179L1182.26 204.916Z" fill="#8E70F0" />
    <path d="M1114.27 368.34L1106.32 381.331L1154.93 373.829L1114.27 368.34Z" fill="#701AC0" />
    <path d="M1164.13 269.248L1111.39 326.252L1172.82 310.891L1164.13 269.248Z" fill="#CA9CF6" />
    <path d="M1111.39 326.252L1114.27 368.34L1154.93 373.829L1111.39 326.252Z" fill="#C48AF2" />
    <path d="M1091.12 470.547L1091 504.954L1129.98 461.385L1091.12 470.547Z" fill="#BB57EA" />
    <path d="M1106.32 381.331L1077.72 448.183L1129.98 461.385L1106.32 381.331Z" fill="#BB56EB" />
    <path d="M1087.93 388.24L1077.72 448.183L1106.32 381.331L1087.93 388.24Z" fill="#9247F0" />
    <path d="M1129.98 461.385L1091 504.954L1147.03 504.452L1129.98 461.385Z" fill="#BB57EA" />
    <path d="M1091 504.954L1136.5 524.176L1147.03 504.452L1091 504.954Z" fill="#BD5BEA" />
    <path d="M1111.39 326.252L1154.93 373.829L1172.82 310.892L1111.39 326.252Z" fill="#C895F4" />
    <path d="M1172.82 310.891L1154.93 373.829L1181.24 362.53L1172.82 310.891Z" fill="#C99AF4" />
    <path d="M1106.32 381.331L1129.98 461.385L1168.42 437.807L1106.32 381.331Z" fill="#BB57EA" />
    <path d="M1154.93 373.829L1106.32 381.331L1168.42 437.807L1154.93 373.829Z" fill="#7E23CC" />
    <path d="M1147.03 504.452L1136.5 524.176L1153.7 524.236L1147.03 504.452Z" fill="#CB7FEF" />
    <path d="M1163.63 213.22L1149.63 228.049L1164.13 269.248L1163.63 213.22Z" fill="#C295F6" />
    <path d="M1182.26 204.916L1184.57 208.179L1218.56 193.885L1182.26 204.916Z" fill="#963DEA" />
    <path d="M1163.63 213.22L1164.13 269.248L1184.57 208.179L1163.63 213.22Z" fill="#B58EF4" />
    <path d="M1184.57 208.179L1164.13 269.248L1229.74 254.6L1184.57 208.179Z" fill="#BB78F2" />
    <path d="M1231.91 233.452L1184.57 208.179L1229.74 254.6L1231.91 233.452Z" fill="#824CEA" />
    <path d="M1218.56 193.885L1184.57 208.179L1231.91 233.452L1218.56 193.885Z" fill="#683DEA" />
    <path d="M1172.82 310.892L1181.24 362.53L1195.65 362.116L1172.82 310.892Z" fill="#CA9CF6" />
    <path d="M1172.82 310.892L1195.65 362.116L1218.29 338.716L1172.82 310.892Z" fill="#CB9DF6" />
    <path d="M1154.93 373.829L1168.42 437.807L1205.68 421.2L1154.93 373.829Z" fill="#711BC5" />
    <path d="M1218.29 338.715L1195.65 362.116L1219.38 357.549L1218.29 338.715Z" fill="#C797F4" />
    <path d="M1181.24 362.53L1154.93 373.829L1205.68 421.199L1181.24 362.53Z" fill="#6F18C2" />
    <path d="M1229.74 254.6L1172.82 310.891L1241.75 276.727L1229.74 254.6Z" fill="#CA9CF4" />
    <path d="M1195.65 362.116L1181.24 362.53L1205.68 421.2L1195.65 362.116Z" fill="#6F18C1" />
    <path d="M1164.13 269.248L1172.82 310.892L1229.74 254.6L1164.13 269.248Z" fill="#CA9DF6" />
    <path d="M1218.29 338.716L1219.38 357.549L1238.96 343.67L1218.29 338.716Z" fill="#CB9DF6" />
    <path d="M1172.82 310.891L1218.29 338.715L1241.75 276.727L1172.82 310.891Z" fill="#CC9DF6" />
    <path d="M1231.91 233.452L1229.74 254.6L1262.1 241.462L1231.91 233.452Z" fill="#BE8AF5" />
    <path d="M1219.38 357.55L1205.68 421.2L1241.98 410.168L1219.38 357.55Z" fill="#7017C2" />
    <path d="M1205.68 421.199L1259.64 411.741L1241.98 410.168L1205.68 421.199Z" fill="#D0AFEC" />
    <path d="M1218.56 193.885L1231.91 233.452L1271.59 185.702L1218.56 193.885Z" fill="#6E41EB" />
    <path d="M1231.91 233.452L1262.1 241.462L1271.59 185.702L1231.91 233.452Z" fill="#6D3CEA" />
    <path d="M1229.74 254.6L1241.75 276.727L1262.1 241.462L1229.74 254.6Z" fill="#CA9AF6" />
    <path d="M1241.75 276.727L1218.29 338.715L1238.96 343.67L1241.75 276.727Z" fill="#CB9DF6" />
    <path d="M1195.65 362.116L1205.68 421.199L1219.38 357.549L1195.65 362.116Z" fill="#6F17C1" />
    <path d="M1241.75 276.727L1238.96 343.67L1270.22 311.698L1241.75 276.727Z" fill="#CA9AF5" />
    <path d="M1257.82 401.39L1241.98 410.168L1260.34 411.86L1257.82 401.39Z" fill="#C099E4" />
    <path d="M1219.38 357.55L1241.98 410.168L1257.82 401.39L1219.38 357.55Z" fill="#6F17C1" />
    <path d="M1271.59 185.702L1262.1 241.462L1294.49 219.723L1271.59 185.702Z" fill="#693CEA" />
    <path d="M1238.96 343.67L1219.38 357.55L1257.82 401.39L1238.96 343.67Z" fill="#6F17C1" />
    <path d="M1270.22 311.698L1238.96 343.67L1273.78 358.205L1270.22 311.698Z" fill="#6F17C1" />
    <path d="M1238.96 343.67L1257.82 401.39L1273.78 358.205L1238.96 343.67Z" fill="#6F17C1" />
    <path d="M1273.78 358.205L1257.82 401.39L1286.23 386.146L1273.78 358.205Z" fill="#6F17C1" />
    <path d="M1273.78 358.205L1286.23 386.146L1292.29 384.307L1273.78 358.205Z" fill="#731DC3" />
    <path d="M1262.1 241.462L1241.75 276.727L1304.21 297.404L1262.1 241.462Z" fill="#C174F0" />
    <path d="M1241.75 276.727L1270.22 311.698L1304.21 297.404L1241.75 276.727Z" fill="#C270EE" />
    <path d="M1257.82 401.39L1260.34 411.86L1286.23 386.146L1257.82 401.39Z" fill="#9D62D5" />
    <path d="M1271.59 185.702L1294.49 219.723L1312.11 166.781L1271.59 185.702Z" fill="#6C3CEA" />
    <path d="M1304.21 297.404L1270.22 311.698L1313.47 310.455L1304.21 297.404Z" fill="#7218C5" />
    <path d="M1273.78 358.205L1292.29 384.307L1307.65 378.317L1273.78 358.205Z" fill="#7521C4" />
    <path d="M1270.22 311.698L1273.78 358.205L1313.47 310.455L1270.22 311.698Z" fill="#6F17C1" />
    <path d="M1294.49 219.723L1262.1 241.462L1304.21 297.403L1294.49 219.723Z" fill="#9A43EC" />
    <path d="M1294.49 219.723L1304.21 297.404L1352.77 239.688L1294.49 219.723Z" fill="#953CEB" />
    <path d="M1313.47 310.455L1307.65 378.317L1316.49 376.953L1313.47 310.455Z" fill="#7119C2" />
    <path d="M1313.47 310.455L1273.78 358.205L1307.65 378.317L1313.47 310.455Z" fill="#6F17C1" />
    <path d="M1312.11 166.781L1294.49 219.723L1370.13 196.741L1312.11 166.781Z" fill="#7543EB" />
    <path d="M1294.49 219.723L1352.77 239.688L1370.13 196.741L1294.49 219.723Z" fill="#8E3DF0" />
    <path d="M1313.47 310.455L1346.27 370.549L1355.26 326.177L1313.47 310.455Z" fill="#6E17C1" />
    <path d="M1313.47 310.455L1316.49 376.953L1346.27 370.549L1313.47 310.455Z" fill="#7724C4" />
    <path d="M1312.11 166.781L1370.13 196.741L1393.02 163.345L1312.11 166.781Z" fill="#6C44E8" fill-opacity="0.658824" />
    <path d="M1393.02 163.345L1370.13 196.741L1393.91 174.972L1414.48 142.614L1393.02 163.345Z" fill="#7D4BEB" />
    <path d="M1304.21 297.404L1313.47 310.455L1352.77 239.688L1304.21 297.404Z" fill="#953CE9" />
    <path d="M1352.77 239.688L1313.47 310.455L1355.26 326.177L1352.77 239.688Z" fill="#903CEA" />
    <path d="M1355.26 326.177L1346.27 370.549L1364.84 379.447L1355.26 326.177Z" fill="#6F19C2" />
    <path d="M1352.77 239.688L1355.26 326.177L1408 269.173L1352.77 239.688Z" fill="#943DEC" />
    <path d="M1355.26 326.177L1364.83 379.448L1412.41 335.909L1355.26 326.177Z" fill="#6F1EC7" />
    <path d="M1370.13 196.741L1352.77 239.688L1408 269.173L1370.13 196.741Z" fill="#943DEB" />
    <path d="M1364.84 379.447L1394.52 398.847L1412.41 335.909L1364.84 379.447Z" fill="#7018C1" />
    <path d="M1408 269.173L1355.26 326.177L1412.41 335.909L1408 269.173Z" fill="#883CE6" />
    <path d="M1412.41 335.909L1394.52 398.847L1437.92 354.596L1412.41 335.909Z" fill="#6E17C1" />
    <path d="M1393.91 174.972L1370.13 196.741L1408 269.173L1393.91 174.972Z" fill="#863EEF" />
    <path d="M1406.02 171.295L1393.92 174.972L1408 269.173L1406.02 171.295Z" fill="#873FF0" />
    <path d="M1406.01 171.295L1408 269.173L1486.48 229.463L1406.01 171.295Z" fill="#843BEA" />
    <path d="M1408 269.173L1469.33 279.617L1486.48 229.463L1408 269.173Z" fill="#963CEA" />
    <path d="M1437.92 354.596L1394.52 398.847L1448.15 420.888L1437.92 354.596Z" fill="#711AC2" />
    <path d="M1408 269.173L1412.41 335.909L1469.33 279.618L1408 269.173Z" fill="#963CEA" />
    <path d="M1437.92 354.596L1464.85 364.92L1471.61 358.899L1437.92 354.596Z" fill="#993DEF" />
    <path d="M1469.33 279.618L1437.92 354.596L1471.61 358.9L1469.33 279.618Z" fill="#8C3BE8" />
    <path d="M1437.92 354.596L1448.15 420.888L1464.85 364.92L1437.92 354.596Z" fill="#6F17C1" />
    <path d="M1412.41 335.909L1437.92 354.596L1469.33 279.618L1412.41 335.909Z" fill="#863BE7" />
    <path d="M1464.85 364.92L1448.15 420.888L1495.04 372.93L1464.85 364.92Z" fill="#6F17C1" />
    <path d="M1471.61 358.899L1464.85 364.92L1495.04 372.93L1471.61 358.899Z" fill="#993DEE" />
    <path d="M1495.04 372.93L1448.15 420.888L1506.96 420.862L1495.04 372.93Z" fill="#7019C1" />
    <path d="M1469.33 279.618L1471.61 358.899L1512 295.396L1469.33 279.618Z" fill="#963CEA" />
    <path d="M1512 208.523L1486.48 229.463L1512 222.938L1512 208.523Z" fill="#963CEA" />
    <path d="M1406.02 171.295L1486.48 229.463L1512 141.569L1406.02 171.295Z" fill="#833DEE" />
    <path d="M1486.48 229.463L1512 208.523L1512 141.569L1486.48 229.463Z" fill="#713CEA" />
    <path d="M1495.04 372.93L1506.96 420.862L1512 373.966L1495.04 372.93Z" fill="#6F17C1" />
    <path d="M1486.48 229.463L1469.33 279.618L1512 295.396L1486.48 229.463Z" fill="#A23EF1" />
    <path d="M1512 295.396L1495.04 372.93L1512 353.561L1512 295.396Z" fill="#9A43EB" />
    <path d="M1495.04 372.93L1512 373.966L1512 353.561L1495.04 372.93Z" fill="#A540F2" />
    <path d="M1512 373.966L1506.96 420.862L1512 436.5L1512 373.966Z" fill="#741FC3" />
    <path d="M1414.49 142.614L1393.92 174.972L1406.02 171.295L1512 141.569L1414.49 142.614Z" fill="#7945EB" />
    <path d="M1486.48 229.463L1512 295.396L1512 222.938L1486.48 229.463Z" fill="#A43FF3" />
    <path d="M1471.61 358.9L1495.04 372.93L1512 295.396L1471.61 358.9Z" fill="#963CEA" />
    <path d="M1512 141.569L1512 208.523L1512 169.065L1512 141.569Z" fill="#7542EB" />
    <path d="M1512 222.938L1512 295.396L1512 224.588L1512 222.938Z" fill="#9941EB" />
    <path d="M1512 295.396L1512 285.925L1512 224.588L1512 295.396Z" fill="#823DE9" />
    <path d="M1512 295.396L1512 353.561L1512 285.925L1512 295.396Z" fill="#9942EB" />
    <path d="M1512 208.523L1512 222.938L1512 169.065L1512 208.523Z" fill="#9B46EB" />
    <path d="M1512 222.938L1512 224.588L1512 169.065L1512 222.938Z" fill="#9942EB" />
    <path d="M1512 285.925L1512 353.561L1512 276.02L1512 285.925Z" fill="#A151ED" />
    <path d="M1512 169.065L1512 224.588L1512 276.02L1512 169.065Z" fill="#A84AF2" />
    <path d="M1512 224.588L1512 285.925L1512 276.02L1512 224.588Z" fill="#A341F1" />
    <path d="M1414.48 142.614L1512 141.569L1512 85.2774L1414.48 142.614Z" fill="#9B44EC" />
    <path d="M1512 141.569L1512 169.065L1512 85.2774L1512 141.569Z" fill="#963CEA" />
    <path d="M1512 169.065L1512 276.02L1512 355.068L1512 85.2774L1512 169.065Z" fill="#903CEA" />
  </g>
</svg>