<svg width="376" height="897" viewBox="0 0 376 897" fill="none" xmlns="http://www.w3.org/2000/svg">
  <g opacity="0.3">
    <path d="M18.0298 29.1176L0.999947 0.559326L1.00113 12.0593L0.999979 61.0593L18.0298 29.1176Z" fill="#3A95F9" />
    <path d="M18.0332 29.1178L0.999973 49.5885L0.999962 29.1178L18.0332 29.1178Z" fill="#3A94F9" />
    <path d="M0.999973 49.5885L0.999979 61.0593L0.999962 29.1178L0.999973 49.5885Z" fill="#3A95F9" />
    <path d="M18.0332 29.1178L0.999962 29.1178L0.999984 70.0593L18.0332 29.1178Z" fill="#3994F9" />
    <path d="M33.0077 38.1202L18.035 29.117L0.999984 70.0593L33.0077 38.1202Z" fill="#439AF9" />
    <path d="M0.999984 70.0593L0.999962 29.1178L0.999979 61.0593L0.999982 95.4028L0.999984 70.0593Z" fill="#3C94F9" />
    <path d="M0.999979 61.0593L0.999973 49.5885L0.999982 95.4028L0.999979 61.0593Z" fill="#3A94F9" />
    <path d="M33.0039 38.121L0.999984 70.0593L40.3024 51.0719L33.0039 38.121Z" fill="#5589FA" />
    <path d="M40.3034 51.0716L0.999984 70.0593L25.8788 95.4026L40.3034 51.0716Z" fill="#3E8FFA" />
    <path d="M63.7894 57.4463L46.5346 53.5945L63.1103 78.2397L63.7894 57.4463Z" fill="#5F7CFB" />
    <path d="M0.999984 70.0593L0.996999 95.4028L25.8777 95.4028L0.999984 70.0593Z" fill="#3B93FA" />
    <path d="M46.5335 53.5945L40.3034 51.0716L25.8788 95.4026L46.5335 53.5945Z" fill="#5C7CFC" />
    <path d="M25.8726 95.4026L0.992444 95.4026L1.00117 123.369L25.8726 95.4026Z" fill="#406CF4" />
    <path d="M46.5318 53.5947L25.8777 95.4028L63.1075 78.24L46.5318 53.5947Z" fill="#4A89FA" />
    <path d="M63.1135 78.2393L25.8834 95.4021L48.2701 121.911L63.1135 78.2393Z" fill="#3B95FA" />
    <path d="M63.1103 78.2397L48.2659 121.911L63.0703 118.989L63.1103 78.2397Z" fill="#3991F8" />
    <path d="M25.8804 95.4023L1.00117 123.369L48.2671 121.911L25.8804 95.4023Z" fill="#405DF4" />
    <path d="M98.0486 76.4145L63.1103 78.2387L100.08 82.5289L98.0486 76.4145Z" fill="#4C87F9" />
    <path d="M1.00117 123.369L0.990203 171.298L4.4839 160.821L1.00117 123.369Z" fill="#3251EF" />
    <path d="M100.083 82.5295L63.1135 78.2393L63.074 118.989L100.083 82.5295Z" fill="#438DF8" />
    <path d="M1.00117 123.369L4.4839 160.821L29.7692 164.201L1.00117 123.369Z" fill="#3252ED" />
    <path d="M4.4839 160.821L24.4918 167.551L29.7692 164.201L4.4839 160.821Z" fill="#5C67F9" />
    <path d="M48.2639 121.912L1.00117 123.369L29.7663 164.201L48.2639 121.912Z" fill="#324FF0" />
    <path d="M48.2701 121.911L29.7719 164.2L47.3928 161.341L48.2701 121.911Z" fill="#3252EE" />
    <path d="M100.078 82.5293L63.0695 118.988L110.256 92.7264L100.078 82.5293Z" fill="#6777FF" />
    <path d="M47.3907 161.341L29.7692 164.201L40.0727 168.765L47.3907 161.341Z" fill="#5C6BF7" />
    <path d="M63.074 118.989L48.2701 121.911L69.6939 152.733L63.074 118.989Z" fill="#3755F0" />
    <path d="M48.2648 121.911L47.3881 161.341L69.6886 152.733L48.2648 121.911Z" fill="#3251EF" />
    <path d="M110.257 92.7273L63.0703 118.989L102.125 136.765L110.257 92.7273Z" fill="#3991F7" />
    <path d="M63.0684 118.989L69.6877 152.733L78.5559 153.581L63.0684 118.989Z" fill="#5964F9" />
    <path d="M29.7683 164.2L24.4918 167.551L40.0711 168.764L29.7683 164.2Z" fill="#6167FC" fill-opacity="0.309804" />
    <path d="M124.263 106.044L110.253 92.7271L102.121 136.764L124.263 106.044Z" fill="#5C7BFD" />
    <path d="M47.3907 161.341L40.0727 168.765L56.4896 171.297L47.3907 161.341Z" fill="#3251EF" fill-opacity="0.678431" />
    <path d="M102.121 136.764L63.0661 118.989L78.5536 153.58L102.121 136.764Z" fill="#6F6FFF" />
    <path d="M69.6886 152.733L47.3881 161.341L56.4875 171.297L69.6886 152.733Z" fill="#3453EF" />
    <path d="M133.121 117.079L124.263 106.044L102.121 136.764L133.121 117.079Z" fill="#4D85F8" />
    <path d="M133.127 117.079L102.127 136.764L139.703 133.265L133.127 117.079Z" fill="#5082FA" />
    <path d="M53.959 187.714L50.3578 193.704L54.8496 196.404L53.959 187.714Z" fill="#3251F0" fill-opacity="0.258824" />
    <path d="M53.9535 187.715L54.8441 196.405L61.618 193.955L53.9535 187.715Z" fill="#556FF2" />
    <path d="M54.2032 176.449L53.9535 187.715L61.618 193.955L54.2032 176.449Z" fill="#5972F2" />
    <path d="M78.5569 153.581L69.6886 152.733L56.4875 171.297L78.5569 153.581Z" fill="#3352EF" />
    <path d="M102.127 136.764L78.5602 153.581L116.127 160.268L102.127 136.764Z" fill="#5986FF" />
    <path d="M139.701 133.265L102.125 136.765L116.124 160.269L139.701 133.265Z" fill="#3A90F4" />
    <path d="M141.735 139.379L139.703 133.265L116.127 160.268L141.735 139.379Z" fill="#5681FB" />
    <path d="M56.4883 171.298L54.2062 176.449L61.6202 193.955L56.4883 171.298Z" fill="#677EF3" />
    <path d="M61.619 193.955L54.8451 196.405L61.3059 208.037L61.619 193.955Z" fill="#71B5FB" />
    <path d="M54.8451 196.405L50.3533 193.704L58.1235 214.685L54.8451 196.405Z" fill="#4E69F1" />
    <path d="M61.3105 208.037L54.8496 196.404L58.1281 214.685L61.3105 208.037Z" fill="#566FF2" />
    <path d="M141.735 139.379L116.127 160.268L150.237 146.938L141.735 139.379Z" fill="#597EFD" />
    <path d="M78.5586 153.581L56.4896 171.297L61.6202 193.955L78.5586 153.581Z" fill="#516CF1" />
    <path d="M78.5586 153.581L61.6202 193.955L101.701 204.599L78.5586 153.581Z" fill="#6DBFFC" />
    <path d="M116.129 160.268L78.5617 153.58L101.704 204.599L116.129 160.268Z" fill="#6ABFFD" />
    <path d="M150.238 146.938L116.128 160.269L153.444 178.222L150.238 146.938Z" fill="#5680FA" />
    <path d="M61.6202 193.955L61.3072 208.037L101.701 204.599L61.6202 193.955Z" fill="#6ABFFD" />
    <path d="M61.3111 208.035L58.1287 214.684L96.952 223.351L61.3111 208.035Z" fill="#6BB4FD" />
    <path d="M101.703 204.6L61.3105 208.037L96.9507 223.352L101.703 204.6Z" fill="#6DBFFE" />
    <path d="M58.1204 214.685L60.7391 233.384L96.9437 223.352L58.1204 214.685Z" fill="#6F8EFF" />
    <path d="M60.7413 233.384L69.2435 240.943L96.9459 223.351L60.7413 233.384Z" fill="#6E93FD" />
    <path d="M116.126 160.269L101.701 204.599L153.442 178.222L116.126 160.269Z" fill="#6E83FE" />
    <path d="M153.439 178.221L165.649 194.532L172.601 193.82L153.439 178.221Z" fill="#A1ADEB" />
    <path d="M172.603 193.821L177.273 198.26L181.587 199.223L172.603 193.821Z" fill="#2740BB" fill-opacity="0.92549" />
    <path d="M153.442 178.222L101.701 204.599L138.598 221.893L153.442 178.222Z" fill="#6F6EFE" />
    <path d="M172.603 193.821L165.651 194.534L171.034 205.925L172.603 193.821Z" fill="#324BCA" />
    <path d="M177.273 198.26L172.603 193.821L171.034 205.925L177.273 198.26Z" fill="#2944C6" />
    <path d="M101.701 204.599L96.948 223.352L132.955 231.956L101.701 204.599Z" fill="#769FF5" />
    <path d="M138.601 221.894L101.704 204.599L132.959 231.956L138.601 221.894Z" fill="#6F7AFF" />
    <path d="M165.646 194.533L153.437 178.222L138.593 221.893L165.646 194.533Z" fill="#6F6FFF" />
    <path d="M132.954 231.955L96.9459 223.351L119.94 242.07L132.954 231.955Z" fill="#6FBEFD" />
    <path d="M96.948 223.352L69.2449 240.944L70.795 249.215L96.948 223.352Z" fill="#6E92FE" />
    <path d="M177.278 198.26L171.038 205.924L181.591 199.222L177.278 198.26Z" fill="#2943C5" />
    <path d="M165.652 194.533L138.6 221.893L171.035 205.924L165.652 194.533Z" fill="#6FA6FA" />
    <path d="M181.588 199.224L171.035 205.924L177.255 218.635L181.588 199.224Z" fill="#2B45C8" />
    <path d="M140.673 245.566L132.955 231.956L132.276 252.749L140.673 245.566Z" fill="#344CC8" />
    <path d="M132.276 252.749L132.955 231.956L119.942 242.07L132.276 252.749Z" fill="#2B42C1" />
    <path d="M138.601 221.894L132.959 231.956L140.676 245.566L138.601 221.894Z" fill="#545AE3" />
    <path d="M171.028 205.924L138.593 221.893L177.248 218.634L171.028 205.924Z" fill="#6FA9F9" />
    <path d="M96.9459 223.351L73.1819 258.805L119.94 242.07L96.9459 223.351Z" fill="#6DBFFD" />
    <path d="M96.948 223.352L70.795 249.215L73.1819 258.805L96.948 223.352Z" fill="#6E87FD" />
    <path d="M140.674 245.567L132.277 252.75L139.586 255.513L140.674 245.567Z" fill="#495DCC" />
    <path d="M119.944 242.07L73.1861 258.804L117.276 274.308L119.944 242.07Z" fill="#7B8AF1" />
    <path d="M132.277 252.75L119.943 242.07L117.275 274.308L132.277 252.75Z" fill="#813CCF" />
    <path d="M73.1834 258.805L74.2521 269.233L117.274 274.308L73.1834 258.805Z" fill="#6DAAFE" />
    <path d="M132.274 252.75L117.272 274.309L123.742 275.753L132.274 252.75Z" fill="#8341D0" />
    <path d="M74.2473 269.233L74.3628 273.787L114.746 280.537L74.2473 269.233Z" fill="#6DBFFD" />
    <path d="M117.276 274.308L74.2553 269.233L114.754 280.537L117.276 274.308Z" fill="#6FB3FA" />
    <path d="M140.67 245.567L139.582 255.513L156.177 259.784L140.67 245.567Z" fill="#6068F0" />
    <path d="M181.588 199.224L177.255 218.635L192.102 233.271L181.588 199.224Z" fill="#2C46C6" />
    <path d="M117.275 274.308L114.752 280.538L123.746 275.753L117.275 274.308Z" fill="#8436C9" />
    <path d="M177.255 218.635L138.6 221.893L140.674 245.566L177.255 218.635Z" fill="#6E6DFD" />
    <path d="M177.25 218.635L140.67 245.567L156.177 259.784L177.25 218.635Z" fill="#706FFC" />
    <path d="M139.586 255.513L132.277 252.75L123.746 275.753L139.586 255.513Z" fill="#7137DB" />
    <path d="M74.3657 273.787L69.5607 285.168L110.416 299.949L74.3657 273.787Z" fill="#6DC0FD" />
    <path d="M114.754 280.537L74.3702 273.787L110.42 299.949L114.754 280.537Z" fill="#6CBFFD" />
    <path d="M69.5646 285.169L67.2531 320.882L86.6746 315.028L69.5646 285.169Z" fill="#6EBEFC" />
    <path d="M69.5646 285.169L86.6746 315.028L110.42 299.949L69.5646 285.169Z" fill="#6DBFFD" />
    <path d="M192.101 233.272L177.254 218.636L156.18 259.784L192.101 233.272Z" fill="#8483FE" />
    <path d="M139.584 255.513L123.744 275.753L155.019 282.734L139.584 255.513Z" fill="#5F2DE9" />
    <path d="M156.178 259.783L139.583 255.513L155.018 282.733L156.178 259.783Z" fill="#354ECC" />
    <path d="M192.104 233.27L156.183 259.782L195.204 249.812L192.104 233.27Z" fill="#7576FE" />
    <path d="M156.18 259.784L155.019 282.734L167.123 284.303L156.18 259.784Z" fill="#4054D5" />
    <path d="M195.202 249.813L156.181 259.783L185.351 273.654L195.202 249.813Z" fill="#6FA9FB" />
    <path d="M156.181 259.783L167.123 284.303L185.351 273.654L156.181 259.783Z" fill="#6F6FFE" />
    <path d="M90.7391 327.257L93.0741 329.476L108.904 319.424L90.7391 327.257Z" fill="#7723C4" />
    <path d="M167.124 284.303L155.021 282.734L166.999 289.936L167.124 284.303Z" fill="#3448C5" />
    <path d="M123.747 275.752L114.754 280.537L110.42 299.949L123.747 275.752Z" fill="#7A28C5" />
    <path d="M110.42 299.949L108.904 319.424L130.535 321.422L110.42 299.949Z" fill="#823ECE" />
    <path d="M108.897 319.424L93.0666 329.476L114.939 330.396L108.897 319.424Z" fill="#7724C4" />
    <path d="M114.944 330.395L93.0719 329.475L113.499 336.866L114.944 330.395Z" fill="#7724C4" />
    <path d="M108.901 319.424L114.943 330.396L130.533 321.422L108.901 319.424Z" fill="#612CE6" />
    <path d="M123.744 275.753L110.418 299.95L130.533 321.422L123.744 275.753Z" fill="#823FCD" />
    <path d="M155.019 282.734L123.746 275.753L130.533 321.422L155.019 282.734Z" fill="#5E2EE8" />
    <path d="M185.35 273.654L166.997 289.936L199.475 291.525L185.35 273.654Z" fill="#6DB7FD" />
    <path d="M195.539 273.664L185.352 273.655L199.477 291.526L195.539 273.664Z" fill="#8A8AFE" />
    <path d="M185.347 273.655L167.119 284.304L166.994 289.937L185.347 273.655Z" fill="#6F71FE" />
    <path d="M166.997 289.936L130.531 321.422L170.924 317.985L166.997 289.936Z" fill="#8B80EF" />
    <path d="M166.999 289.936L155.021 282.734L130.534 321.422L166.999 289.936Z" fill="#A596F3" />
    <path d="M130.533 321.422L114.943 330.396L134.104 345.995L130.533 321.422Z" fill="#5D2DE9" />
    <path d="M114.943 330.396L113.499 336.867L134.104 345.995L114.943 330.396Z" fill="#5D2DE9" />
    <path d="M146.459 336.299L130.534 321.422L134.105 345.995L146.459 336.299Z" fill="#AF93FB" />
    <path d="M170.927 317.986L130.535 321.422L146.46 336.299L170.927 317.986Z" fill="#8D80F2" />
    <path d="M199.478 291.525L167 289.936L200.903 305.429L199.478 291.525Z" fill="#6EB6FB" />
    <path d="M113.494 336.867L107.591 368.382L114.543 367.67L113.494 336.867Z" fill="#5D2EE3" />
    <path d="M200.901 305.429L170.926 317.985L177.994 321.827L200.901 305.429Z" fill="#6F6FFF" />
    <path d="M167 289.936L170.927 317.986L200.903 305.429L167 289.936Z" fill="#6F6FFF" />
    <path d="M134.103 345.995L113.498 336.866L126.775 363.606L134.103 345.995Z" fill="#5B2BE3" />
    <path d="M113.494 336.867L114.543 367.67L126.772 363.607L113.494 336.867Z" fill="#5C2DE3" />
    <path d="M200.903 305.429L182.665 326.266L205.803 318.977L200.903 305.429Z" fill="#6EBAFC" />
    <path d="M200.903 305.429L177.995 321.827L182.665 326.266L200.903 305.429Z" fill="#6F6EFF" />
    <path d="M182.668 326.266L183.255 338.851L184.574 338.014L182.668 326.266Z" fill="#6F6FFF" />
    <path d="M182.66 326.267L177.99 321.828L183.247 338.852L182.66 326.267Z" fill="#6F6FFF" />
    <path d="M170.926 317.985L146.459 336.299L183.251 338.851L170.926 317.985Z" fill="#75AEF9" />
    <path d="M177.992 321.828L170.924 317.985L183.25 338.852L177.992 321.828Z" fill="#3C4FCE" />
    <path d="M183.251 338.851L146.46 336.299L173.41 352.505L183.251 338.851Z" fill="#8295F2" />
    <path d="M173.41 352.505L146.459 336.299L170.291 356.336L173.41 352.505Z" fill="#73AFF8" />
    <path d="M183.252 338.852L173.411 352.506L181.682 350.956L183.252 338.852Z" fill="#596DCC" />
    <path d="M126.775 363.606L132.452 381.29L135.509 380.274L126.775 363.606Z" fill="#A38EF6" fill-opacity="0.976471" />
    <path d="M132.454 381.289L134.192 381.111L135.511 380.273L132.454 381.289Z" fill="#BAA0FE" fill-opacity="0.984314" />
    <path d="M184.569 338.014L183.25 338.852L185.993 351.918L184.569 338.014Z" fill="#5963E6" />
    <path d="M183.252 338.852L181.682 350.956L185.996 351.919L183.252 338.852Z" fill="#3B4ECA" />
    <path d="M181.685 350.954L173.414 352.504L180.722 355.268L181.685 350.954Z" fill="#797BFA" />
    <path d="M146.462 336.299L134.108 345.995L170.293 356.337L146.462 336.299Z" fill="#8C83F0" />
    <path d="M205.803 318.977L182.666 326.267L184.572 338.014L205.803 318.977Z" fill="#6F70FF" />
    <path d="M205.799 318.977L184.567 338.013L210.093 340.315L205.799 318.977Z" fill="#6EB6F9" />
    <path d="M181.68 350.954L180.717 355.268L185.993 351.918L181.68 350.954Z" fill="#4355D0" />
    <path d="M126.775 363.606L135.509 380.274L151.507 382.146L126.775 363.606Z" fill="#8B7EEF" />
    <path d="M134.105 345.995L126.778 363.606L158.524 378.618L134.105 345.995Z" fill="#8B7EEF" />
    <path d="M126.78 363.605L151.511 382.146L158.526 378.617L126.78 363.605Z" fill="#71B2F9" />
    <path d="M170.291 356.338L134.106 345.996L158.524 378.618L170.291 356.338Z" fill="#71B4F9" />
    <path d="M185.996 351.917L180.72 355.268L181.076 358.744L185.996 351.917Z" fill="#6072CE" />
    <path d="M158.526 378.617L151.511 382.146L154.087 383.287L158.526 378.617Z" fill="#BD9EFE" fill-opacity="0.678431" />
    <path d="M154.085 383.287L151.509 382.146L141.249 395.14L154.085 383.287Z" fill="#897DEF" />
    <path d="M135.509 380.274L134.189 381.112L141.247 395.141L135.509 380.274Z" fill="#8C7FEF" />
    <path d="M151.507 382.146L135.509 380.273L141.248 395.14L151.507 382.146Z" fill="#828FF2" />
    <path d="M134.191 381.112L132.452 381.29L141.248 395.141L134.191 381.112Z" fill="#C2AAFD" fill-opacity="0.976471" />
    <path d="M185.996 351.917L181.076 358.744L181.432 362.22L185.996 351.917Z" fill="#6F80D2" />
    <path d="M184.57 338.013L185.995 351.917L210.096 340.315L184.57 338.013Z" fill="#6F6FFF" />
    <path d="M185.996 351.917L181.432 362.22L198.918 375.181L185.996 351.917Z" fill="#5760E5" />
    <path d="M198.918 375.181L181.432 362.22L194.416 382.668L198.918 375.181Z" fill="#797BFA" />
    <path d="M210.099 340.316L185.998 351.918L198.92 375.182L210.099 340.316Z" fill="#6F6FFF" />
    <path d="M217.888 340.921L210.099 340.315L214.855 379.87L217.888 340.921Z" fill="#74AEFC" />
    <path d="M210.1 340.315L198.92 375.181L214.856 379.87L210.1 340.315Z" fill="#7C75F0" />
    <path d="M198.918 375.181L194.417 382.667L214.855 379.87L198.918 375.181Z" fill="#6F6FFF" />
    <path d="M214.852 379.87L194.414 382.667L212.194 401.92L214.852 379.87Z" fill="#686AF8" />
    <path d="M214.852 379.87L212.194 401.92L232.818 390.674L214.852 379.87Z" fill="#7071FF" />
    <path d="M217.883 340.922L214.849 379.871L232.817 390.674L217.883 340.922Z" fill="#71ACFC" />
    <path d="M232.82 390.674L212.195 401.92L234.727 402.421L232.82 390.674Z" fill="#7777FF" />
    <path d="M234.727 402.421L212.195 401.92L226.687 413.081L234.727 402.421Z" fill="#7474FF" />
    <path d="M211.75 497.513L209.436 497.771L205.992 502.608L211.75 497.513Z" fill="#653CEA" />
    <path d="M211.749 497.513L205.992 502.608L232.69 512.984L211.749 497.513Z" fill="#7048EA" />
    <path d="M232.69 512.984L201.93 506.107L204.412 532.542L232.69 512.984Z" fill="#6A3FEB" />
    <path d="M205.992 502.608L201.93 506.107L232.691 512.984L205.992 502.608Z" fill="#663EEC" />
    <path d="M232.691 512.985L204.413 532.543L210.176 537.992L232.691 512.985Z" fill="#6D3FED" />
    <path d="M232.691 512.985L210.176 537.992L213.367 541.385L232.691 512.985Z" fill="#683FEB" />
    <path d="M239.79 517.816L232.691 512.984L213.366 541.384L239.79 517.816Z" fill="#653DEB" />
    <path d="M239.79 517.816L213.367 541.385L219.028 550.125L239.79 517.816Z" fill="#653EEB" />
    <path d="M254.607 528.814L239.789 517.814L247.006 550.985L254.607 528.814Z" fill="#6D46EB" />
    <path d="M239.79 517.816L219.028 550.125L247.008 550.986L239.79 517.816Z" fill="#663BE9" />
    <path d="M262.742 542.903L254.608 528.815L247.008 550.986L262.742 542.903Z" fill="#6A42EA" />
    <path d="M219.026 550.125L222.217 553.518L247.006 550.985L219.026 550.125Z" fill="#9F3FF5" />
    <path d="M179.549 591.084L172.864 594.173L174.819 594.892L179.549 591.084Z" fill="#645985" fill-opacity="0.0901961" />
    <path d="M154.451 592.947L146.227 603.238L157.697 605.238L154.451 592.947Z" fill="#BC65F9" />
    <path d="M160.93 596.442L154.448 592.948L157.695 605.239L160.93 596.442Z" fill="#C573F8" />
    <path d="M247.01 550.985L222.221 553.518L248.402 559.265L247.01 550.985Z" fill="#6A3DEB" />
    <path d="M262.742 542.903L247.008 550.986L248.401 559.265L262.742 542.903Z" fill="#653DEB" />
    <path d="M248.4 559.265L222.218 553.518L236.631 577.684L248.4 559.265Z" fill="#9C42F5" />
    <path d="M262.742 542.903L248.4 559.265L270.874 556.991L262.742 542.903Z" fill="#663CEA" />
    <path d="M146.224 603.237L143.348 611.056L157.694 605.238L146.224 603.237Z" fill="#7855F8" />
    <path d="M172.864 594.173L160.934 596.442L157.697 605.238L172.864 594.173Z" fill="#B95DF7" />
    <path d="M157.696 605.238L143.349 611.057L156.83 622.674L157.696 605.238Z" fill="#8849EC" />
    <path d="M174.815 594.892L172.86 594.172L157.693 605.238L174.815 594.892Z" fill="#B85DFC" />
    <path d="M174.813 594.892L157.691 605.238L175.39 618.962L174.813 594.892Z" fill="#AE42F8" />
    <path d="M248.402 559.265L236.634 577.683L242.397 583.132L248.402 559.265Z" fill="#9440F3" />
    <path d="M210.305 597.961L179.546 591.084L196.784 609.077L210.305 597.961Z" fill="#B556F9" />
    <path d="M270.872 556.991L248.398 559.265L268.568 578.336L270.872 556.991Z" fill="#653AE9" />
    <path d="M274.065 560.384L270.874 556.991L268.57 578.336L274.065 560.384Z" fill="#6642EA" />
    <path d="M179.546 591.084L174.815 594.892L196.784 609.077L179.546 591.084Z" fill="#B455F8" />
    <path d="M157.696 605.238L156.83 622.674L175.396 618.961L157.696 605.238Z" fill="#AD41F7" />
    <path d="M277.974 561.822L274.065 560.384L268.57 578.336L277.974 561.822Z" fill="#6841EA" />
    <path d="M248.398 559.265L242.392 583.133L268.568 578.336L248.398 559.265Z" fill="#653DEA" />
    <path d="M174.819 594.892L175.396 618.961L196.787 609.077L174.819 594.892Z" fill="#AE42F6" />
    <path d="M175.399 618.962L172.472 628.427L173.808 627.809L175.399 618.962Z" fill="#963FF3" />
    <path d="M175.395 618.962L156.83 622.674L172.468 628.427L175.395 618.962Z" fill="#7C3BE7" />
    <path d="M277.972 561.823L268.568 578.337L286.105 575.911L277.972 561.823Z" fill="#6A41EB" />
    <path d="M210.309 597.96L196.787 609.077L211.398 616.115L210.309 597.96Z" fill="#AC7FEE" />
    <path d="M268.571 578.336L242.395 583.132L250.629 593.929L268.571 578.336Z" fill="#653BEA" />
    <path d="M211.392 616.116L196.782 609.077L207.64 620.284L211.392 616.116Z" fill="#BB8BF3" />
    <path d="M196.784 609.077L175.392 618.962L188.823 632.225L196.784 609.077Z" fill="#AC40F6" />
    <path d="M175.399 618.962L187.491 632.842L188.828 632.225L175.399 618.962Z" fill="#A840F4" />
    <path d="M175.391 618.962L173.801 627.81L187.484 632.843L175.391 618.962Z" fill="#A641F6" />
    <path d="M207.649 620.284L196.792 609.077L206.93 622.239L207.649 620.284Z" fill="#A269F0" />
    <path d="M206.927 622.239L196.789 609.077L188.828 632.225L206.927 622.239Z" fill="#AC41F6" />
    <path d="M206.926 622.239L188.827 632.225L197.983 634.484L206.926 622.239Z" fill="#AA40F6" />
    <path d="M197.981 634.483L188.825 632.225L195.925 637.056L197.981 634.483Z" fill="#7B3BE7" fill-opacity="0.623529" />
    <path d="M206.926 622.239L197.983 634.484L205.184 636.023L206.926 622.239Z" fill="#A840F4" />
    <path d="M268.57 578.336L250.628 593.93L252.998 602.569L268.57 578.336Z" fill="#6830DD" />
    <path d="M250.631 593.928L210.31 597.96L253.001 602.568L250.631 593.928Z" fill="#AE45F7" />
    <path d="M252.993 602.568L249.554 617.948L261.177 615.011L252.993 602.568Z" fill="#AF47F8" />
    <path d="M210.309 597.96L211.398 616.115L249.56 617.949L210.309 597.96Z" fill="#CA9BF6" />
    <path d="M252.994 602.568L210.303 597.96L249.556 617.948L252.994 602.568Z" fill="#B464F1" />
    <path d="M197.981 634.483L195.925 637.056L205.182 636.023L197.981 634.483Z" fill="#803DE9" fill-opacity="0.494118" />
    <path d="M211.397 616.115L207.644 620.283L206.925 622.238L211.397 616.115Z" fill="#BC8BF2" />
    <path d="M211.397 616.115L206.925 622.238L218.249 639.719L211.397 616.115Z" fill="#B586F0" />
    <path d="M206.924 622.238L205.182 636.023L218.247 639.719L206.924 622.238Z" fill="#9340EF" />
    <path d="M268.57 578.336L252.998 602.569L261.182 615.012L268.57 578.336Z" fill="#6B28D1" />
    <path d="M309.672 602.336L295.877 579.506L296.252 610.16L309.672 602.336Z" fill="#673CEA" />
    <path d="M295.88 579.506L286.106 575.911L296.255 610.159L295.88 579.506Z" fill="#7450EC" />
    <path d="M261.182 615.012L249.56 617.949L261.446 627.869L261.182 615.012Z" fill="#963CDF" />
    <path d="M286.105 575.911L268.568 578.337L296.252 610.16L286.105 575.911Z" fill="#6637E4" />
    <path d="M268.571 578.336L261.184 615.011L296.258 610.159L268.571 578.336Z" fill="#653BEA" />
    <path d="M249.561 617.948L211.398 616.115L218.249 639.719L249.561 617.948Z" fill="#C999F4" />
    <path d="M178.34 651.671L177.003 652.288L183.495 676.87L178.34 651.671Z" fill="#8F54F0" />
    <path d="M159.002 658.984L156.946 661.556L183.492 676.87L159.002 658.984Z" fill="#8E55F2" />
    <path d="M177.005 652.29L159.007 658.984L183.497 676.871L177.005 652.29Z" fill="#8E54F0" />
    <path d="M249.561 617.948L218.249 639.719L242.481 655.292L249.561 617.948Z" fill="#C894F5" />
    <path d="M309.677 602.335L296.257 610.159L319.248 612.514L309.677 602.335Z" fill="#6942EB" />
    <path d="M261.448 627.869L249.562 617.949L242.483 655.292L261.448 627.869Z" fill="#C999F4" />
    <path d="M218.246 639.72L205.181 636.023L213.942 672.536L218.246 639.72Z" fill="#8F54F1" />
    <path d="M205.182 636.023L195.924 637.056L213.942 672.536L205.182 636.023Z" fill="#8E54EF" />
    <path d="M195.925 637.056L178.342 651.671L213.943 672.535L195.925 637.056Z" fill="#9055EF" />
    <path d="M242.481 655.292L218.249 639.719L242.122 656.269L242.481 655.292Z" fill="#A675F0" />
    <path d="M296.255 610.159L261.18 615.011L261.444 627.868L296.255 610.159Z" fill="#692DD9" />
    <path d="M242.479 655.291L242.119 656.269L242.686 659.252L242.479 655.291Z" fill="#AD7DEE" />
    <path d="M183.497 676.871L188.643 680.982L213.943 672.535L183.497 676.871Z" fill="#814BF0" />
    <path d="M178.344 651.671L183.499 676.87L213.945 672.535L178.344 651.671Z" fill="#9251F2" />
    <path d="M242.121 656.269L218.249 639.719L213.943 672.535L242.121 656.269Z" fill="#8F57F0" />
    <path d="M319.248 612.514L296.257 610.159L315.247 635.455L319.248 612.514Z" fill="#653CEA" />
    <path d="M242.48 655.292L242.688 659.252L251.074 665.111L242.48 655.292Z" fill="#9658E1" />
    <path d="M326.345 617.345L319.245 612.514L315.245 635.455L326.345 617.345Z" fill="#673EEA" />
    <path d="M242.119 656.269L213.942 672.536L242.686 659.252L242.119 656.269Z" fill="#8C4FF0" />
    <path d="M276.216 651.057L242.479 655.291L258.993 664.695L276.216 651.057Z" fill="#C793F4" />
    <path d="M242.481 655.292L251.075 665.111L258.995 664.695L242.481 655.292Z" fill="#AA69E0" />
    <path d="M326.347 617.345L315.247 635.455L332.626 627.423L326.347 617.345Z" fill="#673EEA" />
    <path d="M261.441 627.869L242.476 655.292L276.213 651.058L261.441 627.869Z" fill="#CA99F5" />
    <path d="M296.258 610.159L261.447 627.868L276.219 651.057L296.258 610.159Z" fill="#A650EA" />
    <path d="M332.626 627.423L315.247 635.455L329.649 638.534L332.626 627.423Z" fill="#663DEA" />
    <path d="M296.255 610.159L276.217 651.057L315.246 635.454L296.255 610.159Z" fill="#653AE7" />
    <path d="M332.63 627.423L329.652 638.533L340.145 640.174L332.63 627.423Z" fill="#663EEA" />
    <path d="M213.943 672.535L208.292 684.882L223.677 698.864L213.943 672.535Z" fill="#BB57EA" />
    <path d="M329.651 638.534L315.248 635.455L316.236 656.902L329.651 638.534Z" fill="#C488F2" />
    <path d="M315.247 635.455L276.218 651.057L316.235 656.901L315.247 635.455Z" fill="#B27DF2" />
    <path d="M349.195 645.724L340.141 640.174L348.476 647.679L349.195 645.724Z" fill="#8E70F0" />
    <path d="M258.995 664.695L251.075 665.111L268.622 683.772L258.995 664.695Z" fill="#701AC0" />
    <path d="M316.231 656.901L276.213 651.058L300.912 672.904L316.231 656.901Z" fill="#CA9CF6" />
    <path d="M276.215 651.058L258.992 664.696L268.619 683.773L276.215 651.058Z" fill="#C48AF2" />
    <path d="M208.292 684.882L193.484 694.97L223.677 698.864L208.292 684.882Z" fill="#BB57EA" />
    <path d="M251.076 665.112L213.946 672.536L223.68 698.864L251.076 665.112Z" fill="#BB56EB" />
    <path d="M242.69 659.253L213.946 672.536L251.076 665.112L242.69 659.253Z" fill="#9247F0" />
    <path d="M223.677 698.864L193.484 694.97L210.212 718.877L223.677 698.864Z" fill="#BB57EA" />
    <path d="M193.485 694.969L198.64 720.168L210.212 718.877L193.485 694.969Z" fill="#BD5BEA" />
    <path d="M276.213 651.058L268.618 683.772L300.912 672.904L276.213 651.058Z" fill="#C895F4" />
    <path d="M300.916 672.905L268.622 683.772L281.227 691.738L300.916 672.905Z" fill="#C99AF4" />
    <path d="M251.075 665.111L223.678 698.863L245.129 708.419L251.075 665.111Z" fill="#BB57EA" />
    <path d="M268.622 683.772L251.075 665.111L245.129 708.419L268.622 683.772Z" fill="#7E23CC" />
    <path d="M210.217 718.876L198.645 720.168L203.689 727.572L210.217 718.876Z" fill="#CB7FEF" />
    <path d="M340.143 640.174L329.651 638.534L316.236 656.902L340.143 640.174Z" fill="#C295F6" />
    <path d="M349.195 645.725L348.476 647.68L364.631 658.061L349.195 645.725Z" fill="#963DEA" />
    <path d="M340.143 640.174L316.236 656.902L348.479 647.679L340.143 640.174Z" fill="#B58EF4" />
    <path d="M348.476 647.679L316.234 656.901L341.859 680.753L348.476 647.679Z" fill="#BB78F2" />
    <path d="M351.576 675.451L348.476 647.679L341.859 680.753L351.576 675.451Z" fill="#824CEA" />
    <path d="M364.634 658.061L348.479 647.679L351.579 675.452L364.634 658.061Z" fill="#683DEA" />
    <path d="M300.914 672.904L281.225 691.738L285.651 697.805L300.914 672.904Z" fill="#CA9CF6" />
    <path d="M300.914 672.904L285.651 697.805L302.368 700.625L300.914 672.904Z" fill="#CB9DF6" />
    <path d="M268.623 683.773L245.131 708.42L263.24 719.521L268.623 683.773Z" fill="#711BC5" />
    <path d="M302.366 700.625L285.649 697.804L294.602 706.646L302.366 700.625Z" fill="#C797F4" />
    <path d="M281.228 691.738L268.623 683.773L263.24 719.521L281.228 691.738Z" fill="#6F18C2" />
    <path d="M341.861 680.753L300.917 672.904L335.9 692.431L341.861 680.753Z" fill="#CA9CF4" />
    <path d="M285.65 697.805L281.224 691.738L263.236 719.52L285.65 697.805Z" fill="#6F18C1" />
    <path d="M316.236 656.902L300.917 672.904L341.861 680.753L316.236 656.902Z" fill="#CA9DF6" />
    <path d="M302.373 700.625L294.61 706.647L306.339 710.961L302.373 700.625Z" fill="#CB9DF6" />
    <path d="M300.92 672.904L302.373 700.625L335.903 692.431L300.92 672.904Z" fill="#CC9DF6" />
    <path d="M351.578 675.451L341.861 680.753L357.038 690.775L351.578 675.451Z" fill="#BE8AF5" />
    <path d="M294.608 706.647L263.24 719.521L278.677 731.857L294.608 706.647Z" fill="#7017C2" />
    <path d="M263.24 719.521L283.205 739.903L278.675 731.856L263.24 719.521Z" fill="#D0AFEC" />
    <path d="M364.634 658.061L351.579 675.452L375.998 680.061L364.634 658.061Z" fill="#6E41EB" />
    <path d="M351.577 675.45L357.036 690.774L375.998 680.059L351.577 675.45Z" fill="#6D3CEA" />
    <path d="M341.861 680.753L335.9 692.431L357.038 690.775L341.861 680.753Z" fill="#CA9AF6" />
    <path d="M335.9 692.431L302.37 700.625L306.335 710.961L335.9 692.431Z" fill="#CB9DF6" />
    <path d="M285.65 697.805L263.236 719.52L294.602 706.646L285.65 697.805Z" fill="#6F17C1" />
    <path d="M335.899 692.431L306.334 710.961L329.275 714.962L335.899 692.431Z" fill="#CA9AF5" />
    <path d="M287.111 736.068L278.674 731.855L283.358 740.236L287.111 736.068Z" fill="#C099E4" />
    <path d="M294.606 706.646L278.674 731.855L287.111 736.068L294.606 706.646Z" fill="#6F17C1" />
    <path d="M375.998 680.061L357.039 690.775L375.998 699.917L375.998 680.061Z" fill="#693CEA" />
    <path d="M306.334 710.961L294.606 706.646L287.111 736.069L306.334 710.961Z" fill="#6F17C1" />
    <path d="M329.274 714.961L306.333 710.961L310.354 730.194L329.274 714.961Z" fill="#6F17C1" />
    <path d="M306.335 710.961L287.113 736.069L310.357 730.195L306.335 710.961Z" fill="#6F17C1" />
    <path d="M310.356 730.195L287.111 736.069L302.03 743.777L310.356 730.195Z" fill="#6F17C1" />
    <path d="M310.356 730.195L302.03 743.777L304.603 745.832L310.356 730.195Z" fill="#731DC3" />
    <path d="M357.039 690.775L335.9 692.431L345.432 725.343L357.039 690.775Z" fill="#C174F0" />
    <path d="M335.899 692.431L329.275 714.962L345.43 725.343L335.899 692.431Z" fill="#C270EE" />
    <path d="M287.114 736.069L283.362 740.237L302.033 743.777L287.114 736.069Z" fill="#9D62D5" />
    <path d="M345.433 725.343L329.278 714.962L342.557 733.162L345.433 725.343Z" fill="#7218C5" />
    <path d="M310.356 730.195L304.603 745.832L311.703 750.663L310.356 730.195Z" fill="#7521C4" />
    <path d="M329.275 714.962L310.356 730.195L342.553 733.162L329.275 714.962Z" fill="#6F17C1" />
    <path d="M375.998 699.917L357.036 690.775L345.43 725.343L375.998 699.917Z" fill="#9A43EC" />
    <path d="M375.998 699.917L345.43 725.343L375.998 730.823L375.998 699.917Z" fill="#953CEB" />
    <path d="M342.555 733.163L311.704 750.665L314.895 754.058L342.555 733.163Z" fill="#7119C2" />
    <path d="M342.554 733.162L310.357 730.195L311.703 750.663L342.554 733.162Z" fill="#6F17C1" />
    <path d="M342.555 733.163L326.421 764.956L348.121 755.739L342.555 733.163Z" fill="#6E17C1" />
    <path d="M342.555 733.163L314.895 754.058L326.421 764.956L342.555 733.163Z" fill="#7724C4" />
    <path d="M345.433 725.343L342.557 733.162L375.998 730.823L345.433 725.343Z" fill="#953CE9" />
    <path d="M375.998 730.823L342.552 733.162L348.117 755.738L375.998 730.823Z" fill="#903CEA" />
    <path d="M348.122 755.739L326.422 764.956L328.073 775.55L348.122 755.739Z" fill="#6F19C2" />
    <path d="M375.998 730.823L348.115 755.738L375.998 763.223L375.998 730.823Z" fill="#943DEC" />
    <path d="M348.115 755.738L328.067 775.549L360.781 783.145L348.115 755.738Z" fill="#6F1EC7" />
    <path d="M328.07 775.549L328.491 794.013L360.785 783.145L328.07 775.549Z" fill="#7018C1" />
    <path d="M375.998 763.223L348.122 755.739L360.788 783.145L375.998 763.223Z" fill="#883CE6" />
    <path d="M360.785 783.145L328.491 794.013L360.279 799.604L360.785 783.145Z" fill="#6E17C1" />
    <path d="M360.279 799.604L328.491 794.013L334.831 823.533L360.279 799.604Z" fill="#711AC2" />
    <path d="M375.998 763.223L360.788 783.145L375.998 792.636L375.998 763.223Z" fill="#963CEA" />
    <path d="M360.279 799.604L363.784 814.208L368.362 815.337L360.279 799.604Z" fill="#993DEF" />
    <path d="M375.998 792.636L360.281 799.604L368.364 815.338L375.998 792.636Z" fill="#8C3BE8" />
    <path d="M360.274 799.604L334.827 823.532L363.778 814.209L360.274 799.604Z" fill="#6F17C1" />
    <path d="M360.785 783.145L360.278 799.603L375.998 792.636L360.785 783.145Z" fill="#863BE7" />
    <path d="M363.784 814.208L334.831 823.532L369.242 829.532L363.784 814.208Z" fill="#6F17C1" />
    <path d="M368.359 815.337L363.781 814.208L369.24 829.532L368.359 815.337Z" fill="#993DEE" />
    <path d="M369.239 829.533L334.829 823.532L352.173 848.777L369.239 829.533Z" fill="#7019C1" />
    <path d="M375.998 792.636L368.362 815.337L375.998 822.823L375.998 792.636Z" fill="#963CEA" />
    <path d="M369.246 829.533L352.18 848.777L374.088 843.52L369.246 829.533Z" fill="#6F17C1" />
    <path d="M375.998 822.823L369.242 829.533L375.998 845.567L375.998 822.823Z" fill="#9A43EB" />
    <path d="M369.242 829.533L374.083 843.52L375.998 845.567L369.242 829.533Z" fill="#A540F2" />
    <path d="M374.084 843.519L352.177 848.776L357.839 857.517L374.084 843.519Z" fill="#741FC3" />
    <path d="M368.362 815.338L369.243 829.533L375.998 822.824L368.362 815.338Z" fill="#963CEA" />
    <path d="M375.998 845.567L374.086 843.52L359.593 864.82L375.998 845.567Z" fill="#7622C4" />
    <path d="M374.083 843.52L357.837 857.517L359.589 864.819L374.083 843.52Z" fill="#731EC3" />
    <path d="M375.998 845.567L359.589 864.819L375.998 849.405L375.998 845.567Z" fill="#9942EB" />
    <path d="M359.591 864.82L375.998 896.283L375.998 872.621L375.998 849.405L359.591 864.82Z" fill="#741FC3" />
  </g>
</svg>