<svg width="164" height="40" viewBox="0 0 164 40" fill="none" xmlns="http://www.w3.org/2000/svg">
<g opacity="0.7">
<path d="M160.794 14.3814L137.694 0.879C135.688 -0.293 133.292 -0.293 131.288 0.879C129.281 2.05106 128.084 4.15069 128.084 6.49725V13.4589H132.976V5.08075C132.976 4.52119 133.577 4.16831 134.057 4.45062L159.666 19.4199C160.146 19.6998 160.146 20.4004 159.666 20.6828L134.057 35.6521C133.577 35.9319 132.976 35.5816 132.976 35.022V22.9588C132.976 22.5555 133.297 22.2304 133.696 22.2304H139.44L145.953 17.3481V17.3078H134.562C130.99 17.3078 128.084 20.2492 128.084 23.8662V33.5021C128.084 35.8462 129.281 37.9481 131.288 39.1206C132.292 39.7075 133.392 40 134.492 40C135.593 40 136.693 39.7075 137.697 39.1206L160.796 25.6179C162.803 24.4459 164 22.3463 164 19.9997C164 17.6531 162.8 15.5535 160.794 14.3814Z" fill="#21BA72"/>
<path d="M90.2098 27.3082C90.7402 27.1022 91.3043 27.0041 91.8709 27.0191C92.8277 27.039 93.7533 27.3798 94.5044 27.991L93.658 28.6196C93.1469 28.2669 92.5516 28.0654 91.9383 28.0354C91.9177 28.0344 91.8965 28.0337 91.8759 28.033C91.841 28.0319 91.8055 28.0314 91.7706 28.0315C90.9416 28.0296 90.1431 28.3412 89.526 28.9038C88.8877 29.4861 88.4732 30.3123 88.4277 31.2349C88.4246 31.2909 88.4234 31.3469 88.4234 31.4036C88.4234 32.2779 88.7556 33.0752 89.2991 33.675C89.6133 34.0214 89.9941 34.298 90.4167 34.4874C90.7926 34.6557 91.1946 34.752 91.6035 34.7719C91.6565 34.7746 91.7095 34.7758 91.7631 34.7759H91.7706C92.6002 34.7776 93.3987 34.4653 94.0158 33.9027C94.6927 33.2854 95.1172 32.3029 95.1172 31.3132C95.1172 31.2905 95.1178 31.3579 95.1172 31.3353V31.3132L96.054 30.6176C96.0995 30.8726 96.1238 31.1353 96.1238 31.4036C96.1238 32.6143 95.6364 33.7107 94.8485 34.5039C94.4159 34.9397 93.8998 35.2787 93.332 35.4989C92.7884 35.7098 92.21 35.8076 91.6297 35.7868C91.0718 35.7699 90.5215 35.6437 90.0091 35.4146C89.5198 35.1956 89.0735 34.8867 88.6933 34.5039C87.9054 33.7106 87.418 32.6141 87.418 31.4036C87.418 30.1134 87.9702 28.9537 88.8503 28.1514C89.2493 27.7881 89.7099 27.5022 90.2098 27.3082Z" fill="#373A44"/>
<path d="M112.774 29.6435L113.957 28.7646H109.996V34.0424H113.957V33.1641H111.127V31.8126H113.541V30.9341H111.126V29.6437L112.774 29.6435Z" fill="#373A44"/>
<path fill-rule="evenodd" clip-rule="evenodd" d="M107.006 30.8221H105.63V29.6435H107.826L109.01 28.7646H104.5V34.0424H106.86C108.184 34.0424 108.943 33.438 108.943 32.3844C108.943 31.3772 108.255 30.8221 107.006 30.8221ZM106.809 33.1636H105.63V31.7006H106.809C107.526 31.7006 107.86 31.9455 107.86 32.4322C107.861 32.9293 107.507 33.1636 106.809 33.1636Z" fill="#373A44"/>
<path fill-rule="evenodd" clip-rule="evenodd" d="M117.166 28.7646H115.01V34.0421H116.14V32.5474H117.166C118.543 32.5474 119.397 31.8183 119.397 30.6532C119.397 29.4884 118.542 28.7646 117.166 28.7646ZM117.142 31.6686H116.14V29.6432H117.142C117.866 29.6432 118.265 30.0026 118.265 30.6558C118.265 31.3088 117.866 31.6686 117.142 31.6686Z" fill="#373A44"/>
<path d="M102.809 32.7615C102.52 32.9225 101.932 33.146 101.584 33.146C100.565 33.146 99.8249 32.4133 99.8249 31.4036C99.8249 30.3938 100.565 29.6611 101.584 29.6611C101.969 29.6611 102.314 29.7703 102.612 29.9851L103.423 29.3833C102.95 28.9641 102.263 28.6953 101.54 28.6953C100.755 28.6953 100.043 28.9619 99.535 29.4455C99.0239 29.9325 98.7422 30.6171 98.7422 31.374C98.7422 32.1343 99.0233 32.8293 99.5326 33.3309C100.043 33.8343 100.754 34.1116 101.533 34.1116C102.347 34.1116 103.059 33.8253 103.541 33.3045L102.809 32.7615Z" fill="#373A44"/>
<path d="M95.2151 28.7217C95.4202 28.9894 95.596 29.2819 95.7362 29.5934L91.7707 32.5385L90.1133 31.4919V30.2333L91.7707 31.2796L95.2151 28.7217Z" fill="#373A44"/>
<path d="M1.31601 16.3084C1.48916 15.8841 1.64499 15.4185 1.78355 14.9116C1.93359 14.4047 2.06062 13.8389 2.16452 13.2142C2.27996 12.5777 2.37228 11.8763 2.44153 11.1101C2.51084 10.3321 2.55123 9.47166 2.56276 8.52859L2.59742 5.96484H11.1168V16.3084H12.5195V20.6403H10.4934V18.3418H2.02596V20.6403H0V16.3084H1.31601ZM4.57139 8.58166C4.50214 11.7879 4.12117 14.3635 3.42855 16.3084H8.95236V7.99816H4.57139V8.58166Z" fill="#21BA72"/>
<path d="M20.9863 17.4578C20.8825 17.5875 20.7324 17.7171 20.5361 17.8468C20.3399 17.9646 20.1032 18.0766 19.8262 18.1827C19.5491 18.2888 19.2374 18.3713 18.8911 18.4303C18.5563 18.4892 18.1927 18.5186 17.8002 18.5186C16.3572 18.5305 15.2374 18.1473 14.4409 17.3693C13.6443 16.5796 13.2461 15.4185 13.2461 13.8861C13.2461 13.1553 13.35 12.507 13.5578 11.9411C13.7771 11.3636 14.083 10.8803 14.4755 10.4913C14.868 10.1023 15.3298 9.80764 15.8608 9.6072C16.4034 9.40683 17.0036 9.30664 17.6617 9.30664C18.9199 9.31845 19.9012 9.70152 20.6054 10.456C21.3211 11.2103 21.679 12.283 21.679 13.674V14.5226H15.2547C15.4164 15.9961 16.2879 16.7328 17.8695 16.7328C18.666 16.7328 19.324 16.5973 19.8434 16.3261C20.3745 16.055 20.7554 15.725 20.9863 15.336V17.4578ZM17.6097 11.1101C16.9517 11.1101 16.4264 11.2752 16.0339 11.6052C15.6414 11.9353 15.3933 12.4186 15.2894 13.0551H19.653C19.6299 12.454 19.4394 11.9825 19.0816 11.6406C18.7237 11.287 18.2331 11.1101 17.6097 11.1101Z" fill="#21BA72"/>
<path d="M28.6345 11.3227H25.8293L25.7774 12.4366C25.7196 13.8157 25.5984 14.9061 25.4137 15.7077C25.2406 16.5092 25.0212 17.1163 24.7557 17.5288C24.4902 17.9296 24.1958 18.183 23.8726 18.2891C23.5493 18.3952 23.2203 18.4482 22.8856 18.4482C22.7239 18.4482 22.5623 18.4365 22.4007 18.4129C22.2507 18.4011 22.1294 18.3834 22.0371 18.3598V16.2204C22.1756 16.2675 22.3257 16.2911 22.4873 16.2911C22.672 16.2911 22.8452 16.2558 23.0068 16.185C23.18 16.1025 23.3301 15.9022 23.457 15.5838C23.584 15.2656 23.6879 14.7823 23.7687 14.134C23.8611 13.4857 23.9245 12.5839 23.9592 11.4287L24.0284 9.50146H30.6432V18.3422H28.6345V11.3227Z" fill="#21BA72"/>
<path d="M36.6336 18.5363C35.953 18.5363 35.3409 18.442 34.7986 18.2535C34.2557 18.053 33.7882 17.7583 33.3955 17.3693C33.0034 16.9804 32.703 16.4971 32.4954 15.9195C32.2875 15.3419 32.1836 14.6641 32.1836 13.8861C32.1836 13.12 32.2933 12.454 32.5129 11.8881C32.7317 11.3105 33.0377 10.8331 33.4304 10.456C33.8231 10.067 34.2962 9.77814 34.8503 9.58958C35.4045 9.40095 36.0222 9.30664 36.7028 9.30664C37.3729 9.30664 37.9787 9.40683 38.521 9.6072C39.0752 9.80764 39.5426 10.1023 39.9241 10.4913C40.3162 10.8803 40.6166 11.3636 40.8242 11.9411C41.0324 12.5188 41.1358 13.1906 41.1358 13.9568C41.1358 14.723 41.0261 15.395 40.8067 15.9725C40.5879 16.5383 40.2819 17.0098 39.8892 17.387C39.4965 17.7643 39.0234 18.053 38.4693 18.2535C37.9152 18.442 37.3031 18.5363 36.6336 18.5363ZM34.2445 13.9391C34.2445 14.9175 34.4576 15.6307 34.8846 16.0786C35.3122 16.5148 35.9068 16.7328 36.6685 16.7328C37.4421 16.7328 38.0367 16.5089 38.4518 16.061C38.8676 15.6012 39.0752 14.8998 39.0752 13.9568V13.9038C39.0752 12.9255 38.8558 12.2182 38.4176 11.782C37.99 11.3341 37.3959 11.1101 36.6336 11.1101C35.8601 11.122 35.2661 11.3577 34.8503 11.8174C34.4464 12.2653 34.2445 12.9549 34.2445 13.8861V13.9391Z" fill="#21BA72"/>
<path d="M42.6582 9.50146H47.022C48.0605 9.50146 48.7997 9.67828 49.2379 10.0319C49.6767 10.3738 49.8961 10.8806 49.8961 11.5525C49.8961 12.083 49.7634 12.525 49.4978 12.8786C49.2442 13.2205 48.8801 13.4503 48.407 13.5682C48.6844 13.6035 48.9381 13.6684 49.1687 13.7627C49.4112 13.8452 49.6132 13.969 49.7752 14.134C49.9479 14.299 50.0806 14.5112 50.1735 14.7705C50.277 15.0298 50.3293 15.3481 50.3293 15.7253C50.3293 16.574 50.052 17.2223 49.4978 17.6703C48.9556 18.1182 48.1128 18.3422 46.9697 18.3422H42.6582V9.50146ZM46.7796 16.6271C47.3219 16.6271 47.7145 16.5445 47.957 16.3795C48.1995 16.2027 48.3204 15.9375 48.3204 15.5838C48.3204 15.1948 48.1995 14.9297 47.957 14.7882C47.7258 14.635 47.3736 14.5583 46.9005 14.5583H44.684V16.6271H46.7796ZM46.5371 13.0731C46.941 13.0731 47.2645 13.0024 47.5063 12.8609C47.7488 12.7077 47.8704 12.4425 47.8704 12.0653C47.8704 11.7352 47.7607 11.5113 47.5413 11.3934C47.3219 11.2755 46.9927 11.2166 46.5545 11.2166L44.684 11.2342V13.0731H46.5371Z" fill="#21BA72"/>
<path d="M52.0403 10.1199C52.3289 9.89591 52.7272 9.70734 53.2352 9.55409C53.755 9.40084 54.3896 9.32422 55.14 9.32422C56.4097 9.32422 57.3565 9.56584 57.9799 10.0492C58.6032 10.5325 58.9148 11.3517 58.9148 12.5068V18.3417H57.01V16.7504C56.8024 17.269 56.4446 17.6875 55.9366 18.0058C55.4405 18.324 54.8458 18.4832 54.1533 18.4832C53.2757 18.4832 52.5888 18.2474 52.0926 17.7759C51.6077 17.2927 51.3652 16.6148 51.3652 15.7425C51.3652 15.2357 51.4519 14.8172 51.6252 14.4872C51.7984 14.1572 52.0403 13.8978 52.3526 13.7092C52.6642 13.5088 53.0388 13.3673 53.4777 13.2848C53.9165 13.2023 54.4014 13.1611 54.9325 13.1611H56.8891V12.7721C56.8891 12.1473 56.7388 11.7171 56.439 11.4813C56.1504 11.2456 55.7172 11.1277 55.14 11.1277C54.3434 11.1277 53.7027 11.2751 53.2184 11.5698C52.7334 11.8527 52.3407 12.2298 52.0403 12.7013V10.1199ZM54.7941 16.6267C55.14 16.6267 55.4342 16.5853 55.6767 16.5028C55.931 16.4085 56.1442 16.2966 56.3175 16.1669C56.4908 16.0255 56.6235 15.8722 56.7158 15.7072C56.808 15.5422 56.866 15.383 56.8891 15.2298V14.5048H55.1749C54.5747 14.5048 54.1303 14.5756 53.8417 14.717C53.5531 14.8585 53.4085 15.1296 53.4085 15.5304C53.4085 15.8722 53.5238 16.1433 53.755 16.3437C53.9975 16.5323 54.3434 16.6267 54.7941 16.6267Z" fill="#21BA72"/>
<path d="M66.1671 15.4247H64.1581L62.4091 18.3422H60.1758L62.1841 15.1418C61.6649 14.9297 61.2722 14.6173 61.0067 14.2047C60.7411 13.7803 60.6084 13.2794 60.6084 12.7018C60.6084 11.5938 60.92 10.7863 61.5433 10.2795C62.1673 9.76078 63.154 9.50146 64.5047 9.50146H68.1929V18.3422H66.1671V15.4247ZM64.5564 11.3227C63.8758 11.3227 63.3846 11.4228 63.0848 11.6232C62.7844 11.8236 62.6348 12.1832 62.6348 12.7018C62.646 13.0672 62.7731 13.3501 63.0156 13.5505C63.2581 13.7391 63.6445 13.8334 64.1756 13.8334H66.1671V11.3227H64.5564Z" fill="#21BA72"/>
<path d="M81.3574 17.4578C81.161 17.7053 80.8088 17.947 80.3008 18.1827C79.7928 18.4185 79.187 18.5363 78.4826 18.5363C77.7901 18.5363 77.1612 18.442 76.5952 18.2535C76.0299 18.053 75.5449 17.7583 75.141 17.3693C74.7371 16.9804 74.4255 16.4971 74.2061 15.9195C73.9867 15.3419 73.877 14.6641 73.877 13.8861C73.877 13.1317 73.9867 12.4716 74.2061 11.9058C74.4367 11.3282 74.754 10.8508 75.1585 10.4736C75.5624 10.0846 76.0473 9.79583 76.6127 9.6072C77.1787 9.40683 77.8076 9.30664 78.5001 9.30664C79.0891 9.31845 79.6258 9.40095 80.1107 9.5542C80.5957 9.70745 80.9821 9.89602 81.2707 10.12V12.7015C80.9709 12.23 80.5894 11.8528 80.1282 11.5699C79.6775 11.2752 79.1352 11.122 78.5001 11.1101C77.6692 11.1101 77.0341 11.3341 76.5952 11.782C76.157 12.23 75.9376 12.9019 75.9376 13.7977V14.063C75.9376 14.9824 76.1627 15.6601 76.6127 16.0963C77.0746 16.5206 77.7153 16.7328 78.535 16.7328C79.2624 16.7328 79.8564 16.5973 80.3183 16.3261C80.7914 16.055 81.138 15.725 81.3574 15.336V17.4578Z" fill="#21BA72"/>
<path d="M82.8652 9.50103H84.7695V11.3399C84.8505 11.0923 84.9658 10.8507 85.116 10.615C85.2775 10.3674 85.4794 10.1493 85.7219 9.96072C85.9762 9.77216 86.276 9.61891 86.6226 9.50103C86.9691 9.38316 87.373 9.32422 87.8349 9.32422C88.389 9.32422 88.8908 9.41266 89.3415 9.58947C89.8027 9.75447 90.1954 10.0138 90.5189 10.3674C90.8536 10.721 91.1129 11.1748 91.2981 11.7289C91.4826 12.2829 91.5748 12.9489 91.5748 13.7269C91.5748 14.5992 91.4826 15.3418 91.2981 15.9547C91.1129 16.5559 90.8474 17.051 90.5015 17.44C90.1667 17.8172 89.7566 18.0942 89.2717 18.271C88.7874 18.4478 88.2501 18.5362 87.6616 18.5362C86.9691 18.5362 86.3857 18.383 85.9126 18.0765C85.4507 17.77 85.1104 17.4105 84.891 16.9979V21.7542H82.8652V9.50103ZM84.891 14.222C84.891 15.0235 85.0986 15.6423 85.5143 16.0785C85.9301 16.5028 86.4954 16.715 87.2116 16.715C88.0306 16.715 88.6253 16.497 88.9949 16.0608C89.3645 15.6129 89.549 14.8644 89.549 13.8153C89.549 12.8487 89.3352 12.165 88.9083 11.7642C88.4925 11.3635 87.9384 11.1631 87.2459 11.1631C86.4493 11.1631 85.8609 11.3753 85.4794 11.7996C85.1104 12.224 84.9141 12.8075 84.891 13.5501V14.222Z" fill="#21BA72"/>
<path d="M100.221 17.4578C100.117 17.5875 99.9671 17.7171 99.7708 17.8468C99.5744 17.9646 99.3376 18.0766 99.0608 18.1827C98.7834 18.2888 98.4718 18.3713 98.1258 18.4303C97.7911 18.4892 97.4271 18.5186 97.0344 18.5186C95.5914 18.5305 94.472 18.1473 93.6754 17.3693C92.8788 16.5796 92.4805 15.4185 92.4805 13.8861C92.4805 13.1553 92.5846 12.507 92.7921 11.9411C93.0115 11.3636 93.3176 10.8803 93.7103 10.4913C94.1023 10.1023 94.5642 9.80764 95.0953 9.6072C95.6382 9.40683 96.2384 9.30664 96.896 9.30664C98.1545 9.31845 99.1356 9.70152 99.84 10.456C100.556 11.2103 100.913 12.283 100.913 13.674V14.5226H94.4894C94.6509 15.9961 95.5222 16.7328 97.1042 16.7328C97.9002 16.7328 98.5584 16.5973 99.0783 16.3261C99.6087 16.055 99.9902 15.725 100.221 15.336V17.4578ZM96.8443 11.1101C96.1861 11.1101 95.6612 11.2752 95.2686 11.6052C94.8759 11.9353 94.6278 12.4186 94.5237 13.0551H98.8875C98.8645 12.454 98.6737 11.9825 98.3159 11.6406C97.9582 11.287 97.4676 11.1101 96.8443 11.1101Z" fill="#21BA72"/>
<path d="M102.296 16.4679C102.411 16.1497 102.515 15.8019 102.607 15.4247C102.711 15.0357 102.798 14.5996 102.867 14.1163C102.937 13.633 102.988 13.0967 103.023 12.5073C103.057 11.9062 103.075 11.2402 103.075 10.5093V9.50146H109.724V16.4679H111.04V20.6407H109.205V18.3422H103.127V20.6407H101.291V16.4679H102.296ZM104.962 11.5348C104.939 12.5603 104.876 13.468 104.772 14.2578C104.668 15.0357 104.495 15.7725 104.252 16.4679H107.698V11.3227H104.962V11.5348Z" fill="#21BA72"/>
<path d="M112.521 10.1199C112.809 9.89591 113.208 9.70734 113.716 9.55409C114.235 9.40084 114.87 9.32422 115.621 9.32422C116.89 9.32422 117.837 9.56584 118.46 10.0492C119.084 10.5325 119.395 11.3517 119.395 12.5068V18.3417H117.49V16.7504C117.283 17.269 116.925 17.6875 116.417 18.0058C115.921 18.324 115.326 18.4832 114.634 18.4832C113.756 18.4832 113.069 18.2474 112.573 17.7759C112.088 17.2927 111.846 16.6148 111.846 15.7425C111.846 15.2357 111.932 14.8172 112.106 14.4872C112.278 14.1572 112.521 13.8978 112.832 13.7092C113.144 13.5088 113.519 13.3673 113.958 13.2848C114.397 13.2023 114.882 13.1611 115.413 13.1611H117.37V12.7721C117.37 12.1473 117.219 11.7171 116.919 11.4813C116.631 11.2456 116.198 11.1277 115.621 11.1277C114.824 11.1277 114.183 11.2751 113.698 11.5698C113.214 11.8527 112.821 12.2298 112.521 12.7013V10.1199ZM115.274 16.6267C115.621 16.6267 115.915 16.5853 116.157 16.5028C116.411 16.4085 116.625 16.2966 116.798 16.1669C116.971 16.0255 117.104 15.8722 117.196 15.7072C117.288 15.5422 117.346 15.383 117.37 15.2298V14.5048H115.655C115.055 14.5048 114.611 14.5756 114.322 14.717C114.034 14.8585 113.889 15.1296 113.889 15.5304C113.889 15.8722 114.004 16.1433 114.235 16.3437C114.478 16.5323 114.824 16.6267 115.274 16.6267Z" fill="#21BA72"/>
</g>
</svg>
