<svg width="975" height="575" viewBox="0 0 975 575" fill="none" xmlns="http://www.w3.org/2000/svg">
  <path d="M974.167 535.197L951.934 528.952L957.643 551.33L974.167 535.197ZM0.00130177 10.6667C0.00130177 16.5578 4.77693 21.3334 10.668 21.3334C16.559 21.3334 21.3346 16.5578 21.3346 10.6667C21.3346 4.77571 16.559 8.10623e-05 10.668 8.10623e-05C4.77693 8.10623e-05 0.00130177 4.77571 0.00130177 10.6667ZM8.70586 20.9213C8.71422 22.0258 9.6164 22.9144 10.7209 22.9061C11.8255 22.8977 12.7141 21.9955 12.7057 20.891L10.7058 20.9061L8.70586 20.9213ZM13.0405 41.3027C13.0118 40.1985 12.0934 39.3266 10.9892 39.3553C9.88502 39.384 9.01314 40.3023 9.04182 41.4065L11.0411 41.3546L13.0405 41.3027ZM9.8015 61.8957C9.85552 62.9989 10.7937 63.8495 11.8969 63.7955C13.0002 63.7415 13.8507 62.8033 13.7967 61.7001L11.7991 61.7979L9.8015 61.8957ZM15.0675 82.0546C14.983 80.9532 14.0217 80.1289 12.9203 80.2134C11.819 80.2979 10.9947 81.2592 11.0792 82.3605L13.0733 82.2076L15.0675 82.0546ZM12.9721 102.794C13.0923 103.892 14.0798 104.685 15.1778 104.564C16.2758 104.444 17.0685 103.457 16.9484 102.359L14.9603 102.576L12.9721 102.794ZM19.5317 122.571C19.3709 121.478 18.3547 120.722 17.2619 120.883C16.1691 121.044 15.4135 122.06 15.5742 123.153L17.5529 122.862L19.5317 122.571ZM18.976 143.405C19.1819 144.49 20.2285 145.203 21.3137 144.997C22.3989 144.791 23.1118 143.744 22.9059 142.659L20.9409 143.032L18.976 143.405ZM27.1482 162.572C26.8932 161.497 25.8153 160.833 24.7406 161.088C23.6658 161.343 23.0012 162.421 23.2562 163.495L25.2022 163.034L27.1482 162.572ZM28.4796 183.368C28.7866 184.429 29.8956 185.04 30.9566 184.734C32.0177 184.427 32.629 183.318 32.322 182.256L30.4008 182.812L28.4796 183.368ZM38.4716 201.653C38.1108 200.609 36.972 200.055 35.928 200.416C34.884 200.777 34.3302 201.916 34.691 202.96L36.5813 202.306L38.4716 201.653ZM41.9115 222.203C42.3266 223.226 43.493 223.719 44.5166 223.304C45.5401 222.889 46.0333 221.723 45.6181 220.699L43.7648 221.451L41.9115 222.203ZM53.765 239.348C53.2962 238.348 52.1053 237.917 51.1052 238.386C50.1051 238.855 49.6744 240.045 50.1433 241.046L51.9542 240.197L53.765 239.348ZM59.3494 259.408C59.8701 260.382 61.0819 260.75 62.056 260.229C63.0302 259.709 63.3978 258.497 62.8771 257.523L61.1132 258.465L59.3494 259.408ZM72.9431 275.242C72.3732 274.295 71.1442 273.99 70.1979 274.56C69.2517 275.13 68.9466 276.359 69.5165 277.305L71.2298 276.273L72.9431 275.242ZM80.5328 294.615C81.1483 295.533 82.3908 295.777 83.308 295.162C84.2252 294.546 84.4697 293.304 83.8542 292.386L82.1935 293.501L80.5328 294.615ZM95.5883 309.014C94.9308 308.127 93.6783 307.94 92.7907 308.598C91.9031 309.255 91.7166 310.508 92.374 311.395L93.9811 310.205L95.5883 309.014ZM104.977 327.647C105.673 328.505 106.932 328.636 107.79 327.941C108.648 327.245 108.78 325.985 108.084 325.127L106.531 326.387L104.977 327.647ZM121.242 340.69C120.512 339.861 119.248 339.781 118.419 340.511C117.59 341.241 117.51 342.505 118.24 343.334L119.741 342.012L121.242 340.69ZM132.075 358.456C132.835 359.257 134.101 359.29 134.902 358.529C135.703 357.769 135.736 356.503 134.975 355.702L133.525 357.079L132.075 358.456ZM149.258 370.223C148.47 369.449 147.203 369.46 146.429 370.248C145.655 371.036 145.666 372.302 146.454 373.076L147.856 371.649L149.258 370.223ZM161.316 387.211C162.128 387.96 163.394 387.908 164.142 387.096C164.891 386.283 164.839 385.018 164.027 384.27L162.671 385.74L161.316 387.211ZM179.227 397.863C178.393 397.139 177.13 397.227 176.405 398.061C175.681 398.895 175.77 400.159 176.604 400.883L177.915 399.373L179.227 397.863ZM192.267 414.115C193.121 414.817 194.381 414.694 195.082 413.841C195.784 412.988 195.661 411.727 194.808 411.026L193.538 412.571L192.267 414.115ZM210.728 423.783C209.857 423.103 208.6 423.257 207.92 424.127C207.24 424.998 207.394 426.255 208.265 426.935L209.496 425.359L210.728 423.783ZM224.368 439.185C225.257 439.839 226.509 439.649 227.164 438.759C227.819 437.869 227.628 436.617 226.738 435.963L225.553 437.574L224.368 439.185ZM242.77 447.346C241.859 446.721 240.614 446.954 239.99 447.865C239.366 448.777 239.599 450.022 240.51 450.646L241.64 448.996L242.77 447.346ZM257.026 461.561C257.958 462.155 259.194 461.881 259.788 460.95C260.382 460.018 260.108 458.782 259.177 458.188L258.102 459.875L257.026 461.561ZM275.931 468.492C274.981 467.928 273.754 468.242 273.191 469.192C272.627 470.142 272.941 471.369 273.891 471.932L274.911 470.212L275.931 468.492ZM291.078 481.761C292.045 482.294 293.262 481.943 293.795 480.975C294.328 480.008 293.977 478.792 293.009 478.258L292.044 480.01L291.078 481.761ZM310.379 487.488C309.395 486.985 308.19 487.374 307.687 488.357C307.184 489.34 307.573 490.545 308.556 491.048L309.467 489.268L310.379 487.488ZM326.297 499.798C327.295 500.272 328.488 499.847 328.962 498.85C329.436 497.852 329.011 496.659 328.013 496.185L327.155 497.992L326.297 499.798ZM345.899 504.36C344.888 503.915 343.708 504.375 343.263 505.386C342.819 506.397 343.278 507.577 344.289 508.022L345.094 506.191L345.899 504.36ZM362.511 515.725C363.534 516.141 364.701 515.648 365.117 514.625C365.532 513.602 365.04 512.435 364.016 512.019L363.264 513.872L362.511 515.725ZM382.345 519.171C381.311 518.783 380.158 519.308 379.771 520.342C379.383 521.377 379.908 522.529 380.942 522.917L381.644 521.044L382.345 519.171ZM399.566 529.604C400.61 529.963 401.748 529.408 402.108 528.363C402.467 527.319 401.912 526.181 400.867 525.822L400.216 527.713L399.566 529.604ZM419.565 531.98C418.512 531.648 417.389 532.233 417.057 533.287C416.725 534.341 417.31 535.464 418.364 535.795L418.964 533.888L419.565 531.98ZM437.317 541.498C438.379 541.803 439.487 541.19 439.791 540.128C440.096 539.066 439.482 537.959 438.421 537.654L437.869 539.576L437.317 541.498ZM457.39 542.844C456.321 542.565 455.229 543.206 454.951 544.275C454.673 545.344 455.314 546.436 456.383 546.715L456.886 544.779L457.39 542.844ZM475.575 551.461C476.65 551.713 477.726 551.046 477.978 549.971C478.231 548.895 477.563 547.819 476.488 547.567L476.031 549.514L475.575 551.461ZM495.7 551.832C494.619 551.605 493.559 552.298 493.332 553.379C493.106 554.46 493.799 555.52 494.88 555.747L495.29 553.789L495.7 551.832ZM514.286 559.579C515.372 559.781 516.416 559.064 516.617 557.978C516.819 556.892 516.102 555.848 515.015 555.647L514.651 557.613L514.286 559.579ZM534.422 559.02C533.332 558.843 532.304 559.583 532.128 560.674C531.951 561.764 532.691 562.791 533.781 562.968L534.102 560.994L534.422 559.02ZM553.338 565.918C554.432 566.07 555.442 565.307 555.595 564.213C555.748 563.119 554.985 562.109 553.891 561.956L553.614 563.937L553.338 565.918ZM573.403 564.464C572.306 564.335 571.312 565.12 571.183 566.217C571.054 567.314 571.839 568.307 572.936 568.436L573.169 566.45L573.403 564.464ZM592.591 570.536C593.691 570.641 594.668 569.836 594.774 568.736C594.879 567.637 594.074 566.66 592.974 566.554L592.783 568.545L592.591 570.536ZM612.596 568.234C611.494 568.152 610.534 568.977 610.451 570.079C610.369 571.18 611.194 572.14 612.296 572.223L612.446 570.229L612.596 568.234ZM632.04 573.506C633.143 573.566 634.086 572.721 634.147 571.618C634.207 570.515 633.362 569.572 632.259 569.512L632.15 571.509L632.04 573.506ZM651.926 570.392C650.822 570.353 649.896 571.217 649.858 572.321C649.819 573.425 650.683 574.351 651.787 574.389L651.856 572.39L651.926 570.392ZM671.537 574.882C672.642 574.899 673.551 574.017 673.567 572.912C673.584 571.808 672.702 570.899 671.598 570.882L671.568 572.882L671.537 574.882ZM691.289 570.991C690.184 570.996 689.292 571.895 689.297 572.999C689.301 574.104 690.2 574.996 691.305 574.991L691.297 572.991L691.289 570.991ZM711.083 574.723C712.188 574.698 713.062 573.782 713.037 572.678C713.011 571.573 712.096 570.699 710.991 570.724L711.037 572.724L711.083 574.723ZM730.682 570.088C729.578 570.133 728.721 571.065 728.767 572.169C728.813 573.273 729.745 574.13 730.848 574.084L730.765 572.086L730.682 570.088ZM750.573 573.082C751.676 573.016 752.516 572.068 752.45 570.966C752.384 569.863 751.436 569.023 750.334 569.089L750.453 571.086L750.573 573.082ZM769.979 567.733C768.878 567.819 768.055 568.781 768.141 569.883C768.226 570.984 769.189 571.807 770.29 571.721L770.134 569.727L769.979 567.733ZM789.994 570.006C791.093 569.9 791.899 568.924 791.794 567.824C791.688 566.724 790.711 565.919 789.612 566.024L789.803 568.015L789.994 570.006ZM809.205 563.97C808.108 564.095 807.319 565.086 807.444 566.183C807.569 567.281 808.56 568.069 809.657 567.944L809.431 565.957L809.205 563.97ZM829.26 565.544C830.355 565.4 831.126 564.396 830.982 563.301C830.839 562.206 829.834 561.434 828.739 561.578L828.999 563.561L829.26 565.544ZM848.246 558.849C847.153 559.011 846.399 560.028 846.561 561.121C846.724 562.214 847.741 562.968 848.834 562.805L848.54 560.827L848.246 558.849ZM868.375 559.733C869.464 559.552 870.201 558.522 870.02 557.432C869.84 556.343 868.81 555.606 867.72 555.787L868.047 557.76L868.375 559.733ZM887.116 552.403C886.03 552.602 885.31 553.644 885.509 554.73C885.708 555.817 886.75 556.536 887.836 556.338L887.476 554.37L887.116 552.403ZM907.237 552.622C908.32 552.405 909.022 551.351 908.805 550.268C908.589 549.185 907.535 548.483 906.452 548.699L906.844 550.661L907.237 552.622ZM925.742 544.676C924.663 544.91 923.978 545.975 924.212 547.055C924.446 548.134 925.511 548.819 926.591 548.585L926.167 546.63L925.742 544.676ZM945.883 544.234C946.959 543.982 947.627 542.906 947.375 541.831C947.123 540.755 946.047 540.087 944.972 540.339L945.428 542.286L945.883 544.234ZM964.097 535.702C963.026 535.971 962.375 537.057 962.644 538.129C962.913 539.2 963.999 539.851 965.07 539.582L964.584 537.642L964.097 535.702ZM10.668 10.6667H8.66797C8.66797 14.0952 8.68007 17.5133 8.70586 20.9213L10.7058 20.9061L12.7057 20.891C12.68 17.4938 12.668 14.0858 12.668 10.6667H10.668ZM11.0411 41.3546L9.04182 41.4065C9.2202 48.274 9.4689 55.1028 9.8015 61.8957L11.7991 61.7979L13.7967 61.7001C13.4658 54.9406 13.2181 48.1425 13.0405 41.3027L11.0411 41.3546ZM13.0733 82.2076L11.0792 82.3605C11.6042 89.2044 12.2304 96.0145 12.9721 102.794L14.9603 102.576L16.9484 102.359C16.2117 95.6254 15.5894 88.8584 15.0675 82.0546L13.0733 82.2076ZM17.5529 122.862L15.5742 123.153C16.5711 129.93 17.7001 136.68 18.976 143.405L20.9409 143.032L22.9059 142.659C21.6408 135.991 20.5209 129.296 19.5317 122.571L17.5529 122.862ZM25.2022 163.034L23.2562 163.495C24.8325 170.14 26.5688 176.763 28.4796 183.368L30.4008 182.812L32.322 182.256C30.4299 175.716 28.71 169.156 27.1482 162.572L25.2022 163.034ZM36.5813 202.306L34.691 202.96C36.9127 209.388 39.315 215.802 41.9115 222.203L43.7648 221.451L45.6181 220.699C43.0485 214.364 40.6708 208.016 38.4716 201.653L36.5813 202.306ZM51.9542 240.197L50.1433 241.046C53.0168 247.175 56.0815 253.295 59.3494 259.408L61.1132 258.465L62.8771 257.523C59.6423 251.471 56.6089 245.413 53.765 239.348L51.9542 240.197ZM71.2298 276.273L69.5165 277.305C72.9933 283.078 76.6621 288.848 80.5328 294.615L82.1935 293.501L83.8542 292.386C80.0196 286.672 76.3859 280.958 72.9431 275.242L71.2298 276.273ZM93.9811 310.205L92.374 311.395C96.3858 316.811 100.584 322.228 104.977 327.647L106.531 326.387L108.084 325.127C103.727 319.753 99.5648 314.383 95.5883 309.014L93.9811 310.205ZM119.741 342.012L118.24 343.334C122.674 348.37 127.284 353.411 132.075 358.456L133.525 357.079L134.975 355.702C130.218 350.692 125.643 345.689 121.242 340.69L119.741 342.012ZM147.856 371.649L146.454 373.076C151.244 377.782 156.196 382.493 161.316 387.211L162.671 385.74L164.027 384.27C158.937 379.58 154.016 374.898 149.258 370.223L147.856 371.649ZM177.915 399.373L176.604 400.883C181.674 405.286 186.893 409.697 192.267 414.115L193.538 412.571L194.808 411.026C189.461 406.629 184.269 402.242 179.227 397.863L177.915 399.373ZM209.496 425.359L208.265 426.935C210.959 429.04 213.689 431.147 216.455 433.257L217.668 431.667L218.881 430.076C216.127 427.976 213.409 425.878 210.728 423.783L209.496 425.359ZM217.668 431.667L216.455 433.257C219.073 435.253 221.71 437.229 224.368 439.185L225.553 437.574L226.738 435.963C224.099 434.021 221.48 432.059 218.881 430.076L217.668 431.667ZM241.64 448.996L240.51 450.646C245.941 454.366 251.447 458.004 257.026 461.561L258.102 459.875L259.177 458.188C253.634 454.655 248.164 451.04 242.77 447.346L241.64 448.996ZM274.911 470.212L273.891 471.932C279.551 475.289 285.28 478.565 291.078 481.761L292.044 480.01L293.009 478.258C287.248 475.082 281.555 471.826 275.931 468.492L274.911 470.212ZM309.467 489.268L308.556 491.048C314.406 494.044 320.321 496.96 326.297 499.798L327.155 497.992L328.013 496.185C322.072 493.364 316.193 490.465 310.379 487.488L309.467 489.268ZM345.094 506.191L344.289 508.022C350.305 510.666 356.379 513.234 362.511 515.725L363.264 513.872L364.016 512.019C357.92 509.543 351.88 506.989 345.899 504.36L345.094 506.191ZM381.644 521.044L380.942 522.917C387.097 525.221 393.306 527.45 399.566 529.604L400.216 527.713L400.867 525.822C394.64 523.679 388.466 521.462 382.345 519.171L381.644 521.044ZM418.964 533.888L418.364 535.795C424.633 537.77 430.952 539.671 437.317 541.498L437.869 539.576L438.421 537.654C432.088 535.836 425.802 533.944 419.565 531.98L418.964 533.888ZM456.886 544.779L456.383 546.715C462.736 548.368 469.134 549.951 475.575 551.461L476.031 549.514L476.488 547.567C470.079 546.064 463.712 544.489 457.39 542.844L456.886 544.779ZM495.29 553.789L494.88 555.747C501.309 557.094 507.778 558.372 514.286 559.579L514.651 557.613L515.015 555.647C508.538 554.445 502.099 553.173 495.7 551.832L495.29 553.789ZM534.102 560.994L533.781 562.968C540.265 564.02 546.784 565.003 553.338 565.918L553.614 563.937L553.891 561.956C547.366 561.045 540.876 560.067 534.422 559.02L534.102 560.994ZM573.169 566.45L572.936 568.436C579.456 569.203 586.009 569.903 592.591 570.536L592.783 568.545L592.974 566.554C586.419 565.924 579.895 565.227 573.403 564.464L573.169 566.45ZM612.446 570.229L612.296 572.223C618.849 572.716 625.431 573.144 632.04 573.506L632.15 571.509L632.259 569.512C625.677 569.151 619.122 568.725 612.596 568.234L612.446 570.229ZM651.856 572.39L651.787 574.389C658.346 574.617 664.93 574.782 671.537 574.882L671.568 572.882L671.598 570.882C665.016 570.782 658.459 570.619 651.926 570.392L651.856 572.39ZM691.297 572.991L691.305 574.991C697.876 574.964 704.469 574.875 711.083 574.723L711.037 572.724L710.991 570.724C704.403 570.876 697.835 570.965 691.289 570.991L691.297 572.991ZM730.765 572.086L730.848 574.084C737.405 573.811 743.98 573.477 750.573 573.082L750.453 571.086L750.334 569.089C743.765 569.483 737.214 569.816 730.682 570.088L730.765 572.086ZM770.134 569.727L770.29 571.721C776.842 571.209 783.41 570.638 789.994 570.006L789.803 568.015L789.612 566.024C783.052 566.654 776.507 567.223 769.979 567.733L770.134 569.727ZM809.431 565.957L809.657 567.944C816.178 567.203 822.713 566.403 829.26 565.544L828.999 563.561L828.739 561.578C822.215 562.434 815.703 563.231 809.205 563.97L809.431 565.957ZM848.54 560.827L848.834 562.805C855.336 561.839 861.85 560.815 868.375 559.733L868.047 557.76L867.72 555.787C861.218 556.865 854.726 557.886 848.246 558.849L848.54 560.827ZM887.476 554.37L887.836 556.338C894.295 555.156 900.762 553.917 907.237 552.622L906.844 550.661L906.452 548.699C899.998 549.991 893.553 551.225 887.116 552.403L887.476 554.37ZM926.167 546.63L926.591 548.585C933.015 547.19 939.446 545.74 945.883 544.234L945.428 542.286L944.972 540.339C938.556 541.84 932.146 543.286 925.742 544.676L926.167 546.63Z" fill="url(#paint0_linear_1630_12095)" />
  <defs>
    <linearGradient id="paint0_linear_1630_12095" x1="10.668" y1="291.833" x2="974.99" y2="305.95" gradientUnits="userSpaceOnUse">
      <stop stop-color="#2980BA" />
      <stop offset="1" stop-color="#7F4996" />
    </linearGradient>
  </defs>
</svg>