<svg width="24" height="518" viewBox="0 0 24 518" fill="none" xmlns="http://www.w3.org/2000/svg">
  <path d="M11.5469 517.666L23.0939 497.666L-0.000151941 497.666L11.5469 517.666ZM0.880208 10.6665C0.880208 16.5575 5.65584 21.3332 11.5469 21.3332C17.4379 21.3332 22.2135 16.5575 22.2135 10.6665C22.2135 4.77547 17.4379 -0.000162821 11.5469 -0.000163078C5.65584 -0.000163336 0.880208 4.77547 0.880208 10.6665ZM9.54687 20.4165C9.54687 21.5211 10.4423 22.4165 11.5469 22.4165C12.6514 22.4165 13.5469 21.5211 13.5469 20.4165L11.5469 20.4165L9.54687 20.4165ZM13.5469 39.9165C13.5469 38.8119 12.6514 37.9165 11.5469 37.9165C10.4423 37.9165 9.54687 38.8119 9.54687 39.9165L11.5469 39.9165L13.5469 39.9165ZM9.54687 59.4165C9.54687 60.5211 10.4423 61.4165 11.5469 61.4165C12.6514 61.4165 13.5469 60.5211 13.5469 59.4165L11.5469 59.4165L9.54687 59.4165ZM13.5469 78.9165C13.5469 77.8119 12.6514 76.9165 11.5469 76.9165C10.4423 76.9165 9.54687 77.8119 9.54687 78.9165L11.5469 78.9165L13.5469 78.9165ZM9.54687 98.4165C9.54687 99.5211 10.4423 100.416 11.5469 100.416C12.6514 100.416 13.5469 99.5211 13.5469 98.4165L11.5469 98.4165L9.54687 98.4165ZM13.5469 117.917C13.5469 116.812 12.6514 115.917 11.5469 115.917C10.4423 115.917 9.54687 116.812 9.54687 117.917L11.5469 117.917L13.5469 117.917ZM9.54687 137.416C9.54687 138.521 10.4423 139.417 11.5469 139.417C12.6514 139.417 13.5469 138.521 13.5469 137.416L11.5469 137.416L9.54687 137.416ZM13.5469 156.917C13.5469 155.812 12.6514 154.917 11.5469 154.917C10.4423 154.917 9.54687 155.812 9.54687 156.917L11.5469 156.917L13.5469 156.917ZM9.54687 176.416C9.54687 177.521 10.4423 178.416 11.5469 178.416C12.6514 178.416 13.5469 177.521 13.5469 176.416L11.5469 176.416L9.54687 176.416ZM13.5469 195.916C13.5469 194.812 12.6514 193.916 11.5469 193.916C10.4423 193.916 9.54687 194.812 9.54687 195.916L11.5469 195.916L13.5469 195.916ZM9.54687 215.416C9.54687 216.521 10.4423 217.416 11.5469 217.416C12.6514 217.416 13.5469 216.521 13.5469 215.416L11.5469 215.416L9.54687 215.416ZM13.5469 234.916C13.5469 233.812 12.6514 232.916 11.5469 232.916C10.4423 232.916 9.54687 233.812 9.54687 234.916L11.5469 234.916L13.5469 234.916ZM9.54686 254.416C9.54686 255.521 10.4423 256.416 11.5469 256.416C12.6514 256.416 13.5469 255.521 13.5469 254.416L11.5469 254.416L9.54686 254.416ZM13.5469 273.916C13.5469 272.812 12.6514 271.916 11.5469 271.916C10.4423 271.916 9.54686 272.812 9.54686 273.916L11.5469 273.916L13.5469 273.916ZM9.54686 293.416C9.54686 294.521 10.4423 295.416 11.5469 295.416C12.6514 295.416 13.5469 294.521 13.5469 293.416L11.5469 293.416L9.54686 293.416ZM13.5469 312.916C13.5469 311.812 12.6514 310.916 11.5469 310.916C10.4423 310.916 9.54686 311.812 9.54686 312.916L11.5469 312.916L13.5469 312.916ZM9.54686 332.416C9.54686 333.521 10.4423 334.416 11.5469 334.416C12.6514 334.416 13.5469 333.521 13.5469 332.416L11.5469 332.416L9.54686 332.416ZM13.5469 351.917C13.5469 350.812 12.6514 349.917 11.5469 349.917C10.4423 349.917 9.54686 350.812 9.54686 351.917L11.5469 351.917L13.5469 351.917ZM9.54686 371.416C9.54686 372.521 10.4423 373.416 11.5469 373.416C12.6514 373.416 13.5469 372.521 13.5469 371.416L11.5469 371.416L9.54686 371.416ZM13.5469 390.917C13.5469 389.812 12.6514 388.917 11.5469 388.917C10.4423 388.917 9.54686 389.812 9.54686 390.917L11.5469 390.917L13.5469 390.917ZM9.54686 410.416C9.54686 411.521 10.4423 412.416 11.5469 412.416C12.6514 412.416 13.5469 411.521 13.5469 410.416L11.5469 410.416L9.54686 410.416ZM13.5469 429.916C13.5469 428.812 12.6514 427.916 11.5469 427.916C10.4423 427.916 9.54686 428.812 9.54686 429.916L11.5469 429.916L13.5469 429.916ZM9.54686 449.416C9.54686 450.521 10.4423 451.416 11.5469 451.416C12.6514 451.416 13.5469 450.521 13.5469 449.416L11.5469 449.416L9.54686 449.416ZM13.5469 468.916C13.5469 467.812 12.6514 466.916 11.5469 466.916C10.4423 466.916 9.54686 467.812 9.54685 468.916L11.5469 468.916L13.5469 468.916ZM9.54685 488.417C9.54685 489.521 10.4423 490.417 11.5469 490.417C12.6514 490.417 13.5469 489.521 13.5469 488.417L11.5469 488.417L9.54685 488.417ZM13.5469 507.916C13.5469 506.812 12.6514 505.916 11.5469 505.916C10.4423 505.916 9.54685 506.812 9.54685 507.916L11.5469 507.916L13.5469 507.916ZM11.5469 10.6665L9.54688 10.6665L9.54687 20.4165L11.5469 20.4165L13.5469 20.4165L13.5469 10.6665L11.5469 10.6665ZM11.5469 39.9165L9.54687 39.9165L9.54687 59.4165L11.5469 59.4165L13.5469 59.4165L13.5469 39.9165L11.5469 39.9165ZM11.5469 78.9165L9.54687 78.9165L9.54687 98.4165L11.5469 98.4165L13.5469 98.4165L13.5469 78.9165L11.5469 78.9165ZM11.5469 117.917L9.54687 117.917L9.54687 137.416L11.5469 137.416L13.5469 137.416L13.5469 117.917L11.5469 117.917ZM11.5469 156.917L9.54687 156.917L9.54687 176.416L11.5469 176.416L13.5469 176.416L13.5469 156.917L11.5469 156.917ZM11.5469 195.916L9.54687 195.916L9.54687 215.416L11.5469 215.416L13.5469 215.416L13.5469 195.916L11.5469 195.916ZM11.5469 234.916L9.54687 234.916L9.54686 254.416L11.5469 254.416L13.5469 254.416L13.5469 234.916L11.5469 234.916ZM11.5469 273.916L9.54686 273.916L9.54686 293.416L11.5469 293.416L13.5469 293.416L13.5469 273.916L11.5469 273.916ZM11.5469 312.916L9.54686 312.916L9.54686 332.416L11.5469 332.416L13.5469 332.416L13.5469 312.916L11.5469 312.916ZM11.5469 351.917L9.54686 351.917L9.54686 371.416L11.5469 371.416L13.5469 371.416L13.5469 351.917L11.5469 351.917ZM11.5469 390.917L9.54686 390.917L9.54686 410.416L11.5469 410.416L13.5469 410.416L13.5469 390.917L11.5469 390.917ZM11.5469 429.916L9.54686 429.916L9.54686 449.416L11.5469 449.416L13.5469 449.416L13.5469 429.916L11.5469 429.916ZM11.5469 468.916L9.54685 468.916L9.54685 488.417L11.5469 488.417L13.5469 488.417L13.5469 468.916L11.5469 468.916Z" fill="#7F4996" />
</svg>