<svg width="268" height="269" viewBox="0 0 268 269" fill="none" xmlns="http://www.w3.org/2000/svg">
  <g opacity="0.08">
    <path fill-rule="evenodd" clip-rule="evenodd" d="M14.1074 21.7934C14.1074 10.1337 23.5721 0.68457 35.223 0.68457H246.89C258.545 0.68457 267.999 10.1381 267.999 21.7934V247.576C267.999 259.231 258.545 268.685 246.89 268.685H35.223C23.5631 268.685 14.1074 259.233 14.1074 247.576V21.7934ZM35.223 14.6846C31.2953 14.6846 28.1074 17.8745 28.1074 21.7934V247.576C28.1074 251.497 31.2907 254.685 35.223 254.685H246.89C250.813 254.685 253.999 251.499 253.999 247.576V21.7934C253.999 17.8701 250.813 14.6846 246.89 14.6846H35.223Z" fill="url(#paint0_linear_718_6182)" />
    <path fill-rule="evenodd" clip-rule="evenodd" d="M84.6667 64.1267C84.6667 60.2607 87.8007 57.1267 91.6667 57.1267H204.558C208.424 57.1267 211.558 60.2607 211.558 64.1267V120.576C211.558 124.442 208.424 127.576 204.558 127.576H91.6667C87.8007 127.576 84.6667 124.442 84.6667 120.576V64.1267ZM98.6667 71.1267V113.576H197.558V71.1267H98.6667ZM0 78.2423C0 74.3763 3.13401 71.2423 7 71.2423H35.2245C39.0905 71.2423 42.2245 74.3763 42.2245 78.2423C42.2245 82.1083 39.0905 85.2423 35.2245 85.2423H7C3.13401 85.2423 0 82.1083 0 78.2423ZM0 134.685C0 130.819 3.13401 127.685 7 127.685H35.2245C39.0905 127.685 42.2245 130.819 42.2245 134.685C42.2245 138.551 39.0905 141.685 35.2245 141.685H7C3.13401 141.685 0 138.551 0 134.685ZM0 191.127C0 187.261 3.13401 184.127 7 184.127H35.2245C39.0905 184.127 42.2245 187.261 42.2245 191.127C42.2245 194.993 39.0905 198.127 35.2245 198.127H7C3.13401 198.127 0 194.993 0 191.127Z" fill="url(#paint1_linear_718_6182)" />
  </g>
  <defs>
    <linearGradient id="paint0_linear_718_6182" x1="134" y1="50.1846" x2="134" y2="348.685" gradientUnits="userSpaceOnUse">
      <stop stop-color="#2980BA" />
      <stop offset="1" stop-color="#2980BA" stop-opacity="0" />
    </linearGradient>
    <linearGradient id="paint1_linear_718_6182" x1="134" y1="50.1846" x2="134" y2="348.685" gradientUnits="userSpaceOnUse">
      <stop stop-color="#2980BA" />
      <stop offset="1" stop-color="#2980BA" stop-opacity="0" />
    </linearGradient>
  </defs>
</svg>