<svg width="274" height="310" viewBox="0 0 274 310" fill="none" xmlns="http://www.w3.org/2000/svg">
  <g opacity="0.08">
    <path fill-rule="evenodd" clip-rule="evenodd" d="M137.004 0C134.693 0 132.585 1.31463 131.569 3.38804L124.694 17.4263L109.128 19.6724C106.847 20.0015 104.951 21.5965 104.239 23.786C103.526 25.9755 104.121 28.3793 105.772 29.9855L116.984 40.8924L114.293 56.2702C113.897 58.5319 114.818 60.8223 116.67 62.1819C118.522 63.5415 120.985 63.7356 123.027 62.6828L137.003 55.4782L150.971 62.6822C153.013 63.7355 155.476 63.5419 157.329 62.1824C159.181 60.823 160.102 58.5325 159.707 56.2707L157.016 40.8865L168.233 29.9882C169.886 28.3826 170.482 25.9783 169.77 23.7879C169.058 21.5975 167.161 20.0016 164.88 19.6724L149.314 17.4263L142.439 3.38804C141.423 1.31463 139.314 0 137.004 0ZM137.004 19.7982L139.85 25.6086C140.729 27.4039 142.439 28.6489 144.419 28.9346L150.985 29.882L146.287 34.4469C144.853 35.8403 144.201 37.8519 144.545 39.8207L145.687 46.3521L139.779 43.305C138.039 42.4072 135.97 42.407 134.229 43.3044L128.312 46.3547L129.454 39.8298C129.798 37.8622 129.148 35.8517 127.715 34.4582L123.012 29.8835L129.588 28.9346C131.568 28.6489 133.279 27.4039 134.158 25.6086L137.004 19.7982Z" fill="url(#paint0_linear_682_7418)" />
    <path fill-rule="evenodd" clip-rule="evenodd" d="M186.704 106.212C186.704 102.873 183.995 100.167 180.654 100.167H93.3541C90.0125 100.167 87.3036 102.873 87.3036 106.212V172.079H6.05438C2.7128 172.079 0.00390625 174.785 0.00390625 178.123V303.955C0.00390625 307.294 2.7128 310 6.05438 310H267.953C271.295 310 274.004 307.294 274.004 303.955V214.07C274.004 210.732 271.295 208.026 267.953 208.026H186.704V106.212ZM174.603 297.911H99.4045V112.256H174.603V297.911ZM87.3036 297.911H12.1049V184.168H87.3036V297.911ZM186.704 297.911V220.115H261.903V297.911H186.704Z" fill="url(#paint1_linear_682_7418)" />
  </g>
  <defs>
    <linearGradient id="paint0_linear_682_7418" x1="136.572" y1="78.5794" x2="136.572" y2="297.911" gradientUnits="userSpaceOnUse">
      <stop stop-color="#2980BA" />
      <stop offset="1" stop-color="#2980BA" stop-opacity="0" />
    </linearGradient>
    <linearGradient id="paint1_linear_682_7418" x1="136.572" y1="78.5794" x2="136.572" y2="297.911" gradientUnits="userSpaceOnUse">
      <stop stop-color="#2980BA" />
      <stop offset="1" stop-color="#2980BA" stop-opacity="0" />
    </linearGradient>
  </defs>
</svg>