<svg width="236" height="290" viewBox="0 0 236 290" fill="none" xmlns="http://www.w3.org/2000/svg">
  <path opacity="0.05" fill-rule="evenodd" clip-rule="evenodd" d="M31.4756 12.358C31.4756 5.53284 36.9979 0 43.8101 0H126.459C163.16 0 191.076 7.37057 209.02 23.2261C227.126 38.9935 236 60.6314 236 87.4712C236 103.433 232.395 118.481 225.188 132.544C217.765 147.027 205.439 158.446 188.653 166.933C171.876 175.55 149.432 179.639 121.738 179.639H105.553C103.283 179.639 101.442 181.483 101.442 183.758V195.47C101.442 197.745 103.283 199.59 105.553 199.59H149.698C156.51 199.59 162.032 205.123 162.032 211.948V235.767C162.032 242.592 156.51 248.125 149.698 248.125H105.553C103.283 248.125 101.442 249.97 101.442 252.245V277.642C101.442 284.467 95.9196 290 89.1074 290H43.8101C36.9979 290 31.4756 284.467 31.4756 277.642V252.245C31.4756 249.97 29.6348 248.125 27.3641 248.125H12.3345C5.52234 248.125 0 242.592 0 235.767V211.948C0 205.123 5.52235 199.59 12.3345 199.59H27.3641C29.6348 199.59 31.4756 197.745 31.4756 195.47V183.758C31.4756 181.483 29.6348 179.639 27.3641 179.639H12.3345C5.52234 179.639 0 174.106 0 167.281V132.894C0 126.069 5.52235 120.537 12.3345 120.537H27.3641C29.6348 120.537 31.4756 118.692 31.4756 116.417V12.358ZM44.9767 9.40656C42.706 9.40656 40.8652 11.2508 40.8652 13.5259V117.585C40.8652 124.41 35.3428 129.943 28.5307 129.943H13.5011C11.2304 129.943 9.38959 131.787 9.38959 134.062V166.113C9.38959 168.388 11.2304 170.232 13.5011 170.232H28.5307C35.3428 170.232 40.8652 175.765 40.8652 182.59V196.638C40.8652 203.463 35.3428 208.996 28.5307 208.996H13.5011C11.2304 208.996 9.38959 210.84 9.38959 213.116V234.599C9.38959 236.874 11.2304 238.719 13.5011 238.719H28.5307C35.3428 238.719 40.8652 244.252 40.8652 251.077V276.474C40.8652 278.749 42.7059 280.593 44.9767 280.593H87.9408C90.2115 280.593 92.0523 278.749 92.0523 276.474V251.077C92.0523 244.252 97.5747 238.719 104.387 238.719H148.531C150.802 238.719 152.643 236.874 152.643 234.599V213.116C152.643 210.84 150.802 208.996 148.531 208.996H104.387C97.5747 208.996 92.0523 203.463 92.0523 196.638V182.59C92.0523 175.765 97.5747 170.232 104.387 170.232H121.738C148.685 170.232 169.46 166.225 184.386 158.554L184.411 158.542C199.794 150.766 210.487 140.633 216.835 128.247C223.353 115.53 226.61 101.957 226.61 87.4712C226.61 62.9002 218.596 44.0211 202.845 30.3128L202.821 30.2916C187.401 16.6578 162.256 9.40656 126.459 9.40656H44.9767ZM92.0523 62.0536C92.0523 55.2284 97.5747 49.6956 104.387 49.6956H123.312C139.902 49.6956 152.944 52.7239 161.624 59.5523C170.5 66.2689 174.636 76.519 174.636 89.428C174.636 98.5461 172.184 106.431 167.023 112.773C161.964 118.989 154.934 123.424 146.205 126.225C146.167 126.237 146.128 126.249 146.09 126.26C139.019 128.301 130.936 129.474 121.884 129.828C121.486 129.843 121.086 129.857 120.684 129.87C119.098 129.919 117.482 129.943 115.836 129.943H104.387C97.5747 129.943 92.0523 124.41 92.0523 117.585V62.0536ZM155.939 67.0392L155.933 67.0341C155.908 67.0156 155.884 66.9968 155.86 66.9778L155.85 66.97L155.849 66.9698C149.621 62.0562 139.124 59.1022 123.312 59.1022H105.553C103.283 59.1022 101.442 60.9464 101.442 63.2215V116.417C101.442 118.692 103.283 120.537 105.553 120.537H115.836C126.737 120.537 135.9 119.403 143.414 117.243C150.74 114.88 156.069 111.346 159.745 106.829C163.303 102.457 165.247 96.7894 165.247 89.428C165.247 78.6146 161.886 71.5268 155.94 67.0396C155.94 67.0395 155.939 67.0393 155.939 67.0392Z" fill="url(#paint0_linear_682_7409)" />
  <defs>
    <linearGradient id="paint0_linear_682_7409" x1="118.42" y1="95.8261" x2="118.42" y2="317.319" gradientUnits="userSpaceOnUse">
      <stop stop-color="#2980BA" />
      <stop offset="1" stop-color="#2980BA" stop-opacity="0" />
    </linearGradient>
  </defs>
</svg>