<svg width="301" height="285" viewBox="0 0 301 285" fill="none" xmlns="http://www.w3.org/2000/svg">
  <path opacity="0.05" d="M94.0625 0.660156C83.7156 0.660156 75.25 9.79126 75.25 20.9515V48.0066H87.7917V20.9515C87.7917 17.2314 90.6135 14.1877 94.0625 14.1877H181.854V68.2979H159.967C161.786 72.4238 162.855 76.9556 162.98 81.8255H181.854V135.936H163.042V149.463H181.854V203.573H162.98C162.855 208.443 161.786 212.975 159.967 217.101H181.854V271.211H94.0625C90.6135 271.211 87.7917 268.168 87.7917 264.447V237.392H75.25V264.447C75.25 275.608 83.7156 284.739 94.0625 284.739H282.188C292.534 284.739 301 275.608 301 264.447V20.9515C301 9.79126 292.534 0.660156 282.188 0.660156H94.0625ZM194.396 14.1877H282.188C285.636 14.1877 288.458 17.2314 288.458 20.9515V68.2979H194.396V14.1877ZM20.0618 61.5342C9.05353 61.5342 0 71.2994 0 83.173V202.226C0 214.1 9.05353 223.865 20.0618 223.865H130.438C141.446 223.865 150.5 214.1 150.5 202.226V83.173C150.5 71.2994 141.446 61.5342 130.438 61.5342H20.0618ZM20.0618 75.0617H130.438C134.668 75.0617 137.958 78.6106 137.958 83.173V202.226C137.958 206.788 134.668 210.337 130.438 210.337H20.0618C15.8319 210.337 12.5417 206.788 12.5417 202.226V83.173C12.5417 78.6106 15.8319 75.0617 20.0618 75.0617ZM194.396 81.8255H288.458V135.936H194.396V81.8255ZM43.6999 102.117L65.611 142.554L41.581 183.282H59.5362L75.348 151.379L91.2333 183.282H108.919L85.2809 142.699L108.392 102.117H91.613L76.2176 132.593L61.6428 102.117H43.6999ZM194.396 149.463H288.458V203.573H194.396V149.463ZM194.396 217.101H288.458V264.447C288.458 268.168 285.636 271.211 282.188 271.211H194.396V217.101Z" fill="url(#paint0_linear_680_7291)" />
  <defs>
    <linearGradient id="paint0_linear_680_7291" x1="179.866" y1="69.5058" x2="203.956" y2="294.845" gradientUnits="userSpaceOnUse">
      <stop stop-color="#2980BA" />
      <stop offset="1" stop-color="#2980BA" stop-opacity="0" />
    </linearGradient>
  </defs>
</svg>