<svg width="242" height="252" viewBox="0 0 242 252" fill="none" xmlns="http://www.w3.org/2000/svg">
  <g opacity="0.08">
    <path fill-rule="evenodd" clip-rule="evenodd" d="M48.5331 105.902C52.1413 105.902 55.0664 108.826 55.0664 112.433V195.788C55.0664 199.395 52.1413 202.319 48.5331 202.319C44.9248 202.319 41.9998 199.395 41.9998 195.788V112.433C41.9998 108.826 44.9248 105.902 48.5331 105.902ZM137.509 126.741C141.117 126.741 144.042 129.666 144.042 133.273V195.788C144.042 199.395 141.117 202.319 137.509 202.319C133.901 202.319 130.976 199.395 130.976 195.788V133.273C130.976 129.666 133.901 126.741 137.509 126.741ZM93.0185 147.581C96.6267 147.581 99.5518 150.506 99.5518 154.113V195.788C99.5518 199.395 96.6267 202.319 93.0185 202.319C89.4102 202.319 86.4852 199.395 86.4852 195.788V154.113C86.4852 150.506 89.4102 147.581 93.0185 147.581Z" fill="url(#paint0_linear_717_6184)" />
    <path fill-rule="evenodd" clip-rule="evenodd" d="M185.87 9.79375C188.35 9.79394 190.617 11.1984 191.72 13.4191L205.571 41.2905L236.408 45.782C238.868 46.1402 240.911 47.8624 241.68 50.2253C242.448 52.5882 241.809 55.1824 240.031 56.9184L217.683 78.7364L222.931 109.385C223.351 111.837 222.342 114.314 220.328 115.774C218.314 117.235 215.645 117.425 213.445 116.265L185.869 101.728L158.281 116.265C156.08 117.425 153.412 117.234 151.398 115.774C149.384 114.313 148.375 111.836 148.795 109.384L154.049 78.7295L131.702 56.9119C129.923 55.1758 129.284 52.5813 130.053 50.2183C130.822 47.8553 132.866 46.1332 135.325 45.7754L166.162 41.2897L180.019 13.4182C181.123 11.1976 183.389 9.79356 185.87 9.79375ZM185.868 31.0026L176.34 50.1677C175.386 52.0866 173.551 53.4156 171.43 53.7241L150.289 56.7995L165.632 71.7795C167.169 73.2797 167.87 75.4391 167.507 77.5555L163.912 98.5313L182.823 88.5666C184.73 87.5618 187.01 87.562 188.917 88.5671L207.816 98.5297L204.225 77.5611C203.863 75.4449 204.564 73.2859 206.1 71.7859L221.446 56.8038L200.301 53.724C198.18 53.4151 196.346 52.0858 195.392 50.1668L185.868 31.0026Z" fill="url(#paint1_linear_717_6184)" />
    <path fill-rule="evenodd" clip-rule="evenodd" d="M18.871 0.462892C16.3627 0.46206 13.8843 0.989993 11.5793 2.01035C9.27376 3.03091 7.19348 4.52097 5.45127 6.38385C3.70951 8.24624 2.33902 10.4452 1.40778 12.8495C0.476655 15.2535 0 17.8226 0 20.4121V231.514C0 234.103 0.476655 236.672 1.40778 239.076C2.33902 241.481 3.7095 243.68 5.45127 245.542C7.1935 247.405 9.27379 248.895 11.5793 249.915C13.8843 250.936 16.3627 251.464 18.871 251.463H166.867C171.943 251.463 176.765 249.304 180.284 245.539C183.797 241.781 185.732 236.732 185.732 231.514V205.124C185.732 201.392 182.807 198.367 179.198 198.367C175.59 198.367 172.664 201.392 172.664 205.124V231.514C172.664 233.292 172.002 234.954 170.889 236.144C169.784 237.327 168.332 237.948 166.867 237.948H18.8677C18.1375 237.948 17.4088 237.795 16.7213 237.49C16.0332 237.186 15.3934 236.733 14.8443 236.146C14.2947 235.558 13.8475 234.848 13.5386 234.05C13.2296 233.253 13.068 232.39 13.068 231.514V20.4121C13.068 19.5358 13.2296 18.6731 13.5386 17.8754C13.8475 17.0779 14.2947 16.3679 14.8443 15.7802C15.3934 15.1931 16.0333 14.74 16.7213 14.4355C17.4088 14.1311 18.1375 13.9779 18.8677 13.9783L142.199 13.9783C145.808 13.9783 148.733 10.9528 148.733 7.22058C148.733 3.48841 145.808 0.462892 142.199 0.462892H18.871Z" fill="url(#paint2_linear_717_6184)" />
  </g>
  <defs>
    <linearGradient id="paint0_linear_717_6184" x1="121.333" y1="47.1172" x2="121.333" y2="306.048" gradientUnits="userSpaceOnUse">
      <stop stop-color="#2980BA" />
      <stop offset="1" stop-color="#2980BA" stop-opacity="0" />
    </linearGradient>
    <linearGradient id="paint1_linear_717_6184" x1="121.333" y1="47.1172" x2="121.333" y2="306.048" gradientUnits="userSpaceOnUse">
      <stop stop-color="#2980BA" />
      <stop offset="1" stop-color="#2980BA" stop-opacity="0" />
    </linearGradient>
    <linearGradient id="paint2_linear_717_6184" x1="121.333" y1="47.1172" x2="121.333" y2="306.048" gradientUnits="userSpaceOnUse">
      <stop stop-color="#2980BA" />
      <stop offset="1" stop-color="#2980BA" stop-opacity="0" />
    </linearGradient>
  </defs>
</svg>