<svg width="243" height="274" viewBox="0 0 243 274" fill="none" xmlns="http://www.w3.org/2000/svg">
  <g opacity="0.08">
    <path fill-rule="evenodd" clip-rule="evenodd" d="M169.373 82.6057C172.107 85.3393 172.107 89.7715 169.373 92.5051L111.82 150.058C109.087 152.792 104.655 152.792 101.921 150.059L73.1413 121.286C70.4073 118.552 70.4067 114.12 73.1401 111.386C75.8734 108.652 80.3056 108.652 83.0396 111.385L106.87 135.21L159.474 82.6057C162.208 79.872 166.64 79.872 169.373 82.6057Z" fill="url(#paint0_linear_718_6184)" />
    <path fill-rule="evenodd" clip-rule="evenodd" d="M119.554 0.431805C120.684 0.148634 121.866 0.151716 122.994 0.440772L226.272 26.9058C231.009 28.0761 235.204 30.8332 238.158 34.7191C241.119 38.6157 242.653 43.4109 242.503 48.303C242.5 48.4129 242.494 48.5226 242.486 48.6322L236.297 128.056C233.966 158.129 223.451 186.99 205.891 211.514C188.333 236.035 164.402 255.285 136.688 267.18C136.684 267.181 136.681 267.183 136.677 267.184L124.033 272.648C122.177 273.449 120.065 273.41 118.241 272.539L105.706 266.555C78.0421 254.656 54.1534 235.425 36.6207 210.938C19.0612 186.413 8.54669 157.551 6.21607 127.479L0.0276997 48.052C0.0190771 47.9413 0.013088 47.8305 0.00973774 47.7195C-0.137913 42.8292 1.39729 38.0363 4.3588 34.1418C7.31621 30.2528 11.5171 27.4949 16.261 26.3277C16.2675 26.3261 16.2741 26.3244 16.2807 26.3228L119.554 0.431805ZM121.238 14.443L19.6489 39.9116L19.6127 39.9205C17.9745 40.322 16.5237 41.2735 15.5027 42.6161C14.5098 43.9218 13.9819 45.5204 14.0005 47.158L20.174 126.394C22.3068 153.921 31.9309 180.339 48.0038 202.787C64.0766 225.236 85.9855 242.858 111.357 253.746C111.443 253.782 111.528 253.821 111.612 253.861L121.401 258.534L131.14 254.326L131.156 254.319C156.527 243.432 178.435 225.81 194.508 203.363C210.581 180.916 220.205 154.499 222.339 126.974L222.339 126.971L228.513 47.7364C228.533 46.0976 228.005 44.4976 227.012 43.1908C225.991 41.8475 224.539 40.8954 222.901 40.4938L222.876 40.4877C222.86 40.4838 222.845 40.4799 222.829 40.4758L121.238 14.443Z" fill="url(#paint1_linear_718_6184)" />
  </g>
  <defs>
    <linearGradient id="paint0_linear_718_6184" x1="121" y1="52.7217" x2="121" y2="326.722" gradientUnits="userSpaceOnUse">
      <stop stop-color="#2980BA" />
      <stop offset="1" stop-color="#2980BA" stop-opacity="0" />
    </linearGradient>
    <linearGradient id="paint1_linear_718_6184" x1="121" y1="52.7217" x2="121" y2="326.722" gradientUnits="userSpaceOnUse">
      <stop stop-color="#2980BA" />
      <stop offset="1" stop-color="#2980BA" stop-opacity="0" />
    </linearGradient>
  </defs>
</svg>