<svg width="227" height="260" viewBox="0 0 227 260" fill="none" xmlns="http://www.w3.org/2000/svg">
  <g opacity="0.08">
    <path fill-rule="evenodd" clip-rule="evenodd" d="M20.1724 1.01663e-06C17.4911 -0.000860628 14.8418 0.546003 12.3778 1.60294C9.91333 2.6601 7.68959 4.20358 5.82722 6.13327C3.96534 8.06243 2.50034 10.3402 1.50486 12.8308C0.509528 15.3209 0 17.9822 0 20.6645V239.336C0 242.018 0.509528 244.679 1.50486 247.169C2.50034 249.66 3.96533 251.938 5.82722 253.867C7.68961 255.796 9.91336 257.34 12.3778 258.397C14.8418 259.454 17.4911 260.001 20.1724 260H178.376C183.801 260 188.956 257.763 192.718 253.863C196.472 249.971 198.542 244.741 198.542 239.336V212C198.542 208.134 195.414 205 191.557 205C187.699 205 184.572 208.134 184.572 212V239.336C184.572 241.178 183.864 242.899 182.675 244.132C181.493 245.357 179.941 246 178.376 246H20.169C19.3883 246 18.6094 245.842 17.8745 245.526C17.139 245.211 16.455 244.742 15.868 244.133C15.2806 243.525 14.8025 242.789 14.4723 241.963C14.142 241.137 13.9692 240.243 13.9692 239.336V20.6645C13.9692 19.7568 14.142 18.8632 14.4723 18.0368C14.8025 17.2108 15.2805 16.4753 15.868 15.8666C16.455 15.2583 17.139 14.7891 17.8745 14.4736C18.6094 14.1583 19.3883 13.9996 20.169 14L152.006 14C155.864 14 158.991 10.866 158.991 7C158.991 3.13401 155.864 1.01663e-06 152.006 1.01663e-06H20.1724Z" fill="url(#paint0_linear_716_6182)" />
    <path fill-rule="evenodd" clip-rule="evenodd" d="M103.816 93.8694C106.919 96.1663 107.576 100.549 105.285 103.659L80.105 137.823C78.8349 139.547 76.8473 140.592 74.7106 140.661C72.574 140.73 70.5236 139.814 69.146 138.176L54.7811 121.093C52.2952 118.137 52.6712 113.721 55.6208 111.23C58.5705 108.738 62.9769 109.115 65.4628 112.071L74.1256 122.373L94.0482 95.3411C96.3401 92.2314 100.713 91.5725 103.816 93.8694ZM52.7315 198.336C52.7315 194.47 55.8586 191.336 59.7161 191.336H138.818C142.675 191.336 145.802 194.47 145.802 198.336C145.802 202.202 142.675 205.336 138.818 205.336H59.7161C55.8586 205.336 52.7315 202.202 52.7315 198.336Z" fill="url(#paint1_linear_716_6182)" />
    <path fill-rule="evenodd" clip-rule="evenodd" d="M157.154 51C157.154 47.134 160.281 44 164.138 44H188.585C188.758 44 188.931 44.0065 189.104 44.0194C195.374 44.4883 204.511 46.3745 212.302 51.4819C220.432 56.8121 227 65.6624 227 79C227 92.6876 219.856 101.268 211.441 106.08C203.433 110.659 194.288 111.904 188.703 111.999C188.664 112 188.624 112 188.585 112H171.123V123H188.585C192.442 123 195.569 126.134 195.569 130C195.569 133.866 192.442 137 188.585 137H171.123V153C171.123 156.866 167.996 160 164.138 160C160.281 160 157.154 156.866 157.154 153V137H148.673C144.815 137 141.688 133.866 141.688 130C141.688 126.134 144.815 123 148.673 123H157.154V112H148.673C144.815 112 141.688 108.866 141.688 105C141.688 101.134 144.815 98 148.673 98H157.154V51ZM171.123 98H188.522C192.751 97.9203 199.287 96.9112 204.518 93.92C209.365 91.1486 213.031 86.8124 213.031 79C213.031 71.0773 209.454 66.3443 204.655 63.1979C199.602 59.8856 193.159 58.3957 188.313 58H171.123V98Z" fill="url(#paint2_linear_716_6182)" />
  </g>
  <defs>
    <linearGradient id="paint0_linear_716_6182" x1="114" y1="41.5" x2="114" y2="292" gradientUnits="userSpaceOnUse">
      <stop stop-color="#2980BA" />
      <stop offset="1" stop-color="#2980BA" stop-opacity="0" />
    </linearGradient>
    <linearGradient id="paint1_linear_716_6182" x1="114" y1="41.5" x2="114" y2="292" gradientUnits="userSpaceOnUse">
      <stop stop-color="#2980BA" />
      <stop offset="1" stop-color="#2980BA" stop-opacity="0" />
    </linearGradient>
    <linearGradient id="paint2_linear_716_6182" x1="114" y1="41.5" x2="114" y2="292" gradientUnits="userSpaceOnUse">
      <stop stop-color="#2980BA" />
      <stop offset="1" stop-color="#2980BA" stop-opacity="0" />
    </linearGradient>
  </defs>
</svg>