<svg width="1111" height="553" viewBox="0 0 1111 553" fill="none" xmlns="http://www.w3.org/2000/svg">
  <path d="M17.3861 21.3647L23.3774 0.0280722L0.622618 3.97193L13.4449 22.0478L17.3861 21.3647ZM348.213 534.835L348.232 532.835L348.213 534.835ZM782.093 9.34064L782.074 11.3405L782.093 9.34064ZM1089.33 542C1089.33 547.891 1094.11 552.667 1100 552.667C1105.89 552.667 1110.67 547.891 1110.67 542C1110.67 536.109 1105.89 531.333 1100 531.333C1094.11 531.333 1089.33 536.109 1089.33 542ZM11.6641 11.7731C11.8603 12.8601 12.9005 13.5822 13.9875 13.3861C15.0745 13.1899 15.7967 12.1497 15.6005 11.0627L11.6641 11.7731ZM19.3021 30.5071C19.0863 29.4238 18.0333 28.7205 16.95 28.9363C15.8667 29.152 15.1634 30.2051 15.3791 31.2884L19.3021 30.5071ZM19.4456 50.9411C19.6771 52.0211 20.7403 52.709 21.8204 52.4774C22.9004 52.2459 23.5882 51.1827 23.3567 50.1026L19.4456 50.9411ZM27.6079 69.3074C27.3621 68.2305 26.2899 67.5568 25.213 67.8026C24.1361 68.0484 23.4624 69.1206 23.7082 70.1975L27.6079 69.3074ZM28.2364 89.4639C28.496 90.5376 29.5768 91.1975 30.6504 90.9379C31.724 90.6783 32.3839 89.5975 32.1243 88.5238L28.2364 89.4639ZM36.8967 107.723C36.6234 106.652 35.5342 106.006 34.464 106.28C33.3938 106.553 32.7478 107.642 33.0211 108.712L36.8967 107.723ZM38.0593 127.922C38.3464 128.988 39.4438 129.62 40.5104 129.333C41.577 129.046 42.2089 127.948 41.9217 126.882L38.0593 127.922ZM47.1957 145.969C46.8944 144.906 45.7887 144.289 44.726 144.59C43.6633 144.891 43.0461 145.997 43.3473 147.06L47.1957 145.969ZM48.8608 166.019C49.1764 167.078 50.2904 167.68 51.3489 167.364C52.4074 167.048 53.0096 165.934 52.6939 164.876L48.8608 166.019ZM58.4664 183.746C58.1358 182.692 57.0134 182.105 55.9595 182.436C54.9055 182.767 54.3192 183.889 54.6499 184.943L58.4664 183.746ZM60.7258 203.821C61.072 204.87 62.2031 205.439 63.2519 205.093C64.3008 204.747 64.8704 203.616 64.5241 202.567L60.7258 203.821ZM70.8766 221.318C70.5139 220.275 69.3741 219.723 68.3308 220.086C67.2875 220.448 66.7357 221.588 67.0984 222.631L70.8766 221.318ZM73.7646 241.313C74.1445 242.35 75.2933 242.883 76.3304 242.503C77.3676 242.123 77.9004 240.974 77.5205 239.937L73.7646 241.313ZM84.4669 258.401C84.0688 257.371 82.9109 256.858 81.8805 257.256C80.8502 257.655 80.3377 258.812 80.7358 259.843L84.4669 258.401ZM88.0571 278.278C88.4746 279.3 89.642 279.791 90.6646 279.373C91.6873 278.956 92.1779 277.789 91.7604 276.766L88.0571 278.278ZM99.4127 294.988C98.9746 293.974 97.7975 293.507 96.7835 293.945C95.7695 294.383 95.3027 295.561 95.7408 296.574L99.4127 294.988ZM103.802 314.691C104.262 315.696 105.449 316.137 106.453 315.676C107.457 315.216 107.898 314.029 107.438 313.025L103.802 314.691ZM115.876 330.881C115.392 329.889 114.195 329.476 113.202 329.96C112.209 330.444 111.796 331.641 112.28 332.634L115.876 330.881ZM121.203 350.363C121.712 351.343 122.92 351.725 123.9 351.215C124.88 350.706 125.262 349.498 124.752 348.518L121.203 350.363ZM134.089 365.88C133.552 364.915 132.334 364.568 131.369 365.105C130.404 365.642 130.057 366.86 130.594 367.826L134.089 365.88ZM140.52 385.03C141.087 385.978 142.315 386.286 143.263 385.719C144.211 385.152 144.52 383.924 143.952 382.976L140.52 385.03ZM154.379 399.741C153.779 398.813 152.541 398.548 151.614 399.148C150.686 399.748 150.421 400.986 151.021 401.913L154.379 399.741ZM162.126 418.384C162.762 419.287 164.009 419.504 164.913 418.869C165.816 418.233 166.033 416.986 165.398 416.082L162.126 418.384ZM177.054 431.922C176.379 431.047 175.124 430.884 174.249 431.558C173.374 432.233 173.211 433.489 173.885 434.363L177.054 431.922ZM186.4 449.816C187.116 450.657 188.379 450.757 189.219 450.041C190.06 449.324 190.161 448.062 189.444 447.221L186.4 449.816ZM202.634 461.867C201.872 461.067 200.606 461.037 199.807 461.8C199.007 462.562 198.977 463.828 199.739 464.627L202.634 461.867ZM213.928 478.611C214.739 479.361 216.005 479.31 216.754 478.499C217.504 477.688 217.454 476.422 216.642 475.673L213.928 478.611ZM231.519 488.477C230.656 487.787 229.398 487.928 228.708 488.791C228.019 489.654 228.16 490.913 229.023 491.602L231.519 488.477ZM245.071 503.405C245.987 504.022 247.23 503.78 247.847 502.863C248.464 501.947 248.221 500.704 247.305 500.087L245.071 503.405ZM264.015 510.287C263.047 509.756 261.831 510.11 261.3 511.079C260.769 512.047 261.123 513.263 262.092 513.794L264.015 510.287ZM280.067 522.523C281.084 522.955 282.258 522.48 282.689 521.463C283.12 520.446 282.645 519.272 281.628 518.841L280.067 522.523ZM300.02 525.501C298.963 525.182 297.847 525.781 297.528 526.839C297.209 527.896 297.808 529.012 298.866 529.331L300.02 525.501ZM318.288 534.01C319.374 534.208 320.415 533.487 320.613 532.4C320.81 531.313 320.089 530.272 319.003 530.075L318.288 534.01ZM338.363 532.463C337.261 532.39 336.308 533.224 336.236 534.327C336.163 535.429 336.997 536.381 338.099 536.454L338.363 532.463ZM358.703 536.643C359.806 536.592 360.659 535.656 360.608 534.552C360.556 533.449 359.62 532.596 358.517 532.648L358.703 536.643ZM378.448 530.531C377.359 530.715 376.625 531.747 376.809 532.836C376.993 533.925 378.026 534.659 379.115 534.475L378.448 530.531ZM399.123 529.723C400.178 529.396 400.768 528.276 400.441 527.221C400.115 526.166 398.994 525.575 397.939 525.902L399.123 529.723ZM416.628 518.666C415.628 519.135 415.197 520.326 415.666 521.326C416.136 522.326 417.327 522.756 418.327 522.287L416.628 518.666ZM436.336 512.289C437.264 511.69 437.53 510.452 436.931 509.524C436.332 508.596 435.094 508.33 434.166 508.929L436.336 512.289ZM450.321 496.984C449.474 497.693 449.363 498.955 450.073 499.801C450.782 500.648 452.043 500.759 452.89 500.05L450.321 496.984ZM467.899 485.986C468.664 485.19 468.639 483.924 467.842 483.159C467.045 482.394 465.779 482.419 465.014 483.216L467.899 485.986ZM478.294 468.015C477.605 468.879 477.746 470.137 478.609 470.826C479.472 471.515 480.731 471.374 481.42 470.511L478.294 468.015ZM493.594 453.973C494.216 453.06 493.98 451.816 493.067 451.194C492.154 450.572 490.909 450.808 490.288 451.721L493.594 453.973ZM501.129 434.649C500.565 435.599 500.878 436.826 501.828 437.39C502.778 437.953 504.005 437.641 504.569 436.691L501.129 434.649ZM514.536 418.858C515.052 417.881 514.677 416.672 513.7 416.156C512.723 415.641 511.513 416.015 510.998 416.992L514.536 418.858ZM520.068 398.873C519.593 399.871 520.017 401.064 521.014 401.539C522.011 402.014 523.205 401.59 523.68 400.593L520.068 398.873ZM532.146 381.998C532.588 380.986 532.125 379.807 531.112 379.366C530.1 378.924 528.921 379.387 528.48 380.399L532.146 381.998ZM536.355 361.654C535.94 362.678 536.434 363.844 537.457 364.259C538.481 364.674 539.647 364.18 540.062 363.157L536.355 361.654ZM547.538 344.138C547.932 343.106 547.415 341.95 546.383 341.556C545.351 341.162 544.195 341.679 543.801 342.711L547.538 344.138ZM550.9 323.663C550.522 324.701 551.057 325.849 552.094 326.227C553.132 326.606 554.28 326.071 554.659 325.033L550.9 323.663ZM561.529 305.849C561.896 304.807 561.349 303.665 560.308 303.297C559.266 302.93 558.124 303.477 557.756 304.519L561.529 305.849ZM564.459 285.291C564.099 286.335 564.653 287.474 565.697 287.835C566.741 288.195 567.879 287.641 568.24 286.597L564.459 285.291ZM574.867 267.326C575.225 266.281 574.669 265.143 573.624 264.785C572.579 264.427 571.442 264.983 571.083 266.028L574.867 267.326ZM577.7 246.775C577.34 247.819 577.894 248.958 578.939 249.318C579.983 249.678 581.121 249.124 581.482 248.08L577.7 246.775ZM588.179 228.843C588.545 227.801 587.998 226.659 586.956 226.292C585.914 225.926 584.772 226.473 584.405 227.515L588.179 228.843ZM591.274 208.299C590.896 209.337 591.432 210.484 592.47 210.862C593.508 211.239 594.655 210.704 595.033 209.666L591.274 208.299ZM602.127 190.6C602.52 189.568 602.002 188.413 600.97 188.019C599.938 187.625 598.783 188.143 598.389 189.175L602.127 190.6ZM605.843 170.196C605.428 171.22 605.921 172.386 606.945 172.801C607.969 173.216 609.135 172.722 609.55 171.699L605.843 170.196ZM617.406 153.019C617.849 152.007 617.388 150.828 616.375 150.385C615.363 149.943 614.184 150.404 613.742 151.416L617.406 153.019ZM622.257 132.801C621.779 133.797 622.199 134.991 623.195 135.469C624.191 135.946 625.386 135.526 625.864 134.53L622.257 132.801ZM635.029 116.408C635.55 115.434 635.182 114.223 634.208 113.702C633.234 113.181 632.022 113.548 631.502 114.522L635.029 116.408ZM641.641 96.7169C641.067 97.6607 641.367 98.891 642.311 99.4649C643.255 100.039 644.485 99.7389 645.059 98.7951L641.641 96.7169ZM656.136 81.8715C656.774 80.9695 656.56 79.7215 655.658 79.0838C654.756 78.4462 653.508 78.6605 652.87 79.5624L656.136 81.8715ZM665.401 63.3082C664.688 64.1522 664.795 65.414 665.639 66.1265C666.483 66.8391 667.744 66.7325 668.457 65.8885L665.401 63.3082ZM682.208 51.1876C683.005 50.4231 683.032 49.157 682.267 48.3598C681.503 47.5625 680.237 47.536 679.439 48.3005L682.208 51.1876ZM695.134 34.9922C694.248 35.6508 694.063 36.9036 694.721 37.7903C695.38 38.6771 696.633 38.862 697.52 38.2033L695.134 34.9922ZM714.397 27.4216C715.368 26.8963 715.73 25.6827 715.205 24.7111C714.68 23.7394 713.466 23.3776 712.494 23.903L714.397 27.4216ZM731.315 15.5065C730.275 15.8779 729.733 17.0223 730.104 18.0626C730.476 19.1028 731.62 19.645 732.66 19.2736L731.315 15.5065ZM751.948 13.9989C753.032 13.7878 753.74 12.7377 753.529 11.6535C753.318 10.5693 752.268 9.86152 751.184 10.0726L751.948 13.9989ZM771.599 7.57133C770.496 7.63119 769.65 8.57383 769.71 9.67678C769.77 10.7797 770.713 11.6253 771.816 11.5654L771.599 7.57133ZM791.801 11.7183C792.903 11.7938 793.858 10.9616 793.933 9.85958C794.009 8.75759 793.176 7.80311 792.074 7.72768L791.801 11.7183ZM811.605 10.2323C810.52 10.0269 809.473 10.7402 809.268 11.8255C809.062 12.9108 809.776 13.9571 810.861 14.1625L811.605 10.2323ZM829.513 18.8543C830.566 19.1863 831.689 18.6014 832.021 17.5479C832.353 16.4944 831.768 15.3713 830.715 15.0392L829.513 18.8543ZM849.152 22.0314C848.143 21.5825 846.961 22.0368 846.512 23.046C846.063 24.0553 846.517 25.2373 847.527 25.6862L849.152 22.0314ZM864.722 34.4568C865.679 35.0087 866.902 34.6804 867.454 33.7236C868.005 32.7668 867.677 31.5437 866.72 30.9918L864.722 34.4568ZM883.267 41.6242C882.366 40.9848 881.118 41.1967 880.478 42.0974C879.839 42.9981 880.051 44.2466 880.951 44.8859L883.267 41.6242ZM896.206 56.7223C897.05 57.4344 898.312 57.3273 899.024 56.4829C899.736 55.6386 899.629 54.3768 898.785 53.6647L896.206 56.7223ZM913.307 66.8738C912.517 66.1018 911.25 66.1163 910.478 66.9063C909.706 67.6963 909.721 68.9625 910.511 69.7346L913.307 66.8738ZM923.918 83.7249C924.657 84.5459 925.921 84.6126 926.742 83.8737C927.563 83.1348 927.63 81.8702 926.891 81.0492L923.918 83.7249ZM939.607 96.0231C938.915 95.1618 937.657 95.0242 936.795 95.7158C935.934 96.4073 935.796 97.6661 936.488 98.5274L939.607 96.0231ZM948.279 113.998C948.928 114.892 950.178 115.092 951.072 114.443C951.967 113.795 952.167 112.545 951.518 111.65L948.279 113.998ZM962.633 127.726C962.024 126.804 960.783 126.551 959.862 127.159C958.94 127.768 958.686 129.009 959.295 129.93L962.633 127.726ZM969.673 146.342C970.246 147.286 971.475 147.588 972.42 147.015C973.365 146.443 973.666 145.213 973.094 144.268L969.673 146.342ZM982.954 161.201C982.414 160.237 981.196 159.893 980.232 160.433C979.268 160.972 978.924 162.191 979.464 163.155L982.954 161.201ZM988.707 180.299C989.217 181.279 990.424 181.66 991.404 181.151C992.384 180.642 992.766 179.434 992.257 178.454L988.707 180.299ZM1001.02 195.92C1000.54 194.926 999.34 194.51 998.346 194.992C997.352 195.474 996.937 196.67 997.418 197.664L1001.02 195.92ZM1005.67 215.285C1006.13 216.291 1007.32 216.737 1008.32 216.281C1009.33 215.825 1009.77 214.64 1009.32 213.634L1005.67 215.285ZM1017.18 231.549C1016.75 230.533 1015.58 230.059 1014.56 230.492C1013.54 230.924 1013.07 232.099 1013.5 233.115L1017.18 231.549ZM1020.92 251.105C1021.33 252.13 1022.5 252.629 1023.52 252.219C1024.55 251.808 1025.05 250.644 1024.64 249.619L1020.92 251.105ZM1031.72 267.853C1031.33 266.819 1030.18 266.298 1029.15 266.687C1028.11 267.077 1027.59 268.231 1027.98 269.265L1031.72 267.853ZM1034.69 287.56C1035.06 288.601 1036.2 289.143 1037.24 288.773C1038.28 288.402 1038.83 287.258 1038.46 286.218L1034.69 287.56ZM1044.85 304.671C1044.5 303.624 1043.36 303.061 1042.32 303.414C1041.27 303.767 1040.71 304.901 1041.06 305.948L1044.85 304.671ZM1047.12 324.44C1047.46 325.493 1048.58 326.074 1049.63 325.738C1050.69 325.402 1051.27 324.277 1050.93 323.225L1047.12 324.44ZM1056.74 341.93C1056.42 340.873 1055.3 340.275 1054.25 340.594C1053.19 340.914 1052.59 342.03 1052.91 343.087L1056.74 341.93ZM1058.41 361.798C1058.72 362.86 1059.83 363.474 1060.89 363.17C1061.95 362.866 1062.56 361.758 1062.26 360.697L1058.41 361.798ZM1067.5 379.502C1067.21 378.436 1066.12 377.806 1065.05 378.095C1063.98 378.385 1063.35 379.483 1063.64 380.549L1067.5 379.502ZM1068.61 399.33C1068.88 400.4 1069.97 401.044 1071.04 400.769C1072.11 400.494 1072.75 399.404 1072.48 398.334L1068.61 399.33ZM1077.22 417.267C1076.96 416.194 1075.87 415.535 1074.8 415.797C1073.73 416.058 1073.07 417.14 1073.33 418.213L1077.22 417.267ZM1077.83 437.22C1078.08 438.296 1079.15 438.968 1080.23 438.72C1081.3 438.473 1081.98 437.399 1081.73 436.323L1077.83 437.22ZM1085.99 455.407C1085.76 454.327 1084.69 453.642 1083.61 453.876C1082.54 454.11 1081.85 455.175 1082.08 456.255L1085.99 455.407ZM1086.09 475.296C1086.31 476.378 1087.37 477.076 1088.45 476.856C1089.53 476.635 1090.23 475.579 1090.01 474.497L1086.09 475.296ZM1093.78 493.626C1093.58 492.541 1092.53 491.829 1091.44 492.035C1090.36 492.242 1089.65 493.289 1089.85 494.374L1093.78 493.626ZM1093.4 513.751C1093.59 514.838 1094.63 515.565 1095.72 515.374C1096.81 515.183 1097.53 514.146 1097.34 513.058L1093.4 513.751ZM1100.57 532.375C1100.4 531.284 1099.38 530.539 1098.29 530.711C1097.19 530.883 1096.45 531.906 1096.62 532.997L1100.57 532.375ZM17.3406 30.8977L15.3791 31.2884C16.5367 37.1006 17.8897 43.6837 19.4456 50.9411L21.4011 50.5219L23.3567 50.1026C21.8051 42.8652 20.4561 36.3012 19.3021 30.5071L17.3406 30.8977ZM25.658 69.7524L23.7082 70.1975C25.1033 76.3099 26.6117 82.7449 28.2364 89.4639L30.1804 88.9939L32.1243 88.5238C30.5039 81.8221 28.9994 75.4038 27.6079 69.3074L25.658 69.7524ZM34.9589 108.217L33.0211 108.712C34.6111 114.938 36.2899 121.35 38.0593 127.922L39.9905 127.402L41.9217 126.882C40.157 120.327 38.4826 113.932 36.8967 107.723L34.9589 108.217ZM45.2715 146.514L43.3473 147.06C45.1087 153.273 46.946 159.599 48.8608 166.019L50.7773 165.448L52.6939 164.876C50.7845 158.474 48.9523 152.165 47.1957 145.969L45.2715 146.514ZM56.5582 184.344L54.6499 184.943C56.6042 191.173 58.6291 197.47 60.7258 203.821L62.6249 203.194L64.5241 202.567C62.4339 196.236 60.4151 189.957 58.4664 183.746L56.5582 184.344ZM68.9875 221.975L67.0984 222.631C69.2525 228.828 71.4742 235.06 73.7646 241.313L75.6425 240.625L77.5205 239.937C75.238 233.706 73.0237 227.495 70.8766 221.318L68.9875 221.975ZM82.6014 259.122L80.7358 259.843C83.1092 265.985 85.5493 272.134 88.0571 278.278L89.9087 277.522L91.7604 276.766C89.2624 270.647 86.8316 264.521 84.4669 258.401L82.6014 259.122ZM97.5768 295.781L95.7408 296.574C98.3599 302.636 101.047 308.679 103.802 314.691L105.62 313.858L107.438 313.025C104.696 307.041 102.021 301.024 99.4127 294.988L97.5768 295.781ZM114.078 331.758L112.28 332.634C115.184 338.592 118.158 344.506 121.203 350.363L122.978 349.441L124.752 348.518C121.724 342.693 118.765 336.81 115.876 330.881L114.078 331.758ZM132.341 366.853L130.594 367.826C133.828 373.636 137.136 379.376 140.52 385.03L142.236 384.003L143.952 382.976C140.591 377.359 137.304 371.656 134.089 365.88L132.341 366.853ZM152.7 400.827L151.021 401.913C154.642 407.511 158.343 413.006 162.126 418.384L163.762 417.233L165.398 416.082C161.646 410.749 157.974 405.297 154.379 399.741L152.7 400.827ZM175.47 433.143L173.885 434.363C177.968 439.66 182.139 444.817 186.4 449.816L187.922 448.519L189.444 447.221C185.228 442.274 181.098 437.169 177.054 431.922L175.47 433.143ZM201.187 463.247L199.739 464.627C204.369 469.482 209.098 474.149 213.928 478.611L215.285 477.142L216.642 475.673C211.877 471.271 207.209 466.664 202.634 461.867L201.187 463.247ZM230.271 490.039L229.023 491.602C234.26 495.785 239.609 499.727 245.071 503.405L246.188 501.746L247.305 500.087C241.938 496.472 236.676 492.596 231.519 488.477L230.271 490.039ZM263.053 512.04L262.092 513.794C267.961 517.013 273.952 519.931 280.067 522.523L280.848 520.682L281.628 518.841C275.642 516.302 269.772 513.444 264.015 510.287L263.053 512.04ZM299.443 527.416L298.866 529.331C305.216 531.244 311.69 532.812 318.288 534.01L318.645 532.042L319.003 530.075C312.555 528.903 306.229 527.372 300.02 525.501L299.443 527.416ZM338.231 534.458L338.099 536.454C341.435 536.675 344.8 536.802 348.194 536.835L348.213 534.835L348.232 532.835C344.913 532.803 341.623 532.678 338.363 532.463L338.231 534.458ZM348.213 534.835L348.194 536.835C351.757 536.869 355.259 536.804 358.703 536.643L358.61 534.646L358.517 532.648C355.149 532.805 351.721 532.868 348.232 532.835L348.213 534.835ZM378.781 532.503L379.115 534.475C386.039 533.304 392.703 531.711 399.123 529.723L398.531 527.813L397.939 525.902C391.691 527.838 385.199 529.389 378.448 530.531L378.781 532.503ZM417.477 520.476L418.327 522.287C424.582 519.352 430.579 516.008 436.336 512.289L435.251 510.609L434.166 508.929C428.555 512.554 422.715 515.81 416.628 518.666L417.477 520.476ZM451.606 498.517L452.89 500.05C458.102 495.683 463.099 490.985 467.899 485.986L466.457 484.601L465.014 483.216C460.307 488.117 455.415 492.716 450.321 496.984L451.606 498.517ZM479.857 469.263L481.42 470.511C485.633 465.233 489.686 459.712 493.594 453.973L491.941 452.847L490.288 451.721C486.432 457.384 482.439 462.823 478.294 468.015L479.857 469.263ZM502.849 435.67L504.569 436.691C508 430.911 511.319 424.959 514.536 418.858L512.767 417.925L510.998 416.992C507.809 423.039 504.524 428.932 501.129 434.649L502.849 435.67ZM521.874 399.733L523.68 400.593C526.577 394.507 529.396 388.302 532.146 381.998L530.313 381.199L528.48 380.399C525.745 386.667 522.945 392.831 520.068 398.873L521.874 399.733ZM538.209 362.405L540.062 363.157C542.604 356.888 545.092 350.542 547.538 344.138L545.67 343.424L543.801 342.711C541.364 349.093 538.885 355.413 536.355 361.654L538.209 362.405ZM552.779 324.348L554.659 325.033C556.977 318.674 559.263 312.274 561.529 305.849L559.643 305.184L557.756 304.519C555.495 310.934 553.213 317.32 550.9 323.663L552.779 324.348ZM566.35 285.944L568.24 286.597C570.458 280.178 572.664 273.749 574.867 267.326L572.975 266.677L571.083 266.028C568.88 272.451 566.675 278.877 564.459 285.291L566.35 285.944ZM579.591 247.428L581.482 248.08C583.704 241.641 585.933 235.224 588.179 228.843L586.292 228.179L584.405 227.515C582.156 233.906 579.924 240.331 577.7 246.775L579.591 247.428ZM593.154 208.982L595.033 209.666C597.367 203.25 599.728 196.89 602.127 190.6L600.258 189.888L598.389 189.175C595.982 195.486 593.614 201.867 591.274 208.299L593.154 208.982ZM607.696 170.947L609.55 171.699C612.115 165.371 614.73 159.139 617.406 153.019L615.574 152.218L613.742 151.416C611.049 157.573 608.42 163.839 605.843 170.196L607.696 170.947ZM624.06 133.665L625.864 134.53C628.834 128.335 631.885 122.288 635.029 116.408L633.265 115.465L631.502 114.522C628.327 120.458 625.25 126.558 622.257 132.801L624.06 133.665ZM643.35 97.756L645.059 98.7951C648.626 92.9285 652.314 87.2789 656.136 81.8715L654.503 80.717L652.87 79.5624C648.989 85.052 645.252 90.7791 641.641 96.7169L643.35 97.756ZM666.929 64.5983L668.457 65.8885C672.862 60.6703 677.44 55.76 682.208 51.1876L680.824 49.7441L679.439 48.3005C674.562 52.9778 669.889 57.9916 665.401 63.3082L666.929 64.5983ZM696.327 36.5978L697.52 38.2033C702.91 34.1996 708.528 30.5945 714.397 27.4216L713.446 25.6623L712.494 23.903C706.45 27.171 700.671 30.8802 695.134 34.9922L696.327 36.5978ZM731.988 17.3901L732.66 19.2736C738.825 17.0726 745.247 15.3036 751.948 13.9989L751.566 12.0358L751.184 10.0726C744.287 11.4155 737.67 13.2375 731.315 15.5065L731.988 17.3901ZM771.707 9.56839L771.816 11.5654C775.17 11.3834 778.589 11.3073 782.074 11.3405L782.093 9.34064L782.112 7.34073C778.543 7.3067 775.04 7.38458 771.599 7.57133L771.707 9.56839ZM782.093 9.34064L782.074 11.3405C785.348 11.3718 788.59 11.4986 791.801 11.7183L791.938 9.72302L792.074 7.72768C788.785 7.50254 785.464 7.37269 782.112 7.34073L782.093 9.34064ZM811.233 12.1974L810.861 14.1625C817.205 15.3632 823.421 16.9345 829.513 18.8543L830.114 16.9468L830.715 15.0392C824.476 13.073 818.106 11.4629 811.605 10.2323L811.233 12.1974ZM848.339 23.8588L847.527 25.6862C853.379 28.2891 859.11 31.22 864.722 34.4568L865.721 32.7243L866.72 30.9918C860.993 27.6882 855.137 24.6934 849.152 22.0314L848.339 23.8588ZM882.109 43.2551L880.951 44.8859C886.145 48.5728 891.229 52.5248 896.206 56.7223L897.495 55.1935L898.785 53.6647C893.728 49.3994 888.556 45.3788 883.267 41.6242L882.109 43.2551ZM911.909 68.3042L910.511 69.7346C915.077 74.197 919.546 78.8663 923.918 83.7249L925.405 82.387L926.891 81.0492C922.465 76.1306 917.937 71.3993 913.307 66.8738L911.909 68.3042ZM938.047 97.2753L936.488 98.5274C940.506 103.531 944.436 108.693 948.279 113.998L949.899 112.824L951.518 111.65C947.638 106.296 943.668 101.081 939.607 96.0231L938.047 97.2753ZM960.964 128.828L959.295 129.93C962.833 135.288 966.292 140.764 969.673 146.342L971.383 145.305L973.094 144.268C969.687 138.648 966.201 133.129 962.633 127.726L960.964 128.828ZM981.209 162.178L979.464 163.155C982.618 168.789 985.699 174.508 988.707 180.299L990.482 179.376L992.257 178.454C989.23 172.629 986.129 166.873 982.954 161.201L981.209 162.178ZM999.218 196.792L997.418 197.664C1000.24 203.486 1002.99 209.364 1005.67 215.285L1007.5 214.46L1009.32 213.634C1006.62 207.683 1003.85 201.774 1001.02 195.92L999.218 196.792ZM1015.34 232.332L1013.5 233.115C1016.04 239.085 1018.52 245.086 1020.92 251.105L1022.78 250.362L1024.64 249.619C1022.22 243.574 1019.73 237.547 1017.18 231.549L1015.34 232.332ZM1029.85 268.559L1027.98 269.265C1030.28 275.362 1032.52 281.465 1034.69 287.56L1036.57 286.889L1038.46 286.218C1036.28 280.1 1034.03 273.974 1031.72 267.853L1029.85 268.559ZM1042.95 305.309L1041.06 305.948C1043.14 312.138 1045.16 318.307 1047.12 324.44L1049.03 323.832L1050.93 323.225C1048.97 317.071 1046.94 310.882 1044.85 304.671L1042.95 305.309ZM1054.83 342.509L1052.91 343.087C1054.81 349.382 1056.65 355.624 1058.41 361.798L1060.34 361.247L1062.26 360.697C1060.49 354.505 1058.65 348.245 1056.74 341.93L1054.83 342.509ZM1065.57 380.026L1063.64 380.549C1065.37 386.91 1067.02 393.176 1068.61 399.33L1070.54 398.832L1072.48 398.334C1070.89 392.164 1069.23 385.88 1067.5 379.502L1065.57 380.026ZM1075.27 417.74L1073.33 418.213C1074.91 424.717 1076.41 431.06 1077.83 437.22L1079.78 436.771L1081.73 436.323C1080.31 430.148 1078.8 423.787 1077.22 417.267L1075.27 417.74ZM1084.04 455.831L1082.08 456.255C1083.53 462.896 1084.86 469.256 1086.09 475.296L1088.05 474.896L1090.01 474.497C1088.78 468.441 1087.44 462.065 1085.99 455.407L1084.04 455.831ZM1091.82 494L1089.85 494.374C1091.22 501.531 1092.4 508.021 1093.4 513.751L1095.37 513.404L1097.34 513.058C1096.33 507.312 1095.15 500.803 1093.78 493.626L1091.82 494ZM1098.6 532.686L1096.62 532.997C1097.1 536.01 1097.45 538.332 1097.68 539.899C1097.79 540.683 1097.88 541.278 1097.93 541.676C1097.96 541.875 1097.98 542.025 1098 542.125C1098.01 542.175 1098.01 542.213 1098.01 542.237C1098.02 542.25 1098.02 542.259 1098.02 542.265C1098.02 542.268 1098.02 542.27 1098.02 542.271C1098.02 542.272 1098.02 542.273 1098.02 542.273C1098.02 542.273 1098.02 542.273 1098.02 542.273C1098.02 542.273 1098.02 542.273 1098.02 542.273C1098.02 542.273 1098.02 542.273 1100 542C1101.98 541.727 1101.98 541.727 1101.98 541.727C1101.98 541.727 1101.98 541.727 1101.98 541.726C1101.98 541.726 1101.98 541.726 1101.98 541.726C1101.98 541.725 1101.98 541.725 1101.98 541.724C1101.98 541.722 1101.98 541.719 1101.98 541.716C1101.98 541.709 1101.98 541.699 1101.98 541.686C1101.97 541.66 1101.97 541.621 1101.96 541.57C1101.94 541.467 1101.92 541.314 1101.89 541.112C1101.84 540.707 1101.75 540.106 1101.63 539.316C1101.4 537.736 1101.05 535.401 1100.57 532.375L1098.6 532.686Z" fill="url(#paint0_linear_1008_10521)" />
  <defs>
    <linearGradient id="paint0_linear_1008_10521" x1="12" y1="272" x2="1100.84" y2="290.743" gradientUnits="userSpaceOnUse">
      <stop stop-color="#2980BA" />
      <stop offset="1" stop-color="#7F4996" />
    </linearGradient>
  </defs>
</svg>