<svg width="24" height="1057" viewBox="0 0 24 1057" fill="none" xmlns="http://www.w3.org/2000/svg">
  <path d="M14 20.8811L23.547 0.881104L0.452994 0.881103L10 20.8811L14 20.8811ZM1.33329 1045.88C1.33329 1051.77 6.10892 1056.55 12 1056.55C17.891 1056.55 22.6666 1051.77 22.6666 1045.88C22.6666 1039.99 17.891 1035.21 12 1035.21C6.10892 1035.21 1.33329 1039.99 1.33329 1045.88ZM10 10.9292C10 12.0337 10.8954 12.9292 12 12.9292C13.1046 12.9292 14 12.0337 14 10.9292L10 10.9292ZM14 31.0253C14 29.9208 13.1046 29.0253 12 29.0253C10.8954 29.0253 10 29.9208 10 31.0253L14 31.0253ZM10 51.1215C10 52.2261 10.8954 53.1215 12 53.1215C13.1046 53.1215 14 52.2261 14 51.1215L10 51.1215ZM14 71.2176C14 70.1131 13.1046 69.2176 12 69.2176C10.8954 69.2176 10 70.1131 10 71.2176L14 71.2176ZM10 91.3138C10 92.4184 10.8954 93.3138 12 93.3138C13.1046 93.3138 14 92.4184 14 91.3138L10 91.3138ZM14 111.41C14 110.305 13.1046 109.41 12 109.41C10.8954 109.41 10 110.305 10 111.41L14 111.41ZM9.99999 131.506C9.99999 132.611 10.8954 133.506 12 133.506C13.1046 133.506 14 132.611 14 131.506L9.99999 131.506ZM14 151.602C14 150.498 13.1046 149.602 12 149.602C10.8954 149.602 9.99999 150.498 9.99999 151.602L14 151.602ZM9.99999 171.698C9.99999 172.803 10.8954 173.698 12 173.698C13.1046 173.698 14 172.803 14 171.698L9.99999 171.698ZM14 191.795C14 190.69 13.1046 189.795 12 189.795C10.8954 189.795 9.99999 190.69 9.99999 191.795L14 191.795ZM9.99999 211.891C9.99999 212.995 10.8954 213.891 12 213.891C13.1046 213.891 14 212.995 14 211.891L9.99999 211.891ZM14 231.987C14 230.882 13.1046 229.987 12 229.987C10.8954 229.987 9.99999 230.882 9.99999 231.987L14 231.987ZM9.99999 252.083C9.99999 253.188 10.8954 254.083 12 254.083C13.1046 254.083 14 253.188 14 252.083L9.99999 252.083ZM14 272.179C14 271.075 13.1046 270.179 12 270.179C10.8954 270.179 9.99999 271.075 9.99999 272.179L14 272.179ZM9.99999 292.275C9.99999 293.38 10.8954 294.275 12 294.275C13.1046 294.275 14 293.38 14 292.275L9.99999 292.275ZM14 312.372C14 311.267 13.1046 310.372 12 310.372C10.8954 310.372 9.99999 311.267 9.99999 312.372L14 312.372ZM9.99999 332.468C9.99999 333.572 10.8954 334.468 12 334.468C13.1046 334.468 14 333.572 14 332.468L9.99999 332.468ZM14 352.564C14 351.459 13.1046 350.564 12 350.564C10.8954 350.564 9.99998 351.459 9.99998 352.564L14 352.564ZM9.99998 372.66C9.99998 373.765 10.8954 374.66 12 374.66C13.1046 374.66 14 373.765 14 372.66L9.99998 372.66ZM14 392.756C14 391.652 13.1046 390.756 12 390.756C10.8954 390.756 9.99998 391.652 9.99998 392.756L14 392.756ZM9.99998 412.852C9.99998 413.957 10.8954 414.852 12 414.852C13.1046 414.852 14 413.957 14 412.852L9.99998 412.852ZM14 432.949C14 431.844 13.1046 430.949 12 430.949C10.8954 430.949 9.99998 431.844 9.99998 432.949L14 432.949ZM9.99998 453.045C9.99998 454.149 10.8954 455.045 12 455.045C13.1045 455.045 14 454.149 14 453.045L9.99998 453.045ZM14 473.141C14 472.036 13.1045 471.141 12 471.141C10.8954 471.141 9.99998 472.036 9.99998 473.141L14 473.141ZM9.99998 493.237C9.99998 494.342 10.8954 495.237 12 495.237C13.1045 495.237 14 494.342 14 493.237L9.99998 493.237ZM14 513.333C14 512.229 13.1045 511.333 12 511.333C10.8954 511.333 9.99998 512.229 9.99998 513.333L14 513.333ZM9.99998 533.429C9.99998 534.534 10.8954 535.429 12 535.429C13.1045 535.429 14 534.534 14 533.429L9.99998 533.429ZM14 553.525C14 552.421 13.1045 551.525 12 551.525C10.8954 551.525 9.99998 552.421 9.99998 553.525L14 553.525ZM9.99997 573.622C9.99997 574.726 10.8954 575.622 12 575.622C13.1045 575.622 14 574.726 14 573.622L9.99997 573.622ZM14 593.718C14 592.613 13.1045 591.718 12 591.718C10.8954 591.718 9.99997 592.613 9.99997 593.718L14 593.718ZM9.99997 613.814C9.99997 614.918 10.8954 615.814 12 615.814C13.1045 615.814 14 614.918 14 613.814L9.99997 613.814ZM14 633.91C14 632.805 13.1045 631.91 12 631.91C10.8954 631.91 9.99997 632.805 9.99997 633.91L14 633.91ZM9.99997 654.006C9.99997 655.111 10.8954 656.006 12 656.006C13.1045 656.006 14 655.111 14 654.006L9.99997 654.006ZM14 674.102C14 672.998 13.1045 672.102 12 672.102C10.8954 672.102 9.99997 672.998 9.99997 674.102L14 674.102ZM9.99997 694.198C9.99997 695.303 10.8954 696.198 12 696.198C13.1045 696.198 14 695.303 14 694.198L9.99997 694.198ZM14 714.294C14 713.19 13.1045 712.294 12 712.294C10.8954 712.294 9.99997 713.19 9.99997 714.294L14 714.294ZM9.99997 734.391C9.99997 735.495 10.8954 736.391 12 736.391C13.1045 736.391 14 735.495 14 734.391L9.99997 734.391ZM14 754.487C14 753.382 13.1045 752.487 12 752.487C10.8954 752.487 9.99997 753.382 9.99997 754.487L14 754.487ZM9.99997 774.583C9.99997 775.687 10.8954 776.583 12 776.583C13.1045 776.583 14 775.687 14 774.583L9.99997 774.583ZM14 794.679C14 793.574 13.1045 792.679 12 792.679C10.8954 792.679 9.99997 793.574 9.99997 794.679L14 794.679ZM9.99996 814.775C9.99996 815.88 10.8954 816.775 12 816.775C13.1045 816.775 14 815.88 14 814.775L9.99996 814.775ZM14 834.871C14 833.767 13.1045 832.871 12 832.871C10.8954 832.871 9.99996 833.767 9.99996 834.871L14 834.871ZM9.99996 854.967C9.99996 856.072 10.8954 856.967 12 856.967C13.1045 856.967 14 856.072 14 854.967L9.99996 854.967ZM14 875.063C14 873.959 13.1045 873.063 12 873.063C10.8954 873.063 9.99996 873.959 9.99996 875.063L14 875.063ZM9.99996 895.16C9.99996 896.264 10.8954 897.16 12 897.16C13.1045 897.16 14 896.264 14 895.16L9.99996 895.16ZM14 915.256C14 914.151 13.1045 913.256 12 913.256C10.8954 913.256 9.99996 914.151 9.99996 915.256L14 915.256ZM9.99996 935.352C9.99996 936.456 10.8954 937.352 12 937.352C13.1045 937.352 14 936.456 14 935.352L9.99996 935.352ZM14 955.448C14 954.343 13.1045 953.448 12 953.448C10.8954 953.448 9.99996 954.343 9.99996 955.448L14 955.448ZM9.99996 975.544C9.99996 976.649 10.8954 977.544 12 977.544C13.1045 977.544 14 976.649 14 975.544L9.99996 975.544ZM14 995.64C14 994.536 13.1045 993.64 12 993.64C10.8954 993.64 9.99996 994.536 9.99996 995.64L14 995.64ZM9.99996 1015.74C9.99996 1016.84 10.8954 1017.74 12 1017.74C13.1045 1017.74 14 1016.84 14 1015.74L9.99996 1015.74ZM14 1035.83C14 1034.73 13.1045 1033.83 12 1033.83C10.8954 1033.83 9.99995 1034.73 9.99995 1035.83L14 1035.83ZM12 31.0253L10 31.0253L10 51.1215L12 51.1215L14 51.1215L14 31.0253L12 31.0253ZM12 71.2176L10 71.2176L10 91.3138L12 91.3138L14 91.3138L14 71.2176L12 71.2176ZM12 111.41L10 111.41L9.99999 131.506L12 131.506L14 131.506L14 111.41L12 111.41ZM12 151.602L9.99999 151.602L9.99999 171.698L12 171.698L14 171.698L14 151.602L12 151.602ZM12 191.795L9.99999 191.795L9.99999 211.891L12 211.891L14 211.891L14 191.795L12 191.795ZM12 231.987L9.99999 231.987L9.99999 252.083L12 252.083L14 252.083L14 231.987L12 231.987ZM12 272.179L9.99999 272.179L9.99999 292.275L12 292.275L14 292.275L14 272.179L12 272.179ZM12 312.372L9.99999 312.372L9.99999 332.468L12 332.468L14 332.468L14 312.372L12 312.372ZM12 352.564L9.99998 352.564L9.99998 372.66L12 372.66L14 372.66L14 352.564L12 352.564ZM12 392.756L9.99998 392.756L9.99998 412.852L12 412.852L14 412.852L14 392.756L12 392.756ZM12 432.949L9.99998 432.949L9.99998 453.045L12 453.045L14 453.045L14 432.949L12 432.949ZM12 473.141L9.99998 473.141L9.99998 493.237L12 493.237L14 493.237L14 473.141L12 473.141ZM12 513.333L9.99998 513.333L9.99998 533.429L12 533.429L14 533.429L14 513.333L12 513.333ZM12 553.525L9.99998 553.525L9.99997 573.622L12 573.622L14 573.622L14 553.525L12 553.525ZM12 593.718L9.99997 593.718L9.99997 613.814L12 613.814L14 613.814L14 593.718L12 593.718ZM12 633.91L9.99997 633.91L9.99997 654.006L12 654.006L14 654.006L14 633.91L12 633.91ZM12 674.102L9.99997 674.102L9.99997 694.198L12 694.198L14 694.198L14 674.102L12 674.102ZM12 714.294L9.99997 714.294L9.99997 734.391L12 734.391L14 734.391L14 714.294L12 714.294ZM12 754.487L9.99997 754.487L9.99997 774.583L12 774.583L14 774.583L14 754.487L12 754.487ZM12 794.679L9.99997 794.679L9.99996 814.775L12 814.775L14 814.775L14 794.679L12 794.679ZM12 834.871L9.99996 834.871L9.99996 854.967L12 854.967L14 854.967L14 834.871L12 834.871ZM12 875.063L9.99996 875.063L9.99996 895.16L12 895.16L14 895.16L14 875.063L12 875.063ZM12 915.256L9.99996 915.256L9.99996 935.352L12 935.352L14 935.352L14 915.256L12 915.256ZM12 955.448L9.99996 955.448L9.99996 975.544L12 975.544L14 975.544L14 955.448L12 955.448ZM12 995.64L9.99996 995.64L9.99996 1015.74L12 1015.74L14 1015.74L14 995.64L12 995.64ZM12 1035.83L9.99995 1035.83L9.99995 1045.88L12 1045.88L14 1045.88L14 1035.83L12 1035.83Z" fill="#7F4996" />
  <path d="M11.8253 120.881L1 96.8811L22.6506 96.8811L11.8253 120.881Z" fill="#7F4996" />
  <path d="M11.8253 231.881L1 207.881L22.6506 207.881L11.8253 231.881Z" fill="#7F4996" />
  <path d="M11.8253 342.881L1 318.881L22.6506 318.881L11.8253 342.881Z" fill="#7F4996" />
  <path d="M11.8253 453.881L1 429.881L22.6506 429.881L11.8253 453.881Z" fill="#7F4996" />
  <path d="M11.8253 564.881L1 540.881L22.6506 540.881L11.8253 564.881Z" fill="#7F4996" />
  <path d="M11.8253 691.881L1 667.881L22.6506 667.881L11.8253 691.881Z" fill="#7F4996" />
  <path d="M11.8253 802.881L1 778.881L22.6506 778.881L11.8253 802.881Z" fill="#7F4996" />
  <path d="M11.8253 913.881L1 889.881L22.6506 889.881L11.8253 913.881Z" fill="#7F4996" />
</svg>