<svg width="1516" height="673" viewBox="0 0 1516 673" fill="none" xmlns="http://www.w3.org/2000/svg">
  <path opacity="0.15" d="M1514 260.5L1514 25.5001L1473 2.49978M1514 260.5L1473 2.49978M1514 260.5L1411.73 149.987M1514 260.5L1461.05 289.349L1431.5 329.919M1473 2.49978L1411.73 66.4848L1411.73 149.987M1411.73 149.987L1431.5 329.919M1411.73 149.987L1315.59 219.424M1411.73 149.987L1321.97 66.4848M1431.5 329.919L1315.59 219.424M1431.5 329.919L1352.09 321.899L1310.56 372.289M1315.59 219.424L1321.97 66.4848M1315.59 219.424L1210.1 142.318M1315.59 219.424L1310.56 372.289M1315.59 219.424L1207.75 295.035M1321.97 66.4848L1210.1 142.318M1210.1 142.318L1207.75 295.035M1210.1 142.318L1113.71 208.452M1210.1 142.318L1173 89.9998L1126.5 113.5M1310.56 372.289L1207.75 295.035M1310.56 372.289L1202.57 390.412M1207.75 295.035L1113.71 208.452M1207.75 295.035L1202.57 390.412M1207.75 295.035L1114.06 361.02M1113.71 208.452L1114.06 361.02M1113.71 208.452L1126.5 113.5M1113.71 208.452L1017.26 218.198M1113.71 208.452L1007.5 89.9999M1202.57 390.412L1114.06 361.02M1114.06 361.02L1017.26 218.198M1114.06 361.02L1018.95 370.692M1126.5 113.5L1077 80.4998L1007.5 89.9999M1017.26 218.198L1018.95 370.692M1017.26 218.198L1007.5 89.9999M1017.26 218.198L894.499 136.5M1017.26 218.198L924.85 301.803M1017.26 218.198L843.745 189.074M1007.5 89.9999L963.499 129.5L894.499 136.5M1018.95 370.692L924.85 301.803M1018.95 370.692L1010.02 405.462L927.883 454.223M894.499 136.5L843.745 189.074M924.85 301.803L843.745 189.074M924.85 301.803L927.883 454.223M924.85 301.803L841.401 341.791M843.745 189.074L841.401 341.791M843.745 189.074L749.692 287.145M843.745 189.074L676.457 208.259M927.883 454.223L841.401 341.791M927.883 454.223L896.854 491.318L843.091 494.286M841.401 341.791L749.692 287.145M841.401 341.791L843.091 494.286M841.401 341.791L750.038 439.713M841.401 341.791L671.425 361.124M749.692 287.145L676.457 208.259M749.692 287.145L671.425 361.124M749.692 287.145L656.5 276.45M843.091 494.286L750.038 439.713M843.091 494.286L753.938 493.125L669.082 513.841M750.038 439.713L671.425 361.124M750.038 439.713L669.082 513.841M750.038 439.713L576.811 451.485M676.457 208.259L656.5 276.45M671.425 361.124L578.143 263.235M671.425 361.124L576.811 451.485M671.425 361.124L486.963 366.882M669.082 513.841L576.811 451.485M669.082 513.841L578.143 571.381M578.143 263.235L486.963 366.882M578.143 263.235L656.5 276.45M576.811 451.485L486.963 366.882M576.811 451.485L578.143 571.381M576.811 451.485L484.619 519.598M486.963 366.882L484.619 519.598M486.963 366.882L390.9 437.42M486.963 366.882L395.932 284.555M578.143 571.381L484.619 519.598M484.619 519.598L390.9 437.42M484.619 519.598L463.166 595.418L391.246 589.988M390.9 437.42L395.932 284.555M390.9 437.42L288.416 364.571M390.9 437.42L391.246 589.988M390.9 437.42L290.105 517.065M395.932 284.555L288.416 364.571M288.416 364.571L290.105 517.065M288.416 364.571L194.64 429.455M288.416 364.571L194.295 276.886M391.246 589.988L290.105 517.065M391.246 589.988L216.999 670.5M290.105 517.065L194.64 429.455M290.105 517.065L216.999 670.5M290.105 517.065L197.673 581.875M194.64 429.455L194.295 276.886M194.64 429.455L197.673 581.875M194.64 429.455L103.966 573.778M194.64 429.455L98.2438 421.506M216.999 670.5L197.673 581.875M197.673 581.875L103.966 573.778M194.295 276.886L98.2438 421.506M194.295 276.886L67.9995 221.167M103.966 573.778L98.2438 421.506M103.966 573.778L2.00099 436.5M103.966 573.778L1.99718 657.5L2.00099 436.5M98.2438 421.506L67.9995 221.167M98.2438 421.506L2.00099 284.555M98.2438 421.506L2.00099 436.5M67.9995 221.167L2.00099 284.555M2.00099 284.555L2.00099 436.5" stroke="url(#paint0_linear_487_856)" stroke-width="3" />
  <defs>
    <linearGradient id="paint0_linear_487_856" x1="780.999" y1="386.5" x2="735.924" y2="701.35" gradientUnits="userSpaceOnUse">
      <stop stop-color="#2980BA" />
      <stop offset="1" stop-color="#2980BA" stop-opacity="0" />
    </linearGradient>
  </defs>
</svg>