<svg width="342" height="238" viewBox="0 0 342 238" fill="none" xmlns="http://www.w3.org/2000/svg">
  <g opacity="0.3">
    <path d="M341.617 183.441L318.982 185.467L330.693 137.213L341.617 183.441Z" fill="#B6CBFF" />
    <path d="M330.693 137.213L318.982 185.467L297.15 159.098L330.693 137.213Z" fill="#CAD8FF" />
    <path d="M318.982 185.467L306.351 187.188L297.15 159.098L318.982 185.467Z" fill="#B9D2FF" />
    <path d="M327.544 72.3907L326.233 84.1128L318.349 71.8371L327.544 72.3907Z" fill="#A993DA" />
    <path d="M326.836 60.063L327.546 72.3909L318.35 71.8372L326.836 60.063Z" fill="#A99AD9" />
    <path d="M332.738 130.392L330.693 137.213L302.492 99.023L332.738 130.392Z" fill="#C1C0FF" />
    <path d="M330.693 137.213L299.567 123.478L302.492 99.023L330.693 137.213Z" fill="#C2C3FF" />
    <path d="M326.233 84.1128L332.736 130.392L302.49 99.0231L326.233 84.1128Z" fill="#C2B5FF" />
    <path d="M330.692 137.213L297.148 159.098L299.565 123.478L330.692 137.213Z" fill="#C4CFFF" />
    <path d="M306.351 187.188L304.734 188.906L297.148 159.098L306.351 187.188Z" fill="#B7D1FF" />
    <path d="M297.15 159.098L304.734 188.906L282.909 195.581L297.15 159.098Z" fill="#B2D0FF" />
    <path d="M302.49 99.0231L299.565 123.478L288.75 113.628L302.49 99.0231Z" fill="#AAAAFF" />
    <path d="M318.349 71.8371L326.233 84.1128L302.49 99.0231L318.349 71.8371Z" fill="#BCA3FF" />
    <path d="M297.15 159.098L282.909 195.581L267.241 168.857L297.15 159.098Z" fill="#B7D2FF" />
    <path d="M282.909 195.581L280.282 196.996L267.241 168.857L282.909 195.581Z" fill="#B6D3FF" />
    <path d="M280.282 196.996L276.645 198.108L267.241 168.857L280.282 196.996Z" fill="#B7D4FF" />
    <path d="M326.836 60.063L318.35 71.8372L321.072 46.2203L326.836 60.063Z" fill="#A48DDC" />
    <path d="M321.072 46.2203L318.35 71.8372L290.255 59.0103L321.072 46.2203Z" fill="#AE7EFF" />
    <path d="M267.241 168.857L276.645 198.108L247.743 191.648L267.241 168.857Z" fill="#B4D1FF" />
    <path d="M276.645 198.108L274.423 201.847L247.743 191.648L276.645 198.108Z" fill="#B4D2FF" />
    <path d="M274.423 201.847L260.985 209.935L247.743 191.648L274.423 201.847Z" fill="#B0D0FF" />
    <path d="M260.985 209.935L245.526 217.416L247.743 191.648L260.985 209.935Z" fill="#A6CBFF" />
    <path d="M319.649 10.5501L317.124 15.3L303.783 4.69289L319.649 10.5501Z" fill="#AE68FF" />
    <path d="M318.334 0.243408L319.649 10.5501L303.783 4.69289L318.334 0.243408Z" fill="#AC62FF" />
    <path d="M321.877 28.8396L321.072 46.2203L290.148 33.6468L321.877 28.8396Z" fill="#B372FF" />
    <path d="M321.072 46.2203L290.255 59.0103L290.148 33.6468L321.072 46.2203Z" fill="#AA71FF" />
    <path d="M318.35 71.8372L302.492 99.023L290.255 59.0103L318.35 71.8372Z" fill="#AF8FFF" />
    <path d="M303.782 4.69283L317.123 15.3L289.033 24.502L303.782 4.69283Z" fill="#B673FF" />
    <path d="M317.124 15.3L321.877 28.8396L289.033 24.502L317.124 15.3Z" fill="#B574FF" />
    <path d="M321.877 28.8396L290.148 33.6468L289.033 24.502L321.877 28.8396Z" fill="#B578FF" />
    <path d="M290.148 33.6468L290.255 59.0103L281.966 49.9175L290.148 33.6468Z" fill="#A975FF" />
    <path d="M297.15 159.098L267.241 168.857L253.085 131.572L297.15 159.098Z" fill="#93B8FF" />
    <path d="M299.567 123.478L297.15 159.098L253.085 131.572L299.567 123.478Z" fill="#8FA9FF" />
    <path d="M288.752 113.628L299.567 123.478L253.085 131.572L288.752 113.628Z" fill="#8797FF" />
    <path d="M303.783 4.69289L289.033 24.502L286.302 11.5683L303.783 4.69289Z" fill="#9675ED" />
    <path d="M247.743 191.648L245.526 217.416L230.566 197.512L247.743 191.648Z" fill="#97C0FF" />
    <path d="M247.743 191.648L230.566 197.512L228.341 190.237L247.743 191.648Z" fill="#88B7FF" />
    <path d="M253.085 131.572L267.24 168.856L236.921 154.262L253.085 131.572Z" fill="#7EAEFF" />
    <path d="M267.241 168.857L247.743 191.648L236.921 154.262L267.241 168.857Z" fill="#8BB9FF" />
    <path d="M290.148 33.6468L281.966 49.9175L261.955 34.0069L290.148 33.6468Z" fill="#DAC8FF" />
    <path d="M289.034 24.502L290.148 33.6468L261.955 34.0069L289.034 24.502Z" fill="#E2D4FF" />
    <path d="M247.743 191.648L228.341 190.237L236.922 154.262L247.743 191.648Z" fill="#80B1FF" />
    <path d="M302.492 99.023L288.752 113.628L290.255 59.0103L302.492 99.023Z" fill="#A08DFF" />
    <path d="M286.302 11.5683L289.034 24.502L260.234 21.3761L286.302 11.5683Z" fill="#9378ED" />
    <path d="M289.034 24.502L261.955 34.0069L260.234 21.3761L289.034 24.502Z" fill="#9775EE" />
    <path d="M261.955 34.0069L281.966 49.9175L251.549 43.0027L261.955 34.0069Z" fill="#E5D7FF" />
    <path d="M253.085 131.572L236.922 154.262L228.326 124.151L253.085 131.572Z" fill="#75A3FF" />
    <path d="M281.966 49.9175L290.254 59.0102L240.741 66.1961L281.966 49.9175Z" fill="#A37BFF" />
    <path d="M236.922 154.262L228.341 190.237L209.238 165.788L236.922 154.262Z" fill="#75ACFF" />
    <path d="M290.255 59.0103L288.752 113.628L240.742 66.1962L290.255 59.0103Z" fill="#8972FF" />
    <path d="M251.549 43.0027L281.966 49.9175L240.742 66.1962L251.549 43.0027Z" fill="#DED3FC" />
    <path d="M288.752 113.628L253.085 131.572L230.138 90.5515L288.752 113.628Z" fill="#7186FF" />
    <path d="M240.742 66.1962L288.752 113.628L230.138 90.5515L240.742 66.1962Z" fill="#8382FF" />
    <path d="M253.085 131.572L228.326 124.151L230.138 90.5515L253.085 131.572Z" fill="#7192FF" />
    <path d="M251.55 43.0027L240.742 66.1962L238.112 51.0897L251.55 43.0027Z" fill="#E6DAFE" />
    <path d="M238.11 51.0899L240.741 66.1961L233.667 64.0758L238.11 51.0899Z" fill="#E1D6FC" />
    <path d="M187.725 215.509L180.051 237.439L176.411 227.537L187.725 215.509Z" fill="#C0B9EE" />
    <path d="M230.136 90.5516L228.326 124.151L211.749 105.966L230.136 90.5516Z" fill="#829EFF" />
    <path d="M187.725 215.509L176.411 227.537L177.521 220.16L187.725 215.509Z" fill="#C0B6EE" />
    <path d="M240.742 66.1962L230.136 90.5516L233.667 64.0758L240.742 66.1962Z" fill="#CDC7F4" />
    <path d="M260.234 21.3761L261.955 34.0069L251.549 43.0027L260.234 21.3761Z" fill="#9777EF" />
    <path d="M209.238 165.788L192.162 174.987L190.239 161.194L209.238 165.788Z" fill="#974EE5" />
    <path d="M228.326 124.151L236.922 154.262L209.238 165.788L228.326 124.151Z" fill="#75ABFF" />
    <path d="M228.326 124.151L209.236 165.788L192.153 141.944L228.326 124.151Z" fill="#74ADFF" />
    <path d="M209.238 165.788L190.239 161.194L192.155 141.944L209.238 165.788Z" fill="#9A4FE6" />
    <path d="M260.234 21.3761L251.549 43.0027L220.825 26.0841L260.234 21.3761Z" fill="#8688EF" />
    <path d="M251.549 43.0027L238.11 51.0899L220.825 26.0841L251.549 43.0027Z" fill="#9688F0" />
    <path d="M192.162 174.987L187.724 215.509L172.104 179.438L192.162 174.987Z" fill="#A681E7" />
    <path d="M211.751 105.966L228.326 124.151L192.155 141.944L211.751 105.966Z" fill="#85ADFF" />
    <path d="M190.239 161.194L192.162 174.987L172.105 179.438L190.239 161.194Z" fill="#9B62E3" />
    <path d="M238.11 51.0899L233.667 64.0758L204.964 42.2556L238.11 51.0899Z" fill="#A180F2" />
    <path d="M220.825 26.0841L238.11 51.0899L204.964 42.2556L220.825 26.0841Z" fill="#8591F1" />
    <path d="M230.138 90.5515L211.751 105.966L190.019 82.9315L230.138 90.5515Z" fill="#C7C6EF" />
    <path d="M211.749 105.966L192.153 141.944L177.446 119.363L211.749 105.966Z" fill="#98BEFF" />
    <path d="M233.667 64.0758L230.138 90.5515L190.019 82.9315L233.667 64.0758Z" fill="#D7CFF7" />
    <path d="M187.725 215.509L177.521 220.16L172.105 179.438L187.725 215.509Z" fill="#B3A3EB" />
    <path d="M177.519 220.16L176.41 227.537L145.484 209.456L177.519 220.16Z" fill="#5872CC" />
    <path d="M204.964 42.2556L190.018 82.9315L189.303 48.5748L204.964 42.2556Z" fill="#A6A9F5" />
    <path d="M172.105 179.438L177.521 220.16L145.486 209.456L172.105 179.438Z" fill="#5974CA" />
    <path d="M204.966 42.2557L233.669 64.0758L190.019 82.9315L204.966 42.2557Z" fill="#A988F3" />
    <path d="M172.104 179.438L145.486 209.456L142.652 193.188L172.104 179.438Z" fill="#536DC0" />
    <path d="M190.019 82.9315L211.751 105.966L177.447 119.363L190.019 82.9315Z" fill="#CECEF1" />
    <path d="M172.104 179.438L142.652 193.188L141.74 185.205L172.104 179.438Z" fill="#546EC3" />
    <path d="M147.648 171.006L172.104 179.438L141.74 185.205L147.648 171.006Z" fill="#5671C6" />
    <path d="M189.303 48.5748L190.019 82.9315L182.433 53.1236L189.303 48.5748Z" fill="#A2A8F5" />
    <path d="M190.019 82.9315L177.447 119.363L169.159 115.778L190.019 82.9315Z" fill="#D3D2F4" />
    <path d="M190.239 161.194L172.105 179.438L147.648 171.006L190.239 161.194Z" fill="#5873CB" />
    <path d="M190.019 82.9315L169.159 115.778L157.08 97.2883L190.019 82.9315Z" fill="#DCD4F7" />
    <path d="M169.159 115.778L157.586 102.947L157.08 97.2883L169.159 115.778Z" fill="#D7D0F5" />
    <path d="M147.649 171.006L141.74 185.205L132.442 175.809L147.649 171.006Z" fill="#5772C8" />
    <path d="M182.433 53.1236L190.018 82.9315L170.509 56.158L182.433 53.1236Z" fill="#9EA5F5" />
    <path d="M157.586 102.947L169.16 115.778L149.404 108.203L157.586 102.947Z" fill="#D3D0F5" />
    <path d="M192.153 141.944L190.239 161.194L147.648 171.006L192.153 141.944Z" fill="#5470CC" />
    <path d="M149.404 108.203L169.16 115.778L143.24 114.066L149.404 108.203Z" fill="#D0CDF4" />
    <path d="M170.51 56.1578L190.019 82.9315L161.619 60.1008L170.51 56.1578Z" fill="#96A2F3" />
    <path d="M177.447 119.363L192.155 141.944L147.649 171.006L177.447 119.363Z" fill="#617DD6" />
    <path d="M169.159 115.778L177.447 119.363L147.648 171.006L169.159 115.778Z" fill="#8F9EE2" />
    <path d="M190.018 82.9315L157.08 97.2883L161.619 60.1008L190.018 82.9315Z" fill="#A18FF3" />
    <path d="M157.08 97.2883L157.586 102.947L149.402 108.203L157.08 97.2883Z" fill="#A074F0" />
    <path d="M169.159 115.778L147.648 171.006L143.24 114.066L169.159 115.778Z" fill="#AAB3E9" />
    <path d="M147.648 171.006L132.441 175.81L120.915 148.125L147.648 171.006Z" fill="#607CD4" />
    <path d="M149.404 108.203L143.24 114.066L133.537 102.346L149.404 108.203Z" fill="#9B6DEF" />
    <path d="M157.08 97.2883L149.402 108.203L133.536 102.346L157.08 97.2883Z" fill="#9C72F0" />
    <path d="M143.24 114.066L147.649 171.006L120.916 148.124L143.24 114.066Z" fill="#9FAAE7" />
    <path d="M161.619 60.1008L157.08 97.2883L146.664 62.2264L161.619 60.1008Z" fill="#7D96F2" />
    <path d="M146.664 62.2264L157.08 97.2883L133.537 102.346L146.664 62.2264Z" fill="#9697F1" />
    <path d="M146.663 62.2263L133.536 102.346L116.351 75.1676L146.663 62.2263Z" fill="#819AF4" />
    <path d="M116.351 75.1676L133.537 102.346L110.189 81.03L116.351 75.1676Z" fill="#829EF4" />
    <path d="M110.189 81.03L133.536 102.346L104.533 98.0582L110.189 81.03Z" fill="#7996F2" />
    <path d="M143.24 114.066L120.916 148.124L133.537 102.346L143.24 114.066Z" fill="#CAC6F2" />
    <path d="M133.537 102.346L120.916 148.124L104.535 98.0583L133.537 102.346Z" fill="#8F65EB" />
    <path d="M104.533 98.0582L120.916 148.124L79.7825 123.68L104.533 98.0582Z" fill="#7B55E7" />
    <path d="M110.189 81.03L104.533 98.0582L83.1068 79.5205L110.189 81.03Z" fill="#8FA8F7" />
    <path d="M104.535 98.0583L79.7825 123.68L83.1068 79.5205L104.535 98.0583Z" fill="#819CF3" />
    <path d="M83.1109 79.5208L79.7864 123.68L60.5806 95.896L83.1109 79.5208Z" fill="#90A9F6" />
    <path d="M79.7864 123.68L62.1027 123.886L60.5806 95.896L79.7864 123.68Z" fill="#7793F2" />
    <path d="M60.5806 95.896L62.1027 123.886L55.4771 98.2214L60.5806 95.896Z" fill="#95ACF6" />
    <path d="M62.1015 123.887L46.9455 130.357L55.4771 98.2214L62.1015 123.887Z" fill="#7B97F3" />
    <path d="M55.4786 98.2212L46.9473 130.357L29.0104 127.734L55.4786 98.2212Z" fill="#809CF4" />
    <path d="M55.4771 98.2214L29.0093 127.734L19.0525 113.185L55.4771 98.2214Z" fill="#8FA8F6" />
    <path d="M19.0525 113.185L29.0104 127.734L0.361328 124.103L19.0525 113.185Z" fill="#7A96F3" />
  </g>
</svg>