<svg width="1512" height="721" viewBox="0 0 1512 721" fill="none" xmlns="http://www.w3.org/2000/svg">
<g opacity="0.2" filter="url(#filter0_f_2097_9251)">
<path fill-rule="evenodd" clip-rule="evenodd" d="M1184.02 190.249C800.867 444.58 512.903 529.635 398.212 258.415C283.52 -12.8053 -30.4752 129.906 -112.483 207.407C-194.49 284.909 -206.494 356.911 -206.494 356.911C-206.494 356.911 -134.483 291.327 -44.4827 261.803C45.5173 232.279 131.017 261.803 131.017 261.803C395.272 388.68 306.314 841.692 910.792 489.503C1228.65 304.308 1449.32 227.085 1625.29 261.803L1556.13 184.766C1520.07 144.598 1395.43 49.9124 1184.02 190.249Z" fill="url(#paint0_linear_2097_9251)"/>
</g>
<defs>
<filter id="filter0_f_2097_9251" x="-306.492" y="0" width="2031.78" height="720.946" filterUnits="userSpaceOnUse" color-interpolation-filters="sRGB">
<feFlood flood-opacity="0" result="BackgroundImageFix"/>
<feBlend mode="normal" in="SourceGraphic" in2="BackgroundImageFix" result="shape"/>
<feGaussianBlur stdDeviation="50" result="effect1_foregroundBlur_2097_9251"/>
</filter>
<linearGradient id="paint0_linear_2097_9251" x1="-206.171" y1="342.348" x2="1622.6" y2="382.961" gradientUnits="userSpaceOnUse">
<stop stop-color="#E41CCF"/>
<stop offset="0.138462" stop-color="#C728CE"/>
<stop offset="0.276923" stop-color="#A92FCD"/>
<stop offset="0.456731" stop-color="#7F3CCC"/>
<stop offset="0.649038" stop-color="#5046CB"/>
<stop offset="0.846154" stop-color="#325DCA"/>
<stop offset="1" stop-color="#0176C9"/>
</linearGradient>
</defs>
</svg>
