<svg width="591" height="1050" viewBox="0 0 591 1050" fill="none" xmlns="http://www.w3.org/2000/svg">
<g opacity="0.2" filter="url(#filter0_f_2097_9212)">
<path d="M114.378 653.681C114.378 626.134 118.707 601.736 127.365 580.486C136.81 559.236 148.223 540.347 161.603 523.819C175.771 507.292 190.726 491.944 206.467 477.778C222.209 463.611 236.77 450.231 250.151 437.639C264.318 424.259 275.731 410.486 284.389 396.319C293.834 382.153 298.557 366.412 298.557 349.097C298.557 320.764 286.75 297.94 263.138 280.625C240.312 263.31 209.616 254.653 171.048 254.653C134.055 254.653 100.998 262.523 71.8752 278.264C42.753 293.218 18.7467 314.468 -0.143372 342.014L-143 258.194C-111.516 210.185 -67.833 172.014 -11.9497 143.681C43.9336 114.56 111.623 100 191.119 100C250.151 100 302.099 108.657 346.963 125.972C391.827 142.5 426.852 166.898 452.039 199.167C478.013 231.435 491 271.181 491 318.403C491 349.097 486.278 376.25 476.832 399.861C467.387 423.472 455.188 443.935 440.233 461.25C425.278 478.565 409.143 494.699 391.827 509.653C375.298 524.606 359.556 539.167 344.602 553.333C329.647 567.5 317.053 582.454 306.821 598.194C297.376 613.935 292.654 632.431 292.654 653.681H114.378ZM204.106 950C171.048 950 143.894 939.375 122.642 918.125C101.391 896.875 90.7654 871.69 90.7654 842.569C90.7654 812.662 101.391 787.87 122.642 768.194C143.894 747.731 171.048 737.5 204.106 737.5C237.951 737.5 265.106 747.731 285.57 768.194C306.821 787.87 317.447 812.662 317.447 842.569C317.447 871.69 306.821 896.875 285.57 918.125C265.106 939.375 237.951 950 204.106 950Z" fill="url(#paint0_linear_2097_9212)"/>
</g>
<defs>
<filter id="filter0_f_2097_9212" x="-243" y="0" width="834" height="1050" filterUnits="userSpaceOnUse" color-interpolation-filters="sRGB">
<feFlood flood-opacity="0" result="BackgroundImageFix"/>
<feBlend mode="normal" in="SourceGraphic" in2="BackgroundImageFix" result="shape"/>
<feGaussianBlur stdDeviation="50" result="effect1_foregroundBlur_2097_9212"/>
</filter>
<linearGradient id="paint0_linear_2097_9212" x1="-143" y1="525" x2="491" y2="525" gradientUnits="userSpaceOnUse">
<stop stop-color="#E41CCF"/>
<stop offset="0.138462" stop-color="#C728CE"/>
<stop offset="0.276923" stop-color="#A92FCD"/>
<stop offset="0.456731" stop-color="#7F3CCC"/>
<stop offset="0.649038" stop-color="#5046CB"/>
<stop offset="0.846154" stop-color="#325DCA"/>
<stop offset="1" stop-color="#0176C9"/>
</linearGradient>
</defs>
</svg>
