<svg width="148" height="148" viewBox="0 0 148 148" fill="none" xmlns="http://www.w3.org/2000/svg">
  <path d="M27 128L30.2414 112.073L79.4795 74.1517C83.5955 70.9157 86.7854 68.0843 89.0493 65.6573C91.416 63.2303 93.0624 60.9551 93.9885 58.8315C94.9146 56.6067 95.3777 54.3315 95.3777 52.0056C95.3777 48.4663 94.04 45.6348 91.3645 43.5112C88.6891 41.3876 84.7274 40.3258 79.4795 40.3258C75.1576 40.3258 70.9901 41.2865 66.977 43.2079C63.0668 45.1292 59.5681 47.8596 56.4811 51.3989L39.6568 39.4157C44.0816 33.5506 50.1013 28.8483 57.7159 25.309C65.3306 21.7697 73.8199 20 83.1839 20C90.7986 20 97.4357 21.264 103.095 23.7921C108.755 26.2191 113.128 29.5562 116.215 33.8034C119.405 38.0506 121 42.955 121 48.5168C121 52.6629 120.228 56.7079 118.685 60.6517C117.141 64.5955 114.569 68.6404 110.967 72.7865C107.469 76.8315 102.529 81.2809 96.1494 86.1348L55.7094 116.927L51.6962 107.978H112.819L108.806 128H27Z" fill="url(#paint0_linear_550_5054)" />
  <defs>
    <linearGradient id="paint0_linear_550_5054" x1="27" y1="74" x2="121.095" y2="74.6997" gradientUnits="userSpaceOnUse">
      <stop stop-color="#2980BA" />
      <stop offset="1" stop-color="#7F4996" />
    </linearGradient>
  </defs>
</svg>