<svg width="148" height="148" viewBox="0 0 148 148" fill="none" xmlns="http://www.w3.org/2000/svg">
  <path d="M63.9565 128C56.1449 128 48.8406 126.938 42.0435 124.815C35.2464 122.691 29.5652 119.657 25 115.713L36.8696 97.6629C40.3188 100.697 44.529 103.073 49.5 104.792C54.5725 106.511 59.9493 107.371 65.6304 107.371C70.5 107.371 74.6087 106.764 77.9565 105.551C81.4058 104.337 83.9928 102.567 85.7174 100.242C87.5435 97.9157 88.4565 95.1854 88.4565 92.0506C88.4565 88.2079 86.9855 85.3764 84.0435 83.5562C81.2029 81.6348 76.8406 80.6742 70.9565 80.6742H59.6957L62.8913 64.4438L98.8044 30.9214L100.478 39.7191H44.3261L48.4348 20H123L119.957 35.927L84.0435 69.4494L72.4783 62.4719H77.9565C85.3623 62.4719 91.7029 63.6348 96.9783 65.9607C102.254 68.1854 106.312 71.4213 109.152 75.6685C111.993 79.8146 113.413 84.7697 113.413 90.5337C113.413 97.7135 111.283 104.135 107.022 109.798C102.862 115.461 97.029 119.91 89.5217 123.146C82.1159 126.382 73.5942 128 63.9565 128Z" fill="url(#paint0_linear_550_5058)" />
  <defs>
    <linearGradient id="paint0_linear_550_5058" x1="25" y1="74" x2="123.099" y2="74.7605" gradientUnits="userSpaceOnUse">
      <stop stop-color="#2980BA" />
      <stop offset="1" stop-color="#7F4996" />
    </linearGradient>
  </defs>
</svg>