<svg width="130" height="131" viewBox="0 0 130 131" fill="none" xmlns="http://www.w3.org/2000/svg">
  <path d="M57.0648 113.092C50.1297 113.092 43.6836 112.16 37.7266 110.294C31.8585 108.429 26.8795 105.764 22.7896 102.3L33.1921 86.445C36.2151 89.1097 39.9049 91.1971 44.2616 92.7071C48.7071 94.2171 53.4194 94.9722 58.3984 94.9722C64.8 94.9722 69.7346 93.773 73.2021 91.3747C76.6696 88.9765 78.4034 85.6456 78.4034 81.382C78.4034 78.0954 77.0253 75.5195 74.269 73.6542C71.5128 71.7001 66.845 70.723 60.2655 70.723H34.9259L50.1297 18.2275H107.211L103.61 35.5484H54.3974L67.7341 25.6888L56.798 63.1285L47.4624 53.2689H65.3335C76.9808 53.2689 85.6941 55.534 91.4733 60.064C97.3414 64.5941 100.276 70.8562 100.276 78.8505C100.276 85.7788 98.4084 91.8189 94.6741 96.9707C91.0288 102.123 85.9608 106.12 79.4703 108.962C72.9798 111.716 65.5113 113.092 57.0648 113.092Z" fill="white" />
</svg>