<?xml version="1.0"?>
<svg xmlns="http://www.w3.org/2000/svg" xmlns:xlink="http://www.w3.org/1999/xlink" version="1.1" xml:space="preserve">
  <defs>

    <symbol id="loader" width="100%" height="100%" viewBox="22 22 44 44">
      <circle cx="44" cy="44" r="20.2" fill="transparent" stroke="currentColor" stroke-width="4" />
    </symbol>

    <symbol id="burger" width="100%" height="100%" viewBox="0 0 34 34">
      <path d="M2 17.5H32" fill="transparent" stroke="currentColor" stroke-width="2" stroke-linecap="round" stroke-linejoin="round" />
      <path d="M2 5H32M2 30H32" fill="transparent" stroke="currentColor" stroke-width="2" stroke-linecap="round" stroke-linejoin="round" />
    </symbol>

    <symbol id="close" width="100%" height="100%" viewBox="0 0 34 34">
      <path d="M22 22L12 12M12 22L22 12" fill="transparent" stroke="currentColor" stroke-width="2" stroke-linecap="round" stroke-linejoin="round" />
      <path d="M17 32C25.284 32 32 25.284 32 17C32 8.716 25.284 2 17 2C8.716 2 2 8.716 2 17C2 25.284 8.716 32 17 32Z" fill="transparent" stroke="currentColor" stroke-width="2" stroke-linecap="round" stroke-linejoin="round" />
    </symbol>

    <symbol id="telephone" width="100%" height="100%" viewBox="0 0 24 24">
      <path d="M22.9999 15.7067V20.5228C23.0037 20.8769 22.9305 21.2276 22.7852 21.5508C22.6399 21.874 22.4261 22.162 22.1584 22.3949C21.8906 22.6279 21.5754 22.8003 21.2344 22.9003C20.8934 23.0003 20.5346 23.0254 20.1829 22.9741C15.307 22.3504 10.778 20.1283 7.30959 16.658C3.84118 13.1877 1.63054 8.66641 1.02599 3.80665C0.974611 3.45729 0.999598 3.10101 1.09925 2.76216C1.1989 2.42332 1.37085 2.10992 1.60336 1.8434C1.83586 1.57689 2.12341 1.36356 2.44635 1.218C2.76928 1.07244 3.11997 0.998087 3.47442 1.00004H8.23546C8.53957 0.998202 8.83359 1.10865 9.06076 1.31006C9.28793 1.51147 9.43215 1.78957 9.46558 2.09068C9.58782 3.69664 10.0048 5.26731 10.6963 6.72327C10.8149 6.99904 10.8277 7.30857 10.7325 7.59318C10.6373 7.87779 10.4405 8.11771 10.1796 8.26746L9.12129 8.86749C8.9688 8.95118 8.83586 9.06612 8.73124 9.20474C8.62663 9.34336 8.55271 9.5025 8.51437 9.67167C8.47603 9.84083 8.47414 10.0162 8.50882 10.1861C8.5435 10.3561 8.61397 10.5168 8.71558 10.6576C9.93235 12.4338 11.472 13.9675 13.2552 15.1796C13.3964 15.2809 13.5577 15.3511 13.7283 15.3857C13.8989 15.4203 14.0749 15.4185 14.2447 15.3803C14.4145 15.3421 14.5742 15.2684 14.7133 15.1641C14.8524 15.0599 14.9677 14.9274 15.0516 14.7754L15.654 13.7213C15.8133 13.4578 16.0662 13.2636 16.3626 13.1773C16.659 13.091 16.9771 13.1188 17.2538 13.2554C18.7157 13.9437 20.292 14.3592 21.9044 14.4813C22.2067 14.5146 22.4858 14.6583 22.688 14.8846C22.8902 15.1108 23.0017 15.4037 22.9999 15.7067Z" fill="transparent" stroke="currentColor" stroke-linecap="round" stroke-linejoin="round" />
    </symbol>

    <symbol id="email" width="100%" height="100%" viewBox="0 0 24 19">
      <path d="M5.9707 5.96973L11.4128 10.3055C11.632 10.4792 11.9035 10.5738 12.1833 10.5738C12.463 10.5738 12.7346 10.4792 12.9538 10.3055L18.3959 5.96973" fill="transparent" stroke="currentColor" stroke-linecap="round" stroke-linejoin="round" />
      <path d="M22.1223 1H2.24228C1.55643 1 1 1.55583 1 2.24228V17.152C1 17.8378 1.55643 18.3943 2.24228 18.3943H22.1223C22.8082 18.3943 23.3646 17.8384 23.3646 17.152V2.24228C23.3646 1.55643 22.8082 1 22.1223 1Z" fill="transparent" stroke="currentColor" stroke-linecap="round" stroke-linejoin="round" />
    </symbol>

    <symbol id="telegram" width="100%" height="100%" viewBox="0 0 26 22">
      <path d="M1.75741 8.71781L23.1182 1.15311C23.3502 1.02451 23.6171 0.974884 23.8797 1.01175C24.1424 1.04862 24.3859 1.16997 24.5734 1.35745C24.7609 1.54494 24.8822 1.78835 24.919 2.05088C24.9558 2.31341 24.9061 2.58077 24.7773 2.81254L21.0665 19.8887C20.9245 20.1544 20.702 20.3683 20.4308 20.4999C20.1597 20.6314 19.8539 20.6739 19.5572 20.6211C19.2605 20.5683 18.9881 20.4231 18.779 20.2061C18.57 19.9891 18.3054 19.77 18.3054 19.77L14 16.5L9.5 20.6211L10 15.1211L22 3.5L6.5 12.5L1.75741 11.2896C1.75741 11.2896 1.64695 11.2097 1.43149 10.9999C1.21603 10.7901 1.07236 10.5177 1.02098 10.2215C0.969605 9.92524 1.01315 9.62037 1.14539 9.35035C1.27764 9.08033 1.49183 8.85896 1.75741 8.71781Z" fill="transparent" stroke="currentColor" stroke-linecap="round" stroke-linejoin="round" />
    </symbol>

    <symbol id="arrow-bottom" width="100%" height="100%" viewBox="0 0 10 9">
      <path d="M9 4L5 8L1 4" fill="transparent" stroke="currentColor" stroke-linecap="round" stroke-linejoin="round" />
    </symbol>

    <symbol id="arrow-left" width="100%" height="100%" viewBox="0 0 53 60">
      <path d="M49 26C51.2091 26 53 27.7909 53 30C53 32.2091 51.2091 34 49 34V26ZM1.17157 32.8284C-0.390526 31.2663 -0.390526 28.7337 1.17157 27.1716L26.6274 1.71573C28.1895 0.153631 30.7222 0.153631 32.2843 1.71573C33.8464 3.27783 33.8464 5.81049 32.2843 7.37258L9.65685 30L32.2843 52.6274C33.8464 54.1895 33.8464 56.7222 32.2843 58.2843C30.7222 59.8464 28.1895 59.8464 26.6274 58.2843L1.17157 32.8284ZM49 34H4V26H49V34Z" fill="currentColor" />
    </symbol>

    <symbol id="arrow-right" width="100%" height="100%" viewBox="0 0 53 60">
      <path d="M4 26C1.79086 26 0 27.7909 0 30C0 32.2091 1.79086 34 4 34V26ZM51.8284 32.8284C53.3905 31.2663 53.3905 28.7337 51.8284 27.1716L26.3726 1.71573C24.8105 0.153631 22.2778 0.153631 20.7157 1.71573C19.1536 3.27783 19.1536 5.81049 20.7157 7.37258L43.3431 30L20.7157 52.6274C19.1536 54.1895 19.1536 56.7222 20.7157 58.2843C22.2778 59.8464 24.8105 59.8464 26.3726 58.2843L51.8284 32.8284ZM4 34H49V26H4V34Z" fill="currentColor" />
    </symbol>

    <symbol id="arrow-diagonal" width="100%" height="100%" viewBox="0 0 40 40">
      <path d="M10.7678 7.23223C9.79146 6.25592 8.20854 6.25592 7.23223 7.23223C6.25592 8.20854 6.25592 9.79146 7.23223 10.7678L10.7678 7.23223ZM34 36.5C35.3807 36.5 36.5 35.3807 36.5 34L36.5 11.5C36.5 10.1193 35.3807 9 34 9C32.6193 9 31.5 10.1193 31.5 11.5V31.5H11.5C10.1193 31.5 9 32.6193 9 34C9 35.3807 10.1193 36.5 11.5 36.5L34 36.5ZM7.23223 10.7678L32.2322 35.7678L35.7678 32.2322L10.7678 7.23223L7.23223 10.7678Z" fill="currentColor" />
    </symbol>

    <symbol id="folder" width="100%" height="100%" viewBox="0 0 148 148">
      <path d="M101.782 24H40.6699C39.1967 24 37.7839 24.5852 36.7422 25.6269C35.7005 26.6686 35.1152 28.0815 35.1152 29.5547V57.3333H57.3365L68.4485 68.4453H112.891V35.112M101.782 24L112.891 35.112M101.782 24V35.112H112.891" fill="transparent" stroke="currentColor" stroke-width="5" stroke-linecap="round" stroke-linejoin="round" />
      <path d="M68.4452 124H29.5547C28.0815 124 26.6686 123.415 25.6269 122.373C24.5852 121.331 24 119.919 24 118.445V62.8882C24 61.415 24.5852 60.0021 25.6269 58.9604C26.6686 57.9187 28.0815 57.3335 29.5547 57.3335H57.3333L68.4452 68.4455H118.445C119.918 68.4455 121.331 69.0307 122.373 70.0724C123.415 71.1141 124 72.5269 124 74.0001V79.5548" fill="transparent" stroke="currentColor" stroke-width="10" stroke-linecap="round" stroke-linejoin="round" />
      <path d="M105.001 85.9998L99.1097 98.484L86 100.493L95.5006 110.265L93.2662 124L105.001 117.485L116.731 124L114.499 110.267L124 100.496L110.89 98.484L105.001 85.9998Z" fill="transparent" stroke="currentColor" stroke-width="10" stroke-linecap="round" stroke-linejoin="round" />
    </symbol>

    <symbol id="user" width="100%" height="100%" viewBox="0 0 148 148">
      <path d="M74.4922 73.9985H99.4915C102.227 73.9985 104.937 74.5374 107.464 75.5844C109.992 76.6314 112.288 78.1659 114.223 80.1005C116.158 82.0351 117.692 84.3317 118.739 86.8594C119.786 89.387 120.325 92.0961 120.325 94.832C120.325 95.3792 120.217 95.9211 120.008 96.4267C119.798 96.9322 119.491 97.3916 119.104 97.7784C118.717 98.1653 118.258 98.4721 117.752 98.6813C117.246 98.8906 116.704 98.9981 116.157 98.9979H91.7143" fill="transparent" stroke="currentColor" stroke-width="5" stroke-linecap="round" stroke-linejoin="round" />
      <path d="M86.9927 57.3331C91.413 57.3331 95.6522 55.5772 98.7778 52.4516C101.903 49.326 103.659 45.0868 103.659 40.6666C103.659 36.2463 101.903 32.0071 98.7778 28.8815C95.6522 25.7559 91.413 24 86.9927 24C82.5725 24 78.3333 25.7559 75.2077 28.8815C72.0821 32.0071 70.3262 36.2463 70.3262 40.6666C70.3262 45.0868 72.0821 49.326 75.2077 52.4516C78.3333 55.5772 82.5725 57.3331 86.9927 57.3331Z" fill="transparent" stroke="currentColor" stroke-width="5" stroke-linecap="round" stroke-linejoin="round" />
      <path d="M57.6478 64.7079L48.4554 84.1873L28 87.3221L42.8239 102.569L39.3376 124L57.6478 113.835L75.951 124L72.4682 102.573L87.2921 87.3262L66.8368 84.1873L57.6478 64.7079Z" fill="transparent" stroke="currentColor" stroke-width="10" stroke-linecap="round" stroke-linejoin="round" />
    </symbol>

    <symbol id="hands" width="100%" height="100%" viewBox="0 0 148 148">
      <path d="M54.7695 37.8215L67.5911 50.64L93.2311 25" fill="transparent" stroke="currentColor" stroke-width="10" stroke-linecap="round" stroke-linejoin="round" />
      <path d="M108.254 106.588L110.526 104.952H115.323C115.323 104.952 124 104.293 124 88.8886C124 73.484 115.325 73.484 115.325 73.484H106.541L98.4436 67.454C95.8604 65.5167 92.8232 64.4838 89.7166 64.4862C87.5793 64.4878 85.4654 64.985 83.5071 65.9466L62.2351 76.122C61.1015 76.6666 60.1353 77.5731 59.4565 78.7287C58.7777 79.8845 58.4163 81.2387 58.4171 82.623C58.4167 83.9288 58.743 85.2084 59.3587 86.3161C59.9743 87.4238 60.8547 88.3151 61.8995 88.8886C63.7871 89.9571 65.8692 90.5214 67.9831 90.5374C69.1155 90.5462 70.244 90.3878 71.3397 90.0663L82.4162 86.9572L97.8562 113.008L89.4649 118.473C84.9097 121.418 79.7424 122.962 74.4858 122.948C69.2034 122.956 64.0107 121.413 59.4234 118.472L38.4451 104.952H32.3608C32.3608 104.952 23.9925 105.58 24 90.0663C24.0075 74.5531 32.3608 73.484 32.3608 73.484H42.4309L50.4867 67.454C53.0699 65.5167 56.1071 64.4838 59.2135 64.4862C61.3509 64.4878 63.4649 64.985 65.4231 65.9466L74.4858 70.2806" fill="transparent" stroke="currentColor" stroke-width="5" stroke-miterlimit="10" stroke-linecap="round" stroke-linejoin="round" />
    </symbol>

    <symbol id="lightning" width="100%" height="100%" viewBox="0 0 11 20">
      <path d="M4.5 12H1.55836C0.856749 12 0.505941 12 0.358372 11.77C0.210803 11.5401 0.356968 11.2212 0.6493 10.5833L3.59093 4.16523C4.33913 2.5328 4.71323 1.71659 5.10662 1.80244C5.5 1.8883 5.5 2.78616 5.5 4.58189V7C5.5 7.4714 5.5 7.70711 5.64645 7.85355C5.79289 8 6.0286 8 6.5 8H9.44164C10.1433 8 10.4941 8 10.6416 8.22997C10.7892 8.45993 10.643 8.77884 10.3507 9.41665L7.40907 15.8348C6.66087 17.4672 6.28677 18.2834 5.89338 18.1976C5.5 18.1117 5.5 17.2138 5.5 15.4181V13C5.5 12.5286 5.5 12.2929 5.35355 12.1464C5.20711 12 4.9714 12 4.5 12Z" fill="currentColor" />
    </symbol>

    <symbol id="experience" width="100%" height="100%" viewBox="0 0 140 140">
      <path d="M69.0001 71.2C73.4001 68.4 78.8001 66.9 84.4001 66.9H105.9C117 66.9 127.5 72.8 131 83.3C133.2 89.9 135.2 97.9 135.3 105.9C135.3 106.5 134.9 106.9 134.3 106.9H77.9001M118.1 26.9C118.1 39.5473 107.803 49.8 95.1001 49.8C82.3975 49.8 72.1001 39.5473 72.1001 26.9C72.1001 14.2527 82.3975 4 95.1001 4C107.803 4 118.1 14.2527 118.1 26.9ZM41 59.6C45.3 48.8 47.4 43.4 51.1 43.4C54.8 43.4 56.9001 48.8 61.2001 59.6L61.4001 60.1C63.8001 66.2 65 69.3 67.5 71.1C70 73 73.2001 73.3 79.7001 73.8L81.0001 74C91.6001 75 96.9001 75.4 98.1001 78.9C99.2001 82.3 95.3001 85.9 87.4001 93.2L84.8001 95.6C80.8001 99.3 78.8001 101.1 77.9001 103.5C77.7001 103.9 77.6001 104.4 77.5001 104.9C76.9001 107.4 77.5001 110.1 78.6001 115.4L79.0001 117.1C81.2001 126.9 82.2001 131.8 80.3001 133.9C79.6001 134.7 78.7001 135.3 77.7001 135.5C75.0001 136.2 71.1001 133.1 63.4001 126.7C58.3001 122.5 55.8001 120.5 52.9001 120C51.8001 119.8 50.6 119.8 49.5 120C46.6 120.5 44.1 122.5 39 126.7C31.3 133 27.5001 136.2 24.7001 135.5C23.7001 135.2 22.8 134.7 22.1 133.9C20.2 131.8 21.3 126.9 23.4 117.1L23.8 115.4C25 110.1 25.6 107.4 24.9 104.9C24.8 104.4 24.6 104 24.5 103.5C23.6 101.1 21.6001 99.3 17.6001 95.6L15.0001 93.2C7.00005 85.9 3.10005 82.2 4.20005 78.8C5.30005 75.4 10.7 74.9 21.3 73.9L22.5 73.8C29 73.2 32.2001 72.9 34.7001 71.1C37.2001 69.2 38.4 66.2 40.8 60.1L41 59.6Z" fill="transparent" stroke="currentColor" stroke-width="8" stroke-linecap="round" />
    </symbol>

    <symbol id="knowledge" width="100%" height="100%" viewBox="0 0 140 140">
      <path d="M53.6171 44.4823V3.97168M136.028 86.383H95.3192M118.653 26.2128L92.9362 49.844L81.1206 38.8227L68.9079 50.4398M106.837 20.7518H124.709V38.6242M24.5249 131.957H34.1561L44.1844 136.028H78.3405C81.4185 136.028 84.3972 134.936 86.6809 132.851C88.9646 130.766 90.3547 127.986 90.6525 124.908L94.3263 85.4894C94.3263 84.8937 94.3263 84.2979 94.3263 83.7022C94.3263 81.2199 93.3334 78.8369 91.5462 77.0497C89.7589 75.2625 87.3759 74.2696 84.8937 74.2696H64.8369L67.1206 69.6029C68.9079 65.9291 69.8015 61.9575 69.8015 57.8866C69.8015 56.2979 69.5036 54.7093 68.9079 53.2199C68.3121 51.7305 67.4185 50.3405 66.227 49.2483C65.0355 48.0568 63.7447 47.1632 62.2554 46.5674C60.766 45.9717 59.1774 45.6738 57.5887 45.6738C56.4965 45.6738 55.4043 45.8724 54.4114 46.2696C53.4185 46.6667 52.5249 47.2625 51.7305 48.0568C50.9362 48.8511 50.3405 49.7447 49.9433 50.7376C49.5461 51.7305 49.3476 52.8227 49.3476 53.9149C49.3476 59.5745 47.461 65.1348 43.9859 69.7022L33.7589 82.5107H24.5249M24.5249 78.4398H3.97168V136.028H24.5249V78.4398Z" fill="transparent" stroke="currentColor" stroke-width="8" stroke-miterlimit="10" stroke-linecap="round" stroke-linejoin="round" />
    </symbol>

    <symbol id="complexity" width="100%" height="100%" viewBox="0 0 140 140">
      <path d="M89.5545 34.1949L99.804 47.5844L114.247 28.2943M101.232 4.96484V19.2034M101.232 59.0958V73.3343M135.979 39.1494H121.505M80.9558 39.1494H66.4825M32.1965 112.195C32.1965 112.195 36.7792 92.7251 52.3978 88.4734C58.5438 87.4994 64.7883 87.2726 70.9906 87.7981C73.4771 83.6484 77.116 80.2835 81.4795 78.0991C85.843 75.9147 90.7497 75.0016 95.6227 75.4671C100.496 75.9324 105.132 77.7572 108.988 80.7267C112.842 83.6961 115.756 87.6869 117.384 92.2296C119.013 96.7724 119.29 101.679 118.182 106.37C117.074 111.063 114.628 115.346 111.131 118.717C107.633 122.088 103.23 124.406 98.4399 125.4C93.6493 126.393 88.67 126.02 84.0876 124.324C68.0293 132.01 35.9821 143.73 10.5215 128.909C-2.99578 121.039 7.15504 74.4337 17.7547 56.8065L30.4906 35.6265C32.0803 33.0011 34.6309 31.0738 37.6191 30.2405C40.6074 29.4071 43.8064 29.7309 46.5597 31.1452C54.8148 35.3975 65.0766 41.9249 64.3718 48.7094C63.4842 58.708 46.882 67.9213 38.0403 62.774C33.9318 69.6063 33.4744 89.3868 36.2288 102.059M101.231 67.6264C117.218 67.6264 130.177 54.8767 130.177 39.1493C130.177 23.4217 117.218 10.6721 101.231 10.6721C85.2435 10.6721 72.2837 23.4217 72.2837 39.1493C72.2837 54.8767 85.2435 67.6264 101.231 67.6264Z" fill="transparent" stroke="currentColor" stroke-width="8" stroke-miterlimit="10" stroke-linecap="round" stroke-linejoin="round" />
    </symbol>

    <symbol id="checkbox" width="100%" height="100%" viewBox="5992.41357421875 5220.8662109375 23.44384765625 23.44384765625">
      <path fill="currentColor" stroke="transparent" fill-opacity="1" stroke-width="1" stroke-opacity="1" font-size-adjust="none" id="tSvg6bd8b8afbc" title="Path 2" d="M 5998.34707453125 5224.55859125 C 5997.91676453125 5222.30304125 6000.84279453125 5221.02897425 6002.20084453125 5222.88056125C 6002.20084453125 5222.88056125 6002.20084453125 5222.88056125 6002.20084453125 5222.88056125C 6003.08104453125 5224.08058125 6004.88374453125 5224.04818125 6005.72024453125 5222.81732125C 6005.72024453125 5222.81732125 6005.72024453125 5222.81732125 6005.72024453125 5222.81732125C 6007.01084453125 5220.91812925 6009.98084453125 5222.08624125 6009.63184453125 5224.35580125C 6009.63184453125 5224.35580125 6009.63184453125 5224.35580125 6009.63184453125 5224.35580125C 6009.40564453125 5225.82670125 6010.70324453125 5227.07854125 6012.16514453125 5226.79966125C 6012.16514453125 5226.79966125 6012.16514453125 5226.79966125 6012.16514453125 5226.79966125C 6014.42064453125 5226.36935125 6015.69474453125 5229.29538125 6013.84314453125 5230.65348125C 6013.84314453125 5230.65348125 6013.84314453125 5230.65348125 6013.84314453125 5230.65348125C 6012.64314453125 5231.53358125 6012.67554453125 5233.33638125 6013.90634453125 5234.17278125C 6013.90634453125 5234.17278125 6013.90634453125 5234.17278125 6013.90634453125 5234.17278125C 6015.80554453125 5235.46348125 6014.63744453125 5238.43338125 6012.36794453125 5238.08438125C 6012.36794453125 5238.08438125 6012.36794453125 5238.08438125 6012.36794453125 5238.08438125C 6010.89704453125 5237.85818125 6009.64514453125 5239.15588125 6009.92404453125 5240.61768125C 6009.92404453125 5240.61768125 6009.92404453125 5240.61768125 6009.92404453125 5240.61768125C 6010.35434453125 5242.87328125 6007.42834453125 5244.14728125 6006.07024453125 5242.29578125C 6006.07024453125 5242.29578125 6006.07024453125 5242.29578125 6006.07024453125 5242.29578125C 6005.19014453125 5241.09568125 6003.38734453125 5241.12808125 6002.55084453125 5242.35898125C 6002.55084453125 5242.35898125 6002.55084453125 5242.35898125 6002.55084453125 5242.35898125C 6001.26024453125 5244.25818125 5998.29032453125 5243.09008125 5998.63931453125 5240.82048125C 5998.63931453125 5240.82048125 5998.63931453125 5240.82048125 5998.63931453125 5240.82048125C 5998.86549453125 5239.34958125 5997.56783453125 5238.09778125 5996.10600453125 5238.37668125C 5996.10600453125 5238.37668125 5996.10600453125 5238.37668125 5996.10600453125 5238.37668125C 5993.85045453125 5238.80698125 5992.57638653125 5235.88088125 5994.42797453125 5234.52288125C 5994.42797453125 5234.52288125 5994.42797453125 5234.52288125 5994.42797453125 5234.52288125C 5995.62799453125 5233.64268125 5995.59559453125 5231.83998125 5994.36473453125 5231.00348125C 5994.36473453125 5231.00348125 5994.36473453125 5231.00348125 5994.36473453125 5231.00348125C 5992.46554253125 5229.71283125 5993.63365453125 5226.74291125 5995.90321453125 5227.09190125C 5995.90321453125 5227.09190125 5995.90321453125 5227.09190125 5995.90321453125 5227.09190125C 5997.37411453125 5227.31808125 5998.62595453125 5226.02042125 5998.34707453125 5224.55859125C 5998.34707453125 5224.55859125 5998.34707453125 5224.55859125 5998.34707453125 5224.55859125Z"></path>
      <path fill="transparent" stroke="white" fill-opacity="1" stroke-width="1.38889" stroke-opacity="1" font-size-adjust="none" stroke-linecap="round" id="tSvgcf398573d2" title="Path 3" d="M 5999.99401453125 5234.00208125 C 6000.688457864583 5234.6965479166665 6001.382901197917 5235.391014583333 6002.07734453125 5236.08548125C 6004.160677864584 5234.0021379166665 6006.244011197917 5231.918794583334 6008.32734453125 5229.83545125"></path>
    </symbol>

  </defs>
</svg>