<svg width="148" height="148" viewBox="0 0 148 148" fill="none" xmlns="http://www.w3.org/2000/svg">
  <path d="M64.9663 128C57.071 128 49.7324 126.938 42.9506 124.815C36.2699 122.691 30.6015 119.657 25.9453 115.713L37.7883 97.6629C41.2298 100.697 45.4305 103.073 50.3904 104.792C55.4515 106.511 60.8162 107.371 66.4846 107.371C73.7726 107.371 79.3904 106.006 83.3381 103.275C87.2857 100.545 89.2595 96.7528 89.2595 91.8989C89.2595 88.1573 87.6906 85.2247 84.5527 83.1011C81.4149 80.8764 76.1007 79.764 68.6103 79.764H39.7621L57.071 20H122.055L117.956 39.7191H61.9297L77.1129 28.4944L64.6627 71.118L54.0344 59.8933H74.3799C87.64 59.8933 97.5597 62.4719 104.139 67.6292C110.82 72.7865 114.16 79.9157 114.16 89.0169C114.16 96.9045 112.034 103.781 107.783 109.646C103.633 115.511 97.8634 120.062 90.4742 123.298C83.085 126.433 74.5824 128 64.9663 128Z" fill="url(#paint0_linear_550_5066)" />
  <defs>
    <linearGradient id="paint0_linear_550_5066" x1="25.9453" y1="74" x2="122.152" y2="74.7315" gradientUnits="userSpaceOnUse">
      <stop stop-color="#2980BA" />
      <stop offset="1" stop-color="#7F4996" />
    </linearGradient>
  </defs>
</svg>