<svg width="148" height="148" viewBox="0 0 148 148" fill="none" xmlns="http://www.w3.org/2000/svg">
  <path d="M70.2481 128C62.0452 128 54.6926 126.409 48.1904 123.227C41.7881 119.945 36.7864 115.122 33.1851 108.757C29.5838 102.392 27.7832 94.5359 27.7832 85.1878C27.7832 79.3204 28.5335 73.3536 30.034 67.2873C31.5345 61.1215 33.8853 55.2044 37.0865 49.5359C40.2876 43.8674 44.339 38.8453 49.2407 34.4696C54.2425 29.9945 60.1946 26.4641 67.097 23.8784C73.9994 21.2928 81.9522 20 90.9554 20C96.6574 20 102.109 20.5967 107.311 21.79C112.613 22.9834 116.914 24.7238 120.216 27.011L109.262 44.7624C106.461 42.8729 103.36 41.5801 99.9585 40.884C96.6574 40.0884 93.1561 39.6906 89.4548 39.6906C84.8532 39.6906 80.7018 40.337 77.0005 41.6298C73.3992 42.8232 70.1981 44.5635 67.3971 46.8508C64.5961 49.0387 62.1953 51.6243 60.1946 54.6077C58.2939 57.5912 56.7934 60.8232 55.693 64.3039C54.5926 67.6851 53.8924 71.2155 53.5923 74.895C53.3922 77.3812 53.2421 79.3702 53.1421 80.8619C53.0421 82.2541 52.942 83.547 52.842 84.7403L45.7895 81.4586C47.9903 76.4862 50.6912 72.5083 53.8924 69.5249C57.0935 66.442 60.7948 64.2044 64.9963 62.8122C69.1977 61.4199 73.7493 60.7238 78.6511 60.7238C84.5531 60.7238 90.0551 61.9171 95.1569 64.3039C100.259 66.5912 104.36 69.9724 107.461 74.4475C110.662 78.9226 112.263 84.3923 112.263 90.8563C112.263 98.4144 110.412 104.978 106.711 110.547C103.11 116.116 98.1579 120.442 91.8557 123.525C85.5535 126.508 78.351 128 70.2481 128ZM69.948 109.95C75.1498 109.95 79.5014 108.459 83.0026 105.475C86.5038 102.492 88.2544 98.3149 88.2544 92.9448C88.2544 88.4696 86.7039 84.9889 83.6028 82.5028C80.6017 80.0166 76.6003 78.7735 71.5986 78.7735C67.7972 78.7735 64.4961 79.4696 61.6951 80.8619C58.8941 82.2541 56.6933 84.1934 55.0928 86.6796C53.4922 89.1657 52.6919 92 52.6919 95.1823C52.6919 97.768 53.3422 100.204 54.6426 102.492C55.9431 104.68 57.8938 106.47 60.4947 107.862C63.0956 109.254 66.2467 109.95 69.948 109.95Z" fill="url(#paint0_linear_550_5070)" />
  <defs>
    <linearGradient id="paint0_linear_550_5070" x1="27.7832" y1="74" x2="120.309" y2="74.6766" gradientUnits="userSpaceOnUse">
      <stop stop-color="#2980BA" />
      <stop offset="1" stop-color="#7F4996" />
    </linearGradient>
  </defs>
</svg>